<svg width="11px" height="13px" viewBox="0 0 11 13" version="1.1" xmlns="http://www.w3.org/2000/svg"
     xmlns:xlink="http://www.w3.org/1999/xlink">
    <!-- Generator: Sketch 50 (54983) - http://www.bohemiancoding.com/sketch -->
    <desc>Created with Sketch.</desc>
    <defs></defs>
    <g id="Page-1" stroke="none" stroke-width="1" fill="none" fill-rule="evenodd">
        <g transform="translate(-150.000000, -657.000000)" fill="#FFD700" class="g-arrow">
            <g id="1_block" transform="translate(-241.000000, -166.000000)">
                <g id="button-small-normal" transform="translate(378.000000, 803.000000)">
                    <path d="M19.6496132,26.9021809 L13.717005,32.834789 C13.5688707,32.9829233 13.3286976,32.9829233 13.1805634,32.834789 C13.0324291,32.6866548 13.0324291,32.4464817 13.1805634,32.2983474 L18.9789533,26.4999575 L13.1805634,20.7015675 C13.0324291,20.5534332 13.0324291,20.3132601 13.1805634,20.1651259 C13.3286976,20.0169916 13.5688707,20.0169916 13.717005,20.1651259 L19.8194366,26.2675575 C19.9675709,26.4156918 19.9675709,26.6558648 19.8194366,26.8039991 C19.7706264,26.8528093 19.7118235,26.8855366 19.6496132,26.9021809 Z"
                          id="Combined-Shape"></path>
                    <path d="M23.689487,26.1519468 C23.7231057,26.169367 23.7546555,26.1921774 23.7828563,26.2203782 C23.8139838,26.2515057 23.8385441,26.2867135 23.8565372,26.32428 C23.9678932,26.4722849 23.9562023,26.6834743 23.8214645,26.8182121 C23.7627322,26.8769444 23.6894734,26.9122967 23.6132534,26.9242688 L17.7128233,32.824699 C17.5652838,32.9722385 17.326075,32.9722385 17.1785355,32.824699 C17.030996,32.6771595 17.030996,32.4379507 17.1785355,32.2904112 L22.9689556,26.499991 L17.1785355,20.7095709 C17.030996,20.5620314 17.030996,20.3228226 17.1785355,20.1752831 C17.326075,20.0277436 17.5652838,20.0277436 17.7128233,20.1752831 L23.689487,26.1519468 Z"
                          id="Combined-Shape-Copy"></path>
                </g>
            </g>
        </g>
    </g>
</svg>
