<svg width="111px" height="32px" viewBox="0 0 111 32" version="1.1" xmlns="http://www.w3.org/2000/svg"
     xmlns:xlink="http://www.w3.org/1999/xlink">
    <!-- Generator: Sketch 50 (54983) - http://www.bohemiancoding.com/sketch -->
    <desc>Created with Sketch.</desc>
    <defs>
        <polygon id="path-1" points="0 0.144368406 110.965232 0.144368406 110.965232 31.3191489 0 31.3191489"></polygon>
    </defs>
    <g id="Page-1" stroke="none" stroke-width="1" fill="none" fill-rule="evenodd">
        <g id="Desktop-HD" transform="translate(-566.000000, -5778.000000)">
            <g id="Group-11" transform="translate(0.000000, 5490.000000)">
                <g id="partners" transform="translate(136.000000, 63.000000)">
                    <g id="Page-1-Copy-2" transform="translate(430.000000, 225.000000)">
                        <g id="Group-3">
                            <mask id="mask-2" fill="white">
                                <use xlink:href="#path-1"></use>
                            </mask>
                            <g id="Clip-2"></g>
                            <path d="M11.5999642,0.292297756 C1.77868418,5.22184599 -5.41290491,18.6155015 5.38719327,25.6103974 C13.6938278,30.9891395 26.7526751,31.2390491 36.7107878,31.3130567 C48.9956624,31.4055126 61.3156533,30.4528527 73.4320096,28.7744895 C82.2389515,27.5530427 91.1722315,25.9004213 99.2158969,22.557853 C105.522311,19.9399154 111.816011,15.5460104 110.870493,9.04835955 C110.084613,3.63851285 102.13883,2.17273378 96.8953915,1.36487135 C87.6868315,-0.0537144856 78.0112642,0.219362751 68.7213715,0.802842786 C60.3473296,1.3277603 51.6568369,2.16372416 43.6289133,4.33847438 C42.3368733,4.68899143 42.700146,5.89692381 44.0131751,5.54297453 C56.2720151,2.2197125 70.0979733,1.53476701 82.8916315,1.69415144 C91.1948351,1.79819108 111.042644,1.7707332 108.599231,12.6704406 C107.419201,17.9307705 100.178973,20.9496361 94.9329115,22.8114094 C90.4917005,24.3883071 85.7721824,25.4477953 81.057306,26.2633802 C70.7106933,28.0565088 60.2611533,29.1951529 49.7127224,29.7430235 C37.5913205,30.3709081 24.289686,30.6439853 12.7111751,27.0933377 C8.62920055,25.8425024 4.59061691,23.7123712 2.94115691,20.1801718 C-0.429610364,12.9621806 5.83664236,4.68899143 13.0132969,1.08557319 C14.2611387,0.459404722 12.4651587,-0.142738094 11.5999642,0.292297756"
                                  id="Fill-1" fill="#CBCBCB" mask="url(#mask-2)"></path>
                        </g>
                        <path d="M72.9824948,24.6692508 C72.6430335,24.7673026 72.3943946,24.8443433 72.1416542,24.9089087 C71.2986651,25.1174876 70.5947418,25.0176849 70.1720754,24.0794081 C69.336313,22.2225523 68.4665654,20.382987 67.5917396,18.4961467 C67.692328,18.474479 67.630803,18.474479 67.5806065,18.4989919 C66.1631895,19.2621763 65.6416925,20.4455826 65.9922869,22.0673766 C66.0635777,22.3967694 66.0124046,22.7570221 66.0012715,23.1002034 C65.9696301,24.0240351 64.6332697,24.9504931 63.7828586,24.6565566 C62.815843,24.318847 63.0855761,23.3361405 63.0678022,22.7443279 C62.9625262,19.0789858 63.0119415,15.4079531 63.0094024,11.7388903 C63.0094024,11.5718958 63.0242465,11.4031504 63.0451454,11 C63.8510243,11.1779377 64.6033862,11.2860573 65.3186378,11.5156473 C65.8350566,11.680672 66.0862345,12.0302004 66.0376005,12.7316646 C65.930762,14.2098828 66.0043966,15.7010142 66.0043966,17.4136374 C66.516323,16.7701726 69.7023374,13.4812793 70.0845732,11.5880919 L72.8737031,11.5880919 C72.1725143,12.6881103 71.7627388,13.8161436 70.9787355,14.4532614 C69.4464719,15.7010142 70.1625048,16.96168 70.6459149,18.2567077 C71.3933939,20.2569204 72.2033744,22.2326202 72.9783931,24.224516 C73.024488,24.3424845 72.9824948,24.4976602 72.9824948,24.6692508"
                              id="Fill-4" fill="#CBCBCB"></path>
                        <path d="M34.8506009,19.0216799 C35.1240862,18.1768946 35.3812763,17.5302608 35.5434435,16.8553813 C35.8601211,15.5394741 36.0994453,14.2009271 36.4194605,12.8867448 C36.5307787,12.4298535 36.7367271,11.9792151 36.9842971,11.5902431 C37.2758447,11.1344299 37.6484758,11.1818655 38.0052044,11.5572537 C38.3169738,11.8871469 38.6807701,12.1553738 39,12.4326566 C38.8890745,13.0083525 38.7932663,13.7440358 38.6042021,14.4486704 C38.1557882,16.1106421 37.7796231,17.8120715 37.1560844,19.3936183 C36.6896083,20.5710997 36.1457788,21.7022237 35.8958529,22.9715577 C35.862477,23.1362887 35.6312023,23.354277 35.4774772,23.3730356 C34.7473322,23.4491482 34.010512,23.5017586 33.2819375,23.4704942 C33.1329243,23.4633789 32.9473941,23.0735443 32.8682738,22.828604 C32.479151,21.627836 32.1226188,20.4154246 31.7497913,19.2094818 C31.6985496,19.0477695 31.6170734,18.8957599 31.4892636,18.6033839 C31.2685906,19.1021048 31.0773668,19.4919394 30.9210894,19.9005325 C30.6091237,20.7106036 30.3218954,21.5329647 30.0116966,22.3438982 C29.658502,23.2639337 28.7987803,23.5062866 28.1100605,23.949594 C27.7812106,24.1606825 27.293531,23.6744674 27.1959558,23.1289578 C26.7913231,20.8634756 26.4241892,18.5900157 25.986966,16.3322958 C25.7101431,14.8947809 25.3225909,13.4820619 25.0108216,12.0525247 C24.9709669,11.8746412 25.045179,11.5725625 25.1680806,11.4651855 C26.2009639,10.549678 27.6412285,11.0440866 28.0018836,12.435244 C28.5082143,14.3762233 28.9958939,16.324318 29.4849478,18.2724127 C29.5405087,18.4951445 29.552681,18.732107 29.5868422,18.9628166 C29.6390655,18.9779097 29.6910925,18.994081 29.7423342,19.0100366 C30.0240653,18.1840099 30.3187541,17.3642362 30.5806561,16.5308786 C30.9568212,15.330973 31.4998653,14.8697694 32.6493677,14.8501483 C33.2240207,14.8430329 33.6100022,15.0368721 33.7906242,15.7460347 C34.0542932,16.793715 34.4485205,17.8021532 34.8506009,19.0216799"
                              id="Fill-6" fill="#CBCBCB"></path>
                        <path d="M78.797377,11.7880296 C78.6142441,11.2477408 78.8438869,11.0541484 79.1878666,11.0293686 C80.0446184,10.9614453 80.7980794,11.3955348 81.4298393,12.0274204 C81.6941708,12.2898211 81.7151003,12.9155118 81.8716837,13.3622125 C82.4656543,15.0467984 83.1317154,16.6968696 83.6555335,18.4135365 C84.1665614,20.0859538 84.5434857,21.8207631 84.9653696,23.5325626 C85.0762183,23.9876707 84.9196348,24.2655588 84.5146108,24.2168841 C83.9739328,24.1536071 83.486935,24.2978611 83.0063323,24.6306188 C82.6921965,24.8481061 82.1385345,24.3381283 82.0340809,23.8170881 C81.9168371,23.2197173 81.7544399,22.63363 81.6868067,22.0289579 C81.6009571,21.2831293 81.279651,21.0638721 80.7130049,21.1107768 C80.1601181,21.1585664 79.4570429,21.1446278 78.9018305,21.117193 C78.5652149,21.0997143 78.463862,21.2831293 78.4125073,21.6685442 C78.3088289,22.4143728 78.3489437,23.1628564 78.1505013,23.873949 C78.076473,24.1471909 77.7656316,24.3655631 77.5222296,24.5069409 C77.2104192,24.6885859 76.8623699,24.8023076 76.5216846,24.8903645 C76.2579345,24.9565178 75.8852736,25.081302 75.732566,24.9235518 C75.4802496,24.6620361 75.2527385,24.206928 75.2240574,23.8115569 C75.1821985,23.2124161 75.3163021,22.5951328 75.381416,21.9840445 C75.5027294,20.8831121 75.5044736,20.8839971 74.6486907,20.8408536 C73.4867175,20.7839927 72.704963,19.2803881 73.1064988,17.9263474 C73.8748817,17.9263474 74.6326061,17.9327636 75.3918807,17.9234712 C75.7943855,17.9172762 76.0249972,17.7161613 76.1030952,17.1548539 C76.3480475,15.4136284 76.6189679,13.6779341 76.9251583,11.951311 C77.1082912,10.9311342 77.6346286,10.7340018 78.3448741,11.3477451 C78.500101,11.4833704 78.6471886,11.6411206 78.797377,11.7880296 M80.6343256,17.9234712 C80.2269761,16.5145608 79.819239,15.0979068 79.3824332,13.5823548 C79.3824332,14.2007443 79.2649956,14.6934646 79.230307,15.1742376 C79.1942618,15.6842153 79.0793435,16.1860069 79.0425231,16.6962059 C79.0062841,17.1630401 78.9130704,17.613502 78.9072567,18.0843188 C79.3413494,18.0732564 81.1517487,18.0741414 80.720369,18.0843188 C80.6591309,18.0843188 80.720369,18.0843188 80.6343256,17.9234712"
                              id="Fill-8" fill="#CBCBCB"></path>
                        <path d="M54.8771767,17.6152645 C55.3067897,17.3935498 55.5360775,17.2642162 55.7754218,17.1555073 C56.7686002,16.6968242 57.3025994,15.6795577 57.1706584,14.4955754 C57.0348959,13.2948357 56.386856,12.6354923 55.2042136,12.4939128 C54.9224309,12.4619017 54.6412516,12.4341873 54.3560497,12.4021762 C54.4135728,13.1102883 54.5002597,13.7900415 54.5209761,14.4715134 C54.6060539,17.1903113 54.6955566,19.9101834 54.7253238,22.6296259 C54.7404085,23.7147818 54.4594304,23.8787046 53.4744984,23.6782591 C53.2176558,23.6256233 52.9274257,23.6159555 52.6838576,23.6978095 C51.9274089,23.9480979 51.3980356,23.5188479 51.4145283,22.6493912 C51.474666,19.5696623 51.5512964,16.4864961 51.5695992,13.4052633 C51.5748286,12.7272289 51.7047584,11.9273802 51,11.4534436 C51.0042237,11.3840503 51.009252,11.3144422 51.0116655,11.2448341 C51.4253893,11.1576091 51.8431356,10.9687649 52.2468028,11.0044283 C53.5521344,11.114856 54.8614886,11.2413967 56.1499253,11.4854547 C57.6909808,11.7784962 59.0663056,12.4777998 59.9561032,14.0386111 C60.7618287,15.4621398 60.4949296,17.5458712 59.1455506,18.5231776 C59.0614784,18.5826882 58.9838424,18.6531557 58.8687962,18.7431735 C59.8919429,20.5727495 60.9110669,22.3812711 61.9151063,24.1986011 C61.9885186,24.3322315 62.0227106,24.6555654 61.9836915,24.6759752 C61.7141777,24.8212069 61.3931747,25.0493668 61.1371367,24.9905007 C59.6059365,24.6295698 58.226388,23.990851 57.6177696,22.1488144 C57.5043325,21.8039965 57.3140638,21.4931232 57.1624121,21.1616254 C56.5885891,19.9091092 56.1533445,18.5541145 54.8771767,17.6152645"
                              id="Fill-10" fill="#CBCBCB"></path>
                        <path d="M19.3366397,15.8549758 C20.4526561,15.8549758 21.4417529,15.7626166 22.4034965,15.8776419 C23.56481,16.015757 24.1311336,17.4324964 23.4661191,18.3668919 C23.3834026,18.4804344 23.1212482,18.5234365 22.9459679,18.5198354 C21.8734981,18.4891196 20.8029977,18.4355258 19.6486866,18.3853214 C19.7049251,19.3218353 19.7423445,20.195011 19.8292187,21.0618318 C19.84016,21.170714 20.1141311,21.3261994 20.2738746,21.3359438 C21.5268765,21.4035185 22.7827232,21.435929 24.0348498,21.4922765 C24.4795057,21.5124007 24.9322583,21.5327367 25.3685988,21.6047599 C26.0185142,21.7144894 26.1655658,22.1360371 25.8150053,22.6832019 C25.6255014,22.9818865 25.5412531,23.3472985 25.3252711,23.6239524 C25.1790948,23.8101536 24.8895871,24.0033454 24.6655085,23.999956 C23.8179925,23.9912709 22.9704765,23.8823887 22.118584,23.8523084 C20.6095548,23.7978673 19.1033704,23.7654569 17.5906211,23.7442736 C16.9402681,23.7355884 16.7061235,23.3877586 16.6571063,22.598045 C16.5264667,20.4723005 16.3205507,18.3520636 16.1772192,16.2256836 C16.0754648,14.7631883 15.972835,13.2962445 16.0065344,11.8337492 C16.0148498,11.5403605 16.6343483,11.0205222 16.982064,11.0133199 C18.805766,10.9686231 20.6349387,11.0459422 22.4606102,11.1046199 C23.8961137,11.1503758 24.6309338,12.1438728 24.1845273,13.4657109 C24.1328842,13.6169597 23.7228029,13.7336797 23.4831876,13.7300786 C22.253819,13.7116491 21.0216056,13.6563607 19.792237,13.5955646 C19.3202277,13.5728985 19.0679205,13.6633512 19.1679243,14.2060674 C19.2677093,14.7436997 19.2839025,15.2944656 19.3366397,15.8549758"
                              id="Fill-12" fill="#CBCBCB"></path>
                        <path d="M6.00414269,10.8986774 C6.00779243,10.7430853 6.15807591,10.498359 6.29268696,10.4527815 C8.33203371,9.73027751 11.9794136,9.70805008 13.6207239,11.6182626 C14.968552,13.189675 15.6772459,15.076762 15.9282193,17.1304425 C16.1143561,18.6657074 15.9584907,20.1868274 15.2240339,21.5945651 C14.5608544,22.8736531 13.6297409,23.6742899 12.1661945,23.7254804 C11.3400648,23.7542189 10.5147938,23.8846648 9.68952287,23.9843515 C8.98361992,24.0689953 8.47716461,23.8121449 8.08535412,23.1677738 C7.94752271,22.9443768 7.57889882,22.7748645 7.3075298,22.7600462 C6.52305006,22.7117745 6.18298003,22.4443717 6.15549962,21.6756167 C6.06468546,19.2725838 5.98009734,12.0875085 6.00414269,10.8986774 M10.4454487,12.4514547 C10.4426578,12.4766009 9.2880513,12.2224447 9.22321472,13.1274831 C9.18478509,13.6737392 9.10749644,14.2240367 9.10749644,14.7705173 C9.10663768,16.4360035 9.12875082,18.1044084 9.16095442,19.7707927 C9.17963251,20.7463302 9.32111367,20.875878 10.2318315,20.835689 C10.6706593,20.8170539 11.1077695,20.7528413 11.5440209,20.726797 C13.0794887,20.6280084 13.9474831,19.8136759 14.4165822,18.3390314 C14.7201548,17.3884155 14.477125,16.3037615 14.2937792,15.3607793 C14.0694274,14.2119126 13.2005742,12.4114902 10.4454487,12.4514547"
                              id="Fill-14" fill="#CBCBCB"></path>
                        <path d="M89.3291477,12.3802325 C89.3291477,12.6980814 89.2893843,12.9531232 89.33754,13.180126 C89.623277,14.5928376 89.9381872,15.9992685 90.2315172,17.4122044 C90.4974725,18.6842728 90.7708209,19.9558927 91.0002098,21.2367093 C91.1824421,22.2465581 91.720347,22.8290941 92.6177211,23.2279193 C92.7186283,22.7824374 92.8594986,22.3907902 92.8860742,21.9881517 C92.9424223,21.1445174 93.7908415,20.8840922 94.4578276,21.020922 C94.9773495,21.1279184 95.0650688,21.4839002 94.9621635,22.3860796 C94.7685417,24.0753668 94.1155426,24.4194601 92.8726865,24.8016863 C91.5646903,25.2016331 90.3589999,24.9533206 89.1269338,24.4425642 C88.2519391,24.0789558 87.7763768,23.338729 87.5793581,22.3919117 C87.0630333,19.8787297 86.9157688,17.3153019 87.0432515,14.7435747 C87.0888096,13.831077 87.243667,12.9262058 87.8469118,12.2025781 C88.9878618,10.8315884 90.3506076,10.8091573 91.8032707,11.2678736 C92.219088,11.3997685 92.6177211,11.6007513 93.0335384,11.7402728 C93.8140201,12.0006981 94.1295298,12.6805851 94.2266404,13.5150226 C94.3209536,14.2812694 93.1106675,15.7025048 92.4684585,15.555581 C91.9117708,15.4290696 91.7037623,14.8644784 91.5968607,14.2830639 C91.4989508,13.7530167 91.5926645,13.0367912 91.322713,12.7290363 C91.0517623,12.4201599 90.4343306,12.5112302 89.9647627,12.4367589 C89.7807321,12.4062526 89.5933046,12.4024393 89.3291477,12.3802325"
                              id="Fill-16" fill="#CBCBCB"></path>
                        <path d="M99.0089807,15.0849136 C99.5629087,14.1293132 100.026084,13.2973344 100.522925,12.4846648 C100.898274,11.8762121 101.299762,11.2644012 102.061962,11.0450728 C102.352205,10.9615391 102.686151,11.0207263 102.996467,11.0154792 C102.98183,11.2939948 103.038916,11.5995854 102.941263,11.847458 C102.248278,13.5533925 101.488587,15.2337211 100.830732,16.9507793 C100.665119,17.3869176 100.769045,18.6113789 100.786401,19.1022968 C100.822786,20.2056552 100.893047,21.3092235 100.914794,22.4117424 C100.918349,22.5762912 100.765491,22.8008668 100.614933,22.9018208 C100.067487,23.2630306 99.5085405,23.60682 98.9249192,23.9105217 C98.4218046,24.1724565 97.9345822,23.8383217 97.8871146,23.1820155 C97.8323282,22.4362988 97.7672955,21.6842857 97.8304462,20.9419271 C97.9755674,19.2431287 97.2729635,17.1195258 96.4267021,15.7063791 C95.5988422,14.3322707 94.8071581,12.9424211 94,11.553411 C94.9639894,10.7067403 96.7911779,11.0242943 97.3770994,12.1494806 C97.6269838,12.6334723 97.9243359,13.0973152 98.1922036,13.5741709 C98.4454338,14.0319272 98.689045,14.494091 99.0089807,15.0849136"
                              id="Fill-18" fill="#CBCBCB"></path>
                        <path d="M47.9952466,18.7482059 L47.9952466,22.5285615 C47.9952466,22.8993808 47.8069721,23.1403495 47.4956028,23.2710516 C47.2756465,23.3645014 47.0429771,23.4219763 46.8137383,23.4907333 C46.6847914,23.5296884 46.5175036,23.5198964 46.4289157,23.6029157 C45.9034421,24.08315 45.300883,24.0273781 44.6783461,23.9454233 C44.1377379,23.8711317 43.5888562,23.862404 43.0516785,23.7776818 C42.2586251,23.6548559 41.5672763,23.2438042 40.892071,22.8225348 C40.538123,22.6020016 40.2628749,22.2682217 40.2100047,21.7943734 C40.1732781,21.4737914 40.0873135,21.1542738 40.0796453,20.8347562 C40.0419097,18.7066963 40.0136584,16.5777849 40.0001382,14.451428 C39.9977166,13.9835401 40.0269769,13.5105433 40.0998248,13.0505315 C40.2812383,11.9199798 41.1130363,11.1219307 42.1990957,11.0259264 C42.6065193,10.988887 43.0232255,10.9950603 43.4316581,11.0223076 C44.111101,11.0708419 44.7871135,11.2085687 45.4657493,11.2102717 C46.6722802,11.2119746 47.7641916,12.2616359 47.8880936,13.7798236 C47.9952466,15.1134532 47.9952466,16.4436769 47.9984753,17.7756036 C48.0019058,18.1004429 47.9984753,18.4244309 47.9984753,18.7482059 L47.9952466,18.7482059 M44.6507002,12.1617999 C43.2835407,12.3665807 42.9572386,12.747192 42.9471489,14.1018957 C42.9412968,14.8133067 42.9764091,16.5963046 42.9846827,16.7763925 C43.0149519,17.4577889 43.0567234,18.1374823 43.0692347,18.8188787 C43.0843693,19.6469424 43.0692347,20.4756447 43.0760957,21.3034956 C43.0785172,21.7315768 43.0567234,22.1711531 43.3898866,22.5543188 C43.9252481,22.616051 44.4791747,22.8482921 45.0817338,22.5694325 C45.2022053,20.9354436 45.0665992,13.5377906 44.9309932,12.6905686 C44.8993114,12.4981343 44.7394899,12.3259226 44.6507002,12.1617999"
                              id="Fill-20" fill="#CBCBCB"></path>
                    </g>
                </g>
            </g>
        </g>
    </g>
</svg>
