<?xml version="1.0" encoding="utf-8"?>
<!-- Generator: Adobe Illustrator 20.1.0, SVG Export Plug-In . SVG Version: 6.00 Build 0)  -->
<svg version="1.1" id="Layer_1" xmlns="http://www.w3.org/2000/svg" xmlns:xlink="http://www.w3.org/1999/xlink" x="0px" y="0px"
	 viewBox="0 0 534.2 486.4" enable-background="new 0 0 534.2 486.4" xml:space="preserve">
<g>
	<path fill-rule="evenodd" clip-rule="evenodd" fill="#ED1C24" d="M209.5,154l52.9,173.8l-68-147.7L209.5,154L209.5,154z
		 M140.9,272.9l-9.8,16.9l123.7,51.3L140.9,272.9L140.9,272.9L140.9,272.9z M182.4,200.9l-12.2,21.2l89.1,111.2L182.4,200.9
		L182.4,200.9L182.4,200.9z M160.5,238.9l-10.1,17.6l106.5,80.9L160.5,238.9L160.5,238.9L160.5,238.9z M96.2,350.5l0.1-0.1
		l10.7-18.7l159,18.8H96.2L96.2,350.5L96.2,350.5z M269.9,315.5L269.9,315.5L269.8,47l29.3,51L269.9,315.5L269.9,315.5z M266,321.6
		L246,90.6l-21.6,37.5L266,321.6L266,321.6L266,321.6z M443.7,350.5L443.7,350.5H273.8l159-18.8l10.7,18.7L443.7,350.5L443.7,350.5z
		 M426.2,320.1l-9.6-16.7L287.2,345L426.2,320.1L426.2,320.1L426.2,320.1z M332.6,156.6l-18.9-33l-39.8,198.1L332.6,156.6
		L332.6,156.6L332.6,156.6z M357.4,200l-13.4-23.4l-66.7,151.1L357.4,200L357.4,200L357.4,200z M410.7,293l-9.4-16.4l-116.2,64.6
		L410.7,293L410.7,293L410.7,293z M377.8,235.5l-11.5-20.1l-85.8,117.8L377.8,235.5L377.8,235.5L377.8,235.5z M394.7,265.1
		l-9.4-16.3l-102.5,88.7L394.7,265.1L394.7,265.1L394.7,265.1z M113.7,320.1l139,24.9l-129.4-41.6L113.7,320.1L113.7,320.1z"/>
	<path fill-rule="evenodd" clip-rule="evenodd" fill="#0066B3" d="M47.4,389.1c-0.2-0.6-0.4-1.2-0.5-1.7c-0.1-0.5-0.3-1-0.4-1.5
		c-0.1-0.4,0-0.8,0.1-1.1c0.1-0.3,0.3-0.6,0.6-0.8c0.3-0.3,0.8-0.6,1.4-0.9c0.4-0.2,1-0.5,1.8-0.9c0.8-0.4,1.7-0.8,2.8-1.3
		c1.1-0.5,2.2-1,3.5-1.6c1.3-0.6,2.6-1.2,4-1.9c1.2-0.6,2.5-1.2,3.7-1.7c1.2-0.6,2.3-1.1,3.3-1.5c1-0.5,1.9-0.9,2.6-1.2
		c0.7-0.3,1.2-0.5,1.4-0.6c0.8-0.3,1.5-0.5,2.1-0.6c0.5-0.1,1-0.1,1.4,0.1c0.4,0.2,0.8,0.5,1.1,0.9l1.7,2.4c0.1,0,0.2,0,0.4-0.1
		c0.2-0.1,0.4-0.1,0.6-0.3c0.2-0.1,0.4-0.2,0.6-0.3c0.2-0.1,0.3-0.2,0.3-0.3c-0.3-0.6-0.7-1.5-1.4-2.9c-0.7-1.3-1.5-3.1-2.6-5.3
		c-0.8-1.7-1.5-3.2-2-4.4c-0.5-1.2-1-2.2-1.3-2.9c-0.3-0.8-0.5-1.3-0.7-1.6c-0.1,0-0.3,0-0.6,0c-0.3,0.1-0.6,0.1-0.9,0.3
		c-0.3,0.1-0.5,0.2-0.5,0.4c0.2,0.6,0.3,1.2,0.5,1.9c0.1,0.6,0.3,1.1,0.3,1.6c0.1,0.5,0,0.9-0.1,1.3c-0.2,0.3-0.4,0.6-0.8,0.9
		c-0.4,0.2-0.8,0.5-1.4,0.7c-0.8,0.4-1.8,0.9-2.9,1.4c-1.1,0.5-2.2,1-3.4,1.6c-1.2,0.6-2.4,1.1-3.6,1.7c0,0-0.1,0-0.2,0
		c-0.1,0-0.2,0-0.2,0c0,0-0.1-0.1-0.2-0.3c-0.1-0.2-0.3-0.5-0.5-0.9c-0.2-0.5-0.6-1.2-1-2.1c-0.5-0.9-1.1-2.2-1.8-3.8
		c-0.4-0.8-0.8-1.7-1.2-2.5c-0.4-0.8-0.7-1.6-1-2.3c-0.3-0.7-0.5-1.2-0.7-1.6c0-0.1,0-0.2,0-0.3c0.1-0.1,0.1-0.2,0.2-0.2
		c1.2-0.6,2.5-1.2,3.7-1.7c1.2-0.6,2.4-1.1,3.5-1.6c1.1-0.5,2.1-1,3-1.3c0.9-0.4,1.6-0.6,2.2-0.5c0.5,0,1,0.3,1.3,0.7
		c0.3,0.3,0.5,0.7,0.8,1.1c0.3,0.4,0.6,0.8,0.9,1.4c0.2,0,0.4,0,0.7-0.1c0.3-0.1,0.6-0.2,0.8-0.4c0.2-0.2,0.4-0.3,0.4-0.4
		c-0.2-0.4-0.5-1.1-0.9-1.9c-0.4-0.8-0.9-1.8-1.5-3c-0.6-1.1-1.1-2.3-1.7-3.6c-0.9-2-1.7-3.7-2.3-5.2c-0.6-1.4-1.1-2.5-1.4-3.2
		c-0.1-0.1-0.2-0.1-0.4,0c-0.2,0-0.4,0.1-0.7,0.2c-0.2,0.1-0.4,0.2-0.6,0.2c-0.2,0.1-0.3,0.2-0.4,0.2c0.2,0.7,0.3,1.3,0.5,1.7
		c0.1,0.5,0.2,0.9,0.3,1.2c0.1,0.4,0.1,0.7,0.2,1c0,0.5-0.2,1-0.6,1.4c-0.4,0.4-1,0.8-1.7,1.1c-0.6,0.3-1.3,0.7-2.1,1.1
		c-0.8,0.4-1.7,0.8-2.6,1.3c-0.9,0.5-1.9,0.9-2.9,1.4c-1,0.5-2,0.9-2.9,1.4c-1.7,0.8-3.2,1.5-4.4,2.1c-1.2,0.6-2.3,1.1-3.3,1.5
		c-1,0.4-1.9,0.8-2.7,1.2c-0.9,0.4-1.7,0.8-2.7,1.2c-0.6,0.3-1.1,0.4-1.5,0.5c-0.4,0.1-0.7,0.1-1-0.1c-0.3-0.1-0.6-0.3-0.8-0.6
		c-0.3-0.3-0.6-0.6-0.9-1c-0.3-0.4-0.6-0.9-0.9-1.4c-0.2,0-0.4,0-0.7,0.1c-0.3,0.1-0.6,0.2-0.8,0.4c-0.3,0.2-0.4,0.3-0.5,0.4
		c0.2,0.4,0.4,0.8,0.6,1.3c0.2,0.5,0.5,1,0.8,1.6c0.3,0.6,0.6,1.3,1.1,2.1c0.4,0.8,0.9,1.8,1.4,2.9c0.5,1.1,0.9,2,1.3,2.9
		c0.4,0.8,0.7,1.6,1,2.2c0.3,0.7,0.5,1.3,0.8,1.8c0.2,0.6,0.5,1.1,0.8,1.7c0.1,0.1,0.4,0.1,0.6,0c0.3-0.1,0.6-0.2,0.8-0.4
		c0.3-0.2,0.4-0.3,0.5-0.4c-0.2-0.7-0.4-1.3-0.6-1.9c-0.1-0.5-0.3-1-0.3-1.5c0-0.3,0-0.6,0.2-0.9c0.1-0.3,0.3-0.5,0.6-0.7
		c0.2-0.2,0.5-0.4,0.7-0.5c1-0.5,2.1-1.1,3.3-1.7c1.2-0.6,2.4-1.1,3.5-1.7c1.2-0.5,2.2-1,3.2-1.5c0.1,0,0.2,0,0.3,0
		c0.1,0,0.2,0.1,0.3,0.1c0.2,0.3,0.5,1,1,2c0.5,1,1.1,2.3,1.9,4c0.7,1.5,1.3,2.7,1.7,3.6c0.4,0.9,0.7,1.6,1,2.1
		c0.2,0.5,0.4,0.8,0.4,1.1c0.1,0.2,0.1,0.4,0.2,0.5c0,0.1,0,0.2-0.1,0.3c0,0.1-0.1,0.1-0.2,0.2c-1,0.5-2.1,1-3.2,1.5
		c-1.1,0.5-2.1,1-3.1,1.5c-1,0.5-2,0.9-2.9,1.3c-0.8,0.4-1.5,0.6-2,0.6c-0.5,0-1-0.2-1.4-0.6c-0.2-0.2-0.3-0.4-0.5-0.6
		c-0.2-0.3-0.4-0.5-0.6-0.8c-0.2-0.3-0.4-0.6-0.6-0.9c-0.1-0.1-0.3,0-0.6,0c-0.3,0.1-0.6,0.2-0.8,0.4c-0.3,0.2-0.4,0.3-0.5,0.4
		c0.2,0.5,0.5,1.1,0.9,1.8c0.4,0.7,0.8,1.6,1.3,2.6c0.5,1,1.1,2.3,1.8,3.7c0.7,1.5,1.3,2.8,1.8,3.9c0.5,1.1,0.9,2,1.2,2.7
		c0.3,0.7,0.5,1.3,0.7,1.7c0.1,0,0.2,0,0.4,0c0.2,0,0.4-0.1,0.6-0.2c0.2-0.1,0.4-0.2,0.6-0.3C47.3,389.2,47.4,389.1,47.4,389.1z"/>
	<path fill-rule="evenodd" clip-rule="evenodd" fill="#0066B3" d="M104.6,408.7c0.1,0,0.3,0,0.4-0.1c0.2-0.1,0.4-0.3,0.6-0.4
		c0.2-0.2,0.3-0.4,0.4-0.5c0.1-0.2,0.2-0.3,0.1-0.4c-0.3-0.4-0.7-0.8-1.2-1.4c-0.5-0.6-1-1.2-1.6-1.8c-0.6-0.6-1.1-1.3-1.6-1.9
		c-0.5-0.6-1-1.1-1.3-1.6c-0.3-0.4-0.7-0.8-1.1-1.3c-0.4-0.5-0.9-1.1-1.4-1.7c-0.5-0.6-1-1.2-1.4-1.7c-0.5-0.6-0.9-1.1-1.2-1.5
		c-0.4-0.4-0.6-0.8-0.8-1c-0.1,0-0.2,0-0.4,0.1c-0.2,0.1-0.4,0.2-0.6,0.4c-0.2,0.2-0.4,0.3-0.5,0.5c-0.1,0.2-0.2,0.3-0.2,0.4
		c0.4,0.6,0.6,1,0.8,1.4c0.2,0.3,0.4,0.7,0.5,1c0.3,0.5,0.4,0.9,0.4,1.3c0,0.4-0.1,0.7-0.4,1.1c-0.3,0.4-0.7,0.8-1.2,1.2
		c-0.6,0.5-1.2,1.1-2,1.8c-0.8,0.7-1.6,1.4-2.5,2.2c-0.9,0.8-1.7,1.5-2.6,2.2c-0.8,0.7-1.5,1.3-2.1,1.8c0,0-0.1,0-0.2,0
		c-0.1,0-0.1,0-0.1-0.1c-0.2-0.3-0.4-0.7-0.6-1c-0.2-0.3-0.2-0.7-0.3-1.1c0-0.4,0-0.9,0.1-1.5c0.1-0.6,0.3-1.3,0.6-2.1
		c0.8-2.1,1.5-3.9,2.1-5.5c0.7-1.6,1.2-3.1,1.7-4.4c0.5-1.3,0.8-2.6,1-3.8c0.1-0.4,0.1-0.8,0.1-1.3c0-0.5-0.1-1-0.3-1.5
		c-0.2-0.6-0.5-1.2-0.9-1.8c-0.2-0.3-0.6-0.8-1-1.3c-0.4-0.6-0.9-1.2-1.5-1.8c-0.5-0.7-1.1-1.3-1.6-1.9c-0.5-0.6-1-1.2-1.4-1.6
		c-0.4-0.5-0.7-0.8-0.9-0.9c-0.1,0-0.2,0-0.4,0.1c-0.2,0.1-0.4,0.2-0.6,0.3c-0.2,0.1-0.4,0.3-0.6,0.4c-0.2,0.1-0.2,0.2-0.2,0.3
		c0.6,0.8,1,1.5,1.4,2.2c0.3,0.7,0.5,1.4,0.6,2.1c0.1,0.7,0,1.6-0.1,2.7c-0.2,1-0.5,2.3-0.9,3.8c-0.4,1.2-0.7,2.3-1.1,3.2
		c-0.3,0.9-0.6,1.7-0.9,2.4c-0.3,0.8-0.6,1.6-0.9,2.5c-0.5,1.5-0.7,2.9-0.8,4.1c0,1.2,0.1,2.2,0.4,3c-0.1,0.1-0.1,0.2-0.3,0.2
		c-0.6-0.1-1.3-0.1-2-0.1c-0.7,0-1.6,0.1-2.6,0.3c-1,0.2-2.3,0.4-3.9,0.8c-1.2,0.3-2.2,0.4-2.9,0.5c-0.7,0-1.3,0-1.6-0.2
		c-0.4-0.2-0.7-0.4-1-0.8c-0.3-0.4-0.6-0.9-0.9-1.4c-0.2-0.6-0.4-1.3-0.6-2.1c0,0-0.1-0.1-0.2-0.2c-0.1-0.1-0.2-0.1-0.3-0.1
		c-0.1,0-0.2,0-0.3,0c-0.3,0-0.7,0.2-1.2,0.3c-0.5,0.2-1,0.4-1.6,0.7c-0.6,0.3-1.1,0.5-1.5,0.8c-0.5,0.3-0.8,0.5-1,0.6
		c-0.1,0-0.1,0.1-0.2,0.2c-0.1,0.1-0.1,0.2-0.2,0.4c-0.1,0.1-0.1,0.3-0.1,0.4c0,0.3,0.1,0.7,0.3,1.1c0.2,0.4,0.4,0.8,0.7,1.2
		c0.7,0.8,1.4,1.4,2.3,1.8c0.8,0.4,1.8,0.6,2.9,0.7c1.1,0.1,2.5,0,4-0.3c1.5-0.3,3.4-0.6,5.5-1.1c0.9-0.2,1.8-0.4,2.8-0.6
		c0.9-0.2,1.8-0.3,2.6-0.3c0.7,0,1.5,0.1,2.2,0.3c0.7,0.3,1.5,0.7,2.2,1.2c0.7,0.5,1.4,1.1,2,1.8c0.1,0.1,0.1,0.2,0.1,0.3
		c0,0.1,0,0.1-0.1,0.2c-0.7,0.6-1.4,1.2-2.2,1.8c-0.8,0.6-1.5,1.3-2.3,1.9c-0.7,0.6-1.5,1.2-2.1,1.7c-0.7,0.5-1.2,1-1.7,1.4
		c-0.9,0.7-1.6,1.1-2.2,1.3c-0.6,0.1-1.2-0.1-1.9-0.6c-0.2-0.2-0.4-0.3-0.6-0.4c-0.2-0.1-0.3-0.3-0.5-0.4c-0.2-0.2-0.4-0.4-0.7-0.6
		c-0.1,0-0.2,0-0.4,0.1c-0.2,0.1-0.4,0.2-0.6,0.4c-0.2,0.2-0.3,0.3-0.5,0.5c-0.1,0.2-0.2,0.3-0.2,0.4c0.2,0.3,0.7,0.8,1.3,1.5
		c0.6,0.7,1.3,1.4,2.1,2.3c0.8,0.9,1.6,1.9,2.5,2.9c0.4,0.5,0.9,1.1,1.5,1.8c0.6,0.7,1.1,1.4,1.6,2c0.5,0.7,1,1.3,1.5,1.8
		c0.4,0.5,0.7,0.9,1,1.2c0.1,0,0.2,0,0.4-0.1c0.2-0.1,0.4-0.2,0.6-0.4c0.2-0.2,0.4-0.3,0.5-0.5c0.1-0.2,0.2-0.3,0.2-0.4
		c-0.2-0.4-0.5-0.8-0.7-1.2c-0.2-0.3-0.4-0.7-0.6-1.1c-0.3-0.5-0.4-1-0.4-1.4c0-0.4,0.1-0.8,0.4-1.1c0.2-0.4,0.6-0.7,0.9-1.1
		c0.5-0.5,1-1,1.7-1.6c0.7-0.6,1.5-1.2,2.3-1.9c0.8-0.7,1.6-1.4,2.4-2c0.8-0.7,1.6-1.3,2.3-1.9c1.1,1.3,1.9,2.6,2.2,3.9
		c0.3,1.3,0.3,2.6-0.2,3.9c-0.2,0.7-0.5,1.4-0.8,2.2c-0.3,0.8-0.7,1.7-1.1,2.8c-0.4,1-1,2.3-1.6,3.8c-0.6,1.3-1,2.5-1.3,3.5
		c-0.3,1.1-0.3,2.1-0.2,3c0.2,0.9,0.7,1.9,1.5,2.8c0.1,0.1,0.3,0.3,0.5,0.5c0.2,0.2,0.4,0.4,0.6,0.5c0.2,0.2,0.4,0.3,0.6,0.4
		c0.2,0.1,0.4,0.1,0.6,0.2c0.3,0,0.5,0,0.7,0c0.5-0.1,1-0.3,1.6-0.5c0.6-0.3,1.2-0.6,1.7-1c0.6-0.4,1-0.7,1.5-1
		c0.1,0,0.1-0.1,0.2-0.3c0.1-0.1,0.1-0.3,0.1-0.4c0-0.1,0-0.2-0.1-0.3c-0.4-0.2-0.9-0.5-1.4-0.8c-0.5-0.3-1-0.6-1.5-1
		c-0.5-0.4-0.9-0.8-1.3-1.2c-0.3-0.3-0.5-0.6-0.6-0.9c-0.1-0.3-0.2-0.7-0.2-1.2c0-0.5,0.1-1.1,0.3-1.8c0.2-0.7,0.5-1.6,1-2.7
		c0.6-1.6,1.1-2.9,1.5-3.9c0.4-1,0.6-1.9,0.8-2.6c0.2-0.7,0.2-1.3,0.2-1.9c0-0.2,0.1-0.3,0.3-0.2c0.6,0.3,1.3,0.5,2.1,0.6
		c0.8,0.1,1.8,0.2,3,0.2c1.2,0,2.8-0.1,4.7-0.3c1-0.1,2.2-0.2,3.5-0.4c1.4-0.1,3-0.4,5-0.6c0.9-0.1,1.7,0,2.4,0.1
		c0.8,0.1,1.5,0.4,2.3,0.9c0.8,0.4,1.6,1.1,2.6,1.9c0.1,0,0.3-0.1,0.5-0.3c0.2-0.2,0.4-0.4,0.6-0.6c0.2-0.2,0.3-0.4,0.4-0.6
		c-0.5-0.6-1.1-1.3-1.7-2c-0.6-0.7-1.1-1.3-1.7-2c-0.5-0.6-1.1-1.2-1.5-1.7c-0.5-0.5-0.9-0.9-1.2-1.1c-0.8-0.7-1.4-1.1-2.1-1.5
		c-0.6-0.3-1.2-0.6-1.8-0.7c-0.6-0.1-1.2-0.2-1.8-0.2c-0.6,0-1.3,0-2,0c-0.5,0.1-1.1,0.2-1.9,0.3c-0.8,0.1-1.7,0.3-2.7,0.5
		c-1,0.2-2,0.4-3,0.6c-1,0.2-2,0.4-2.9,0.5c-0.9,0.2-1.7,0.3-2.3,0.4c-0.7,0.1-1.4,0.1-1.9,0c-0.6-0.1-1-0.3-1.5-0.5
		c-0.4-0.2-0.8-0.5-1.1-0.8c0.5-0.4,1.1-0.9,1.8-1.5c0.7-0.6,1.5-1.2,2.3-1.9c0.8-0.7,1.6-1.3,2.4-2c0.8-0.6,1.4-1.2,2-1.6
		c0.9-0.7,1.7-1.2,2.2-1.6c0.6-0.3,1.1-0.4,1.6-0.4c0.5,0.1,0.9,0.3,1.5,0.8c0.3,0.2,0.6,0.4,0.8,0.6
		C103.9,408.1,104.2,408.4,104.6,408.7z"/>
	<path fill-rule="evenodd" clip-rule="evenodd" fill="#0066B3" d="M161.9,457c0.2-0.1,0.3-0.2,0.5-0.5c0.2-0.2,0.4-0.5,0.5-0.8
		c0.2-0.3,0.2-0.5,0.2-0.6c-0.5-0.3-1-0.7-1.7-1.1c-0.6-0.4-1.3-0.9-2.1-1.4c-0.7-0.5-1.5-1-2.2-1.4c-0.7-0.5-1.4-1-2.1-1.4
		c-1.3-0.9-2.6-1.8-3.8-2.8c-1.2-0.9-2.5-1.9-3.8-2.8c-0.2,0-0.4,0.1-0.6,0.4c-0.2,0.2-0.4,0.5-0.6,0.7c-0.2,0.3-0.3,0.5-0.4,0.6
		c0.5,0.5,1,1,1.4,1.4c0.4,0.4,0.8,0.8,1,1.1c0.4,0.5,0.6,0.9,0.6,1.3c0,0.4,0,0.8-0.2,1.2c-0.2,0.4-0.3,0.7-0.5,1
		c-0.4,0.6-0.9,1.3-1.4,2.2c-0.6,0.9-1.3,1.9-2.2,3.2c-0.9,1.2-1.9,2.7-3.1,4.4c-0.5-0.3-1-0.7-1.5-1.1c-0.6-0.4-1.1-0.8-1.7-1.2
		c-0.6-0.4-1.1-0.7-1.6-1c-0.5-0.3-0.8-0.5-1.1-0.6c0.9-1.4,1.6-2.8,2.2-4.3c0.6-1.5,1-3,1.3-4.6c0.3-1.6,0.3-3.2,0.1-4.9
		c-0.3-2.3-1.1-4.5-2.5-6.7c-1.4-2.2-3.4-4.1-6-6c-1.7-1.2-3.5-2.1-5.4-2.7c-1.9-0.7-3.8-1-5.8-1c-2,0-4,0.3-6.1,1.1
		c-1.3,0.5-2.6,1.1-3.8,1.9c-1.2,0.8-2.3,1.8-3.4,2.8c-1.1,1.1-2,2.2-2.9,3.5c-1.2,1.7-2.2,3.6-2.8,5.4c-0.7,1.9-1,3.8-1.1,5.7
		c-0.1,1.9,0.2,3.8,0.8,5.7c0.6,1.8,1.5,3.6,2.8,5.3c1.3,1.7,2.9,3.2,4.9,4.6c2.4,1.6,4.8,2.8,7.3,3.3c2.5,0.6,4.9,0.6,7.3,0.1
		c1.6-0.2,3.1-0.7,4.5-1.4c1.4-0.7,2.7-1.5,3.8-2.5c1.1-1,2.1-1.9,2.9-3c0.2,0.1,0.6,0.4,1.1,0.7c0.5,0.3,1,0.7,1.5,1.1
		c0.5,0.4,1.1,0.8,1.6,1.1c0.5,0.4,0.9,0.7,1.2,0.9c0.1,0.1,0.2,0.2,0.2,0.4c0,0.2,0,0.3-0.1,0.5c-1.4,2.1-2.7,3.8-3.7,5.2
		c-1,1.4-1.8,2.4-2.3,3.1c-0.4,0.5-0.7,0.9-1,1.2c-0.3,0.3-0.6,0.5-1,0.6c-0.3,0.1-0.7,0.1-1.2-0.1c-0.4-0.1-0.8-0.3-1.3-0.5
		c-0.5-0.2-1-0.5-1.5-0.7c-0.1,0-0.2,0.1-0.4,0.3c-0.1,0.1-0.3,0.3-0.4,0.5c-0.2,0.2-0.3,0.4-0.3,0.6c-0.1,0.2-0.1,0.3-0.1,0.4
		c0.4,0.3,1.1,0.7,1.9,1.3c0.8,0.5,1.7,1.1,2.7,1.8c1,0.7,2.1,1.4,3.2,2.2c1.2,0.8,2.1,1.5,3,2.2c0.8,0.6,1.6,1.2,2.3,1.7
		c0.7,0.5,1.4,1.1,2.2,1.6c0.1,0,0.3-0.2,0.5-0.4c0.2-0.2,0.4-0.5,0.5-0.7c0.1-0.3,0.2-0.5,0.3-0.7c-0.5-0.4-0.9-0.8-1.3-1.2
		c-0.4-0.4-0.7-0.7-1.1-1.1c-0.4-0.4-0.5-0.9-0.5-1.4c0-0.5,0.2-1,0.6-1.6c0.3-0.6,0.7-1.2,1.1-1.8c0.4-0.6,0.9-1.3,1.4-2.1
		c0.5-0.8,1.2-1.7,1.9-2.7c0.7-1,1.5-2.2,2.5-3.5c0.7-1,1.5-2.1,2.3-3.3c0.8-1.1,1.6-2.2,2.3-3.3c0.8-1.1,1.4-2,2-2.8
		c0.6-0.8,1-1.5,1.4-1.9c0.6-0.7,1-1.3,1.4-1.6c0.4-0.3,0.8-0.5,1.1-0.5c0.4,0,0.7,0.1,1.1,0.2c0.4,0.2,0.9,0.4,1.4,0.6
		C160.9,456.4,161.4,456.7,161.9,457L161.9,457z M128.1,432.8c1,0.7,1.7,1.4,2.3,2.3c0.6,0.9,0.9,1.8,1.2,2.9
		c0.3,1.6,0.3,3.4-0.1,5.2c-0.4,1.8-1,3.7-1.9,5.6c-0.9,1.9-2.1,3.9-3.5,5.8c-0.8,1.1-1.6,2.2-2.5,3.3c-0.9,1-1.8,1.9-2.8,2.8
		c-1,0.8-2,1.5-3,2c-1,0.5-2,0.8-3.1,0.8c-0.7,0.1-1.4,0.1-2.1-0.1c-0.7-0.2-1.4-0.5-2.1-1c-0.6-0.4-1.2-0.9-1.6-1.4
		c-0.4-0.5-0.7-1-1-1.6c-0.3-0.6-0.5-1.2-0.6-2c-0.2-1.2-0.2-2.5-0.1-3.9c0.2-1.4,0.6-2.8,1.1-4.2c0.5-1.4,1.2-2.8,1.9-4.2
		c0.8-1.4,1.6-2.7,2.5-4c1.8-2.5,3.5-4.6,5.3-6.2c1.8-1.6,3.6-2.6,5.4-3.1c0.8-0.2,1.7-0.2,2.5,0C126.8,432,127.5,432.3,128.1,432.8
		z"/>
	<path fill-rule="evenodd" clip-rule="evenodd" fill="#0066B3" d="M59.6,186.2c-0.3,0.7-0.5,1.2-0.8,1.7c-0.2,0.5-0.4,0.9-0.6,1.2
		c-0.3,0.5-0.6,0.8-1,0.9c-0.4,0.1-0.9,0.1-1.4,0c-0.5-0.1-1-0.2-1.6-0.4c0.1-0.6,0.3-1.4,0.4-2.3c0.1-0.9,0.2-1.9,0.2-2.9
		c0-1,0-2.1-0.2-3.1c-0.1-1.1-0.4-2.1-0.7-3c-0.6-1.8-1.6-3.4-3.1-4.7c-1.5-1.3-3.4-2.3-5.7-3.1c-1.9-0.6-3.7-0.8-5.3-0.7
		c-1.6,0.1-3,0.5-4.3,1.1c-1.3,0.6-2.4,1.5-3.5,2.6c-1,1.1-1.9,2.3-2.7,3.7c-0.8,1.4-1.5,2.8-2,4.3c-0.6-0.2-1.1-0.3-1.5-0.5
		c-0.4-0.2-0.8-0.5-1-0.8c-0.2-0.3-0.3-0.8-0.3-1.3c0-0.3,0.1-0.6,0.1-1c0.1-0.4,0.1-0.8,0.2-1.3c-0.1-0.1-0.2-0.2-0.5-0.4
		c-0.3-0.1-0.5-0.2-0.8-0.3c-0.3-0.1-0.5-0.1-0.7,0c-0.1,0.4-0.3,1-0.4,1.6c-0.2,0.6-0.4,1.3-0.5,2c-0.2,0.7-0.4,1.4-0.6,2.1
		c-0.2,0.7-0.4,1.3-0.5,1.9c-0.2,0.6-0.4,1.3-0.6,2c-0.2,0.7-0.5,1.5-0.7,2.2c-0.3,0.8-0.5,1.5-0.7,2.2c-0.2,0.7-0.4,1.3-0.6,1.8
		c0.1,0.1,0.2,0.3,0.5,0.4c0.3,0.1,0.5,0.2,0.8,0.3c0.3,0,0.5,0,0.7,0c0.2-0.4,0.4-0.8,0.5-1.2c0.1-0.3,0.3-0.6,0.4-0.8
		c0.2-0.5,0.5-0.8,0.9-1c0.3-0.2,0.8-0.2,1.3-0.2c0.5,0,1.1,0.2,1.8,0.4c-0.2,0.9-0.3,2-0.5,3.1c-0.1,1.1-0.1,2.3-0.1,3.4
		c0.1,1.2,0.2,2.3,0.4,3.3c0.4,1.5,0.9,2.8,1.6,4c0.7,1.2,1.7,2.3,2.9,3.2c1.2,0.9,2.7,1.6,4.5,2.2c3,0.9,5.7,1,8,0.4
		c2.3-0.6,4.3-2,6-3.9c1.7-2,3.1-4.5,4.2-7.6c0.6,0.2,1.1,0.3,1.6,0.5c0.5,0.2,0.8,0.5,1,0.8c0.2,0.3,0.3,0.8,0.3,1.4
		c0,0.3-0.1,0.7-0.1,1.2c-0.1,0.4-0.1,0.9-0.3,1.5c0.1,0.2,0.3,0.3,0.6,0.4c0.3,0.1,0.6,0.2,0.9,0.2c0.3,0,0.5,0,0.6,0
		c0.1-0.6,0.3-1.2,0.5-1.9c0.2-0.7,0.4-1.5,0.6-2.3c0.2-0.8,0.4-1.6,0.6-2.3c0.2-0.7,0.4-1.4,0.6-2c0.2-0.6,0.4-1.3,0.6-2.1
		c0.2-0.8,0.5-1.5,0.7-2.3c0.2-0.8,0.5-1.5,0.7-2.2c0.2-0.7,0.4-1.3,0.6-1.7c-0.1-0.2-0.3-0.3-0.5-0.4c-0.3-0.2-0.5-0.3-0.8-0.3
		C60,186.1,59.7,186.2,59.6,186.2L59.6,186.2z M30.1,182.4c0,0-0.1,0-0.2-0.1c-0.1,0-0.1-0.1-0.2-0.2c-0.1-0.1-0.1-0.2,0-0.3
		c0.9-1.4,2-2.4,3.3-3c1.3-0.6,2.9-0.9,4.5-0.8c1.7,0.1,3.5,0.4,5.5,1c2,0.6,3.7,1.2,5,1.9c1.3,0.7,2.2,1.4,2.9,2.2
		c0.7,0.8,1.1,1.6,1.2,2.5c0.2,0.9,0.2,1.9,0,2.9c0,0.1-0.1,0.2-0.2,0.2c-0.1,0-0.2,0-0.3,0L30.1,182.4L30.1,182.4z M49.2,196.9
		c0,0,0.1,0.1,0.1,0.1c0,0.1,0.1,0.1,0.1,0.1c-0.8,1.2-1.8,2.1-3.1,2.8c-1.3,0.7-2.9,1-4.8,1c-1.9,0-4.1-0.4-6.6-1.1
		c-1.7-0.5-3.1-1.1-4.2-1.9c-1.1-0.7-1.9-1.5-2.5-2.3c-0.6-0.8-0.9-1.7-1.1-2.5c-0.1-0.9-0.1-1.7,0-2.5c0-0.1,0.1-0.1,0.1-0.2
		c0.1,0,0.2,0,0.4,0L49.2,196.9z"/>
	<path fill-rule="evenodd" clip-rule="evenodd" fill="#0066B3" d="M0.7,262.6c0.2,0.4,0.5,0.9,0.8,1.3c0.3,0.4,0.7,0.8,1.1,1.1
		c0.4,0.3,0.8,0.4,1.1,0.4c0.9,0,1.8-0.2,2.5-0.7c0.7-0.5,1.3-1.1,1.8-1.9c0.5-0.8,0.9-1.7,1.1-2.6c0.3-1,0.4-2,0.4-3
		c0-1.5-0.2-2.8-0.6-4.1c-0.4-1.3-1-2.4-1.8-3.5c-0.8-1-1.7-1.9-2.6-2.6c-1-0.7-2.1-1.2-3.2-1.5c-0.1,0-0.2,0.1-0.3,0.2
		C1,245.8,1,245.9,1,246c0,0.1,0,0.2,0.1,0.4c0.1,0.2,0.2,0.4,0.3,0.7c0.1,0.2,0.2,0.5,0.4,0.7c0.1,0.2,0.2,0.3,0.3,0.4
		c1,0.7,1.7,1.4,2.2,2.2c0.5,0.8,0.8,1.5,1,2.3c0.2,0.8,0.2,1.6,0.2,2.4c0,1.9-0.4,3.4-1.2,4.5c-0.7,1.1-1.9,1.8-3.4,2.2
		c-0.1,0-0.1,0.1-0.1,0.2c0,0.1,0,0.2,0,0.4C0.6,262.4,0.7,262.5,0.7,262.6z"/>
	<path fill-rule="evenodd" clip-rule="evenodd" fill="#0066B3" d="M47.6,278.6c0.1,0.1,0.2,0.1,0.4,0.2c0.2,0,0.4,0,0.7,0
		c0.2,0,0.5,0,0.7-0.1c0.2,0,0.3-0.1,0.4-0.1c0-0.7,0-1.9,0-3.4c0-1.5,0-3.5,0-5.9c0-1.6,0.1-3,0.1-4.1c0.1-1.1,0.1-2.1,0.1-3
		c0-0.8,0.1-1.7,0.1-2.4c-0.1-0.1-0.3-0.2-0.6-0.3c-0.3-0.1-0.6-0.1-0.9-0.1c-0.3,0-0.5,0-0.6,0.1c-0.1,0.8-0.3,1.4-0.4,1.9
		c-0.1,0.5-0.3,1-0.4,1.4c-0.1,0.4-0.3,0.7-0.6,1c-0.3,0.2-0.6,0.4-1,0.4c-0.4,0.1-1,0.1-1.6,0.1c-0.3,0-0.7-0.1-1-0.2
		c-0.3-0.1-0.6-0.3-0.8-0.5c-0.2-0.1-0.6-0.5-1.3-1c-0.7-0.5-1.5-1.2-2.4-2c-1-0.8-2-1.7-3.2-2.6c-1.1-1-2.3-1.9-3.4-2.9
		c-1.2-1-2.3-1.9-3.3-2.7c-1-0.9-1.9-1.6-2.7-2.2c-0.8-0.6-1.4-1.1-1.7-1.4c-0.1,0-0.1-0.1-0.1-0.2c0-0.1,0.1-0.1,0.1-0.1
		c0.7,0,1.6,0,2.7,0c1.1,0,2.4,0,3.7,0.1c1.4,0,2.8,0,4.2,0.1c1.4,0,2.8,0.1,4.1,0.1c1.3,0,2.5,0.1,3.5,0.1c1,0,1.7,0.1,2.2,0.1
		c0.7,0,1.2,0.1,1.6,0.2c0.4,0.1,0.7,0.3,0.9,0.5c0.2,0.2,0.4,0.5,0.5,0.8c0.1,0.4,0.2,0.9,0.3,1.3c0.1,0.5,0.2,1,0.2,1.7
		c0.1,0.1,0.2,0.2,0.4,0.2c0.2,0.1,0.4,0.1,0.7,0.1c0.2,0,0.5,0,0.7-0.1c0.2,0,0.3-0.1,0.4-0.2c0-0.6,0-1.7,0-3.2c0-1.5,0-3.6,0-6.2
		c0-1.7,0.1-3.2,0.1-4.4c0.1-1.2,0.1-2.1,0.2-2.9c0.1-0.8,0.1-1.4,0.1-2c-0.1-0.1-0.2-0.2-0.4-0.2c-0.2-0.1-0.4-0.1-0.7-0.2
		c-0.2,0-0.5,0-0.7,0c-0.2,0-0.3,0-0.4,0.1c-0.1,0.9-0.3,1.7-0.4,2.4c-0.1,0.6-0.3,1.2-0.5,1.6c-0.2,0.5-0.6,0.8-1.1,1
		c-0.5,0.2-1.2,0.3-2,0.3c-0.7,0-1.6,0-2.6,0c-1,0-2.2,0-3.4,0c-1.2,0-2.4,0-3.7,0c-1.2,0-2.4,0-3.4-0.1c-1.5,0-2.8,0-3.9-0.1
		c-1.1,0-2,0-2.8,0c-0.8,0-1.5,0-2.1,0c-0.7,0-1.3,0-2-0.1c-0.7,0-1.4-0.1-2.3-0.1c-0.6,0-1.1-0.1-1.5-0.2c-0.4-0.1-0.6-0.3-0.8-0.5
		c-0.2-0.2-0.4-0.5-0.5-0.9c-0.1-0.4-0.2-0.8-0.3-1.4c-0.1-0.5-0.2-1.1-0.3-1.7c-0.1-0.1-0.2-0.1-0.4-0.2c-0.2,0-0.4-0.1-0.7-0.1
		c-0.2,0-0.5,0-0.7,0c-0.2,0-0.3,0.1-0.4,0.1c0,0.6,0,1.1,0,1.7c0,0.6,0,1.2,0,1.8c0,0.7,0,1.4,0,2.3c0,0.9,0,1.9,0,3.2
		c0,1.7-0.1,3.1-0.1,4.2c-0.1,1.1-0.1,2.1-0.1,2.8c0,0.8-0.1,1.5-0.1,2.1c0.1,0.1,0.3,0.2,0.5,0.3c0.3,0.1,0.6,0.1,0.9,0
		c0.3,0,0.5-0.1,0.7-0.2c0.1-0.5,0.1-0.9,0.2-1.3c0-0.4,0.1-0.7,0.2-1c0.1-0.3,0.2-0.6,0.3-0.9c0.2-0.4,0.5-0.8,0.9-1
		c0.4-0.2,0.9-0.3,1.4-0.4l1.2,0c0.1,0,0.1,0,0.3,0.1c0.1,0,0.3,0.1,0.4,0.2c0.2,0.1,0.3,0.1,0.3,0.2c0.7,0.5,1.6,1.2,2.7,2
		c1.1,0.8,2.2,1.8,3.5,2.8c1.3,1,2.5,2.1,3.8,3.2c1.3,1.1,2.5,2.1,3.6,3c1.1,1,2.1,1.8,3,2.5c0.8,0.7,1.4,1.2,1.8,1.4
		c0,0.1,0,0.1,0,0.2c0,0.1,0,0.1-0.2,0.2c-0.6,0-1.4,0-2.4,0c-1,0-2.2,0-3.6-0.1c-1.3,0-2.7,0-4.1-0.1c-1.4,0-2.8-0.1-4.1-0.1
		c-1.3,0-2.5-0.1-3.5-0.1c-1,0-1.8-0.1-2.3-0.1c-0.6,0-1.2-0.1-1.6-0.2c-0.4-0.1-0.7-0.2-1-0.5c-0.2-0.2-0.4-0.5-0.6-0.9
		c-0.1-0.3-0.2-0.7-0.3-1.3c-0.1-0.5-0.2-1-0.2-1.5c-0.1-0.1-0.3-0.2-0.6-0.2c-0.3,0-0.6-0.1-0.9,0c-0.3,0-0.5,0.1-0.6,0.2
		c0,0.6,0,1.7,0,3.1c0,1.4,0,3.4,0,5.9c0,1.3-0.1,2.4-0.1,3.3c0,0.9-0.1,1.7-0.1,2.4c0,0.7-0.1,1.3-0.1,1.9c0,0.6-0.1,1.2-0.1,1.8
		c0.1,0.1,0.2,0.1,0.4,0.1c0.2,0,0.4,0.1,0.7,0.1c0.2,0,0.5,0,0.7,0c0.2,0,0.3-0.1,0.4-0.1c0.1-0.5,0.1-1,0.2-1.4
		c0.1-0.4,0.1-0.8,0.2-1.1c0.1-0.3,0.2-0.7,0.3-1c0.2-0.5,0.5-0.9,1-1.1c0.5-0.2,1.1-0.3,1.9-0.4c0.5,0,1.2,0,2.2,0c1,0,2.1,0,3.5,0
		c1.3,0,2.7,0,4.3,0.1c1.5,0,3,0.1,4.5,0.1c1.4,0,2.7,0,4,0.1c1.3,0,2.4,0.1,3.4,0.1c1,0,1.9,0.1,2.5,0.1c0.7,0,1.1,0,1.4,0.1
		c0.9,0.1,1.5,0.2,2.1,0.3c0.5,0.1,0.9,0.4,1.1,0.7c0.3,0.3,0.4,0.7,0.5,1.3L47.6,278.6z"/>
	<path fill-rule="evenodd" clip-rule="evenodd" fill="#0066B3" d="M17.1,306.1c0-0.5,0-0.9,0.1-1.3c0-0.4,0.1-0.7,0.1-1
		c0-0.3,0.1-0.7,0.2-1.1c0.1-0.6,0.4-1,0.8-1.2c0.4-0.3,0.9-0.4,1.6-0.5c0.7-0.1,1.3-0.2,2.1-0.3c0.7-0.1,1.6-0.2,2.5-0.3
		c0.9-0.1,2-0.2,3.2-0.3c1.2-0.1,2.7-0.3,4.3-0.4c1-0.1,2.1-0.2,3.2-0.3c1.1-0.1,2.2-0.2,3.4-0.3c1.1-0.1,2.2-0.2,3.2-0.3
		c1-0.1,1.9-0.2,2.7-0.2c0.8-0.1,1.4-0.1,1.8-0.1c0.9,0,1.6,0,2,0.1c0.5,0.1,0.8,0.3,1,0.6c0.2,0.3,0.4,0.6,0.5,1
		c0.1,0.3,0.2,0.7,0.3,1.1c0.1,0.4,0.2,0.9,0.4,1.5c0.1,0.1,0.3,0.1,0.6,0.2c0.3,0,0.6,0,0.9-0.1c0.3-0.1,0.5-0.2,0.6-0.3
		c-0.1-0.6-0.1-1.1-0.2-1.7c-0.1-0.6-0.2-1.2-0.2-1.9c-0.1-0.7-0.2-1.5-0.3-2.5c-0.1-1-0.2-2.1-0.4-3.5c-0.1-1.6-0.3-3.1-0.4-4.6
		c-0.1-1.5-0.2-3-0.3-4.6c-0.1-0.1-0.2-0.2-0.4-0.2c-0.2,0-0.4-0.1-0.7-0.1c-0.2,0-0.5,0-0.7,0c-0.2,0-0.3,0.1-0.4,0.1
		c-0.1,0.7-0.1,1.3-0.2,2c0,0.6-0.1,1.1-0.2,1.5c-0.1,0.6-0.3,1-0.6,1.3c-0.3,0.3-0.6,0.5-1,0.6c-0.4,0.1-0.8,0.2-1.2,0.2
		c-0.8,0.1-1.8,0.2-3.1,0.4c-1.3,0.1-2.9,0.3-4.7,0.5c-1.9,0.2-4,0.4-6.5,0.6c-1.8,0.2-3.4,0.3-4.9,0.5c-1.5,0.1-2.8,0.3-4,0.4
		c-1.1,0.1-2,0.2-2.6,0.2c-0.6,0-1.1,0-1.5,0c-0.4,0-0.8-0.1-1-0.3c-0.3-0.2-0.5-0.5-0.7-0.9c-0.2-0.4-0.4-0.8-0.5-1.3
		c-0.1-0.5-0.3-1-0.5-1.6c-0.1-0.1-0.3-0.1-0.6-0.1c-0.3,0-0.6,0-0.9,0.1c-0.3,0.1-0.5,0.1-0.6,0.2c0,0.3,0.1,0.7,0.1,1.1
		c0.1,0.4,0.1,1,0.2,1.7c0.1,0.7,0.2,1.5,0.3,2.5c0.1,1,0.2,2.3,0.4,3.8c0.1,1.4,0.2,2.7,0.3,3.8c0.1,1.1,0.1,2.1,0.2,2.9
		c0.1,0.9,0.1,1.7,0.2,2.4c0.1,0.1,0.3,0.1,0.6,0.1c0.3,0,0.5,0,0.8,0C16.7,306.3,16.9,306.2,17.1,306.1z"/>
	<path fill-rule="evenodd" clip-rule="evenodd" fill="#0066B3" d="M58.5,333.2c0.1,0.1,0.3,0.1,0.6,0.1c0.3,0,0.6-0.1,0.8-0.2
		c0.3-0.1,0.5-0.2,0.6-0.3c-0.2-0.8-0.5-1.8-0.7-3c-0.3-1.2-0.6-2.4-0.9-3.7c-0.3-1.3-0.6-2.6-0.9-3.8c-0.3-1.3-0.5-2.4-0.8-3.4
		c-0.2-1-0.4-1.8-0.6-2.3c-0.4-1.8-1-3.4-1.7-5c-0.7-1.6-1.5-2.9-2.4-4.1c-1.1-1.4-2.3-2.5-3.7-3.3c-1.3-0.8-2.7-1.2-4.2-1.4
		c-1.5-0.2-2.9,0-4.4,0.3c-1.4,0.4-2.6,0.9-3.7,1.7c-1.1,0.8-2,1.8-2.7,3c-0.7,1.2-1.1,2.7-1.2,4.3c-0.1,1.7,0.1,3.6,0.6,5.8
		c0.4,1.5,0.8,2.8,1.1,3.9c0.3,1.1,0.6,1.8,0.7,2.3c0,0.1,0,0.2,0,0.2c-0.1,0-0.1,0.1-0.2,0.1c-1.3,0.3-2.4,0.6-3.3,0.8
		c-0.9,0.2-1.7,0.4-2.4,0.6c-0.7,0.2-1.2,0.3-1.7,0.4c-0.5,0.1-1,0.2-1.5,0.3c-0.8,0.2-1.5,0.2-2.1,0.1c-0.5-0.1-1-0.5-1.4-1
		c-0.2-0.4-0.4-0.8-0.7-1.3c-0.2-0.5-0.5-1-0.7-1.6c-0.1-0.1-0.2-0.1-0.5-0.1c-0.2,0-0.4,0.1-0.7,0.1c-0.2,0.1-0.5,0.2-0.6,0.2
		c-0.2,0.1-0.3,0.2-0.3,0.2c0.3,1.1,0.7,2.5,1.1,3.9c0.4,1.4,0.9,3.2,1.4,5.1c0.5,1.9,0.9,3.7,1.2,5.3c0.3,1.6,0.6,2.9,0.9,3.9
		c0.1,0,0.2,0.1,0.4,0.1c0.2,0,0.4,0,0.6-0.1c0.2-0.1,0.5-0.1,0.7-0.2c0.2-0.1,0.3-0.1,0.4-0.2c-0.1-0.5-0.1-1.1-0.2-1.7
		c0-0.6-0.1-1.2,0-1.7c0-0.4,0.1-0.7,0.2-1c0.1-0.3,0.3-0.5,0.6-0.7c0.3-0.2,0.7-0.4,1.3-0.5c0.8-0.3,1.6-0.5,2.4-0.7
		c0.8-0.2,1.7-0.4,2.6-0.7c0.9-0.2,2-0.5,3.1-0.8c1.2-0.3,2.5-0.6,4-1c2.3-0.6,4.4-1.1,6.2-1.6c1.9-0.5,3.5-0.9,4.8-1.2
		c1.3-0.3,2.2-0.5,2.8-0.6c0.9-0.1,1.5-0.1,2,0c0.5,0.1,0.9,0.4,1.1,0.8c0.3,0.4,0.6,1,0.8,1.6C57.9,331.6,58.2,332.3,58.5,333.2
		L58.5,333.2z M53.9,314.8c0.1,0.3,0.1,0.6,0.1,1.1c0,0.4-0.1,0.9-0.2,1.4c-0.1,0.5-0.4,1-0.7,1.5c-0.2,0.2-0.4,0.5-0.7,0.6
		c-0.3,0.2-0.5,0.3-0.7,0.4c-0.9,0.3-1.9,0.6-3,0.9c-1.1,0.3-2.3,0.6-3.5,0.9c-1.2,0.3-2.4,0.6-3.6,0.9c-1.2,0.3-2.4,0.6-3.5,0.9
		c-0.1,0-0.2,0-0.3,0c-0.1,0-0.1-0.1-0.2-0.1c-0.1-0.1-0.1-0.3-0.2-0.5c-0.1-0.2-0.2-0.5-0.2-0.7c-0.1-0.2-0.1-0.4-0.2-0.6
		c-0.4-1.7-0.4-3.2,0-4.5c0.4-1.3,1.3-2.4,2.5-3.3c1.2-0.9,2.8-1.6,4.8-2.1c2.6-0.7,4.7-0.7,6.3-0.2C52.3,311.9,53.4,313,53.9,314.8
		z"/>
	<path fill-rule="evenodd" clip-rule="evenodd" fill="#0066B3" d="M150.8,71.7c0,0.1,0,0.3,0.2,0.6c0.1,0.3,0.3,0.5,0.4,0.8
		c0.2,0.2,0.3,0.4,0.4,0.5c1-0.5,2-1.1,3-1.8c1-0.6,2.1-1.2,3.1-1.8c1.6-0.9,2.9-1.6,4.1-2.1c1.1-0.6,2.1-1.1,2.9-1.5
		c0-0.1,0-0.3-0.1-0.6c-0.1-0.3-0.2-0.6-0.4-0.8c-0.1-0.3-0.2-0.4-0.4-0.5c-0.5,0.2-1,0.4-1.5,0.5c-0.5,0.2-1,0.3-1.4,0.4
		c-0.5,0.2-0.9,0.2-1.2,0.1c-0.3-0.1-0.6-0.2-0.8-0.4c-0.2-0.2-0.4-0.4-0.5-0.7c-0.1-0.2-0.3-0.6-0.4-1.2c-0.1-0.5-0.3-1.2-0.4-1.9
		c-0.1-0.7-0.3-1.5-0.4-2.3c-0.1-0.8-0.3-1.6-0.4-2.4c0-0.2,0-0.3,0.1-0.5c0.1-0.2,0.1-0.3,0.2-0.3c0.4-0.2,0.9-0.6,1.6-0.9
		c0.7-0.4,1.6-0.9,2.7-1.5c0.5-0.3,1-0.5,1.5-0.8c0.5-0.3,1-0.6,1.5-0.8c0.5-0.3,0.8-0.5,1.2-0.6c0.1-0.1,0.2-0.1,0.4,0
		c0.1,0,0.3,0.1,0.4,0.1c0.5,0.4,1,0.8,1.6,1.4c0.6,0.5,1.2,1.1,1.8,1.7c0.6,0.6,1.2,1.1,1.8,1.7c0.6,0.5,1,1,1.4,1.4
		c0.1,0.1,0.2,0.2,0.2,0.5c0.1,0.2,0,0.5-0.2,0.9c-0.2,0.3-0.5,0.6-0.9,1c-0.4,0.4-0.9,0.8-1.4,1.2c0,0.1,0.1,0.3,0.2,0.6
		c0.1,0.2,0.3,0.5,0.4,0.8c0.2,0.3,0.3,0.4,0.4,0.5c0.5-0.3,1-0.6,1.5-0.9c0.5-0.3,1-0.6,1.7-1c0.6-0.4,1.3-0.8,2.1-1.2
		c0.8-0.5,1.8-1,2.9-1.6c1.4-0.8,2.6-1.4,3.6-1.9c1-0.5,1.9-1,2.6-1.4c0.7-0.4,1.3-0.7,1.8-0.9c0-0.1,0-0.3-0.1-0.6
		c-0.1-0.3-0.2-0.6-0.4-0.8c-0.1-0.3-0.2-0.4-0.3-0.5c-1.1,0.4-2,0.7-2.7,0.8c-0.7,0.1-1.4,0.1-2,0c-0.6-0.2-1.2-0.5-1.9-1
		c-0.7-0.5-1.6-1.2-2.6-2.1c-0.8-0.6-1.7-1.4-2.7-2.4c-1.1-0.9-2.2-1.9-3.5-3.1c-1.3-1.1-2.6-2.3-3.9-3.4c-1.3-1.2-2.6-2.3-3.9-3.5
		c-1.3-1.1-2.4-2.2-3.6-3.2c-1.1-1-2.1-1.8-2.9-2.5l-2.7-2.6c-0.4,0.2-0.7,0.5-1.2,0.7c-0.4,0.3-0.9,0.6-1.5,0.9
		c-0.5,0.3-1,0.5-1.5,0.8c-0.5,0.3-1,0.5-1.4,0.7c0.1,0.3,0.3,0.8,0.4,1.3c0.1,0.5,0.3,1,0.4,1.6c0.1,0.6,0.2,1.1,0.2,1.5
		c0.1,0.8,0.3,1.8,0.5,3.1c0.2,1.3,0.4,2.7,0.7,4.3c0.2,1.6,0.5,3.3,0.7,5.1c0.3,1.8,0.5,3.6,0.8,5.4c0.2,1.8,0.5,3.6,0.7,5.3
		c0.2,1.7,0.4,3.3,0.5,4.8c0.1,1,0.2,1.8,0.1,2.5c0,0.7-0.2,1.3-0.4,1.8c-0.2,0.5-0.6,1-1.2,1.6C152.3,70.5,151.6,71.1,150.8,71.7
		L150.8,71.7z M154,39.7c0.6,0.5,1.2,1,1.9,1.6c0.7,0.6,1.4,1.2,2.1,1.9c0.7,0.7,1.4,1.3,2.1,1.9c0.7,0.6,1.3,1.2,1.8,1.7
		c0.5,0.5,0.9,0.9,1.2,1.2c0,0.1,0,0.1,0,0.2c0,0.1,0,0.1-0.1,0.1c-0.3,0.2-0.7,0.4-1.3,0.8c-0.6,0.4-1.4,0.8-2.3,1.3
		c-0.7,0.4-1.4,0.7-1.9,1c-0.5,0.3-0.9,0.5-1.2,0.6c-0.1,0-0.1,0-0.2,0c-0.1-0.1-0.1-0.2-0.1-0.3c-0.1-0.8-0.3-1.6-0.5-2.6
		c-0.2-1-0.4-2-0.6-3.1c-0.2-1.1-0.4-2.2-0.6-3.2c-0.2-1.1-0.4-2.1-0.5-3c0,0,0,0,0.1-0.1C153.9,39.7,154,39.7,154,39.7z"/>
	<path fill-rule="evenodd" clip-rule="evenodd" fill="#0066B3" d="M135.3,66.9c0.3-0.2,0.7-0.3,1.1-0.6c0.4-0.2,0.8-0.5,1.3-0.9
		c1.1-0.8,2.1-1.8,3-2.8c0.9-1.1,1.6-2.3,2.1-3.5c0.5-1,0.7-2.2,0.8-3.4c0.1-1.2,0-2.5-0.4-3.9c-0.4-1.3-1-2.7-2-4
		c-0.8-1.1-1.8-2.1-2.7-2.7c-1-0.7-1.9-1.2-2.9-1.4c-1-0.3-2-0.4-2.9-0.4c-0.8,0-1.6,0.1-2.4,0.3c-0.8,0.2-1.5,0.5-2.2,0.8
		c-0.7,0.3-1.3,0.7-1.9,1c-0.6,0.3-1,0.7-1.4,0.9c-0.9,0.7-1.8,1.3-2.6,1.9c-0.8,0.6-1.6,1.2-2.3,1.7c-0.7,0.6-1.5,1.1-2.3,1.7
		c-0.8,0.6-1.6,1.2-2.6,1.9c-0.9,0.7-1.8,1.3-2.7,1.9c-0.9,0.6-1.7,1.2-2.4,1.7c-0.8,0.5-1.4,0.9-1.9,1.3c0,0.1,0.1,0.3,0.2,0.5
		c0.1,0.2,0.3,0.5,0.5,0.7c0.2,0.2,0.3,0.4,0.5,0.5c0.5-0.3,1-0.6,1.5-0.8c0.5-0.2,0.9-0.4,1.3-0.6c0.5-0.2,0.9-0.3,1.3-0.2
		c0.4,0.1,0.8,0.2,1.1,0.6c0.4,0.3,0.8,0.7,1.2,1.3c0.4,0.5,0.9,1.1,1.5,1.9c0.6,0.8,1.4,1.8,2.3,3.1c0.9,1.2,2,2.7,3.2,4.5
		c1.5,2,2.7,3.8,3.8,5.2c1,1.5,1.9,2.7,2.6,3.7c0.7,1,1.3,1.8,1.7,2.5c0.3,0.5,0.6,0.9,0.8,1.3c0.2,0.4,0.3,0.8,0.3,1.2
		c0,0.4-0.2,0.8-0.5,1.2c-0.3,0.4-0.7,0.8-1.1,1.2c-0.4,0.4-0.8,0.8-1.2,1.2c0,0.1,0.1,0.3,0.2,0.5c0.1,0.2,0.3,0.5,0.5,0.7
		c0.2,0.2,0.4,0.4,0.5,0.5c1.3-1,2.6-1.9,3.9-2.9c1.3-1,2.6-2,3.9-3c0.9-0.7,1.9-1.4,2.9-2.1c1-0.7,2-1.4,2.9-2
		c0.9-0.6,1.7-1.2,2.4-1.7c0-0.2,0-0.4-0.2-0.7c-0.1-0.3-0.3-0.5-0.4-0.8c-0.2-0.2-0.3-0.4-0.4-0.4c-0.7,0.4-1.4,0.8-2,1.1
		c-0.6,0.3-1.2,0.6-1.7,0.7c-0.5,0.2-0.9,0.3-1.3,0.2c-0.4-0.1-0.7-0.3-1.1-0.6c-0.3-0.3-0.6-0.6-0.9-1c-0.4-0.5-0.9-1.2-1.5-2
		c-0.6-0.8-1.2-1.6-1.9-2.5c-0.7-0.9-1.3-1.8-1.9-2.6c-0.6-0.9-1.2-1.7-1.8-2.5c-0.6-0.8-1-1.4-1.4-1.9c-1.6-2.2-2.9-4-4-5.5
		c-1.1-1.5-1.9-2.7-2.5-3.6c-0.6-0.9-1.1-1.6-1.4-2.1c-0.1-0.2-0.2-0.3-0.2-0.5c0-0.2,0-0.3,0-0.4c0.1-0.2,0.2-0.3,0.4-0.5
		c0.2-0.2,0.3-0.3,0.4-0.4c0.2-0.1,0.3-0.2,0.4-0.3c1.3-1,2.7-1.4,4.1-1.5c1.4,0,2.8,0.4,4.1,1.2c1.3,0.8,2.6,2,3.7,3.5
		c0.8,1.1,1.3,2,1.7,3c0.4,0.9,0.6,1.7,0.6,2.5c0,0.8-0.1,1.5-0.4,2.2c-0.2,0.5-0.4,0.9-0.8,1.3c-0.3,0.4-0.8,0.8-1.3,1.2
		c-0.4,0.3-0.7,0.5-0.9,0.6c-0.3,0.2-0.4,0.3-0.6,0.3c0,0.1,0,0.2,0,0.3c0,0.1,0.1,0.2,0.2,0.4c0.1,0.1,0.3,0.2,0.5,0.4
		c0.2,0.1,0.5,0.3,0.8,0.4C134.8,66.9,135.1,66.9,135.3,66.9z"/>
	<path fill-rule="evenodd" clip-rule="evenodd" fill="#0066B3" d="M79.3,88.1c0.4-0.4,0.9-0.8,1.3-1.1c0.4-0.3,0.9-0.6,1.3-0.9
		c0.4-0.2,0.7-0.3,1-0.4c0.3,0,0.6,0,0.9,0.1c0.3,0.2,0.7,0.4,1.2,0.8c0.4,0.4,1,0.8,1.6,1.4c0.6,0.6,1.3,1.2,2.1,1.9
		c0.8,0.7,1.6,1.5,2.4,2.2c0.8,0.8,1.7,1.6,2.5,2.4c1.7,1.6,3.2,3.1,4.5,4.3c1.3,1.2,2.5,2.4,3.5,3.4c1,1,1.9,1.9,2.7,2.8
		c0.5,0.4,0.8,0.9,1,1.2c0.2,0.4,0.3,0.7,0.3,1.1c0,0.3-0.1,0.7-0.3,1c-0.2,0.4-0.5,0.9-1,1.6c-0.4,0.6-1,1.4-1.6,2.3
		c0.1,0.1,0.2,0.3,0.4,0.5c0.2,0.2,0.4,0.4,0.6,0.6c0.2,0.2,0.4,0.3,0.6,0.4c0.8-0.8,1.6-1.7,2.5-2.7c0.9-1,1.8-1.9,2.6-2.9
		c0.9-1,1.7-1.8,2.4-2.6c2.3-2.4,4.5-4.6,6.6-6.7c2.1-2.1,4-4.1,5.9-6c0.6-0.6,1-1.1,1.3-1.5c0.2-0.4,0.4-0.7,0.4-0.9
		c0-0.2,0-0.4-0.1-0.6c-0.2-0.5-0.4-1-0.7-1.6c-0.3-0.6-0.6-1.3-1-1.9c-0.4-0.7-0.8-1.3-1.1-2c-0.4-0.6-0.7-1.2-1-1.7
		c-0.3-0.5-0.5-0.9-0.7-1.1c-0.1,0-0.4,0.1-0.7,0.2c-0.3,0.1-0.6,0.3-0.9,0.5c-0.3,0.2-0.5,0.3-0.6,0.5c0.5,1.1,0.9,2.2,1.2,3.3
		c0.3,1.1,0.6,2.1,0.7,3c0.1,0.7,0.1,1.3,0,1.8c-0.1,0.5-0.3,1-0.6,1.4c-0.3,0.5-0.8,1.1-1.5,1.7c-0.8,0.8-1.6,1.6-2.3,2.3
		c-0.7,0.7-1.4,1.3-1.9,1.8c-0.6,0.5-1,0.9-1.4,1.1c-0.3,0.2-0.7,0.3-1.2,0.2c-0.4-0.1-0.8-0.3-1.2-0.6l-7.9-7.5
		c-0.1-0.1-0.1-0.2-0.1-0.3c0-0.2,0-0.3,0-0.4c0.3-0.4,0.8-0.8,1.3-1.3c0.5-0.5,1.1-1.1,1.6-1.7c0.6-0.6,1.1-1.1,1.5-1.6
		c0.5-0.5,0.8-0.8,1-1c0.5-0.4,1-0.6,1.4-0.6c0.4,0,0.9,0.1,1.4,0.3l2.3,1.3c0.1,0,0.2-0.1,0.4-0.3c0.2-0.2,0.3-0.3,0.5-0.5
		c0.2-0.2,0.3-0.4,0.5-0.6c0.1-0.2,0.2-0.3,0.2-0.4c-0.4-0.4-1-0.8-1.5-1.4c-0.6-0.5-1.1-1-1.7-1.5c-0.6-0.5-1-1-1.5-1.4
		c-0.5-0.5-1-1-1.5-1.5c-0.5-0.5-1-1.1-1.4-1.6c-0.5-0.5-0.9-0.9-1.2-1.3c-0.1,0-0.2,0.1-0.4,0.2c-0.2,0.1-0.4,0.3-0.6,0.5
		c-0.2,0.2-0.4,0.4-0.5,0.6c-0.1,0.2-0.2,0.3-0.3,0.4c0.2,0.3,0.5,0.7,0.7,1c0.2,0.3,0.4,0.6,0.6,0.9c0.4,0.7,0.7,1.2,0.7,1.7
		c0,0.5-0.2,0.9-0.6,1.4c-0.3,0.4-0.7,0.9-1.2,1.4c-0.5,0.5-1,1.1-1.5,1.6c-0.5,0.6-1,1.1-1.5,1.6c-0.5,0.5-0.8,0.9-1.1,1.2
		C100,88,99.9,88,99.8,88c-0.1,0-0.2,0-0.3-0.1c-1.5-1.4-3-2.8-4.4-4.2c-1.4-1.4-2.9-2.7-4.3-4.1c-0.1-0.1-0.2-0.2-0.2-0.4
		c-0.1-0.2-0.1-0.3-0.2-0.5c0-0.2,0-0.3,0-0.4c0.1-0.2,0.4-0.5,0.7-0.9c0.4-0.4,0.8-0.9,1.3-1.4c0.5-0.5,1-1,1.5-1.6
		c0.5-0.5,1-1,1.4-1.4c0.4-0.4,0.8-0.8,1-1c0.3-0.3,0.7-0.6,1.2-0.7c0.5-0.2,1.1-0.2,1.7,0c0.5,0.1,1.1,0.4,1.8,0.8
		c0.6,0.4,1.4,0.9,2.4,1.5c0.1,0,0.3-0.2,0.5-0.4c0.2-0.2,0.4-0.5,0.6-0.8c0.2-0.3,0.3-0.5,0.3-0.6c-0.8-0.9-1.6-1.7-2.4-2.6
		c-0.8-0.9-1.5-1.7-2.2-2.5c-0.7-0.8-1.2-1.4-1.6-2c0,0-0.1-0.1-0.2-0.1c-0.1,0-0.1,0-0.1,0c-0.4,0.6-1,1.3-1.6,2
		c-0.6,0.7-1.3,1.4-1.9,2.1c-0.7,0.7-1.3,1.4-1.8,2l-8.6,9c-0.7,0.7-1.5,1.5-2.3,2.3c-0.8,0.8-1.6,1.6-2.3,2.3c-0.8,0.8-1.4,1.4-2,2
		c0,0.1,0.1,0.3,0.3,0.5c0.2,0.2,0.4,0.5,0.6,0.7C79,88,79.2,88.1,79.3,88.1z"/>
	<path fill-rule="evenodd" clip-rule="evenodd" fill="#0066B3" d="M76.2,145c0.5,0.2,1.1,0.4,1.9,0.8c0.8,0.3,1.6,0.7,2.5,1.1
		c0.9,0.4,1.9,0.9,2.9,1.4c1,0.5,1.9,1,2.9,1.5c0.9,0.5,1.8,1,2.6,1.5c0.1,0,0.2-0.1,0.3-0.3c0.1-0.2,0.3-0.4,0.4-0.7
		c0.1-0.3,0.3-0.5,0.4-0.7c0.1-0.2,0.1-0.4,0.1-0.4c-0.6-0.6-1.2-1.2-1.9-1.9c-0.7-0.7-1.3-1.4-1.9-2.1c-0.6-0.7-1.2-1.4-1.7-2
		c-0.5-0.6-0.9-1.2-1.1-1.7c0-0.1-0.1-0.2-0.1-0.4c0-0.2,0-0.3,0-0.5c0-0.2,0.1-0.3,0.2-0.4l12.7-17.9c0.2-0.2,0.4-0.4,0.6-0.5
		c0.3-0.1,0.5-0.1,0.7-0.2c0.2,0,0.3,0,0.3,0c0.6,0.1,1.3,0.4,2.3,0.8c0.9,0.4,2,0.9,3.2,1.5c1.2,0.6,2.4,1.3,3.7,2.1
		c0.1,0,0.3-0.2,0.4-0.4c0.2-0.2,0.3-0.4,0.4-0.7c0.1-0.3,0.3-0.5,0.3-0.7c0.1-0.2,0.1-0.4,0.1-0.5c-0.8-0.8-1.6-1.6-2.5-2.5
		c-0.9-0.9-1.7-1.9-2.6-2.8c-0.9-1-1.7-1.9-2.4-2.8c-0.7-0.9-1.4-1.8-1.9-2.5c-0.1,0-0.1-0.1-0.2-0.1c-0.1,0-0.2,0-0.2,0
		c-0.1,0.2-0.3,0.5-0.5,0.9c-0.2,0.3-0.4,0.7-0.7,1c-0.2,0.4-0.5,0.7-0.7,1c-0.1,0.1-0.2,0.2-0.4,0.2c-0.2,0.1-0.3,0.1-0.5,0.1
		c-0.2,0-0.3,0-0.3,0c-0.6-0.1-1.5-0.3-2.7-0.5c-1.2-0.3-2.5-0.6-4.1-0.9c-1.5-0.4-3.2-0.7-5-1.1c-1.8-0.4-3.6-0.9-5.4-1.3
		c-1.9-0.4-3.7-0.9-5.4-1.3c-1.8-0.4-3.4-0.8-5-1.2c-1.5-0.4-2.9-0.7-4-1c-0.6-0.1-1-0.3-1.4-0.4c-0.4-0.1-0.7-0.2-1-0.3
		c-0.3-0.1-0.5-0.2-0.8-0.3c-0.1,0.1-0.2,0.4-0.4,0.7c-0.2,0.3-0.5,0.8-0.9,1.4c-0.3,0.4-0.6,0.8-0.9,1.2c-0.3,0.3-0.5,0.6-0.6,0.8
		c0.3,0.3,0.7,0.8,1.1,1.2c0.4,0.5,0.7,1,1.1,1.4c0.4,0.5,0.7,0.9,1,1.3c1,1.4,2,2.9,3.1,4.5c1.1,1.6,2.2,3.2,3.3,4.9
		c1.1,1.6,2.2,3.3,3.3,4.8c1.1,1.6,2,3,3,4.4c0.9,1.4,1.7,2.6,2.3,3.6c0.7,1,1.1,1.8,1.5,2.3c0.1,0.2,0.2,0.4,0.3,0.6
		c0.1,0.3,0.2,0.5,0.2,0.8c0.1,0.3,0,0.5-0.1,0.7c-0.2,0.3-0.3,0.6-0.5,0.9c-0.2,0.3-0.3,0.6-0.5,0.9
		C76.7,144.3,76.5,144.6,76.2,145L76.2,145z M66.9,118.4c0.4,0.1,1.1,0.2,2,0.5c1,0.2,2.1,0.5,3.4,0.8c1.3,0.3,2.7,0.7,4.2,1.1
		c1.5,0.4,2.9,0.8,4.4,1.1c1.5,0.4,2.8,0.7,4,1.1c1.2,0.3,2.3,0.6,3.1,0.9c0.8,0.2,1.4,0.4,1.6,0.5c0.1,0.1,0.3,0.2,0.4,0.3
		c0.1,0.1,0.1,0.3,0.1,0.3c-0.2,0.3-0.5,0.8-0.9,1.5c-0.4,0.6-0.9,1.4-1.5,2.2c-0.6,0.8-1.2,1.7-1.8,2.6c-0.6,0.9-1.3,1.8-1.9,2.6
		c-0.6,0.8-1.2,1.6-1.7,2.3c-0.5,0.7-0.9,1.2-1.2,1.5c-0.1,0.1-0.2,0.1-0.4,0.1c-0.2,0-0.3-0.1-0.5-0.2c-0.3-0.3-0.7-0.9-1.2-1.6
		c-0.5-0.7-1.2-1.6-1.9-2.6c-0.7-1-1.5-2-2.3-3.2c-0.8-1.1-1.6-2.3-2.4-3.4c-0.8-1.1-1.6-2.2-2.3-3.3c-0.8-1-1.4-2-2-2.8
		c-0.6-0.8-1.1-1.5-1.4-2c0,0,0-0.1,0.1-0.2C66.8,118.5,66.9,118.5,66.9,118.4z"/>
	<path fill-rule="evenodd" clip-rule="evenodd" fill="#0066B3" d="M32.9,161.4c0.3-0.5,0.6-1,1-1.4c0.3-0.5,0.7-0.9,1-1.2
		c0.3-0.3,0.6-0.5,0.8-0.6c0.3-0.1,0.6-0.2,0.9-0.1c0.4,0.1,0.8,0.2,1.3,0.4c0.5,0.2,1.2,0.5,1.9,0.9c0.8,0.4,1.6,0.8,2.5,1.2
		c0.9,0.5,1.9,1,2.9,1.5c1,0.5,2,1,3.1,1.6c2.1,1.1,4,2,5.6,2.8c1.6,0.8,3,1.6,4.3,2.2c1.2,0.7,2.4,1.3,3.4,1.9
		c0.6,0.3,1,0.6,1.3,0.9c0.3,0.3,0.5,0.6,0.6,0.9c0.1,0.3,0.1,0.7,0,1.1c-0.1,0.4-0.2,1-0.5,1.8c-0.2,0.7-0.5,1.6-0.9,2.7
		c0.1,0.1,0.2,0.2,0.5,0.3c0.2,0.1,0.5,0.3,0.7,0.4c0.3,0.1,0.5,0.2,0.7,0.2c0.5-1,1-2.1,1.6-3.3c0.6-1.2,1.1-2.3,1.7-3.5
		c0.6-1.2,1.1-2.3,1.6-3.2c1.5-2.9,3-5.7,4.4-8.3c1.4-2.6,2.7-5.1,3.9-7.4c0.4-0.8,0.6-1.4,0.8-1.8c0.1-0.4,0.2-0.8,0.1-1
		c-0.1-0.2-0.2-0.4-0.3-0.5c-0.3-0.4-0.7-0.8-1.1-1.4c-0.5-0.5-1-1-1.5-1.6c-0.6-0.5-1.1-1.1-1.7-1.6c-0.5-0.5-1-0.9-1.5-1.3
		c-0.4-0.4-0.8-0.7-1-0.9c-0.1,0-0.3,0.2-0.6,0.4c-0.3,0.2-0.5,0.4-0.7,0.7c-0.2,0.3-0.4,0.4-0.4,0.6c0.8,0.9,1.5,1.9,2.1,2.8
		c0.6,1,1.1,1.9,1.5,2.7c0.3,0.6,0.4,1.2,0.5,1.7c0.1,0.5,0,1-0.2,1.6c-0.2,0.6-0.5,1.2-0.9,2.1c-0.5,1-1,2-1.5,2.9
		c-0.5,0.9-0.9,1.7-1.3,2.3c-0.4,0.7-0.7,1.1-1,1.5c-0.3,0.3-0.6,0.5-1.1,0.5c-0.4,0-0.9,0-1.3-0.3l-9.7-5c-0.1,0-0.1-0.1-0.2-0.3
		c-0.1-0.1-0.1-0.3-0.1-0.4c0.2-0.4,0.5-1,0.8-1.6c0.3-0.7,0.7-1.3,1.1-2.1c0.4-0.7,0.7-1.4,1-1.9c0.3-0.6,0.5-1,0.7-1.2
		c0.4-0.5,0.8-0.8,1.2-1c0.4-0.1,0.9-0.2,1.4-0.1l2.5,0.6c0.1-0.1,0.2-0.2,0.3-0.4c0.1-0.2,0.2-0.4,0.3-0.7c0.1-0.2,0.2-0.5,0.3-0.7
		c0.1-0.2,0.1-0.4,0.1-0.5c-0.5-0.2-1.2-0.5-1.8-0.9c-0.7-0.3-1.4-0.7-2-1c-0.7-0.3-1.3-0.6-1.8-0.9c-0.6-0.3-1.2-0.7-1.8-1
		c-0.6-0.4-1.3-0.7-1.8-1.1c-0.6-0.3-1.1-0.7-1.5-0.9c-0.1,0-0.2,0.2-0.4,0.4c-0.1,0.2-0.3,0.4-0.4,0.6c-0.1,0.2-0.3,0.5-0.3,0.7
		c-0.1,0.2-0.1,0.4-0.1,0.5c0.3,0.3,0.6,0.5,0.9,0.8c0.3,0.2,0.6,0.5,0.8,0.7c0.6,0.5,1,1,1.1,1.4c0.1,0.5,0.1,1-0.2,1.5
		c-0.2,0.5-0.5,1-0.8,1.7c-0.3,0.6-0.6,1.3-1,2c-0.4,0.7-0.7,1.3-1,1.9c-0.3,0.6-0.6,1.1-0.8,1.5c0,0.1-0.1,0.2-0.3,0.2
		c-0.1,0-0.2,0-0.4,0c-1.9-1-3.7-1.9-5.5-2.8c-1.8-0.9-3.5-1.8-5.3-2.7c-0.1-0.1-0.2-0.1-0.3-0.3c-0.1-0.1-0.2-0.3-0.3-0.4
		c-0.1-0.1-0.1-0.3-0.1-0.4c0.1-0.2,0.2-0.5,0.5-1c0.2-0.5,0.5-1,0.8-1.7c0.3-0.6,0.7-1.3,1-1.9c0.3-0.6,0.7-1.2,1-1.8
		c0.3-0.5,0.5-0.9,0.7-1.2c0.2-0.4,0.5-0.7,0.9-1.1c0.4-0.3,1-0.5,1.7-0.5c0.5,0,1.2,0.1,1.9,0.2c0.7,0.2,1.6,0.4,2.7,0.8
		c0.1-0.1,0.2-0.3,0.4-0.6c0.1-0.3,0.3-0.6,0.4-0.9c0.1-0.3,0.2-0.5,0.1-0.7c-1-0.6-2-1.2-3.1-1.8c-1-0.6-2-1.2-2.8-1.8
		c-0.9-0.6-1.6-1-2.1-1.5c-0.1,0-0.1,0-0.2,0c-0.1,0-0.1,0-0.1,0.1c-0.2,0.7-0.6,1.5-0.9,2.3c-0.4,0.9-0.8,1.7-1.2,2.6
		c-0.4,0.9-0.8,1.7-1.2,2.4l-5.7,11.1c-0.5,0.9-1,1.9-1.5,2.9c-0.5,1-1.1,2-1.6,2.9c-0.5,0.9-1,1.8-1.3,2.5c0,0.1,0.2,0.3,0.4,0.4
		c0.2,0.2,0.5,0.3,0.8,0.5C32.5,161.3,32.8,161.4,32.9,161.4z"/>
	<path fill-rule="evenodd" clip-rule="evenodd" fill="#0066B3" d="M356.9,18c0.4,0.2,0.8,0.4,1.1,0.6c0.3,0.2,0.6,0.4,0.9,0.5
		c0.3,0.2,0.6,0.4,0.9,0.6c0.5,0.3,0.7,0.8,0.8,1.2c0.1,0.5,0,1-0.2,1.7c-0.2,0.6-0.4,1.3-0.6,2c-0.2,0.7-0.5,1.5-0.8,2.4
		c-0.3,0.9-0.7,1.9-1.1,3.1c-0.4,1.2-0.9,2.5-1.5,4c-0.4,1-0.7,2-1.1,3c-0.4,1.1-0.8,2.1-1.2,3.2c-0.4,1.1-0.8,2-1.1,3
		c-0.4,0.9-0.7,1.8-1,2.5c-0.3,0.7-0.5,1.3-0.7,1.7c-0.4,0.8-0.7,1.4-1,1.8c-0.3,0.4-0.6,0.6-1,0.7c-0.3,0.1-0.7,0.1-1.2,0
		c-0.3,0-0.7-0.1-1.1-0.1c-0.4-0.1-0.9-0.2-1.6-0.3c-0.1,0.1-0.3,0.2-0.4,0.5c-0.1,0.3-0.2,0.5-0.3,0.8c-0.1,0.3-0.1,0.5,0,0.7
		c0.5,0.2,1.1,0.4,1.6,0.6c0.5,0.2,1.1,0.4,1.8,0.6c0.7,0.2,1.4,0.5,2.4,0.8c0.9,0.3,2,0.7,3.3,1.2c1.5,0.5,2.9,1.1,4.3,1.7
		c1.4,0.6,2.8,1.1,4.3,1.7c0.1,0,0.2-0.1,0.4-0.3c0.1-0.2,0.2-0.4,0.3-0.6c0.1-0.2,0.2-0.4,0.3-0.6c0.1-0.2,0.1-0.3,0.1-0.4
		c-0.6-0.4-1.2-0.7-1.7-1c-0.5-0.3-1-0.6-1.3-0.8c-0.5-0.3-0.8-0.7-0.9-1.1c-0.1-0.4-0.2-0.8-0.1-1.2c0.1-0.4,0.2-0.8,0.3-1.1
		c0.2-0.8,0.6-1.8,1-3c0.4-1.2,1-2.7,1.6-4.5c0.6-1.8,1.4-3.8,2.3-6.1c0.6-1.7,1.2-3.2,1.7-4.7c0.5-1.4,1-2.7,1.4-3.7
		c0.4-1.1,0.7-1.9,1-2.5c0.2-0.6,0.5-1,0.7-1.4c0.2-0.4,0.4-0.6,0.7-0.8c0.3-0.2,0.6-0.3,1.1-0.3c0.5,0,0.9,0.1,1.4,0.1
		c0.5,0.1,1.1,0.2,1.7,0.3c0.1-0.1,0.3-0.2,0.4-0.5c0.1-0.3,0.2-0.5,0.3-0.8c0.1-0.3,0.1-0.5,0-0.6c-0.3-0.1-0.7-0.2-1.1-0.4
		c-0.4-0.1-1-0.3-1.6-0.5c-0.6-0.2-1.4-0.5-2.4-0.8c-1-0.3-2.2-0.8-3.6-1.3c-1.3-0.5-2.5-1-3.5-1.4c-1-0.4-1.9-0.8-2.7-1.1
		c-0.8-0.3-1.6-0.6-2.2-0.9c-0.1,0.1-0.2,0.2-0.3,0.5c-0.1,0.2-0.2,0.5-0.3,0.8C357,17.5,356.9,17.8,356.9,18z"/>
	<path fill-rule="evenodd" clip-rule="evenodd" fill="#0066B3" d="M314.3,39.9c-0.1,0.1-0.3,0.2-0.4,0.5c-0.1,0.3-0.2,0.5-0.2,0.8
		c0,0.3-0.1,0.5,0,0.7c0.8,0.2,1.8,0.5,3,0.8c1.2,0.3,2.4,0.7,3.7,1.1c1.3,0.4,2.6,0.7,3.8,1.1c1.2,0.4,2.3,0.7,3.3,1
		c1,0.3,1.8,0.5,2.3,0.7c1.8,0.5,3.5,0.8,5.2,1c1.7,0.2,3.3,0.2,4.8-0.1c1.8-0.3,3.3-0.8,4.6-1.6c1.3-0.8,2.4-1.8,3.2-3
		c0.9-1.2,1.5-2.5,1.9-4c0.4-1.4,0.5-2.7,0.4-4.1c-0.1-1.3-0.6-2.6-1.3-3.8c-0.7-1.2-1.8-2.3-3.2-3.2c-1.4-1-3.2-1.7-5.3-2.3
		c-1.5-0.4-2.8-0.7-3.9-1c-1.1-0.2-1.9-0.4-2.4-0.5c-0.1,0-0.1-0.1-0.2-0.1c0-0.1,0-0.1,0-0.2c0.3-1.3,0.6-2.4,0.9-3.3
		c0.2-0.9,0.5-1.7,0.6-2.4c0.2-0.6,0.3-1.2,0.5-1.7c0.1-0.5,0.3-1,0.4-1.4c0.3-0.8,0.6-1.4,0.9-1.8c0.4-0.4,0.9-0.6,1.6-0.7
		c0.4,0,0.9,0,1.4,0c0.5,0,1.1,0.1,1.8,0.2c0.1,0,0.2-0.2,0.3-0.4c0.1-0.2,0.2-0.4,0.2-0.6c0.1-0.3,0.1-0.5,0.1-0.7
		c0-0.2,0-0.3,0-0.4c-1.2-0.3-2.5-0.6-3.9-1c-1.5-0.3-3.2-0.8-5.2-1.3c-1.9-0.5-3.7-1-5.2-1.5c-1.5-0.5-2.8-0.9-3.8-1.1
		c-0.1,0-0.1,0.1-0.2,0.3c-0.1,0.2-0.2,0.4-0.2,0.6c-0.1,0.2-0.1,0.5-0.1,0.7c0,0.2,0,0.4,0,0.5c0.5,0.2,1,0.4,1.6,0.7
		c0.6,0.3,1,0.5,1.5,0.8c0.3,0.2,0.6,0.4,0.7,0.7c0.2,0.2,0.3,0.5,0.3,0.9c0,0.4,0,0.8-0.2,1.4c-0.2,0.8-0.4,1.6-0.5,2.4
		c-0.2,0.8-0.4,1.7-0.7,2.6c-0.2,0.9-0.5,2-0.8,3.1c-0.3,1.2-0.7,2.5-1.1,4c-0.6,2.3-1.2,4.3-1.7,6.2c-0.5,1.9-1,3.4-1.3,4.7
		c-0.4,1.3-0.6,2.2-0.8,2.7c-0.3,0.8-0.6,1.4-1,1.8c-0.3,0.4-0.8,0.6-1.3,0.6c-0.5,0-1.1,0-1.8,0C316,40.1,315.2,40,314.3,39.9
		L314.3,39.9z M332.6,44.8c-0.3-0.1-0.6-0.2-1-0.4c-0.4-0.2-0.8-0.5-1.1-0.9c-0.4-0.4-0.7-0.8-1-1.4c-0.1-0.3-0.2-0.6-0.2-0.9
		c0-0.3,0-0.6,0.1-0.8c0.2-0.9,0.4-1.9,0.7-3c0.3-1.1,0.6-2.3,0.9-3.5c0.3-1.2,0.6-2.4,1-3.6c0.3-1.2,0.6-2.4,0.9-3.5
		c0-0.1,0.1-0.2,0.1-0.2c0.1-0.1,0.1-0.1,0.2-0.1c0.1,0,0.3,0,0.6,0.1c0.2,0,0.5,0.1,0.7,0.2c0.3,0.1,0.4,0.1,0.6,0.1
		c1.7,0.5,3,1.2,3.9,2.2c0.9,1,1.5,2.3,1.7,3.8c0.2,1.5,0,3.3-0.5,5.2c-0.7,2.6-1.7,4.5-2.9,5.6C335.9,45,334.4,45.3,332.6,44.8z"/>
	<path fill-rule="evenodd" clip-rule="evenodd" fill="#0066B3" d="M269,2.1c0.6,0.1,1.2,0.3,1.7,0.4c0.5,0.1,1,0.3,1.5,0.4
		c0.4,0.1,0.7,0.3,0.9,0.6c0.2,0.2,0.3,0.6,0.4,1c0.1,0.4,0.1,0.9,0.1,1.6c0,0.5-0.1,1.1-0.1,2c-0.1,0.9-0.1,1.9-0.2,3.1
		c-0.1,1.2-0.2,2.5-0.3,3.9c-0.1,1.4-0.2,2.8-0.3,4.4c-0.1,1.4-0.2,2.7-0.3,4.1c-0.1,1.3-0.2,2.5-0.3,3.7c-0.1,1.1-0.2,2.1-0.2,2.8
		c-0.1,0.8-0.1,1.3-0.2,1.5c-0.1,0.9-0.3,1.6-0.5,2.1c-0.2,0.5-0.4,0.9-0.8,1.2c-0.3,0.3-0.8,0.4-1.3,0.5l-2.9,0.3
		c-0.1,0.1-0.1,0.2-0.2,0.4c0,0.2-0.1,0.4-0.1,0.7c0,0.2,0,0.5,0,0.7c0,0.2,0.1,0.3,0.1,0.4c0.6,0,1.7,0.1,3.2,0.2
		c1.5,0.1,3.5,0.2,5.8,0.4c1.9,0.1,3.5,0.3,4.8,0.4c1.3,0.1,2.4,0.2,3.2,0.3c0.8,0.1,1.4,0.2,1.8,0.2c0.1-0.1,0.2-0.3,0.3-0.6
		c0.1-0.3,0.2-0.6,0.2-0.9c0-0.3,0-0.5-0.1-0.6c-0.6-0.2-1.2-0.3-1.8-0.5c-0.6-0.2-1.1-0.3-1.5-0.5c-0.5-0.2-0.8-0.4-1-0.7
		c-0.2-0.3-0.4-0.7-0.4-1.1c0-0.4,0-1,0-1.6c0.1-0.9,0.1-2,0.2-3.2c0.1-1.2,0.2-2.4,0.3-3.7c0.1-1.3,0.2-2.6,0.3-3.9
		c0,0,0-0.1,0.1-0.2c0-0.1,0.1-0.1,0.1-0.2c0,0,0.2,0,0.3,0c0.2,0,0.5,0,1,0c0.5,0,1.3,0.1,2.3,0.2c1,0.1,2.4,0.2,4.2,0.3
		c0.9,0.1,1.8,0.1,2.8,0.2c0.9,0.1,1.7,0.1,2.5,0.2c0.7,0.1,1.3,0.1,1.7,0.2c0.1,0,0.2,0.1,0.2,0.2c0,0.1,0.1,0.2,0.1,0.3
		c-0.1,1.4-0.2,2.7-0.3,4.1c-0.1,1.4-0.2,2.7-0.3,3.9c-0.1,1.2-0.2,2.3-0.3,3.3c-0.1,1-0.3,1.7-0.6,2.1c-0.3,0.5-0.7,0.7-1.2,0.8
		c-0.4,0.1-0.9,0.1-1.4,0.2c-0.5,0.1-1,0.1-1.6,0.2c-0.1,0.1-0.2,0.3-0.3,0.6c-0.1,0.3-0.1,0.6-0.1,0.9c0,0.3,0.1,0.5,0.2,0.6
		c0.5,0,1.2,0.1,2.1,0.1c1,0,2.1,0.1,3.3,0.2c1.3,0.1,2.6,0.1,4,0.3c2.2,0.2,4.1,0.4,5.6,0.5c1.6,0.2,2.7,0.3,3.5,0.4
		c0.1,0,0.2-0.2,0.2-0.4s0.1-0.4,0.2-0.7c0-0.2,0.1-0.5,0.1-0.7c0-0.2,0-0.3,0-0.4c-0.7-0.2-1.3-0.3-1.7-0.4
		c-0.5-0.1-0.9-0.2-1.2-0.3c-0.3-0.1-0.7-0.2-0.9-0.3c-0.5-0.3-0.8-0.6-0.9-1.2c-0.1-0.5-0.2-1.2-0.1-2c0-0.7,0.1-1.5,0.1-2.4
		c0-0.9,0.1-1.9,0.2-2.9c0.1-1,0.1-2.1,0.2-3.2c0.1-1.1,0.2-2.2,0.2-3.2c0.1-1.9,0.3-3.5,0.4-4.9c0.1-1.4,0.2-2.6,0.3-3.6
		c0.1-1,0.2-2,0.3-3c0.1-0.9,0.2-1.9,0.3-2.9c0.1-0.6,0.2-1.1,0.3-1.5c0.1-0.4,0.3-0.7,0.6-0.8c0.2-0.2,0.5-0.3,0.9-0.4
		c0.4-0.1,0.8-0.2,1.3-0.3c0.5,0,1.1-0.1,1.6-0.1c0.1-0.1,0.2-0.3,0.3-0.6c0.1-0.3,0.1-0.6,0.1-0.9c0-0.3,0-0.5-0.1-0.6
		c-0.4,0-0.9-0.1-1.4-0.1c-0.5,0-1.1,0-1.8-0.1c-0.7,0-1.4-0.1-2.4-0.1c-0.9,0-2-0.1-3.3-0.2c-1.2-0.1-2.2-0.2-3.1-0.3
		c-0.9-0.1-1.7-0.2-2.4-0.2c-0.7-0.1-1.4-0.2-2-0.2c-0.6-0.1-1.2-0.1-1.9-0.2c-0.1,0.1-0.2,0.3-0.3,0.6c-0.1,0.3-0.1,0.6-0.1,0.9
		c0,0.3,0.1,0.5,0.2,0.6c0.7,0.1,1.4,0.3,1.9,0.4c0.5,0.1,1,0.3,1.4,0.5c0.3,0.1,0.5,0.3,0.7,0.6c0.2,0.2,0.3,0.5,0.3,0.8
		c0.1,0.3,0.1,0.6,0.1,0.9c0,1.1-0.1,2.4-0.2,3.7c-0.1,1.3-0.2,2.6-0.3,3.9c-0.1,1.3-0.2,2.4-0.3,3.5c0,0.1-0.1,0.2-0.2,0.2
		c-0.1,0.1-0.2,0.1-0.3,0.2c-0.4,0-1.1,0-2.2-0.1c-1.1-0.1-2.6-0.2-4.5-0.3c-1.6-0.1-3-0.2-4-0.3c-1-0.1-1.8-0.1-2.3-0.2
		c-0.5-0.1-0.9-0.1-1.1-0.1c-0.2,0-0.4-0.1-0.5-0.1c-0.1,0-0.1-0.1-0.2-0.2c0-0.1-0.1-0.2-0.1-0.3c0.1-1.1,0.2-2.3,0.3-3.5
		c0.1-1.2,0.2-2.3,0.3-3.5c0.1-1.1,0.2-2.2,0.3-3.2c0.1-0.9,0.2-1.6,0.5-2.1c0.3-0.5,0.7-0.8,1.3-0.9c0.2-0.1,0.5-0.1,0.8-0.2
		c0.3,0,0.7-0.1,1-0.1c0.4,0,0.7,0,1.1-0.1c0.1-0.1,0.2-0.3,0.2-0.5c0.1-0.3,0.1-0.6,0.1-0.9c0-0.3,0-0.5-0.1-0.7
		c-0.5,0-1.2-0.1-2-0.1c-0.8,0-1.8-0.1-3-0.1c-1.2-0.1-2.6-0.1-4.1-0.3c-1.7-0.1-3.1-0.3-4.3-0.4c-1.2-0.1-2.1-0.2-2.9-0.3
		c-0.8-0.1-1.4-0.2-1.9-0.2c-0.1,0-0.1,0.2-0.2,0.4C269,0.6,269,0.8,269,1c0,0.2,0,0.5,0,0.7C268.9,1.9,269,2,269,2.1z"/>
	<path fill-rule="evenodd" clip-rule="evenodd" fill="#0066B3" d="M230,39.6c-0.1,0.1-0.2,0.3-0.2,0.6c0,0.3,0,0.6,0.1,0.9
		c0.1,0.3,0.2,0.5,0.3,0.6c0.7-0.1,1.6-0.2,2.5-0.3c1-0.1,2-0.2,3.1-0.3c1.1-0.1,2.2-0.2,3.4-0.3c1.1-0.1,2.2-0.2,3.2-0.3
		c1-0.1,1.9-0.2,2.7-0.3c0.8-0.1,1.4-0.2,1.9-0.2c1.2-0.1,2.4-0.4,3.6-0.6c1.2-0.3,2.4-0.6,3.4-1c1.1-0.4,2.1-0.9,3-1.4
		c1.6-0.9,2.8-2,3.7-3.2c0.9-1.2,1.6-2.5,1.9-3.9c0.4-1.4,0.4-2.8,0.3-4.3c-0.2-1.4-0.6-2.7-1.2-3.9c-0.6-1.2-1.5-2.2-2.7-3.1
		c-1.1-0.8-2.5-1.5-4.2-1.8c-1.6-0.4-3.5-0.4-5.7-0.2c-1.9,0.2-3.5,0.4-4.7,0.6c-1.2,0.2-2,0.3-2.4,0.4c-0.1,0-0.2-0.1-0.2-0.1
		c0,0-0.1-0.1-0.1-0.2c-0.2-1.3-0.3-2.4-0.4-3.4c-0.1-0.9-0.2-1.7-0.3-2.4c-0.1-0.7-0.1-1.3-0.2-1.8c-0.1-0.5-0.1-1-0.1-1.5
		c0-0.6,0-1.1,0-1.5c0.1-0.4,0.2-0.8,0.4-1c0.2-0.3,0.5-0.5,0.9-0.7c0.4-0.2,0.9-0.4,1.4-0.5c0.5-0.1,1.1-0.3,1.7-0.5
		c0.1-0.1,0.1-0.2,0.1-0.4c0-0.2,0-0.4,0-0.7c0-0.3-0.1-0.5-0.1-0.7c-0.1-0.2-0.1-0.3-0.2-0.3c-1.2,0.2-2.5,0.3-4,0.6
		c-1.5,0.2-3.3,0.5-5.3,0.7c-2,0.3-3.8,0.4-5.4,0.5c-1.6,0.1-2.9,0.2-3.9,0.4c-0.1,0-0.1,0.2-0.1,0.4c0,0.2,0,0.4,0,0.6
		c0,0.2,0.1,0.5,0.1,0.7c0,0.2,0.1,0.4,0.2,0.4c0.6,0,1.1,0,1.7,0c0.6,0,1.2,0.1,1.7,0.2c0.4,0.1,0.7,0.2,0.9,0.3
		c0.2,0.1,0.5,0.4,0.6,0.7c0.2,0.3,0.3,0.7,0.4,1.3c0.2,0.8,0.3,1.7,0.4,2.5c0.1,0.8,0.2,1.7,0.3,2.7c0.1,0.9,0.2,2,0.4,3.2
		c0.1,1.2,0.3,2.6,0.5,4.1c0.3,2.3,0.5,4.5,0.8,6.4c0.2,1.9,0.4,3.6,0.5,4.9c0.1,1.3,0.2,2.3,0.3,2.8c0,0.9-0.1,1.5-0.3,2
		c-0.2,0.5-0.5,0.8-0.9,1c-0.5,0.2-1,0.4-1.7,0.6C231.6,39.2,230.8,39.4,230,39.6L230,39.6z M249,37.3c-0.3,0-0.7,0-1.1,0
		c-0.5-0.1-0.9-0.2-1.5-0.4c-0.5-0.2-1-0.5-1.5-0.9c-0.2-0.2-0.4-0.4-0.5-0.7c-0.1-0.3-0.2-0.5-0.3-0.8c-0.2-0.9-0.3-2-0.5-3.1
		c-0.2-1.1-0.3-2.3-0.5-3.5c-0.2-1.2-0.3-2.5-0.5-3.7c-0.1-1.2-0.3-2.4-0.4-3.5c0-0.1,0-0.2,0.1-0.3c0.1-0.1,0.1-0.2,0.1-0.2
		c0.1,0,0.3-0.1,0.5-0.1c0.2,0,0.4-0.1,0.7-0.1c0.2,0,0.4-0.1,0.6-0.1c1.9-0.2,3.5,0,4.9,0.6c1.4,0.6,2.5,1.5,3.3,2.9
		c0.8,1.3,1.4,3,1.6,5c0.3,2.7,0.1,4.8-0.8,6.3C252.3,36.2,250.9,37.1,249,37.3z"/>
	<path fill-rule="evenodd" clip-rule="evenodd" fill="#0066B3" d="M187,51.6c-0.1,0.1-0.1,0.4,0,0.7c0.1,0.3,0.1,0.6,0.3,0.8
		c0.1,0.3,0.2,0.5,0.3,0.5c1-0.3,2.1-0.7,3.3-1.1c1.1-0.4,2.3-0.8,3.4-1.1c1.7-0.5,3.2-0.9,4.4-1.2c1.2-0.3,2.3-0.6,3.1-0.8
		c0.1-0.1,0.1-0.4,0-0.7c0-0.3-0.1-0.6-0.2-0.9c-0.1-0.3-0.2-0.5-0.3-0.5c-0.6,0-1.1,0.1-1.5,0.1c-0.5,0.1-0.9,0.1-1.4,0.1
		c-0.9,0.1-1.6-0.1-1.9-0.6c-0.4-0.5-0.5-1.3-0.6-2.6c0-0.7,0-1.7,0-2.9c0-1.2,0.1-2.5,0.1-4c0-1.5,0.1-3,0.2-4.6
		c0.1-1.6,0.1-3.1,0.2-4.6c0.1-1.5,0.1-2.9,0.2-4.1c0.1-1.2,0.1-2.3,0.1-3.1c0,0,0-0.1,0.1,0c0.1,0,0.1,0,0.1,0
		c0.7,1,1.6,2.2,2.5,3.5c0.9,1.3,1.9,2.7,2.9,4.1c1,1.4,2,2.9,3,4.3c1,1.4,1.9,2.7,2.8,4c0.8,1.2,1.6,2.3,2.2,3.2
		c0.6,0.9,1,1.6,1.3,2c0.1,0.1,0.1,0.3,0.1,0.5c0,0.2-0.1,0.5-0.3,0.8c-0.2,0.2-0.4,0.4-0.7,0.6c-0.3,0.2-0.7,0.4-1.1,0.6
		c-0.4,0.2-0.7,0.4-0.9,0.5c-0.1,0.1-0.1,0.3,0,0.6c0.1,0.3,0.2,0.6,0.3,0.8c0.1,0.3,0.3,0.5,0.4,0.5c0.5-0.2,1.1-0.3,1.6-0.5
		c0.5-0.2,1.2-0.4,1.8-0.6c0.7-0.2,1.5-0.5,2.4-0.8c0.9-0.3,2-0.6,3.2-1c1.5-0.5,2.9-0.8,4-1.1c1.1-0.3,2.1-0.6,2.9-0.8
		c0.8-0.2,1.4-0.4,1.9-0.5c0.1-0.1,0.1-0.2,0.1-0.4c0-0.2,0-0.4-0.1-0.7c0-0.2-0.1-0.5-0.2-0.7c-0.1-0.2-0.1-0.3-0.2-0.3
		c-1.2,0.2-2.1,0.2-2.8,0.2c-0.7,0-1.4-0.1-1.9-0.4c-0.5-0.3-1.1-0.7-1.7-1.3c-0.6-0.6-1.3-1.5-2.1-2.6c-0.6-0.8-1.3-1.8-2.2-2.9
		c-0.8-1.1-1.8-2.4-2.8-3.7c-1-1.4-2-2.7-3.1-4.2c-1-1.4-2.1-2.8-3.1-4.2c-1-1.4-1.9-2.7-2.8-3.9c-0.9-1.2-1.6-2.2-2.3-3.1l-2-3.1
		c-0.4,0.2-0.8,0.3-1.3,0.5c-0.5,0.2-1,0.3-1.6,0.5c-0.5,0.2-1.1,0.3-1.6,0.4c-0.5,0.1-1,0.2-1.5,0.3c0,0.4,0.1,0.8,0.1,1.3
		c0,0.5,0,1.1,0,1.6c0,0.6,0,1.1-0.1,1.5c0,0.8-0.1,1.8-0.2,3.1c-0.1,1.3-0.2,2.7-0.3,4.3c-0.1,1.6-0.2,3.3-0.3,5.1
		c-0.1,1.8-0.3,3.6-0.4,5.4c-0.1,1.8-0.3,3.6-0.5,5.3c-0.2,1.7-0.3,3.3-0.5,4.8c-0.1,0.9-0.2,1.7-0.4,2.4c-0.2,0.6-0.5,1.2-0.8,1.6
		c-0.4,0.5-0.8,0.9-1.5,1.3C188.7,50.7,188,51.2,187,51.6z"/>
	<path fill-rule="evenodd" clip-rule="evenodd" fill="#0066B3" d="M472.1,99.6c0.3,0.6,0.5,1.1,0.7,1.6c0.2,0.5,0.4,0.9,0.6,1.4
		c0.1,0.4,0.2,0.8,0.1,1.1c-0.1,0.3-0.2,0.6-0.5,0.9c-0.3,0.3-0.7,0.7-1.2,1.1c-0.4,0.3-0.9,0.7-1.7,1.1c-0.7,0.5-1.6,1.1-2.6,1.7
		c-1,0.7-2,1.4-3.2,2.1c-1.2,0.8-2.4,1.6-3.7,2.4c-1.1,0.8-2.3,1.5-3.4,2.2c-1.1,0.7-2.1,1.4-3.1,2c-0.9,0.6-1.7,1.1-2.4,1.6
		c-0.6,0.4-1.1,0.7-1.3,0.8c-0.8,0.4-1.4,0.7-1.9,0.9c-0.5,0.2-1,0.2-1.4,0.1c-0.4-0.1-0.8-0.3-1.2-0.7l-2-2.1c-0.1,0-0.2,0-0.4,0.1
		c-0.2,0.1-0.4,0.2-0.6,0.3c-0.2,0.1-0.4,0.3-0.5,0.4c-0.1,0.1-0.2,0.2-0.2,0.3c0.4,0.5,1,1.4,1.8,2.6c0.9,1.2,2,2.8,3.3,4.8
		c1,1.6,1.9,2.9,2.6,4.1c0.7,1.1,1.3,2,1.7,2.7c0.4,0.7,0.7,1.2,0.9,1.5c0.1,0,0.3,0,0.6-0.1c0.3-0.1,0.6-0.2,0.8-0.4
		c0.3-0.2,0.4-0.3,0.5-0.4c-0.2-0.6-0.5-1.2-0.7-1.8c-0.2-0.6-0.4-1.1-0.5-1.5c-0.1-0.5-0.2-0.9-0.1-1.3c0.1-0.4,0.3-0.7,0.7-1
		c0.3-0.3,0.7-0.6,1.2-0.9c0.8-0.5,1.7-1.1,2.6-1.8c1-0.7,2-1.4,3.1-2.1c1.1-0.7,2.2-1.4,3.3-2.2c0,0,0.1,0,0.2-0.1
		c0.1,0,0.1,0,0.2,0c0,0,0.1,0.1,0.2,0.2c0.1,0.1,0.3,0.4,0.6,0.8c0.3,0.4,0.7,1.1,1.3,1.9c0.6,0.9,1.4,2,2.4,3.5
		c0.5,0.8,1,1.5,1.5,2.3c0.5,0.8,0.9,1.5,1.4,2.1c0.4,0.6,0.7,1.1,0.9,1.5c0,0.1,0.1,0.2,0,0.3c0,0.1-0.1,0.2-0.2,0.2
		c-1.1,0.7-2.3,1.5-3.4,2.3c-1.1,0.8-2.2,1.5-3.2,2.1c-1,0.7-2,1.3-2.8,1.8c-0.8,0.5-1.5,0.8-2.1,0.8c-0.5,0-1-0.1-1.4-0.5
		c-0.3-0.3-0.6-0.6-1-1c-0.3-0.3-0.7-0.8-1.1-1.2c-0.2,0-0.4,0-0.6,0.2c-0.3,0.1-0.5,0.3-0.7,0.5c-0.2,0.2-0.3,0.4-0.4,0.5
		c0.3,0.4,0.7,1,1.2,1.7c0.6,0.8,1.2,1.7,1.9,2.7c0.7,1,1.5,2.1,2.2,3.3c1.2,1.9,2.2,3.4,3,4.8c0.8,1.3,1.4,2.3,1.9,3
		c0.1,0,0.2,0,0.4,0c0.2-0.1,0.4-0.2,0.6-0.3c0.2-0.1,0.4-0.2,0.6-0.3c0.2-0.1,0.3-0.2,0.3-0.3c-0.3-0.6-0.5-1.2-0.7-1.6
		c-0.2-0.4-0.4-0.8-0.5-1.2c-0.1-0.3-0.2-0.7-0.3-0.9c-0.1-0.5,0-1,0.4-1.4c0.3-0.4,0.8-0.9,1.5-1.4c0.6-0.4,1.2-0.9,2-1.4
		c0.7-0.5,1.6-1.1,2.4-1.6c0.9-0.6,1.7-1.2,2.7-1.8c0.9-0.6,1.8-1.2,2.7-1.8c1.6-1,2.9-1.9,4.1-2.7c1.1-0.8,2.1-1.4,3-2
		c0.9-0.6,1.7-1.1,2.5-1.6c0.8-0.5,1.6-1,2.5-1.5c0.5-0.3,1-0.6,1.4-0.7c0.4-0.1,0.7-0.2,1-0.1c0.3,0.1,0.6,0.2,0.9,0.5
		c0.3,0.2,0.7,0.5,1,0.9c0.4,0.4,0.7,0.8,1.1,1.2c0.2,0,0.4,0,0.6-0.2c0.3-0.1,0.5-0.3,0.8-0.5c0.2-0.2,0.4-0.3,0.4-0.5
		c-0.2-0.4-0.5-0.8-0.8-1.2c-0.3-0.4-0.6-0.9-1-1.4c-0.4-0.5-0.8-1.2-1.4-1.9c-0.5-0.7-1.1-1.7-1.8-2.7c-0.7-1-1.2-1.9-1.7-2.6
		c-0.5-0.8-0.9-1.4-1.3-2.1c-0.4-0.6-0.7-1.2-1-1.7c-0.3-0.5-0.7-1.1-1-1.6c-0.2,0-0.4,0-0.6,0.1c-0.3,0.1-0.5,0.3-0.8,0.5
		c-0.2,0.2-0.4,0.4-0.4,0.5c0.3,0.7,0.6,1.3,0.9,1.8c0.2,0.5,0.4,1,0.5,1.4c0.1,0.3,0.1,0.6,0,0.9c-0.1,0.3-0.3,0.5-0.5,0.7
		c-0.2,0.2-0.4,0.4-0.6,0.6c-0.9,0.7-1.9,1.4-3,2.1c-1.1,0.7-2.2,1.5-3.2,2.2c-1.1,0.7-2,1.3-2.9,1.9c-0.1,0-0.2,0.1-0.3,0
		c-0.1,0-0.2-0.1-0.3-0.1c-0.2-0.3-0.7-0.9-1.3-1.8c-0.6-0.9-1.4-2.2-2.5-3.7c-0.9-1.4-1.6-2.5-2.2-3.3c-0.6-0.8-1-1.5-1.3-1.9
		c-0.3-0.4-0.5-0.8-0.6-1c-0.1-0.2-0.2-0.4-0.2-0.5c0-0.1,0-0.2,0-0.3c0-0.1,0.1-0.2,0.2-0.2c1-0.6,1.9-1.3,2.9-1.9
		c1-0.7,1.9-1.3,2.9-1.9c1-0.6,1.9-1.2,2.7-1.7c0.8-0.5,1.4-0.8,1.9-0.9c0.5-0.1,1,0.1,1.5,0.4c0.2,0.1,0.4,0.3,0.6,0.5
		c0.2,0.2,0.5,0.5,0.7,0.7c0.3,0.3,0.5,0.5,0.7,0.8c0.1,0,0.3,0,0.6-0.1c0.3-0.1,0.5-0.3,0.8-0.5c0.2-0.2,0.4-0.4,0.4-0.5
		c-0.3-0.4-0.7-1-1.1-1.6c-0.5-0.7-1-1.5-1.7-2.4c-0.7-1-1.5-2.1-2.3-3.4c-0.9-1.4-1.7-2.6-2.3-3.6c-0.6-1-1.1-1.8-1.6-2.5
		c-0.4-0.7-0.7-1.2-1-1.6c-0.1,0-0.2,0-0.4,0.1c-0.2,0.1-0.4,0.2-0.6,0.3c-0.2,0.1-0.4,0.3-0.5,0.4
		C472.2,99.4,472.1,99.5,472.1,99.6z"/>
	<path fill-rule="evenodd" clip-rule="evenodd" fill="#0066B3" d="M427.1,97.1c-0.1,0-0.3,0.1-0.6,0.2c-0.3,0.1-0.5,0.3-0.8,0.5
		c-0.3,0.2-0.5,0.4-0.7,0.5c-0.5,0.5-0.8,1-1.2,1.5c-0.3,0.5-0.6,1.1-0.8,1.7c-0.2,0.6-0.3,1.1-0.3,1.6c0.1,0.5,0.3,1,0.6,1.4
		c0.3,0.4,0.6,0.8,1,1.2c0.8,0.7,1.7,1.2,2.7,1.5c1.1,0.3,2.2,0.4,3.5,0.3c1.2,0,2.5-0.2,3.8-0.4c1.3-0.2,2.5-0.5,3.7-0.9
		c1.6-0.4,3.4-1,5.4-1.7c2-0.7,4.1-1.5,6.3-2.3c2.2-0.8,4.4-1.7,6.7-2.7c2.3-0.9,4.5-1.9,6.6-2.8c0.7-0.3,1.3-0.6,1.9-0.7
		c0.6-0.2,1.1-0.3,1.7-0.2c0.6,0,1.2,0.2,1.9,0.5c0.7,0.3,1.5,0.7,2.4,1.4c0.1,0,0.2,0,0.4-0.1c0.2-0.1,0.4-0.2,0.5-0.4
		c0.2-0.2,0.3-0.4,0.4-0.5c0.1-0.2,0.2-0.3,0.1-0.4c-0.7-0.7-1.5-1.4-2.3-2.1c-0.8-0.7-1.7-1.5-2.6-2.4c-0.7-0.7-1.3-1.3-1.9-1.9
		c-0.6-0.6-1.1-1.1-1.7-1.7c-0.5-0.5-1.1-1.1-1.6-1.7c-0.1,0-0.2,0-0.4,0.1c-0.2,0.1-0.4,0.2-0.6,0.4c-0.2,0.2-0.3,0.3-0.5,0.5
		c-0.1,0.2-0.2,0.3-0.1,0.5c0.5,0.6,0.9,1.2,1.3,1.7c0.4,0.5,0.7,1,0.9,1.4c0.2,0.4,0.2,0.7,0.1,1.1c-0.2,0.4-0.5,0.7-1,1
		c-0.4,0.3-1,0.7-1.8,1.1c-0.8,0.4-1.7,0.9-2.8,1.4c-1,0.5-2.2,1.1-3.4,1.6c-1.2,0.6-2.4,1.1-3.6,1.6c-1.2,0.5-2.4,1-3.6,1.4
		c-0.1,0-0.2,0-0.2-0.1c-0.1-0.1-0.1-0.2-0.1-0.2c0.1-0.3,0.3-0.9,0.5-1.7c0.3-0.8,0.6-1.8,0.9-2.9c0.4-1.1,0.8-2.3,1.2-3.6
		c0.4-1.3,0.8-2.5,1.3-3.8c0.4-1.2,0.8-2.4,1.2-3.4c0.4-1,0.7-1.8,0.9-2.4c0.1-0.2,0.2-0.4,0.4-0.5c0.2-0.1,0.4-0.1,0.7,0
		c0.2,0.1,0.4,0.2,0.6,0.3c0.2,0.1,0.5,0.3,0.8,0.5c0.3,0.2,0.6,0.4,0.9,0.6c0.1,0,0.2,0,0.4-0.2c0.2-0.1,0.3-0.3,0.5-0.5
		c0.2-0.2,0.3-0.4,0.4-0.6c0.1-0.2,0.2-0.3,0.2-0.4c-0.1-0.1-0.4-0.4-0.9-0.8c-0.4-0.4-1-0.9-1.6-1.5c-0.6-0.6-1.3-1.2-2.1-1.9
		c-0.7-0.7-1.5-1.4-2.3-2.2c-1-0.9-1.9-1.8-2.7-2.7c-0.8-0.9-1.6-1.6-2.2-2.2c-0.6-0.6-1.1-1.1-1.4-1.4c-0.1,0-0.3,0.1-0.6,0.3
		c-0.2,0.2-0.5,0.4-0.6,0.6c-0.2,0.2-0.3,0.4-0.3,0.6c0.6,0.8,1.1,1.5,1.5,2.1c0.4,0.6,0.6,1.1,0.7,1.7c0.1,0.6,0.1,1.3-0.1,2.2
		c-0.2,0.9-0.5,2-0.9,3.5c-0.4,1.2-0.8,2.6-1.2,4c-0.5,1.5-0.9,3-1.4,4.6c-0.5,1.6-1,3.2-1.5,4.7c-0.5,1.5-0.9,3-1.4,4.3
		c-0.4,1.3-0.8,2.4-1.1,3.4c-0.3,0.9-0.5,1.6-0.7,2c-0.1,0.1-0.1,0.3-0.3,0.4c-0.1,0.2-0.2,0.3-0.4,0.5c-0.1,0.1-0.2,0.2-0.4,0.3
		c-1.1,0.4-2,0.6-2.8,0.4c-0.8-0.2-1.5-0.6-2.2-1.3c-0.4-0.4-0.8-0.8-1.1-1.3c-0.4-0.5-0.7-1.1-1-1.6c-0.3-0.6-0.6-1.1-0.8-1.6
		C427.4,97.9,427.2,97.4,427.1,97.1z"/>
	<path fill-rule="evenodd" clip-rule="evenodd" fill="#0066B3" d="M403.3,24.4c-0.5,0-1,0-1.5,0.1c-0.5,0.1-1,0.2-1.5,0.4
		c-0.4,0.2-0.7,0.4-0.9,0.7c-0.5,0.8-0.7,1.6-0.7,2.5c0,0.9,0.3,1.7,0.7,2.5c0.4,0.8,1,1.6,1.7,2.3c0.7,0.7,1.5,1.4,2.4,1.9
		c1.3,0.8,2.5,1.3,3.9,1.6c1.3,0.3,2.6,0.4,3.9,0.2c1.3-0.1,2.5-0.5,3.6-0.9c1.1-0.5,2.1-1.2,2.9-2c0-0.1,0-0.2-0.1-0.3
		c-0.1-0.1-0.1-0.2-0.2-0.3c0,0-0.2,0-0.4-0.1c-0.2,0-0.5,0-0.7-0.1c-0.3,0-0.5,0-0.7,0c-0.2,0-0.4,0-0.5,0c-1.1,0.5-2.1,0.8-3,0.8
		c-0.9,0-1.7-0.1-2.5-0.4c-0.8-0.3-1.5-0.6-2.2-1.1c-1.7-1-2.8-2.1-3.3-3.3c-0.5-1.2-0.6-2.5-0.1-4.1c0-0.1,0-0.1-0.1-0.2
		c-0.1-0.1-0.2-0.2-0.3-0.2C403.5,24.4,403.4,24.4,403.3,24.4z"/>
	<path fill-rule="evenodd" clip-rule="evenodd" fill="#0066B3" d="M365.7,56.6c-0.1,0-0.2,0.1-0.3,0.3c-0.1,0.2-0.2,0.3-0.4,0.6
		c-0.1,0.2-0.2,0.4-0.3,0.6c-0.1,0.2-0.1,0.3-0.1,0.4c0.6,0.4,1.6,0.9,2.9,1.7c1.3,0.8,3,1.7,5,3c1.4,0.8,2.5,1.6,3.5,2.2
		c0.9,0.6,1.8,1.1,2.5,1.6c0.7,0.5,1.4,0.9,2,1.3c0.2,0,0.3-0.1,0.5-0.4c0.2-0.2,0.4-0.5,0.5-0.7c0.1-0.3,0.2-0.5,0.2-0.6
		c-0.6-0.5-1.1-1-1.5-1.3c-0.4-0.4-0.7-0.8-1-1.1c-0.3-0.3-0.5-0.7-0.5-1c-0.1-0.3,0-0.7,0.2-1.1c0.2-0.4,0.4-0.9,0.7-1.5
		c0.2-0.3,0.4-0.5,0.6-0.7c0.3-0.2,0.5-0.3,0.8-0.4c0.2-0.1,0.7-0.3,1.5-0.6c0.8-0.3,1.8-0.6,3-1.1c1.2-0.4,2.5-0.9,3.9-1.4
		c1.4-0.5,2.8-1,4.2-1.5c1.4-0.5,2.8-1,4-1.5c1.3-0.5,2.4-0.9,3.3-1.2c0.9-0.3,1.6-0.6,2-0.8c0.1,0,0.1,0,0.2,0c0.1,0,0.1,0.1,0,0.2
		c-0.3,0.6-0.8,1.4-1.4,2.3c-0.6,1-1.2,2-2,3.2c-0.7,1.2-1.4,2.4-2.2,3.6c-0.8,1.2-1.5,2.4-2.2,3.5c-0.7,1.1-1.3,2.1-1.8,2.9
		c-0.5,0.8-0.9,1.5-1.2,1.9c-0.4,0.5-0.7,1-1,1.3c-0.3,0.3-0.6,0.5-0.9,0.5c-0.3,0.1-0.6,0.1-1,0c-0.4-0.1-0.8-0.3-1.3-0.5
		c-0.4-0.2-1-0.4-1.6-0.7c-0.1,0-0.2,0.1-0.4,0.2c-0.1,0.1-0.3,0.3-0.4,0.5c-0.1,0.2-0.2,0.4-0.3,0.6c-0.1,0.2-0.1,0.3,0,0.5
		c0.5,0.3,1.4,0.8,2.8,1.6c1.3,0.7,3.1,1.8,5.3,3.2c1.5,0.9,2.7,1.7,3.7,2.3c1,0.6,1.8,1.2,2.4,1.6c0.6,0.4,1.2,0.8,1.7,1.1
		c0.1,0,0.2-0.1,0.4-0.2c0.2-0.1,0.3-0.3,0.5-0.5c0.2-0.2,0.3-0.4,0.4-0.6c0.1-0.2,0.1-0.3,0.1-0.4c-0.7-0.6-1.4-1.1-1.8-1.6
		c-0.5-0.4-0.9-0.8-1.1-1.2c-0.3-0.4-0.4-0.9-0.3-1.4c0.1-0.5,0.4-1.2,0.8-1.9c0.3-0.6,0.8-1.4,1.3-2.3c0.5-0.9,1.1-1.9,1.8-2.9
		c0.6-1,1.3-2.1,1.9-3.1c0.6-1,1.2-2,1.8-2.9c0.8-1.3,1.5-2.4,2-3.3c0.6-0.9,1-1.7,1.5-2.4c0.4-0.7,0.8-1.3,1.1-1.8
		c0.3-0.5,0.7-1.1,1.1-1.7c0.4-0.6,0.8-1.2,1.3-1.9c0.3-0.5,0.7-0.9,0.9-1.2c0.3-0.3,0.6-0.4,0.9-0.5c0.3-0.1,0.6-0.1,1,0
		c0.4,0.1,0.8,0.2,1.3,0.4c0.5,0.2,1.1,0.4,1.6,0.7c0.1,0,0.2-0.1,0.4-0.3c0.1-0.1,0.3-0.3,0.4-0.5c0.1-0.2,0.2-0.4,0.3-0.6
		c0.1-0.2,0.1-0.3,0.1-0.4c-0.5-0.3-1-0.6-1.5-0.9c-0.5-0.3-1-0.6-1.6-0.9c-0.6-0.3-1.3-0.7-2-1.2c-0.8-0.4-1.7-1-2.7-1.6
		c-1.4-0.9-2.6-1.6-3.6-2.2c-0.9-0.6-1.7-1.1-2.4-1.6c-0.6-0.4-1.2-0.8-1.8-1.1c-0.1,0-0.3,0.1-0.5,0.3c-0.2,0.2-0.4,0.5-0.5,0.7
		c-0.1,0.3-0.2,0.5-0.2,0.7c0.4,0.3,0.7,0.6,1,0.8c0.3,0.2,0.5,0.5,0.7,0.7c0.2,0.2,0.4,0.5,0.6,0.7c0.3,0.4,0.4,0.8,0.4,1.2
		c0,0.5-0.2,0.9-0.4,1.4l-0.6,1c0,0-0.1,0.1-0.2,0.2c-0.1,0.1-0.2,0.2-0.4,0.3c-0.1,0.1-0.2,0.2-0.3,0.2c-0.8,0.4-1.8,0.8-3.1,1.3
		c-1.3,0.5-2.7,1-4.2,1.6c-1.5,0.6-3.1,1.1-4.7,1.7c-1.6,0.6-3.1,1.1-4.5,1.6c-1.4,0.5-2.6,0.9-3.6,1.3c-1,0.4-1.7,0.6-2.1,0.8
		c-0.1,0-0.1-0.1-0.2-0.1c-0.1,0-0.1-0.1-0.1-0.2c0.3-0.5,0.7-1.2,1.3-2.1c0.5-0.9,1.2-1.9,1.9-3c0.7-1.1,1.4-2.3,2.1-3.5
		c0.7-1.2,1.5-2.4,2.2-3.5c0.7-1.1,1.3-2.1,1.8-3c0.5-0.9,1-1.5,1.2-1.9c0.4-0.5,0.7-1,0.9-1.2c0.3-0.3,0.6-0.5,0.9-0.6
		c0.3-0.1,0.7-0.1,1.1,0c0.3,0.1,0.7,0.2,1.2,0.4c0.5,0.2,1,0.4,1.4,0.6c0.1,0,0.3-0.2,0.5-0.4c0.2-0.2,0.4-0.5,0.5-0.7
		c0.1-0.3,0.2-0.5,0.2-0.6c-0.5-0.3-1.4-0.8-2.7-1.6c-1.3-0.7-3-1.7-5.1-3c-1.1-0.7-2-1.3-2.8-1.8c-0.8-0.5-1.5-0.9-2-1.3
		c-0.6-0.4-1.1-0.7-1.6-1.1c-0.5-0.3-1-0.6-1.5-1c-0.1,0-0.2,0.1-0.3,0.3c-0.1,0.2-0.3,0.3-0.4,0.5c-0.1,0.2-0.2,0.4-0.3,0.6
		c-0.1,0.2-0.1,0.3-0.1,0.4c0.4,0.3,0.8,0.6,1.1,0.9c0.3,0.3,0.6,0.5,0.9,0.7c0.2,0.2,0.5,0.5,0.7,0.7c0.4,0.4,0.5,0.9,0.4,1.5
		c-0.1,0.5-0.3,1.1-0.7,1.8c-0.2,0.4-0.6,1-1.1,1.9c-0.5,0.8-1.1,1.8-1.8,3c-0.7,1.1-1.4,2.3-2.2,3.6c-0.8,1.3-1.6,2.6-2.4,3.9
		c-0.7,1.2-1.4,2.3-2.1,3.4c-0.7,1.1-1.3,2-1.8,2.9c-0.5,0.9-1,1.6-1.4,2.1c-0.4,0.6-0.6,1-0.8,1.2c-0.5,0.7-0.9,1.2-1.3,1.6
		c-0.4,0.4-0.8,0.6-1.1,0.7c-0.4,0.1-0.9,0-1.4-0.2L365.7,56.6z"/>
	<path fill-rule="evenodd" clip-rule="evenodd" fill="#0066B3" d="M505.8,342c-0.1,0-0.2,0.1-0.3,0.3c-0.1,0.2-0.2,0.4-0.2,0.7
		c-0.1,0.3-0.1,0.5-0.1,0.8c0,0.2,0,0.4,0.1,0.5c0.8,0.2,1.7,0.5,2.6,0.9c0.9,0.3,1.9,0.7,2.8,1.1c0.9,0.4,1.8,0.7,2.5,1.1
		c0.8,0.3,1.4,0.6,1.8,0.8c0.3-0.9,0.7-2,1.2-3.2c0.5-1.2,1.1-2.6,1.6-4.1c0.6-1.5,1.1-3,1.5-4.5c0.7-2.5,1.1-4.8,1.3-6.9
		c0.1-2.1,0-4.1-0.3-5.9c-0.5-2.5-1.3-4.7-2.6-6.6c-1.3-1.9-2.8-3.5-4.7-4.9c-1.8-1.3-3.9-2.3-6.1-2.9c-4.3-1.2-8.2-1.4-11.5-0.5
		c-3.4,0.9-6.2,2.7-8.6,5.4c-2.3,2.8-4.2,6.4-5.5,10.8c-0.4,1.4-0.7,2.7-0.9,3.9c-0.2,1.1-0.3,2.2-0.3,3.1c0,0.9,0,1.7,0,2.4
		c0.2,0.5,0.5,1.1,1.1,1.8c0.5,0.7,1.1,1.4,1.9,2.1c0.7,0.7,1.4,1.4,2.1,1.9c0.7,0.6,1.3,1.1,1.9,1.4c0.2-0.1,0.4-0.2,0.7-0.3
		c0.2-0.2,0.5-0.4,0.7-0.6c0.2-0.2,0.3-0.4,0.4-0.5c-0.6-0.7-1.3-1.4-1.9-2.1c-0.6-0.7-1.1-1.4-1.6-2.2c-0.5-0.7-0.9-1.4-1.2-2
		c-0.4-0.7-0.6-1.5-0.6-2.3c-0.1-0.8-0.1-1.5,0-2.2c0.1-0.7,0.2-1.3,0.4-1.9c0.6-1.9,1.4-3.5,2.4-4.8c1-1.3,2.3-2.3,3.7-3
		c1.4-0.7,2.9-1.2,4.5-1.4c1.6-0.2,3.3-0.3,5-0.1c1.7,0.2,3.4,0.5,5,0.9c3.6,1,6.4,2.3,8.5,3.9c2.1,1.6,3.4,3.3,4.1,5.2
		c0.7,1.9,0.7,3.9,0.1,6.1c-0.3,1.2-0.8,2.4-1.3,3.5c-0.5,1.1-1.3,2.1-2.2,3.1c-0.7,0.6-1.4,1.1-2.2,1.3c-0.8,0.2-1.7,0.3-2.6,0.3
		C508.1,342.2,507,342.1,505.8,342z"/>
	<path fill-rule="evenodd" clip-rule="evenodd" fill="#0066B3" d="M504.9,291c-0.1,0.3-0.2,0.7-0.3,1.2c-0.1,0.4-0.2,1-0.2,1.6
		c-0.1,1.4-0.1,2.7,0.1,4.1c0.2,1.4,0.6,2.7,1.2,3.9c0.5,1,1.1,2,2,2.9c0.9,0.9,1.9,1.7,3.1,2.3c1.2,0.6,2.7,1,4.3,1.2
		c1.4,0.1,2.7,0.1,3.9-0.2c1.1-0.3,2.2-0.7,3-1.2c0.9-0.6,1.6-1.2,2.2-1.9c0.5-0.6,1-1.3,1.3-2c0.4-0.7,0.6-1.4,0.9-2.2
		c0.2-0.7,0.4-1.4,0.5-2.1c0.1-0.6,0.2-1.2,0.2-1.7c0.1-1.2,0.2-2.2,0.3-3.2c0.1-1,0.2-1.9,0.3-2.9c0.1-0.9,0.2-1.9,0.3-2.9
		c0.1-1,0.2-2,0.3-3.2c0.1-1.1,0.2-2.2,0.4-3.2c0.1-1.1,0.3-2,0.4-2.9c0.1-0.9,0.2-1.7,0.3-2.3c-0.1-0.1-0.3-0.1-0.5-0.2
		c-0.3-0.1-0.6-0.1-0.9-0.1c-0.3,0-0.5,0-0.7,0c-0.1,0.6-0.3,1.1-0.4,1.6c-0.1,0.5-0.3,0.9-0.4,1.4c-0.2,0.5-0.4,0.9-0.7,1.2
		c-0.3,0.2-0.7,0.4-1.2,0.5c-0.5,0.1-1,0.1-1.7,0c-0.6,0-1.4-0.1-2.5-0.2c-1-0.1-2.3-0.2-3.8-0.3c-1.5-0.2-3.3-0.3-5.5-0.6
		c-2.5-0.3-4.6-0.5-6.4-0.7c-1.8-0.2-3.3-0.4-4.5-0.5c-1.2-0.1-2.2-0.3-3-0.4c-0.6-0.1-1.1-0.2-1.5-0.3c-0.4-0.1-0.8-0.3-1.1-0.6
		c-0.3-0.3-0.5-0.7-0.5-1.2c-0.1-0.5-0.1-1.1-0.1-1.6c0-0.5-0.1-1.1-0.1-1.7c-0.1-0.1-0.3-0.1-0.5-0.2c-0.3,0-0.6-0.1-0.9-0.1
		c-0.3,0-0.5,0-0.7,0.1c-0.2,1.6-0.3,3.2-0.4,4.9c-0.1,1.6-0.3,3.3-0.4,4.9c-0.1,1.2-0.3,2.4-0.4,3.6c-0.2,1.2-0.3,2.4-0.4,3.5
		c-0.1,1.1-0.3,2.1-0.4,2.9c0.1,0.1,0.3,0.3,0.6,0.3c0.3,0.1,0.6,0.1,0.9,0.2c0.3,0,0.5,0,0.6,0c0.2-0.8,0.3-1.6,0.5-2.2
		c0.2-0.7,0.4-1.3,0.6-1.8c0.2-0.5,0.4-0.9,0.8-1.1c0.3-0.2,0.7-0.4,1.1-0.4c0.4,0,0.9-0.1,1.4,0c0.7,0,1.5,0.1,2.5,0.2
		c1,0.1,2,0.2,3.1,0.3c1.1,0.1,2.2,0.2,3.3,0.3c1.1,0.1,2.1,0.2,3,0.3c0.9,0.1,1.7,0.2,2.4,0.2c2.7,0.3,4.9,0.5,6.7,0.7
		c1.8,0.2,3.3,0.4,4.4,0.5c1.1,0.1,2,0.2,2.6,0.3c0.2,0,0.4,0.1,0.5,0.2c0.2,0.1,0.3,0.2,0.3,0.2c0.1,0.2,0.1,0.4,0.1,0.6
		c0,0.2,0,0.4,0,0.6c0,0.2,0,0.4,0,0.5c-0.2,1.6-0.7,3-1.6,4c-0.9,1.1-2.1,1.8-3.6,2.3c-1.5,0.5-3.2,0.6-5.1,0.4
		c-1.3-0.1-2.4-0.4-3.3-0.7c-0.9-0.3-1.7-0.7-2.3-1.3c-0.6-0.5-1.1-1.1-1.4-1.8c-0.2-0.5-0.4-0.9-0.5-1.5c-0.1-0.5-0.1-1.1,0-1.7
		c0-0.4,0.1-0.8,0.2-1.1c0.1-0.3,0.1-0.5,0.1-0.6c-0.1-0.1-0.2-0.1-0.3-0.2c-0.1-0.1-0.2-0.1-0.4-0.1c-0.1,0-0.3,0-0.6,0.1
		c-0.3,0.1-0.5,0.2-0.8,0.3C505.2,290.7,505,290.8,504.9,291z"/>
	<path fill-rule="evenodd" clip-rule="evenodd" fill="#0066B3" d="M526.6,235.5c0,0.6-0.1,1.2-0.1,1.7c-0.1,0.6-0.2,1.1-0.3,1.5
		c-0.1,0.4-0.2,0.7-0.4,1c-0.2,0.2-0.4,0.4-0.8,0.6c-0.3,0.1-0.8,0.2-1.4,0.3c-0.6,0.1-1.3,0.1-2.1,0.2c-0.8,0.1-1.8,0.1-2.8,0.2
		c-1,0-2.1,0.1-3.3,0.1c-1.1,0-2.3,0.1-3.4,0.1c-2.4,0.1-4.5,0.2-6.3,0.2c-1.8,0.1-3.4,0.1-4.8,0.1c-1.4,0-2.7,0-3.9,0
		c-0.7,0-1.2,0-1.6-0.1c-0.4-0.1-0.7-0.3-1-0.6c-0.2-0.3-0.4-0.6-0.5-0.9c-0.1-0.4-0.3-1-0.5-1.8c-0.2-0.8-0.3-1.7-0.5-2.8
		c-0.1,0-0.3-0.1-0.6-0.1c-0.3,0-0.5,0-0.8,0c-0.3,0-0.5,0.1-0.7,0.1c0,1.1,0.1,2.3,0.2,3.6c0.1,1.3,0.2,2.6,0.2,3.9
		c0.1,1.3,0.1,2.5,0.2,3.6c0.1,3.3,0.2,6.4,0.2,9.4c0,3,0.1,5.7,0.2,8.4c0,0.9,0.1,1.5,0.2,2c0.1,0.4,0.2,0.7,0.4,0.9
		c0.2,0.2,0.3,0.3,0.5,0.3c0.4,0.2,1,0.4,1.6,0.6c0.7,0.2,1.4,0.4,2.1,0.6c0.8,0.2,1.5,0.4,2.2,0.6c0.7,0.2,1.4,0.3,1.9,0.4
		c0.6,0.1,1,0.2,1.3,0.3c0.1-0.1,0.2-0.3,0.3-0.6c0.1-0.3,0.2-0.6,0.3-1c0.1-0.3,0.1-0.6,0.1-0.7c-1.1-0.4-2.2-0.9-3.2-1.4
		c-1-0.5-1.9-1.1-2.6-1.6c-0.5-0.4-1-0.8-1.2-1.2c-0.3-0.4-0.5-0.9-0.6-1.5c-0.1-0.6-0.2-1.3-0.2-2.2c0-1.2-0.1-2.3-0.1-3.3
		c0-1,0-1.9,0-2.7c0-0.8,0.1-1.3,0.2-1.8c0.1-0.4,0.3-0.7,0.7-1c0.4-0.3,0.8-0.4,1.3-0.4l10.9-0.4c0.1,0,0.2,0,0.3,0.1
		c0.1,0.1,0.2,0.2,0.2,0.3c0,0.5,0,1.1,0.1,1.8c0,0.7,0,1.5,0.1,2.3c0,0.8,0,1.5,0,2.2c0,0.7,0,1.1,0,1.4c-0.1,0.6-0.3,1.1-0.6,1.4
		c-0.3,0.3-0.7,0.6-1.1,0.8l-2.5,0.7c0,0.1-0.1,0.2-0.1,0.5c0,0.2,0,0.5,0,0.7c0,0.3,0,0.5,0.1,0.7c0,0.2,0.1,0.4,0.1,0.5
		c0.6,0,1.3-0.1,2-0.1c0.8,0,1.5-0.1,2.3-0.1c0.8,0,1.4-0.1,2-0.1c0.7,0,1.4,0,2.1,0c0.7,0,1.4,0,2.1,0.1c0.7,0,1.3,0,1.8,0
		c0.1-0.1,0.1-0.2,0.1-0.5c0-0.2,0-0.5,0-0.8c0-0.3,0-0.5,0-0.8c0-0.2-0.1-0.4-0.1-0.5c-0.4-0.1-0.8-0.1-1.2-0.2
		c-0.4-0.1-0.7-0.1-1.1-0.2c-0.8-0.1-1.3-0.4-1.7-0.7c-0.3-0.3-0.5-0.8-0.6-1.4c0-0.5-0.1-1.1-0.1-1.8c0-0.7-0.1-1.5-0.1-2.2
		c0-0.8,0-1.5-0.1-2.2c0-0.7,0-1.2-0.1-1.6c0-0.1,0-0.2,0.1-0.3c0.1-0.1,0.2-0.1,0.3-0.2c2.1-0.1,4.1-0.2,6.1-0.3
		c2-0.1,3.9-0.2,5.9-0.2c0.1,0,0.2,0,0.4,0.1c0.2,0.1,0.3,0.1,0.5,0.2c0.1,0.1,0.2,0.2,0.3,0.3c0,0.2,0.1,0.6,0.1,1.1
		c0,0.5,0.1,1.2,0.1,1.9c0,0.7,0.1,1.4,0.1,2.2c0,0.7,0,1.4,0,2c0,0.6,0,1.1,0,1.4c0,0.4-0.1,0.9-0.3,1.4c-0.2,0.5-0.6,0.9-1.2,1.2
		c-0.5,0.3-1.1,0.5-1.8,0.7c-0.7,0.2-1.6,0.4-2.8,0.6c-0.1,0.1-0.1,0.3-0.1,0.7c0,0.3,0.1,0.6,0.1,1c0.1,0.3,0.1,0.6,0.2,0.7
		c1.2,0,2.4,0,3.6,0.1c1.2,0,2.3,0.1,3.3,0.2c1,0.1,1.9,0.2,2.5,0.3c0.1,0,0.1,0,0.2-0.1c0,0,0.1-0.1,0.1-0.1
		c-0.1-0.7-0.2-1.6-0.3-2.5c-0.1-0.9-0.2-1.9-0.2-2.9c-0.1-1-0.1-1.9-0.1-2.7l-0.5-12.5c0-1-0.1-2.1-0.1-3.2c0-1.1,0-2.2,0-3.3
		c0-1.1,0-2-0.1-2.8c-0.1-0.1-0.3-0.1-0.6-0.2c-0.3,0-0.6-0.1-0.9,0C526.9,235.4,526.7,235.4,526.6,235.5z"/>
	<path fill-rule="evenodd" clip-rule="evenodd" fill="#0066B3" d="M519.9,194.6c0.1,0.5,0.1,1.1,0.1,1.6c0,0.6,0,1.1-0.1,1.6
		c0,0.6-0.2,1-0.6,1.4c-0.3,0.3-0.9,0.6-1.7,0.8c-1.1,0.3-2.2,0.5-3.4,0.8c-1.2,0.3-2.6,0.6-4.2,0.9c-1.6,0.3-3.4,0.7-5.4,1.1
		c-2.3,0.5-4.3,0.9-6,1.3c-1.8,0.4-3.2,0.7-4.4,0.9c-1.2,0.2-2,0.4-2.6,0.5c-0.9,0.1-1.5,0.1-2-0.1c-0.5-0.1-0.8-0.4-1.1-0.9
		c-0.3-0.4-0.5-0.9-0.8-1.5c-0.2-0.6-0.5-1.3-0.8-2.2c-0.1-0.1-0.3-0.1-0.6-0.1c-0.3,0-0.6,0.1-0.9,0.2c-0.3,0.1-0.5,0.2-0.6,0.3
		c0.1,0.7,0.3,1.5,0.5,2.5c0.2,1,0.4,2,0.6,3.1c0.2,1.1,0.4,2.2,0.6,3.4c0.2,1.1,0.4,2.2,0.6,3.3c0.2,1,0.4,2,0.5,2.8
		c0.2,0.8,0.3,1.4,0.4,1.9c0.3,1.2,0.6,2.4,1,3.6c0.4,1.2,0.8,2.4,1.4,3.5c0.5,1.1,1.1,2.1,1.7,2.9c1.6,2.2,3.4,3.7,5.3,4.6
		c1.9,0.9,4.1,1,6.4,0.5c1.8-0.4,3.2-1.1,4.2-2.2c1-1.1,1.8-2.4,2.2-3.9c0.4-1.6,0.6-3.3,0.6-5.2c0-0.1,0.1-0.1,0.2-0.1
		c0.1,0,0.1,0,0.2,0.1c0.7,1.4,1.6,2.5,2.6,3.3c1,0.8,2,1.4,3.1,1.7c1.1,0.3,2.2,0.3,3.3,0.1c1.4-0.3,2.5-0.8,3.4-1.4
		c0.9-0.7,1.5-1.4,2-2.4c0.5-0.9,0.8-1.9,0.9-3c0.1-1.1,0.1-2.2,0-3.4c-0.1-1.2-0.3-2.3-0.5-3.5c-0.1-0.6-0.3-1.4-0.6-2.4
		c-0.3-1.1-0.5-2.3-0.9-3.7c-0.3-1.4-0.7-2.9-1-4.5c-0.3-1.5-0.6-2.9-0.8-4c-0.2-1.1-0.4-2.1-0.5-2.8c-0.1-0.8-0.2-1.4-0.3-1.9
		c0,0-0.2,0-0.4,0c-0.2,0-0.4,0-0.6,0.1c-0.2,0.1-0.5,0.1-0.7,0.2C520.2,194.5,520,194.5,519.9,194.6L519.9,194.6z M491,220
		c-0.1-0.2-0.1-0.6-0.1-1.1c0-0.5,0-1,0.2-1.6c0.1-0.6,0.3-1.1,0.7-1.6c0.2-0.2,0.4-0.5,0.8-0.8c0.3-0.2,0.7-0.4,1-0.5
		c0.7-0.2,1.5-0.4,2.5-0.6c1-0.2,2-0.5,3.2-0.7c1.1-0.2,2.3-0.5,3.5-0.7c1.2-0.2,2.3-0.5,3.4-0.7c0.1,0,0.2,0,0.3,0
		c0.1,0.1,0.1,0.1,0.1,0.2c0.1,0.2,0.2,0.5,0.2,0.9c0.1,0.3,0.2,0.7,0.2,1c0.4,1.9,0.4,3.6,0,5.1c-0.4,1.5-1.1,2.7-2.3,3.6
		c-1.1,1-2.5,1.6-4.2,2c-1.8,0.4-3.3,0.4-4.7,0.2c-1.3-0.3-2.4-0.8-3.3-1.6C491.8,222.2,491.3,221.2,491,220L491,220z M522.7,210.1
		c0.4,1.8,0.3,3.3-0.1,4.6c-0.4,1.3-1.1,2.3-2.2,3.1c-1,0.8-2.3,1.3-3.8,1.6c-1.2,0.3-2.2,0.3-3.1,0.1c-0.9-0.2-1.7-0.6-2.3-1.3
		c-0.2-0.2-0.3-0.5-0.5-0.9c-0.2-0.4-0.3-0.8-0.5-1.4c-0.2-0.5-0.3-1.1-0.4-1.7c-0.1-0.7-0.3-1.2-0.4-1.7c-0.1-0.5-0.2-0.9-0.2-1.1
		c0-0.1,0-0.1,0-0.2c0-0.1,0.1-0.1,0.2-0.1c1-0.2,2.1-0.4,3.3-0.7c1.2-0.2,2.3-0.5,3.4-0.7c1.1-0.2,2.1-0.4,3-0.6
		c0.9-0.2,1.6-0.3,2-0.4c0.2,0,0.3,0,0.5,0.1c0.2,0,0.3,0.1,0.4,0.2c0.1,0.2,0.2,0.4,0.3,0.6C522.6,209.6,522.7,209.9,522.7,210.1z"
		/>
	<path fill-rule="evenodd" clip-rule="evenodd" fill="#0066B3" d="M469.3,156.8c-0.1,0-0.2,0-0.4,0c-0.2,0-0.4,0.1-0.6,0.2
		c-0.2,0.1-0.4,0.2-0.6,0.3c-0.2,0.1-0.3,0.2-0.3,0.3c0.3,0.7,0.7,1.7,1.4,3.1c0.6,1.4,1.4,3.2,2.3,5.4c0.6,1.5,1.1,2.8,1.5,3.8
		c0.4,1.1,0.7,2,1,2.8c0.3,0.8,0.6,1.6,0.9,2.3c0.1,0.1,0.4,0.1,0.6,0c0.3-0.1,0.6-0.1,0.9-0.3c0.3-0.1,0.5-0.2,0.5-0.3
		c-0.2-0.8-0.3-1.4-0.4-2c-0.1-0.5-0.1-1-0.1-1.5c0-0.4,0-0.8,0.2-1.1c0.1-0.3,0.4-0.6,0.8-0.8c0.4-0.2,0.8-0.5,1.5-0.7
		c0.3-0.1,0.6-0.2,1-0.2c0.3,0,0.6,0,0.9,0.1c0.2,0.1,0.7,0.2,1.5,0.4c0.8,0.2,1.8,0.5,3,0.9c1.2,0.4,2.5,0.8,3.9,1.2
		c1.4,0.4,2.8,0.9,4.3,1.3c1.4,0.4,2.8,0.8,4.1,1.2c1.3,0.4,2.4,0.7,3.4,1c1,0.3,1.7,0.5,2.1,0.6c0.1,0,0.1,0.1,0.1,0.1
		c0,0.1,0,0.1-0.1,0.2c-0.6,0.3-1.5,0.6-2.5,1c-1,0.4-2.2,0.9-3.5,1.4c-1.3,0.5-2.6,1-3.9,1.6c-1.3,0.5-2.6,1-3.8,1.5
		c-1.2,0.5-2.3,0.9-3.2,1.3c-0.9,0.4-1.6,0.6-2.1,0.8c-0.6,0.2-1.1,0.4-1.5,0.4c-0.4,0.1-0.8,0-1-0.1c-0.3-0.1-0.5-0.3-0.7-0.6
		c-0.2-0.4-0.5-0.7-0.8-1.1c-0.3-0.4-0.6-0.9-0.9-1.5c-0.1-0.1-0.2-0.1-0.4-0.1c-0.2,0-0.4,0.1-0.6,0.2c-0.2,0.1-0.4,0.2-0.6,0.3
		c-0.2,0.1-0.3,0.2-0.3,0.3c0.2,0.6,0.7,1.5,1.3,2.9c0.6,1.4,1.4,3.3,2.4,5.7c0.7,1.6,1.2,3,1.6,4.1c0.4,1.1,0.7,2,1,2.7
		c0.2,0.7,0.5,1.4,0.7,1.9c0.1,0.1,0.2,0.1,0.4,0.1c0.2,0,0.4-0.1,0.7-0.1c0.2-0.1,0.5-0.1,0.7-0.2c0.2-0.1,0.3-0.2,0.3-0.3
		c-0.2-0.9-0.4-1.7-0.5-2.3c-0.1-0.6-0.2-1.2-0.2-1.6c0-0.5,0.2-1,0.6-1.4c0.4-0.4,1-0.7,1.8-1.1c0.6-0.3,1.4-0.6,2.4-1
		c1-0.4,2-0.8,3.2-1.3c1.1-0.5,2.3-0.9,3.4-1.4c1.1-0.5,2.2-0.9,3.1-1.3c1.4-0.6,2.6-1.1,3.6-1.5c1-0.4,1.9-0.7,2.6-1
		c0.7-0.3,1.4-0.6,2-0.8c0.6-0.2,1.2-0.5,1.9-0.7c0.6-0.2,1.4-0.5,2.1-0.8c0.6-0.2,1.1-0.3,1.5-0.4c0.4,0,0.7,0,1,0.1
		c0.3,0.1,0.5,0.3,0.8,0.6c0.3,0.3,0.5,0.7,0.8,1.1c0.3,0.5,0.6,1,0.9,1.5c0.1,0,0.2,0,0.4,0c0.2,0,0.4-0.1,0.6-0.2
		c0.2-0.1,0.4-0.2,0.6-0.3c0.2-0.1,0.3-0.2,0.3-0.3c-0.2-0.5-0.4-1-0.7-1.6c-0.2-0.5-0.5-1.1-0.7-1.7c-0.3-0.6-0.6-1.3-0.9-2.1
		c-0.4-0.8-0.8-1.8-1.2-2.9c-0.6-1.6-1.1-2.9-1.5-3.9c-0.4-1-0.7-1.9-1-2.7c-0.3-0.7-0.5-1.4-0.7-2c-0.1-0.1-0.3-0.1-0.6,0
		c-0.3,0.1-0.6,0.2-0.8,0.3c-0.3,0.1-0.5,0.3-0.5,0.5c0.1,0.5,0.3,0.9,0.3,1.2c0.1,0.4,0.1,0.7,0.2,1c0,0.3,0.1,0.6,0,0.9
		c0,0.5-0.1,0.9-0.4,1.2c-0.3,0.4-0.7,0.7-1.1,0.9l-1.1,0.4c0,0-0.1,0-0.3,0.1c-0.1,0-0.3,0-0.5,0c-0.2,0-0.3,0-0.4,0
		c-0.9-0.2-1.9-0.5-3.3-0.8c-1.3-0.4-2.8-0.8-4.3-1.2c-1.6-0.5-3.2-0.9-4.8-1.4c-1.6-0.5-3.1-0.9-4.5-1.4c-1.4-0.4-2.7-0.8-3.7-1.1
		c-1-0.3-1.8-0.5-2.2-0.6c0-0.1-0.1-0.1-0.1-0.2c0-0.1,0-0.1,0.1-0.2c0.5-0.2,1.3-0.5,2.3-0.9c1-0.4,2.1-0.8,3.3-1.3
		c1.2-0.5,2.5-1,3.8-1.5c1.3-0.5,2.6-1,3.8-1.5c1.2-0.5,2.3-0.9,3.2-1.3c0.9-0.4,1.7-0.6,2.2-0.8c0.6-0.2,1.1-0.4,1.5-0.4
		c0.4-0.1,0.8-0.1,1.1,0c0.3,0.1,0.6,0.3,0.9,0.6c0.2,0.3,0.5,0.6,0.7,1.1c0.3,0.4,0.6,0.9,0.8,1.3c0.1,0.1,0.3,0.1,0.6,0
		c0.3-0.1,0.6-0.2,0.8-0.3c0.3-0.1,0.4-0.3,0.5-0.4c-0.2-0.6-0.7-1.5-1.3-2.9c-0.6-1.3-1.4-3.1-2.3-5.4c-0.5-1.2-0.9-2.2-1.2-3.1
		c-0.3-0.9-0.6-1.6-0.9-2.3c-0.2-0.6-0.4-1.3-0.7-1.8c-0.2-0.5-0.4-1.1-0.6-1.7c-0.1,0-0.2,0-0.4,0c-0.2,0-0.4,0.1-0.6,0.2
		c-0.2,0.1-0.4,0.2-0.6,0.3c-0.2,0.1-0.3,0.2-0.3,0.3c0.1,0.5,0.3,1,0.4,1.4c0.1,0.4,0.2,0.7,0.3,1.1c0.1,0.3,0.1,0.7,0.1,1
		c0,0.6-0.1,1.1-0.5,1.4c-0.4,0.4-0.9,0.7-1.6,1.1c-0.4,0.2-1.1,0.5-2,0.9c-0.9,0.4-2,0.8-3.2,1.3c-1.2,0.5-2.5,1-3.9,1.6
		c-1.4,0.6-2.8,1.1-4.2,1.7c-1.3,0.5-2.5,1-3.7,1.5c-1.2,0.5-2.2,0.9-3.2,1.2c-1,0.4-1.7,0.7-2.4,0.9c-0.6,0.2-1.1,0.4-1.3,0.5
		c-0.8,0.3-1.5,0.4-2,0.5c-0.5,0.1-1,0-1.3-0.2c-0.4-0.2-0.7-0.5-1-1L469.3,156.8z"/>
	<path fill-rule="evenodd" clip-rule="evenodd" fill="#0066B3" d="M384.8,451.4c0.7-0.3,1.2-0.5,1.7-0.7c0.4-0.2,0.9-0.4,1.2-0.5
		c0.3-0.1,0.7-0.2,1.1-0.3c0.4-0.1,0.9-0.1,1.2,0.1c0.3,0.1,0.6,0.3,0.9,0.6c0.3,0.3,0.5,0.6,0.7,0.9c0.4,0.5,0.9,1.3,1.6,2.4
		c0.7,1,1.4,2.2,2.3,3.6c0.9,1.4,1.8,2.8,2.8,4.4c1,1.6,2,3.1,3,4.7c1,1.6,2,3.1,2.9,4.7c0.9,1.5,1.8,2.9,2.6,4.1
		c0.1,0.1,0.1,0.2,0.1,0.3c0,0.1,0,0.2,0,0.2c-0.2,0.1-0.5,0.4-1,0.7c-0.5,0.3-1,0.6-1.5,1c-0.6,0.4-1.1,0.7-1.7,1
		c-0.5,0.3-1,0.6-1.4,0.8c-0.5,0.3-1,0.4-1.5,0.4c-0.5,0-1-0.3-1.6-0.7c-0.6-0.5-1.3-1.1-1.9-1.7c-0.6-0.7-1.3-1.4-2-2.3
		c-0.1,0-0.2,0-0.4,0.1c-0.2,0.1-0.4,0.2-0.6,0.4c-0.2,0.2-0.4,0.3-0.6,0.5c-0.2,0.1-0.3,0.3-0.3,0.4c0.6,1.2,1.2,2.4,1.8,3.6
		c0.6,1.2,1.1,2.3,1.5,3.4c0.5,1.1,0.8,2.1,1.1,2.9c0,0.1,0.1,0.1,0.3,0.2c0.1,0.1,0.2,0.1,0.3,0c0.4-0.4,0.8-0.9,1.3-1.3
		c0.5-0.4,1.1-0.9,1.8-1.4c0.7-0.5,1.5-1,2.5-1.6l18.6-11.6c0.4-0.3,0.9-0.5,1.5-0.8c0.6-0.3,1.2-0.6,1.8-0.9c0.7-0.3,1.3-0.5,2-0.6
		c0.1,0,0.2-0.1,0.2-0.3c0.1-0.2,0.1-0.3,0-0.3c-0.3-0.6-0.7-1.4-1.1-2.2c-0.4-0.8-0.8-1.7-1.3-2.6c-0.4-0.9-0.8-1.8-1.2-2.6
		c-0.4-0.8-0.7-1.6-0.9-2.2c-0.1-0.1-0.3-0.1-0.5,0c-0.2,0-0.5,0.1-0.8,0.2c-0.3,0.1-0.5,0.2-0.7,0.3c-0.2,0.1-0.3,0.2-0.4,0.3
		c0.3,1,0.4,2.1,0.6,3c0.1,0.9,0.2,1.8,0.3,2.6c0.1,0.9,0,1.6-0.2,2.2c-0.2,0.5-0.6,1-1.2,1.3c-0.3,0.2-0.7,0.5-1.1,0.8
		c-0.5,0.3-0.9,0.6-1.4,0.9c-0.5,0.3-1,0.6-1.4,0.9c-0.4,0.3-0.8,0.4-1.1,0.6c-0.1,0-0.2,0-0.3,0c-0.1-0.1-0.2-0.1-0.2-0.2
		c-1-1.6-2.1-3.3-3.2-5c-1.1-1.7-2.1-3.4-3.2-5.1c-1.1-1.7-2.1-3.3-3.1-4.9c-1-1.6-1.9-3.1-2.7-4.5c-0.8-1.4-1.6-2.6-2.2-3.7
		c-0.4-0.8-0.7-1.4-0.8-2c-0.1-0.5-0.1-1,0-1.3c0.1-0.4,0.4-0.7,0.8-1.1c0.2-0.2,0.4-0.5,0.8-0.7c0.3-0.3,0.7-0.6,1.1-0.9
		c0.4-0.3,0.8-0.6,1.2-1c0-0.1,0-0.3-0.1-0.6c-0.1-0.3-0.3-0.5-0.5-0.8c-0.2-0.2-0.4-0.4-0.5-0.4c-0.6,0.4-1.3,0.8-2.1,1.4
		c-0.8,0.5-1.8,1.2-3,1.9c-1.1,0.8-2.5,1.6-4.1,2.6c-1.8,1.1-3.4,2.1-4.9,2.9c-1.4,0.8-2.7,1.6-3.8,2.2c0,0.1,0,0.3,0.2,0.6
		c0.1,0.3,0.3,0.6,0.4,0.8C384.6,451.2,384.7,451.3,384.8,451.4z"/>
	<path fill-rule="evenodd" clip-rule="evenodd" fill="#0066B3" d="M456.7,437.2c-0.5,0.4-0.9,0.7-1.4,1c-0.5,0.3-0.9,0.6-1.3,0.8
		c-0.4,0.2-0.7,0.3-1,0.3c-0.3,0-0.6,0-0.9-0.2c-0.3-0.2-0.7-0.4-1.1-0.8c-0.4-0.4-0.9-0.9-1.5-1.5c-0.6-0.6-1.3-1.3-2-2
		c-0.7-0.7-1.5-1.5-2.3-2.3c-0.8-0.8-1.6-1.6-2.4-2.5c-1.6-1.7-3.1-3.2-4.3-4.5c-1.3-1.3-2.4-2.5-3.3-3.5c-1-1-1.8-2-2.6-2.9
		c-0.5-0.5-0.8-0.9-1-1.3c-0.2-0.4-0.3-0.7-0.2-1.1c0-0.3,0.2-0.7,0.4-1c0.2-0.4,0.6-0.9,1-1.5c0.5-0.6,1-1.4,1.7-2.2
		c-0.1-0.1-0.2-0.3-0.3-0.5c-0.2-0.2-0.4-0.4-0.6-0.6c-0.2-0.2-0.4-0.4-0.5-0.4c-0.8,0.8-1.7,1.6-2.6,2.6c-0.9,0.9-1.8,1.9-2.8,2.8
		c-0.9,0.9-1.8,1.8-2.6,2.5c-2.4,2.3-4.7,4.4-6.8,6.4c-2.2,2-4.2,3.9-6.1,5.7c-0.6,0.6-1.1,1.1-1.3,1.5c-0.3,0.4-0.4,0.7-0.4,0.9
		c0,0.2,0,0.4,0.1,0.6c0.1,0.5,0.3,1,0.6,1.6c0.3,0.6,0.6,1.3,0.9,2c0.4,0.7,0.7,1.4,1.1,2c0.4,0.6,0.7,1.2,1,1.7
		c0.3,0.5,0.5,0.9,0.7,1.1c0.1,0,0.4,0,0.7-0.2c0.3-0.1,0.6-0.3,0.9-0.4c0.3-0.2,0.5-0.3,0.6-0.4c-0.4-1.1-0.8-2.2-1.1-3.3
		c-0.3-1.1-0.5-2.1-0.5-3c-0.1-0.7,0-1.3,0.1-1.8c0.1-0.5,0.3-1,0.7-1.4c0.4-0.5,0.9-1,1.5-1.6c0.8-0.8,1.6-1.5,2.4-2.2
		c0.8-0.7,1.4-1.3,2-1.7c0.6-0.5,1.1-0.8,1.4-1c0.3-0.2,0.7-0.2,1.2-0.1c0.4,0.1,0.8,0.3,1.2,0.7l7.6,7.9c0.1,0.1,0.1,0.2,0.1,0.3
		c0,0.2,0,0.3-0.1,0.4c-0.4,0.3-0.8,0.8-1.3,1.3c-0.5,0.5-1.1,1-1.7,1.6c-0.6,0.5-1.1,1-1.6,1.5c-0.5,0.4-0.8,0.7-1.1,0.9
		c-0.5,0.4-1,0.5-1.4,0.5c-0.4,0-0.9-0.1-1.3-0.3l-2.2-1.4c-0.1,0-0.2,0.1-0.4,0.3c-0.2,0.1-0.4,0.3-0.5,0.5
		c-0.2,0.2-0.4,0.4-0.5,0.6c-0.1,0.2-0.2,0.3-0.3,0.4c0.4,0.4,0.9,0.9,1.5,1.4c0.5,0.5,1.1,1.1,1.6,1.6c0.5,0.5,1,1,1.4,1.4
		c0.5,0.5,0.9,1,1.4,1.6c0.5,0.6,0.9,1.1,1.4,1.6c0.4,0.5,0.8,1,1.2,1.4c0.1,0,0.2-0.1,0.5-0.2c0.2-0.1,0.4-0.3,0.6-0.5
		c0.2-0.2,0.4-0.4,0.5-0.5c0.2-0.2,0.2-0.3,0.3-0.4c-0.2-0.4-0.4-0.7-0.6-1c-0.2-0.3-0.4-0.6-0.5-0.9c-0.4-0.7-0.6-1.2-0.6-1.7
		c0-0.5,0.2-0.9,0.7-1.4c0.3-0.4,0.8-0.8,1.3-1.3c0.5-0.5,1-1,1.6-1.6c0.6-0.5,1.1-1,1.6-1.5c0.5-0.5,0.9-0.8,1.2-1.1
		c0.1-0.1,0.2-0.1,0.3-0.1c0.1,0,0.2,0.1,0.3,0.1c1.5,1.5,2.9,3,4.3,4.4c1.4,1.4,2.7,2.8,4.1,4.3c0.1,0.1,0.1,0.2,0.2,0.4
		c0.1,0.2,0.1,0.3,0.2,0.5c0,0.2,0,0.3,0,0.4c-0.1,0.2-0.4,0.4-0.8,0.8c-0.4,0.4-0.8,0.8-1.3,1.3c-0.5,0.5-1,1-1.6,1.5
		c-0.5,0.5-1,1-1.5,1.4c-0.5,0.4-0.8,0.7-1.1,0.9c-0.3,0.3-0.7,0.5-1.2,0.7c-0.5,0.2-1.1,0.1-1.7-0.1c-0.5-0.2-1.1-0.5-1.7-0.9
		c-0.6-0.4-1.4-0.9-2.3-1.6c-0.1,0-0.3,0.2-0.5,0.4c-0.2,0.2-0.4,0.5-0.7,0.7c-0.2,0.3-0.3,0.5-0.4,0.6c0.8,0.9,1.5,1.8,2.3,2.7
		c0.8,0.9,1.5,1.8,2.1,2.6c0.6,0.8,1.1,1.5,1.5,2.1c0,0,0.1,0.1,0.2,0.1c0.1,0,0.1,0,0.1,0c0.5-0.6,1-1.2,1.6-1.9
		c0.6-0.7,1.3-1.4,2-2.1c0.7-0.7,1.3-1.3,1.9-1.9l9-8.7c0.7-0.7,1.5-1.4,2.4-2.2c0.8-0.8,1.6-1.5,2.4-2.2c0.8-0.7,1.5-1.4,2.1-1.9
		c0-0.1-0.1-0.3-0.2-0.5c-0.2-0.3-0.4-0.5-0.6-0.7C457,437.3,456.8,437.2,456.7,437.2z"/>
	<path fill-rule="evenodd" clip-rule="evenodd" fill="#0066B3" d="M441.4,404.6c0.5-0.5,0.9-0.9,1.3-1.3c0.3-0.4,0.7-0.7,0.9-0.9
		c0.3-0.2,0.6-0.5,0.9-0.7c0.4-0.2,0.8-0.4,1.1-0.4c0.4,0,0.7,0.1,1.1,0.2c0.3,0.2,0.7,0.4,1,0.6c0.5,0.4,1.3,0.9,2.3,1.6
		c1,0.7,2.1,1.6,3.4,2.5c1.3,1,2.7,2,4.2,3.1c1.5,1.1,3,2.2,4.5,3.4c1.5,1.1,3,2.2,4.4,3.3c1.4,1.1,2.7,2,3.9,2.9
		c0.1,0.1,0.2,0.2,0.2,0.3c0,0.1,0.1,0.2,0,0.2c-0.1,0.2-0.4,0.5-0.7,1c-0.3,0.4-0.7,0.9-1.1,1.5c-0.4,0.5-0.8,1-1.2,1.5
		c-0.4,0.5-0.7,0.9-1,1.2c-0.4,0.4-0.8,0.7-1.2,0.9c-0.4,0.1-1,0.1-1.7-0.1c-0.8-0.2-1.6-0.5-2.4-0.9c-0.8-0.4-1.7-0.8-2.7-1.4
		c-0.1,0-0.2,0.1-0.3,0.3c-0.1,0.2-0.3,0.4-0.4,0.6c-0.1,0.2-0.3,0.4-0.4,0.6c-0.1,0.2-0.2,0.3-0.1,0.4c1,0.9,2,1.8,3,2.7
		c1,0.9,1.9,1.8,2.7,2.6c0.8,0.8,1.5,1.6,2.1,2.3c0.1,0,0.2,0.1,0.3,0.1c0.1,0,0.2,0,0.3-0.1c0.2-0.5,0.4-1.1,0.7-1.7
		c0.3-0.6,0.7-1.3,1.2-2c0.5-0.7,1-1.5,1.7-2.4l13.2-17.6c0.3-0.4,0.7-0.8,1.1-1.3c0.4-0.5,0.9-1,1.4-1.4c0.5-0.5,1.1-0.9,1.6-1.3
		c0.1-0.1,0.1-0.2,0.1-0.3c0-0.2,0-0.3-0.1-0.3c-0.5-0.5-1.2-1-1.9-1.6c-0.7-0.6-1.4-1.3-2.1-2c-0.7-0.7-1.4-1.4-2.1-2
		c-0.6-0.6-1.2-1.2-1.6-1.7c-0.1,0-0.3,0-0.5,0.1c-0.2,0.1-0.4,0.3-0.6,0.5c-0.2,0.2-0.4,0.4-0.6,0.5c-0.2,0.2-0.2,0.3-0.2,0.4
		c0.6,0.9,1.2,1.8,1.6,2.6c0.5,0.8,0.9,1.6,1.2,2.3c0.4,0.8,0.6,1.5,0.6,2.1c0,0.6-0.2,1.1-0.6,1.7c-0.2,0.3-0.5,0.7-0.8,1.1
		c-0.3,0.4-0.7,0.9-1,1.4c-0.4,0.5-0.7,0.9-1,1.3c-0.3,0.4-0.6,0.7-0.8,0.9c-0.1,0.1-0.2,0.1-0.3,0.1c-0.1,0-0.2-0.1-0.3-0.1
		c-1.6-1.2-3.1-2.4-4.8-3.6c-1.6-1.2-3.2-2.4-4.8-3.6c-1.6-1.2-3.1-2.4-4.6-3.5c-1.5-1.1-2.9-2.2-4.1-3.2c-1.3-1-2.4-1.9-3.4-2.7
		c-0.7-0.6-1.2-1.1-1.5-1.5c-0.3-0.4-0.5-0.8-0.5-1.2c0-0.4,0.1-0.8,0.3-1.3c0.1-0.3,0.2-0.6,0.4-1c0.2-0.4,0.4-0.8,0.7-1.2
		c0.3-0.4,0.5-0.9,0.8-1.3c0-0.1-0.1-0.3-0.3-0.5c-0.2-0.2-0.5-0.4-0.7-0.5c-0.3-0.2-0.5-0.2-0.6-0.2c-0.4,0.5-0.9,1.2-1.5,2
		c-0.6,0.8-1.3,1.8-2.1,2.9c-0.8,1.1-1.8,2.4-2.9,3.9c-1.3,1.7-2.4,3.2-3.5,4.5c-1,1.3-1.9,2.5-2.7,3.4c0,0.1,0.1,0.3,0.4,0.5
		c0.2,0.2,0.4,0.4,0.7,0.6C441.1,404.5,441.3,404.6,441.4,404.6z"/>
	<path fill-rule="evenodd" clip-rule="evenodd" fill="#0066B3" d="M479.4,342.2c0-0.1-0.1-0.2-0.3-0.3c-0.2-0.1-0.4-0.2-0.6-0.3
		c-0.2-0.1-0.4-0.2-0.6-0.2c-0.2-0.1-0.3-0.1-0.4,0c-0.3,0.7-0.8,1.7-1.5,3c-0.7,1.4-1.6,3.1-2.7,5.2c-0.8,1.4-1.4,2.6-2,3.6
		c-0.6,1-1,1.8-1.5,2.6c-0.4,0.7-0.8,1.4-1.2,2.1c0,0.2,0.2,0.3,0.4,0.5c0.2,0.2,0.5,0.3,0.7,0.5c0.3,0.1,0.5,0.2,0.6,0.2
		c0.5-0.6,0.9-1.1,1.3-1.5c0.4-0.4,0.7-0.8,1-1c0.3-0.3,0.6-0.5,1-0.6c0.3-0.1,0.7,0,1.1,0.1c0.4,0.1,0.9,0.3,1.5,0.6
		c0.3,0.2,0.6,0.4,0.8,0.6c0.2,0.2,0.4,0.5,0.5,0.8c0.1,0.2,0.3,0.7,0.7,1.5c0.3,0.8,0.8,1.7,1.2,2.9c0.5,1.2,1,2.4,1.6,3.8
		c0.6,1.4,1.2,2.7,1.8,4.1c0.6,1.4,1.2,2.7,1.7,3.9c0.5,1.2,1,2.3,1.4,3.2c0.4,0.9,0.7,1.6,0.9,2c0,0.1,0,0.1,0,0.2
		c0,0.1-0.1,0.1-0.2,0.1c-0.6-0.3-1.4-0.7-2.4-1.3c-1-0.5-2.1-1.1-3.3-1.8c-1.2-0.6-2.4-1.3-3.7-2c-1.3-0.7-2.5-1.3-3.6-2
		c-1.2-0.6-2.2-1.2-3-1.7c-0.9-0.5-1.5-0.9-2-1.1c-0.6-0.3-1-0.6-1.3-0.9c-0.3-0.3-0.5-0.6-0.6-0.9c-0.1-0.3-0.1-0.6,0-1
		c0.1-0.4,0.2-0.9,0.4-1.3c0.1-0.5,0.3-1,0.6-1.6c0-0.1-0.1-0.2-0.2-0.4c-0.1-0.1-0.3-0.3-0.5-0.4c-0.2-0.1-0.4-0.2-0.6-0.2
		c-0.2-0.1-0.4-0.1-0.5,0c-0.3,0.5-0.7,1.5-1.4,2.8c-0.7,1.4-1.6,3.2-2.8,5.5c-0.8,1.5-1.5,2.8-2.1,3.8c-0.6,1-1.1,1.8-1.5,2.5
		c-0.4,0.7-0.7,1.2-1,1.7c0,0.1,0.1,0.2,0.2,0.4c0.1,0.2,0.3,0.3,0.5,0.5c0.2,0.1,0.4,0.3,0.6,0.4c0.2,0.1,0.3,0.1,0.4,0.1
		c0.6-0.8,1-1.4,1.5-1.9c0.4-0.5,0.8-0.9,1.1-1.2c0.4-0.3,0.9-0.5,1.4-0.4c0.5,0.1,1.2,0.3,2,0.7c0.6,0.3,1.4,0.7,2.4,1.2
		c0.9,0.5,1.9,1,3,1.6c1.1,0.6,2.2,1.1,3.2,1.7c1.1,0.6,2.1,1.1,3,1.6c1.4,0.7,2.5,1.3,3.4,1.8c1,0.5,1.8,0.9,2.5,1.3
		c0.7,0.4,1.3,0.7,1.9,1c0.6,0.3,1.1,0.6,1.7,1c0.6,0.3,1.2,0.7,2,1.1c0.5,0.3,1,0.6,1.2,0.9c0.3,0.3,0.5,0.5,0.5,0.8
		c0.1,0.3,0.1,0.6,0,1c-0.1,0.4-0.2,0.9-0.3,1.4c-0.2,0.5-0.4,1.1-0.6,1.7c0,0.1,0.1,0.2,0.3,0.3c0.2,0.1,0.3,0.3,0.6,0.4
		c0.2,0.1,0.4,0.2,0.6,0.3c0.2,0.1,0.3,0.1,0.4,0.1c0.3-0.5,0.5-1,0.8-1.5c0.2-0.5,0.5-1.1,0.8-1.6c0.3-0.6,0.6-1.3,1-2.1
		c0.4-0.8,0.9-1.7,1.5-2.8c0.8-1.5,1.5-2.7,2-3.7c0.6-1,1-1.8,1.4-2.5c0.4-0.7,0.7-1.3,1-1.8c0-0.1-0.1-0.3-0.4-0.5
		c-0.2-0.2-0.5-0.3-0.8-0.4c-0.3-0.1-0.5-0.2-0.7-0.1c-0.3,0.4-0.5,0.8-0.7,1.1c-0.2,0.3-0.4,0.5-0.6,0.8c-0.2,0.2-0.4,0.4-0.7,0.6
		c-0.4,0.3-0.8,0.5-1.2,0.5c-0.5,0-0.9-0.1-1.4-0.3l-1-0.6c0,0-0.1-0.1-0.2-0.2c-0.1-0.1-0.2-0.2-0.3-0.3c-0.1-0.1-0.2-0.2-0.2-0.3
		c-0.4-0.8-0.9-1.8-1.5-3c-0.6-1.2-1.2-2.6-1.8-4.1c-0.7-1.5-1.3-3-2-4.6c-0.7-1.5-1.3-3-1.9-4.4c-0.6-1.4-1.1-2.5-1.5-3.5
		c-0.4-1-0.7-1.7-0.9-2.1c0-0.1,0-0.1,0.1-0.2c0-0.1,0.1-0.1,0.2-0.1c0.5,0.3,1.2,0.6,2.1,1.1c0.9,0.5,2,1,3.2,1.7
		c1.2,0.6,2.4,1.3,3.6,1.9c1.2,0.7,2.5,1.3,3.6,1.9c1.1,0.6,2.2,1.2,3.1,1.6c0.9,0.5,1.6,0.9,2,1.1c0.6,0.3,1,0.6,1.3,0.9
		c0.3,0.3,0.5,0.5,0.7,0.8c0.1,0.3,0.1,0.7,0.1,1.1c-0.1,0.3-0.2,0.7-0.3,1.3c-0.1,0.5-0.3,1-0.5,1.5c0,0.1,0.2,0.3,0.4,0.5
		c0.2,0.2,0.5,0.3,0.8,0.4c0.3,0.1,0.5,0.2,0.6,0.1c0.3-0.6,0.8-1.5,1.4-2.8c0.6-1.3,1.5-3.1,2.7-5.2c0.6-1.1,1.1-2.1,1.6-2.9
		c0.4-0.8,0.9-1.5,1.2-2.1c0.3-0.6,0.7-1.2,1-1.7c0.3-0.5,0.6-1,0.9-1.5c0-0.1-0.1-0.2-0.3-0.3c-0.2-0.1-0.3-0.2-0.6-0.4
		c-0.2-0.1-0.4-0.2-0.6-0.3c-0.2-0.1-0.3-0.1-0.4-0.1c-0.3,0.5-0.6,0.9-0.8,1.2c-0.2,0.3-0.5,0.6-0.7,0.9c-0.2,0.3-0.4,0.5-0.7,0.8
		c-0.4,0.4-0.9,0.6-1.4,0.5c-0.5,0-1.2-0.2-1.9-0.5c-0.4-0.2-1.1-0.5-2-1c-0.9-0.4-1.9-1-3.1-1.6c-1.2-0.6-2.4-1.3-3.8-2
		c-1.3-0.7-2.7-1.4-4-2.1c-1.2-0.7-2.4-1.3-3.5-1.9c-1.1-0.6-2.1-1.1-3-1.6c-0.9-0.5-1.6-0.9-2.2-1.2c-0.6-0.3-1-0.6-1.2-0.7
		c-0.7-0.4-1.3-0.9-1.7-1.2c-0.4-0.4-0.6-0.7-0.7-1.1c-0.1-0.4-0.1-0.9,0.1-1.4L479.4,342.2z"/>
	<polygon fill-rule="evenodd" clip-rule="evenodd" fill="#808285" points="425.8,373.8 442.9,385.8 445.6,381.9 431.7,372.2 
		436.2,365.7 433,363.5 	"/>
	<path fill-rule="evenodd" clip-rule="evenodd" fill="#808285" d="M418.3,382.1c-1,1.2-1.7,2.4-2.1,3.7c-0.4,1.3-0.5,2.6-0.4,3.9
		c0.2,1.3,0.6,2.6,1.3,3.8c0.7,1.2,1.6,2.4,2.8,3.4c0.9,0.8,1.9,1.4,2.9,1.9c1,0.5,2,0.8,3,1c1,0.2,2,0.2,3.1,0c1-0.2,2-0.5,2.9-1.1
		c0.9-0.5,1.8-1.3,2.6-2.2c1-1.2,1.7-2.4,2.2-3.7c0.4-1.3,0.6-2.6,0.5-3.9c-0.1-1.3-0.5-2.6-1.2-3.8c-0.7-1.3-1.7-2.5-3-3.6
		c-0.9-0.8-1.8-1.4-2.8-1.9c-1-0.5-2-0.8-3-1c-1-0.2-2-0.2-3.1,0c-1,0.2-2,0.5-3,1.1C420.1,380.4,419.2,381.1,418.3,382.1
		L418.3,382.1z M421.1,384.6c0.5-0.6,1.2-1,1.8-1.3c0.7-0.2,1.4-0.3,2.2-0.2c0.8,0.1,1.5,0.3,2.3,0.7c0.8,0.4,1.5,0.9,2.2,1.5
		c0.8,0.7,1.4,1.4,1.9,2.1c0.5,0.7,0.9,1.5,1.1,2.2c0.2,0.7,0.2,1.5,0.1,2.2c-0.1,0.7-0.5,1.4-1,2c-0.5,0.6-1.1,1-1.8,1.3
		c-0.7,0.3-1.4,0.3-2.1,0.3c-0.8-0.1-1.5-0.3-2.3-0.7c-0.8-0.4-1.6-0.9-2.4-1.6c-0.8-0.7-1.4-1.4-1.9-2.1c-0.5-0.7-0.9-1.5-1-2.2
		c-0.2-0.7-0.2-1.5-0.1-2.2C420.3,385.9,420.6,385.3,421.1,384.6z"/>
	<path fill-rule="evenodd" clip-rule="evenodd" fill="#808285" d="M415.5,415.6l3.4-3.3l-5.2-5.4c0.2-0.1,0.4-0.3,0.6-0.4
		c0.2-0.2,0.4-0.4,0.7-0.6c1-1,1.8-2,2.4-3.1c0.6-1.1,0.9-2.1,1-3.2c0.1-0.9-0.1-1.7-0.5-2.5c-0.4-0.8-0.9-1.6-1.6-2.4
		c-0.7-0.7-1.5-1.3-2.4-1.6c-0.9-0.3-1.7-0.4-2.6-0.3c-0.9,0.1-1.8,0.4-2.8,0.9c-1,0.5-2,1.3-3,2.3c-1,1-1.9,1.9-2.6,2.7
		c-0.7,0.8-1.3,1.5-1.7,2.1L415.5,415.6L415.5,415.6z M406.9,399.9c0.1-0.2,0.2-0.4,0.5-0.6c0.2-0.2,0.5-0.5,0.8-0.9
		c0.9-0.8,1.7-1.3,2.5-1.3c0.8-0.1,1.6,0.3,2.3,1c0.5,0.5,0.8,1.1,0.9,1.6c0.1,0.6,0,1.2-0.2,1.8c-0.2,0.6-0.7,1.2-1.3,1.8
		c-0.3,0.2-0.5,0.4-0.7,0.6c-0.2,0.2-0.4,0.3-0.6,0.4L406.9,399.9z"/>
	<polygon fill-rule="evenodd" clip-rule="evenodd" fill="#808285" points="385.2,413.2 398.1,429.7 401.8,426.8 396.4,419.9 
		402.6,415.1 408,422 411.7,419.1 398.8,402.6 395.1,405.5 400,411.8 393.9,416.6 389,410.3 	"/>
	<path fill-rule="evenodd" clip-rule="evenodd" fill="#808285" d="M387.2,430.9l4.3,3.6l4.3-2.8l-16.8-14l-5.2,3.4l6.1,21l4.1-2.7
		l-1.7-5.3L387.2,430.9L387.2,430.9z M380.8,430.8l-1.4-4.4c-0.1-0.4-0.3-0.8-0.4-1.3c-0.2-0.4-0.3-0.9-0.5-1.3
		c-0.2-0.5-0.3-0.9-0.5-1.3l0.1,0c0.3,0.3,0.6,0.6,1,0.9c0.3,0.3,0.7,0.7,1.1,1c0.4,0.3,0.7,0.6,1,0.9l3.5,3L380.8,430.8z"/>
	<polygon fill-rule="evenodd" clip-rule="evenodd" fill="#808285" points="358.8,429.4 368.2,448 372.4,445.8 364.7,430.7 
		371.8,427.1 370,423.6 	"/>
	<path fill-rule="evenodd" clip-rule="evenodd" fill="#808285" d="M357.3,447.2l3.7,4.2l4.7-2.1l-14.5-16.4l-5.7,2.5l2.7,21.7l4.4-2
		l-0.8-5.5L357.3,447.2L357.3,447.2z M351,446.1l-0.7-4.6c-0.1-0.4-0.1-0.9-0.2-1.3c-0.1-0.5-0.2-0.9-0.3-1.4
		c-0.1-0.5-0.2-0.9-0.3-1.3l0.1,0c0.3,0.3,0.5,0.7,0.8,1.1c0.3,0.4,0.6,0.8,0.9,1.1c0.3,0.4,0.6,0.7,0.9,1.1l3,3.5L351,446.1z"/>
	<polygon fill-rule="evenodd" clip-rule="evenodd" fill="#808285" points="337.2,460.6 341.6,459.1 336.1,443 341.5,441.2 
		340.2,437.4 325,442.7 326.3,446.4 331.6,444.6 	"/>
	<path fill-rule="evenodd" clip-rule="evenodd" fill="#808285" d="M297.5,448.5l9.5,13c0.1,0.1,0.2,0.3,0.2,0.4
		c0.1,0.1,0.1,0.3,0,0.5c-0.1,0.3-0.2,0.7-0.4,1c-0.2,0.3-0.5,0.6-0.8,0.9c-0.3,0.2-0.8,0.4-1.2,0.5c-0.3,0.1-0.6,0.1-0.9,0.1
		c-0.2,0-0.5,0-0.7,0l0.3,3.8c0.2,0,0.4,0.1,0.7,0.1c0.2,0,0.5,0,0.8,0c0.3,0,0.6-0.1,0.9-0.1c1.2-0.2,2.2-0.6,3-1.3
		c0.8-0.6,1.5-1.4,2-2.4c0.4-0.7,0.8-1.6,1.1-2.5c0.3-0.9,0.6-2,0.8-3c0.3-1.1,0.5-2.2,0.7-3.3l2.1-10.8l-4.9,0.9l-0.9,7.7
		c-0.1,0.9-0.2,1.8-0.2,2.5c-0.1,0.7-0.1,1.3-0.2,1.8l-0.1,0c-0.3-0.6-0.7-1.2-1-1.8c-0.3-0.6-0.7-1.2-1.1-1.9l-4.3-6.9L297.5,448.5
		z"/>
	<polygon fill-rule="evenodd" clip-rule="evenodd" fill="#808285" points="278.2,450 279.6,470.8 284.3,470.5 283.7,461.8 
		291.5,461.2 292.1,469.9 296.8,469.6 295.3,448.8 290.6,449.1 291.2,457.1 283.4,457.6 282.9,449.6 	"/>
	<path fill-rule="evenodd" clip-rule="evenodd" fill="#808285" d="M267,449.7c-1.5,0-2.9,0.3-4.2,0.8c-1.2,0.5-2.3,1.3-3.2,2.3
		c-0.9,1-1.6,2.1-2.1,3.5c-0.5,1.3-0.7,2.8-0.7,4.4c0,1.2,0.1,2.3,0.4,3.4c0.3,1.1,0.7,2.1,1.3,2.9c0.5,0.9,1.2,1.6,2,2.3
		c0.8,0.6,1.7,1.1,2.7,1.5c1,0.4,2.2,0.5,3.4,0.5c1.5,0,2.9-0.3,4.2-0.8c1.3-0.5,2.3-1.2,3.2-2.2c0.9-0.9,1.6-2.1,2.1-3.5
		c0.5-1.4,0.7-2.9,0.7-4.6c0-1.2-0.1-2.3-0.4-3.3c-0.3-1.1-0.7-2-1.2-2.9c-0.5-0.9-1.2-1.7-2-2.3c-0.8-0.7-1.7-1.2-2.8-1.5
		C269.4,449.9,268.3,449.7,267,449.7L267,449.7z M266.9,453.4c0.8,0,1.5,0.2,2.2,0.6c0.6,0.4,1.1,0.9,1.6,1.5c0.4,0.6,0.7,1.4,1,2.2
		c0.2,0.8,0.3,1.7,0.3,2.7c0,1-0.1,2-0.3,2.8c-0.2,0.9-0.5,1.6-1,2.3c-0.4,0.6-1,1.1-1.6,1.5c-0.6,0.4-1.3,0.5-2.1,0.5
		c-0.8,0-1.5-0.2-2.1-0.5c-0.6-0.3-1.2-0.8-1.6-1.4c-0.4-0.6-0.8-1.4-1-2.2c-0.2-0.9-0.4-1.8-0.4-2.8c0-1,0.1-2,0.3-2.8
		c0.2-0.9,0.6-1.6,1-2.3c0.4-0.6,1-1.1,1.6-1.5C265.4,453.6,266.1,453.4,266.9,453.4z"/>
	
		<rect x="230.4" y="453.1" transform="matrix(0.1566 -0.9877 0.9877 0.1566 -255.9029 614.689)" fill-rule="evenodd" clip-rule="evenodd" fill="#808285" width="3.1" height="8.1"/>
	<path fill-rule="evenodd" clip-rule="evenodd" fill="#808285" d="M220.3,460.3l0.2,5.6l4.9,1.3l-0.9-21.9l-6-1.6l-11.6,18.5
		l4.7,1.3l2.8-4.8L220.3,460.3L220.3,460.3z M216.1,455.5l2.3-4c0.2-0.4,0.4-0.8,0.7-1.2c0.2-0.4,0.5-0.8,0.7-1.3
		c0.2-0.4,0.4-0.8,0.6-1.2l0.1,0c0,0.4,0,0.9,0,1.4c0,0.5,0,1,0,1.4c0,0.5,0,0.9,0,1.4l0.1,4.6L216.1,455.5z"/>
	<polygon fill-rule="evenodd" clip-rule="evenodd" fill="#808285" points="195.5,435.8 188.3,455.4 192.7,457.1 195.7,448.8 
		203,451.5 200.1,459.7 204.5,461.3 211.6,441.7 207.2,440.1 204.5,447.6 197.1,445 199.9,437.4 	"/>
	
		<rect x="184.5" y="438.3" transform="matrix(0.3907 -0.9205 0.9205 0.3907 -293.8225 440.8328)" fill-rule="evenodd" clip-rule="evenodd" fill="#808285" width="3.1" height="8.1"/>
	<path fill-rule="evenodd" clip-rule="evenodd" fill="#808285" d="M162.7,442.6c0.4,0.3,1,0.7,1.7,1.2c0.7,0.5,1.6,1,2.6,1.6
		c1.2,0.7,2.3,1.2,3.3,1.6c1,0.4,1.9,0.6,2.7,0.7c0.8,0.1,1.5,0.1,2.1,0c0.6-0.1,1.1-0.3,1.6-0.5c0.5-0.2,1-0.5,1.4-0.9
		c0.4-0.4,0.8-0.9,1.1-1.4c0.4-0.8,0.6-1.6,0.7-2.3c0-0.8-0.1-1.5-0.4-2.2c-0.3-0.7-0.8-1.4-1.4-1.9l0-0.1c0.8,0.1,1.6,0.1,2.2-0.1
		c0.7-0.2,1.2-0.4,1.7-0.8c0.5-0.4,0.9-0.8,1.2-1.4c0.3-0.6,0.5-1.1,0.6-1.7c0.1-0.6,0-1.1-0.1-1.6c-0.1-0.5-0.3-1-0.7-1.5
		c-0.3-0.5-0.7-1-1.1-1.4c-0.4-0.4-1-0.9-1.6-1.3c-0.6-0.4-1.3-0.9-2.2-1.3c-0.7-0.4-1.4-0.8-2.1-1.1c-0.7-0.3-1.3-0.6-1.9-0.9
		c-0.6-0.3-1.1-0.4-1.5-0.6L162.7,442.6L162.7,442.6z M171.3,436.9l1.4,0.8c0.5,0.3,1,0.6,1.4,0.9c0.4,0.3,0.7,0.7,0.9,1.1
		c0.2,0.4,0.3,0.8,0.4,1.2c0,0.4-0.1,0.9-0.4,1.3c-0.3,0.5-0.6,0.8-1,1.1c-0.4,0.2-0.8,0.4-1.2,0.4c-0.4,0-0.9,0-1.4-0.2
		c-0.5-0.1-1-0.3-1.4-0.6c-0.3-0.2-0.7-0.4-0.9-0.5c-0.3-0.2-0.5-0.3-0.7-0.4L171.3,436.9L171.3,436.9z M175.3,429.7
		c0.2,0.1,0.4,0.2,0.7,0.3c0.3,0.1,0.7,0.3,1.1,0.6c0.9,0.5,1.6,1.1,1.9,1.7c0.3,0.6,0.3,1.3-0.1,2c-0.3,0.5-0.6,0.8-1,1
		c-0.4,0.2-1,0.3-1.6,0.2c-0.6-0.1-1.3-0.3-2-0.7l-1.4-0.8L175.3,429.7z"/>
	<path fill-rule="evenodd" clip-rule="evenodd" fill="#808285" d="M163.7,418c-1.3-0.9-2.6-1.4-3.9-1.7c-1.3-0.2-2.7-0.2-3.9,0.1
		c-1.3,0.3-2.5,0.9-3.7,1.7c-1.1,0.8-2.1,1.9-3,3.2c-0.7,1-1.2,2-1.6,3.1c-0.4,1-0.6,2.1-0.6,3.1c0,1,0.1,2,0.4,3
		c0.3,1,0.8,1.9,1.4,2.8c0.6,0.9,1.5,1.6,2.5,2.3c1.3,0.9,2.6,1.4,3.9,1.7c1.3,0.3,2.6,0.3,3.9,0c1.3-0.3,2.5-0.8,3.7-1.7
		c1.2-0.9,2.2-2,3.2-3.4c0.7-1,1.2-2,1.5-3c0.4-1,0.6-2.1,0.6-3.1c0-1-0.1-2.1-0.4-3c-0.3-1-0.8-1.9-1.4-2.8
		C165.6,419.5,164.8,418.7,163.7,418L163.7,418z M161.5,421c0.7,0.5,1.2,1,1.5,1.7c0.3,0.7,0.5,1.4,0.5,2.1c0,0.8-0.2,1.6-0.4,2.4
		c-0.3,0.8-0.7,1.6-1.2,2.4c-0.6,0.8-1.2,1.6-1.9,2.2c-0.7,0.6-1.4,1-2.1,1.3c-0.7,0.3-1.4,0.4-2.1,0.4c-0.7-0.1-1.4-0.3-2.1-0.7
		c-0.7-0.4-1.1-1-1.5-1.6c-0.3-0.6-0.5-1.3-0.5-2.1c0-0.8,0.1-1.6,0.4-2.4c0.3-0.8,0.7-1.7,1.3-2.5c0.6-0.8,1.2-1.6,1.9-2.1
		c0.7-0.6,1.4-1,2.1-1.3c0.7-0.3,1.4-0.4,2.2-0.3C160.2,420.3,160.8,420.6,161.5,421z"/>
	<polygon fill-rule="evenodd" clip-rule="evenodd" fill="#808285" points="133.4,422.7 137,425.8 147.9,412.8 152.2,416.5 
		154.8,413.4 142.5,403.1 139.9,406.1 144.3,409.8 	"/>
	<path fill-rule="evenodd" clip-rule="evenodd" fill="#808285" d="M128.9,412.4c-0.3-0.1-0.7-0.3-1.1-0.5c-0.4-0.2-0.8-0.5-1.1-0.8
		c-0.4-0.3-0.7-0.6-1.1-1c-1-1-1.6-2-1.9-3.1c-0.3-1.1-0.3-2.2,0.1-3.3c0.3-1.1,1-2.1,2-3.1c0.8-0.8,1.7-1.4,2.5-1.8
		c0.9-0.4,1.7-0.6,2.5-0.5c0.8,0,1.6,0.2,2.4,0.6c0.8,0.4,1.5,0.9,2.1,1.5c0.6,0.6,1.1,1.2,1.4,1.8c0.4,0.6,0.6,1.1,0.8,1.6l3.3-1.9
		c-0.1-0.3-0.3-0.7-0.5-1.1c-0.2-0.4-0.6-0.9-1-1.5c-0.4-0.5-0.9-1.1-1.5-1.7c-0.9-0.9-1.9-1.6-2.9-2.2c-1-0.6-2.1-1-3.2-1.2
		c-1.1-0.2-2.2-0.3-3.3-0.2c-1.1,0.1-2.2,0.5-3.3,1c-1.1,0.6-2.1,1.3-3.2,2.3c-1.1,1.1-1.9,2.2-2.4,3.4c-0.6,1.2-0.9,2.5-0.9,3.8
		c0,1.3,0.3,2.6,0.9,4c0.6,1.3,1.5,2.6,2.8,3.9c0.6,0.6,1.2,1.1,1.7,1.5c0.6,0.4,1.1,0.8,1.5,1c0.5,0.3,0.8,0.5,1.1,0.6L128.9,412.4
		z"/>
	<path fill-rule="evenodd" clip-rule="evenodd" fill="#808285" d="M123.3,381.9c-1-1.2-2.1-2.1-3.3-2.7c-1.2-0.6-2.5-1-3.8-1
		c-1.3-0.1-2.7,0.1-4,0.6c-1.3,0.5-2.6,1.2-3.8,2.2c-0.9,0.8-1.7,1.6-2.4,2.5c-0.7,0.9-1.2,1.8-1.5,2.8c-0.3,1-0.5,2-0.5,3
		c0,1,0.2,2,0.6,3.1c0.4,1,0.9,2,1.7,3c1,1.2,2,2.1,3.2,2.8c1.2,0.7,2.4,1,3.7,1.2c1.3,0.1,2.6-0.1,4-0.6c1.4-0.5,2.7-1.3,4.1-2.3
		c0.9-0.7,1.7-1.5,2.3-2.4c0.6-0.9,1.1-1.8,1.5-2.8c0.3-1,0.5-2,0.5-3c0-1-0.2-2.1-0.6-3.1C124.7,384,124.1,382.9,123.3,381.9
		L123.3,381.9z M120.3,384.2c0.5,0.6,0.8,1.3,0.9,2c0.1,0.7,0,1.4-0.2,2.2c-0.2,0.7-0.6,1.5-1.1,2.2c-0.5,0.7-1.1,1.3-1.9,1.9
		c-0.8,0.6-1.6,1.1-2.4,1.5c-0.8,0.4-1.6,0.6-2.4,0.7c-0.8,0.1-1.5,0-2.1-0.3c-0.7-0.3-1.3-0.7-1.8-1.3c-0.5-0.6-0.8-1.3-0.9-2
		c-0.1-0.7-0.1-1.4,0.1-2.2c0.2-0.7,0.6-1.5,1.1-2.2c0.5-0.7,1.2-1.4,2-2.1c0.8-0.6,1.6-1.1,2.4-1.5c0.8-0.4,1.6-0.6,2.4-0.6
		c0.8-0.1,1.5,0,2.2,0.3C119.2,383.2,119.8,383.6,120.3,384.2z"/>
	<path fill-rule="evenodd" clip-rule="evenodd" fill="#808285" d="M90.3,373.4l2.6,3.9l6.2-4.2c0.1,0.2,0.2,0.4,0.3,0.7
		c0.1,0.2,0.3,0.5,0.5,0.7c0.8,1.2,1.7,2.1,2.6,2.9c0.9,0.8,2,1.3,3,1.5c0.8,0.2,1.7,0.2,2.6,0c0.9-0.2,1.8-0.6,2.6-1.2
		c0.9-0.6,1.5-1.3,2-2.1c0.5-0.8,0.7-1.6,0.8-2.5c0.1-0.9-0.1-1.8-0.4-2.9c-0.4-1-0.9-2.1-1.8-3.4c-0.8-1.2-1.5-2.2-2.2-3
		c-0.7-0.8-1.2-1.5-1.7-2L90.3,373.4L90.3,373.4z M107.3,367.6c0.1,0.1,0.3,0.3,0.5,0.5c0.2,0.3,0.4,0.6,0.7,1c0.7,1,1,1.9,0.9,2.7
		c-0.1,0.8-0.5,1.5-1.3,2.1c-0.6,0.4-1.2,0.6-1.8,0.6c-0.6,0-1.2-0.2-1.7-0.5c-0.6-0.4-1.1-0.9-1.6-1.6c-0.2-0.3-0.4-0.5-0.5-0.8
		c-0.1-0.2-0.2-0.4-0.3-0.6L107.3,367.6z"/>
	<path fill-rule="evenodd" clip-rule="evenodd" fill="#0066B3" d="M211,373.1c0.4,0.1,0.8,0.1,1.1,0.2c0.3,0.1,0.6,0.1,0.8,0.2
		c0.3,0.1,0.5,0.1,0.9,0.2c0.5,0.2,0.8,0.4,0.9,0.8c0.1,0.4,0.2,0.8,0.1,1.4c0,0.6-0.1,1.2-0.2,1.8c-0.1,0.7-0.2,1.4-0.3,2.2
		c-0.1,0.8-0.3,1.8-0.4,2.9c-0.2,1.1-0.4,2.3-0.6,3.8c-0.1,0.9-0.3,1.8-0.5,2.8c-0.2,1-0.3,1.9-0.5,2.9c-0.2,1-0.3,1.9-0.5,2.7
		c-0.2,0.9-0.3,1.6-0.4,2.3c-0.1,0.7-0.2,1.2-0.3,1.6c-0.1,0.8-0.3,1.4-0.5,1.8c-0.2,0.4-0.5,0.7-0.8,0.9c-0.3,0.2-0.6,0.3-1,0.4
		c-0.3,0.1-0.7,0.2-1.2,0.3c-0.5,0.1-1,0.2-1.5,0.2c-0.1,0.1-0.1,0.3-0.1,0.5c0,0.3-0.1,0.5-0.1,0.8c0,0.3,0,0.4,0,0.6
		c0.7,0,1.5,0,2.4,0c0.9,0,1.9,0,3-0.1c1,0,2.1,0,3-0.1c1.4,0,2.7,0,4,0.1c1.3,0,2.6,0.1,4,0.1c0.1-0.1,0.2-0.2,0.2-0.5
		c0.1-0.2,0.1-0.5,0.1-0.8c0-0.3,0-0.5,0-0.6c-0.6-0.1-1.1-0.2-1.6-0.3c-0.5-0.1-0.8-0.2-1.2-0.3c-0.5-0.1-0.8-0.3-1-0.6
		c-0.2-0.3-0.3-0.6-0.3-1c0-0.4,0-0.7,0.1-1c0.1-0.6,0.2-1.4,0.3-2.3c0.1-0.9,0.3-2.1,0.5-3.4c0.2-1.3,0.5-2.9,0.8-4.7
		c0.4,0,0.9,0,1.4,0c0.5,0,1.1,0,1.7,0c0.6,0,1.1,0,1.6-0.1c0.5,0,0.8-0.1,1-0.1c-0.1,0.4-0.1,0.9-0.2,1.5c0,0.6-0.1,1.2-0.1,2
		c0,2.6,0.5,4.9,1.4,6.9c0.9,1.9,2.3,3.4,4.2,4.5c1.9,1.1,4.2,1.6,7,1.6c1.8,0,3.5-0.2,5.1-0.6c1.6-0.4,3.2-1.1,4.6-2
		c1.4-0.9,2.8-2.2,4.1-3.8c1.1-1.3,2-2.7,2.7-4.2c0.7-1.5,1.2-3.1,1.6-4.8c0.4-1.7,0.6-3.4,0.6-5.2c0.1-2-0.2-3.8-0.7-5.5
		c-0.5-1.7-1.3-3.2-2.3-4.4c-1.1-1.3-2.4-2.2-4-2.9c-1.6-0.7-3.4-1-5.5-1.1c-2.3,0-4.4,0.4-6.5,1.2c-2,0.8-3.9,2.1-5.6,3.8
		c-1.5,1.3-2.7,2.8-3.7,4.6c-1,1.7-1.8,3.7-2.4,5.9c-0.2,0-0.4,0.1-0.8,0.1c-0.4,0-0.8,0-1.2,0c-0.5,0-0.9,0-1.4,0
		c-0.5,0-0.9,0-1.2,0c-0.4,0-0.6,0-0.7,0c-0.2,0-0.3-0.1-0.4-0.2c-0.1-0.1-0.1-0.3-0.1-0.4c0.2-1.5,0.4-2.8,0.6-4
		c0.2-1.2,0.4-2.2,0.5-3.1c0.2-0.9,0.3-1.5,0.4-2c0.1-0.5,0.2-0.9,0.3-1.3c0.1-0.3,0.3-0.6,0.5-0.8c0.2-0.2,0.6-0.4,1-0.5
		c0.4-0.1,0.8-0.2,1.3-0.3c0.5-0.1,0.9-0.2,1.4-0.2c0.1-0.1,0.1-0.2,0.2-0.4c0-0.2,0.1-0.4,0.1-0.6c0-0.2,0-0.4,0-0.6
		c0-0.2,0-0.3-0.1-0.3c-0.6,0-1.3,0-2,0c-0.7,0-1.6,0-2.6,0.1c-1,0-2.2,0-3.6,0c-1,0-1.9,0-2.7,0c-0.8,0-1.4,0-2-0.1
		c-0.6,0-1.1,0-1.6-0.1c-0.5,0-1,0-1.4,0c-0.1,0.1-0.2,0.3-0.2,0.5c0,0.2-0.1,0.5-0.1,0.7C210.9,372.8,210.9,373,211,373.1
		L211,373.1z M239.6,402.7c-1.1,0-2.2-0.3-3-1c-0.9-0.7-1.6-1.7-2.1-3c-0.5-1.4-0.7-3.1-0.8-5.2c0-1.5,0.1-3,0.3-4.6
		c0.2-1.6,0.5-3.2,0.9-4.7c0.4-1.5,0.9-3,1.4-4.4c0.6-1.4,1.2-2.6,2-3.6c0.7-1.1,1.5-1.9,2.4-2.5c0.9-0.6,1.9-0.9,2.9-0.9
		c1.3,0,2.3,0.4,3.1,1.1c0.8,0.7,1.4,1.8,1.8,3.2c0.4,1.4,0.6,3.2,0.6,5.2c0,1.3-0.1,2.6-0.2,4.1c-0.1,1.5-0.4,3-0.6,4.5
		c-0.3,1.5-0.7,3-1.2,4.4c-0.5,1.4-1.1,2.7-1.8,3.8c-0.7,1.1-1.5,2-2.5,2.6C241.9,402.3,240.8,402.7,239.6,402.7L239.6,402.7z
		 M284.9,404.2c-0.5-0.1-1-0.2-1.4-0.3c-0.4-0.1-0.8-0.2-1.1-0.3c-0.4-0.1-0.7-0.2-0.9-0.4c-0.2-0.2-0.3-0.5-0.3-0.9
		c0-0.4,0-1,0.2-1.8c0.6-0.1,1.3-0.2,2.2-0.3c0.8-0.1,1.7-0.3,2.6-0.5c0.9-0.2,1.8-0.5,2.7-0.9c0.9-0.4,1.8-0.8,2.7-1.4
		c1.2-0.8,2.2-1.8,3.1-2.9c0.9-1.1,1.5-2.5,2-3.9c0.5-1.5,0.7-3.1,0.7-4.9c0-1.8-0.3-3.3-0.9-4.7c-0.6-1.3-1.4-2.4-2.5-3.3
		c-1.1-0.9-2.3-1.6-3.7-2.2c-1.4-0.5-2.9-0.9-4.4-1.1c0.1-0.6,0.2-1.1,0.4-1.5c0.1-0.4,0.3-0.7,0.6-0.9c0.3-0.2,0.6-0.4,1.1-0.5
		l1.9-0.3c0.1-0.1,0.1-0.2,0.2-0.5c0.1-0.3,0.1-0.5,0.1-0.8c0-0.3,0-0.4-0.1-0.6c-0.5,0-1.2,0-2,0.1c-0.8,0-1.6,0.1-2.5,0.1
		c-0.9,0-1.8,0-2.6,0c-1.4,0-2.7,0-4-0.1c-1.2,0-2.3-0.1-3.3-0.1c-0.1,0-0.1,0.2-0.1,0.3c0,0.2-0.1,0.4-0.1,0.6c0,0.2,0,0.4,0,0.6
		c0,0.2,0,0.3,0.1,0.4c0.4,0.1,0.7,0.1,1,0.1c0.3,0,0.5,0.1,0.7,0.1c0.5,0.1,0.8,0.2,1,0.4c0.2,0.2,0.4,0.4,0.4,0.8
		c0.1,0.3,0,0.8-0.1,1.5c-0.8,0.1-1.6,0.2-2.6,0.4c-1,0.2-2,0.5-3.1,0.8c-1,0.4-2.1,0.8-3,1.3c-1.4,0.8-2.7,1.7-3.7,2.9
		c-1.1,1.2-1.9,2.5-2.5,4.1c-0.6,1.5-0.9,3.3-0.9,5.2c0,2.3,0.5,4.3,1.4,5.9c0.9,1.6,2.3,2.9,4,3.8c1.7,0.9,3.8,1.5,6.3,1.8
		c-0.2,0.8-0.3,1.5-0.5,1.9c-0.2,0.4-0.4,0.7-0.6,0.9c-0.3,0.2-0.6,0.3-1.1,0.4l-2.3,0.4c-0.1,0.1-0.1,0.3-0.2,0.5
		c-0.1,0.3-0.1,0.5-0.1,0.8c0,0.3,0,0.5,0.1,0.6c0.5,0,1.1-0.1,1.7-0.1c0.6,0,1.3,0,2,0c0.7,0,1.4,0,2,0c0.7,0,1.3,0,1.9,0
		c0.6,0,1.2,0,1.8,0c0.7,0,1.4,0,2,0c0.7,0,1.3,0,1.9,0c0.6,0,1.1,0,1.5,0.1c0.1-0.1,0.2-0.3,0.2-0.5c0.1-0.3,0.2-0.5,0.2-0.8
		C284.9,404.4,284.9,404.3,284.9,404.2L284.9,404.2z M285.2,376.9c0,0,0-0.1,0.1-0.2c0.1-0.1,0.1-0.1,0.2-0.1c1,0.4,1.8,1,2.4,1.8
		c0.6,0.8,1,1.8,1.3,2.9c0.3,1.1,0.4,2.4,0.4,3.8c0,1.9-0.2,3.6-0.6,5.1c-0.4,1.6-0.9,2.9-1.6,4.1c-0.7,1.2-1.5,2.1-2.4,2.8
		c-0.9,0.7-1.9,1.1-3.1,1.3c-0.1,0-0.2-0.1-0.2-0.1c0-0.1-0.1-0.2-0.1-0.2L285.2,376.9L285.2,376.9z M274.7,397.9c0,0,0,0.1-0.1,0.2
		c0,0.1-0.1,0.1-0.1,0.1c-0.8-0.3-1.5-0.8-2.2-1.5c-0.6-0.7-1.2-1.6-1.5-2.7c-0.4-1.1-0.6-2.6-0.6-4.3c0-1.8,0.2-3.4,0.5-4.9
		c0.4-1.5,0.9-2.9,1.5-4c0.7-1.2,1.5-2.1,2.4-2.8c0.9-0.7,2-1.2,3.1-1.4c0.1,0,0.1,0,0.2,0.1c0,0,0.1,0.1,0.1,0.2L274.7,397.9
		L274.7,397.9z M301,373.2c0.9,0.1,1.5,0.3,2.1,0.4c0.5,0.1,1,0.3,1.4,0.6c0.4,0.3,0.7,0.8,1,1.4c0.3,0.6,0.6,1.6,1,2.7
		c0.3,0.9,0.7,2,1,3.2c0.4,1.2,0.8,2.4,1.2,3.6c0.4,1.2,0.8,2.5,1.2,3.7c0.4,1.2,0.8,2.4,1.1,3.5c0.3,1.1,0.6,2,0.9,2.9
		c0.2,0.8,0.4,1.5,0.5,2c0,0.1,0,0.2,0,0.3c0,0.1,0,0.3-0.1,0.4c0,0.1-0.1,0.2-0.1,0.3c-0.5,0.8-1,1.5-1.4,2c-0.5,0.5-0.9,0.8-1.4,1
		c-0.5,0.2-1,0.3-1.5,0.3c-0.5,0-1-0.1-1.6-0.2c-0.6-0.2-1.3-0.4-1.9-0.6c-0.7-0.3-1.3-0.6-1.8-0.9c-0.1,0.1-0.1,0.2-0.2,0.4
		c-0.1,0.2-0.2,0.4-0.2,0.6c-0.1,0.2-0.1,0.4-0.1,0.5c-0.1,0.6,0,1.2,0,1.8c0.1,0.6,0.2,1.2,0.4,1.6c0.2,0.5,0.4,0.9,0.7,1.1
		c0.3,0.2,0.7,0.4,1,0.6c0.4,0.1,0.8,0.2,1.2,0.2c0.9,0,1.8-0.2,2.7-0.7c0.9-0.4,1.7-1,2.5-1.7c0.8-0.7,1.6-1.5,2.3-2.4
		c0.7-0.9,1.4-1.8,2-2.6c1.1-1.4,2.2-3,3.2-4.7c1.1-1.7,2.2-3.5,3.2-5.4c1.1-1.9,2.1-3.8,3.2-5.7c1-1.9,2-3.8,3-5.7
		c0.3-0.6,0.6-1.1,0.9-1.6c0.3-0.5,0.7-0.9,1.1-1.2c0.4-0.3,1-0.6,1.6-0.9c0.7-0.2,1.5-0.4,2.5-0.6c0.1,0,0.1-0.2,0.2-0.3
		c0-0.2,0.1-0.4,0.1-0.6c0-0.2,0-0.4,0-0.6c0-0.2,0-0.3-0.1-0.3c-0.6,0-1.4,0-2.4,0.1c-1,0-2.1,0-3.3,0.1c-0.9,0-1.7,0-2.4,0
		c-0.7,0-1.4,0-2-0.1c-0.6,0-1.3-0.1-1.9-0.1c-0.1,0-0.2,0.2-0.2,0.3c-0.1,0.2-0.1,0.4-0.1,0.6c0,0.2,0,0.4,0,0.6
		c0,0.2,0,0.3,0.1,0.3c0.6,0.1,1.2,0.2,1.6,0.3c0.5,0.1,0.9,0.2,1.2,0.3c0.4,0.1,0.6,0.4,0.7,0.7c0.1,0.3,0.1,0.8-0.1,1.3
		c-0.2,0.4-0.4,1-0.7,1.8c-0.3,0.8-0.7,1.6-1.2,2.6c-0.5,1-0.9,2-1.5,3c-0.5,1.1-1.1,2.1-1.6,3.2c-0.6,1-1.1,2-1.7,2.9
		c-0.1,0.1-0.2,0.2-0.2,0.2c-0.1,0-0.1-0.1-0.2-0.2c-0.1-0.2-0.3-0.7-0.5-1.3c-0.2-0.6-0.5-1.4-0.8-2.4c-0.3-0.9-0.6-1.9-1-2.9
		c-0.3-1-0.7-2.1-1-3.1c-0.3-1-0.6-1.9-0.9-2.8c-0.2-0.8-0.4-1.5-0.6-2.1c0-0.1,0-0.3,0.1-0.5c0.1-0.2,0.3-0.3,0.5-0.4
		c0.2-0.1,0.4-0.1,0.6-0.2c0.3-0.1,0.6-0.1,0.9-0.2c0.3-0.1,0.6-0.1,0.9-0.2c0.1,0,0.1-0.2,0.2-0.3c0-0.2,0.1-0.4,0.1-0.6
		c0-0.2,0-0.4,0-0.6c0-0.2,0-0.3-0.1-0.4c-0.2,0-0.5,0-0.9,0c-0.5,0-1,0-1.7,0.1c-0.7,0-1.4,0-2.3,0.1c-0.8,0-1.7,0-2.6,0
		c-0.8,0-1.6,0-2.4,0c-0.8,0-1.5,0-2.3-0.1c-0.7,0-1.3,0-1.8-0.1c-0.5,0-0.9,0-1.2,0c-0.1,0.1-0.1,0.3-0.2,0.5
		c-0.1,0.3-0.1,0.5-0.1,0.8C300.9,372.9,300.9,373.1,301,373.2z"/>
	<circle fill-rule="evenodd" clip-rule="evenodd" fill="#808285" cx="324.1" cy="454.8" r="3.7"/>
	<path fill-rule="evenodd" clip-rule="evenodd" fill="#808285" d="M235.9,465l2.4,0.2l6.6-16.3l6.2,0.6l3.7,17.2l2.4,0.2l-0.4,4.1
		l-21.3-1.9L235.9,465L235.9,465z M243,465.7l6.6,0.6l-1.5-9.4c-0.1-0.4-0.2-0.9-0.2-1.4c-0.1-0.5-0.2-0.9-0.2-1.4
		c-0.1-0.5-0.1-0.9-0.2-1.3l-0.1,0c-0.1,0.4-0.3,0.8-0.4,1.3c-0.1,0.5-0.3,0.9-0.4,1.4c-0.2,0.5-0.3,0.9-0.4,1.3L243,465.7z"/>
</g>
</svg>
