<svg width="190px" height="44px" viewBox="0 0 190 44" version="1.1" xmlns="http://www.w3.org/2000/svg"
     xmlns:xlink="http://www.w3.org/1999/xlink">
    <!-- Generator: Sketch 50 (54983) - http://www.bohemiancoding.com/sketch -->
    <desc>Created with Sketch.</desc>
    <defs></defs>
    <g id="Page-1" stroke="none" stroke-width="1" fill="none" fill-rule="evenodd">
        <g id="Desktop-HD" transform="translate(-583.000000, -5586.000000)">
            <g id="Group-11" transform="translate(0.000000, 5490.000000)">
                <g id="partners" transform="translate(136.000000, 83.000000)">
                    <g id="Page-1" transform="translate(447.000000, 13.000000)">
                        <path d="M0,44 L41.2669683,44 L41.2669683,0 L0,0 L0,44 Z M1.37552605,42.5333755 L39.8902555,42.5333755 L39.8902555,1.46852262 L1.37552605,1.46852262 L1.37552605,42.5333755 Z"
                              id="Fill-1" fill="#000000"></path>
                        <path d="M86.3695979,26.3962028 L85.3673696,32.9583891 L91.3765879,32.9583891 L92.3770371,26.3962028 L96.7560037,26.3962028 L94.0920928,44 L89.7291382,44 L90.8600549,36.431557 L84.8543948,36.431557 L83.7187338,44 L79.3213832,44 L82.0072363,26.3962028 L86.3695979,26.3962028 Z M103.805997,26.3962028 L99.2621673,26.3962028 L96.5181968,43.9981014 L101.022887,43.9987343 L102.216665,36.3663718 L102.261736,36.3663718 L106.892742,44 L112.734131,43.9987343 L106.653749,34.7297807 L114.856602,26.3962028 L109.267252,26.3962028 L102.685755,33.6564401 L102.635347,33.6564401 L103.805997,26.3962028 Z M72.524022,37.4403452 L71.5585619,31.8375836 L71.5117122,31.8375836 L68.7748581,37.4403452 L72.524022,37.4403452 Z M73.1959301,40.9407264 L66.9868592,40.9407264 L65.3133159,44 L60.5298998,44 L69.9461012,26.3962028 L74.8665082,26.3962028 L78.6518472,44 L73.8458959,44 L73.1959301,40.9407264 Z M61.3619272,38.6978497 C61.1822377,39.880676 60.8204867,41.0755268 60.0187041,41.9419202 C58.2520544,43.8405178 55.5869575,43.9936713 53.8962162,44 L47.2850679,44 L50.0930861,26.3962028 L61.3447292,26.3962028 L60.8187076,29.8630421 L54.0148231,29.8630421 L53.4893945,33.3754477 L55.4600481,33.3754477 C56.9147617,33.3754477 58.7804481,33.5836606 60.1094384,34.7962316 C61.0879452,35.6898382 61.6092225,37.0359439 61.3619272,38.6978497 Z M54.2567811,36.6929306 L53.0434326,36.6929306 L52.4438748,40.4274721 L53.5985129,40.4274721 C56.181771,40.4274721 56.6846643,39.6477814 56.8329229,38.6465876 C56.9983795,37.5447681 56.7961548,36.6929306 54.2567811,36.6929306 Z M168.376777,10.1264869 L172.924758,10.1264869 C172.734394,8.98163251 171.762411,8.23674937 170.705623,8.23674937 C169.563439,8.23674937 168.613991,8.88733549 168.376777,10.1264869 Z M176.57192,12.1320388 L176.57192,12.5782093 L168.311543,12.5782093 C168.311543,14.3059331 169.156024,15.2394103 170.768485,15.2394103 C171.613559,15.2394103 172.215489,14.9369004 172.645439,14.141388 L176.421883,14.141388 C175.793266,16.967767 173.314382,18.2524847 170.792206,18.2524847 C167.129032,18.2524847 164.388027,16.0102409 164.388027,11.8744624 C164.388027,7.88297735 166.910796,5.48061848 170.512294,5.48061848 C174.348634,5.48061848 176.57192,8.04625674 176.57192,12.1320388 Z M67.4630658,8.91834592 C65.8672101,8.91834592 64.9391111,10.1568644 64.9391111,11.626379 C64.9391111,13.1439914 65.8672101,14.310996 67.4630658,14.310996 C69.0577355,14.310996 69.9846484,13.1439914 69.9846484,11.626379 C69.9846484,10.1568644 69.0577355,8.91834592 67.4630658,8.91834592 Z M73.7806621,5.62617763 L73.7806621,17.6037972 L69.8559599,17.6037972 L69.8559599,16.2728803 L69.8126684,16.2728803 C69.1229693,17.4658324 67.7649204,18.0018698 66.4691401,18.0018698 C63.1932176,18.0018698 60.8857205,15.0368932 60.8857205,11.6048616 C60.8857205,8.17219705 63.1511122,5.2300036 66.4276276,5.2300036 C67.6996866,5.2300036 69.0369793,5.74262496 69.8559599,6.79318231 L69.8559599,5.62617763 L73.7806621,5.62617763 Z M131.235621,8.91834592 C129.640358,8.91834592 128.712259,10.1568644 128.712259,11.626379 C128.712259,13.1439914 129.640358,14.310996 131.235621,14.310996 C132.832663,14.310996 133.759576,13.1439914 133.759576,11.626379 C133.759576,10.1568644 132.832663,8.91834592 131.235621,8.91834592 Z M137.55381,5.62617763 L137.55381,17.6037972 L133.627922,17.6037972 L133.627922,16.2728803 L133.585817,16.2728803 C132.896118,17.4658324 131.536882,18.0018698 130.242881,18.0018698 C126.966959,18.0018698 124.658869,15.0368932 124.658869,11.6048616 C124.658869,8.17219705 126.921295,5.2300036 130.201962,5.2300036 C131.473428,5.2300036 132.809534,5.74262496 133.627922,6.79318231 L133.627922,5.62617763 L137.55381,5.62617763 Z M47.9723948,17.6037972 L47.9723948,0 L54.6072645,0 C59.0852678,0 60.34428,3.41494426 60.34428,5.79325423 C60.34428,8.19371449 59.0633256,11.612456 54.6072645,11.612456 L52.1989515,11.612456 L52.1989515,17.6037972 L47.9723948,17.6037972 Z M52.1989515,3.81048544 L52.1989515,7.79754045 L53.6400253,7.79754045 C55.5976321,7.79754045 55.8004499,6.5337073 55.8004499,5.79325423 C55.8004499,4.92559511 55.5300262,3.81048544 53.6400253,3.81048544 L52.379234,3.81048544 L52.1989515,3.81048544 Z M76.2340457,5.64516361 L76.2340457,17.6037972 L80.0549668,17.6037972 L83.9476451,11.0200935 L83.9476451,17.6037972 L87.885394,17.6037972 L87.885394,5.64516361 L84.1053923,5.64516361 L80.1700155,12.0567278 L80.1700155,5.64516361 L76.2340457,5.64516361 Z M82.3725455,4.08514923 C84.151649,4.08514923 85.9959862,3.34279755 86.8036991,1.31003236 L84.2406041,0.274030924 C83.9245168,1.66127292 82.8220657,1.7321539 82.3725455,1.7321539 C81.9230254,1.7321539 80.8205743,1.66127292 80.5038939,0.274030924 L77.9407989,1.31003236 C78.751477,3.34279755 80.5964073,4.08514923 82.3725455,4.08514923 Z M95.9607444,22.8078533 L95.9607444,17.7835311 C93.6194443,17.8063143 89.7516735,16.7880331 89.7516735,11.612456 C89.7516735,6.46345919 93.5986881,5.44707659 95.9607444,5.47112549 L95.9607444,0.274030924 L99.8973073,0.274030924 L99.8973073,5.47112549 C102.259364,5.44707659 106.104006,6.46345919 106.104006,11.612456 C106.104006,16.7880331 102.238014,17.8063143 99.8973073,17.7835311 L99.8973073,22.8078533 L95.9607444,22.8078533 Z M99.652384,8.39433297 L99.652384,15.0305645 C100.97663,15.0539806 102.32697,13.990133 102.32697,11.7118159 C102.32697,9.43413161 100.97663,8.36838547 99.652384,8.39433297 Z M96.2086328,15.0305645 L96.2086328,8.39433297 C94.8814217,8.36838547 93.5310822,9.43413161 93.5310822,11.7118159 C93.5310822,13.990133 94.8814217,15.0539806 96.2086328,15.0305645 Z M113.662823,22.8078533 L113.662823,17.7835311 C111.322709,17.8063143 107.451973,16.7880331 107.451973,11.612456 C107.451973,6.46345919 111.302546,5.44707659 113.662823,5.47112549 L113.662823,0.274030924 L117.598793,0.274030924 L117.598793,5.47112549 C119.963222,5.44707659 123.807271,6.46345919 123.807271,11.612456 C123.807271,16.7880331 119.9395,17.8063143 117.598793,17.7835311 L117.598793,22.8078533 L113.662823,22.8078533 Z M117.352684,8.39433297 L117.352684,15.0305645 C118.680488,15.0539806 120.029049,13.990133 120.029049,11.7118159 C120.029049,9.43413161 118.680488,8.36838547 117.352684,8.39433297 Z M113.911898,15.0305645 L113.911898,8.39433297 C112.584687,8.36838547 111.230789,9.43413161 111.230789,11.7118159 C111.230789,13.990133 112.584687,15.0539806 113.911898,15.0305645 Z M140.006601,5.64516361 L140.006601,17.6037972 L143.828115,17.6037972 L147.719607,11.0200935 L147.719607,17.6037972 L151.655577,17.6037972 L151.655577,5.64516361 L147.876761,5.64516361 L143.939012,12.0567278 L143.939012,5.64516361 L140.006601,5.64516361 Z M146.143322,4.08514923 C147.922425,4.08514923 149.766169,3.34279755 150.575661,1.31003236 L148.01138,0.274030924 C147.697072,1.66127292 146.595807,1.7321539 146.143322,1.7321539 C145.693208,1.7321539 144.593722,1.66127292 144.279414,0.274030924 L141.716319,1.31003236 C142.522846,3.34279755 144.369555,4.08514923 146.143322,4.08514923 Z M154.663448,9.06200647 C155.493103,8.46711255 156.618683,8.04499101 157.587108,8.04499101 C158.081699,8.04499101 159.161021,8.12220065 159.161021,9.13795038 C159.161021,10.1271197 158.214538,10.1518015 157.830845,10.1518015 L155.898739,10.1518015 L155.898739,12.7503488 L157.608457,12.7503488 C158.17184,12.7503488 159.228034,12.8009781 159.228034,13.7660985 C159.228034,14.1610068 159.005646,14.9318375 157.629806,14.9318375 C156.258118,14.9318375 155.38102,14.533132 154.232905,13.7907803 L153.222967,16.613995 C155.38102,17.9309889 157.338626,18.0537648 158.23826,18.0537648 C162.737612,18.0537648 163.300995,15.2780151 163.300995,14.362891 C163.300995,13.098425 162.602993,11.8111758 161.02908,11.4137361 L161.02908,11.3650054 C162.017668,10.8935203 162.647471,9.85435455 162.647471,8.56773822 C162.647471,5.76857246 159.882151,5.19962603 158.192596,5.19962603 C156.618683,5.19962603 154.795695,5.69452715 153.605474,6.38688242 L154.663448,9.06200647 Z M178.508178,17.6037972 L182.444148,17.6037972 L182.444148,12.825027 L186.064623,12.825027 L186.064623,17.6037972 L190,17.6037972 L190,5.64516361 L186.064623,5.64516361 L186.064623,9.85435455 L182.444148,9.85435455 L182.444148,5.64516361 L178.508178,5.64516361 L178.508178,17.6037972 Z"
                              id="Fill-3" fill="#000000"></path>
                        <polygon id="Fill-5" fill="#FFED00"
                                 points="1.71945701 43.0833333 40.4072398 43.0833333 40.4072398 1.83333333 1.71945701 1.83333333"></polygon>
                        <path d="M20.6334842,26.9837575 L8.66678229,39.4166667 L3.91880429,34.4894448 L15.8867044,22.0528005 L13.3901966,19.4562822 L13.3901966,14.3310999 L11.6563609,12.5276682 L11.6563609,16.9973401 L10.1471928,18.5667054 L4.07996595,12.2606084 L2.57918552,13.8193909 C2.58996957,12.6428338 2.81583553,9.240156 5.59392688,6.40210109 C8.59189304,3.40592685 11.8295048,4.75554367 12.9366673,5.9078226 L19.0008987,12.210807 L17.4539865,13.8162783 L20.6334842,17.1205985 L23.8123827,13.8162783 L22.2660697,12.210807 L28.3291027,5.9078226 C29.4362653,4.75554367 32.6738771,3.40592685 35.6718432,6.40210109 C38.4505337,9.240156 38.6763996,12.6428338 38.6877828,13.8193909 L37.1870024,12.2606084 L31.1191764,18.5667054 L29.6106075,16.9973401 L29.6106075,12.5276682 L27.8755735,14.3310999 L27.8755735,19.4562822 L25.3790657,22.0528005 L37.3475649,34.4894448 L32.600186,39.4166667 L20.6334842,26.9837575 Z"
                              id="Fill-7" fill="#000000"></path>
                    </g>
                </g>
            </g>
        </g>
    </g>
</svg>
