<svg xmlns="http://www.w3.org/2000/svg" xmlns:xlink="http://www.w3.org/1999/xlink" width="34" height="33" viewBox="0 0 34 33"><defs><path id="2kmya" d="M989.09 1931c.5 0 .91.4.91.9v31.2c0 .5-.41.9-.91.9h-32.17a.91.91 0 0 1-.92-.9v-13.57c0-.5.41-.9.92-.9h9.8v-7.91c0-.5.41-.9.92-.9h9.8v-7.92c0-.5.42-.9.92-.9zm-20.53 31.2h8.88v-20.59h-8.88zm19.6-29.4h-8.88v29.4h8.88z"/></defs><g><g clip-path="url(#clip-3B088636-8164-4A11-810B-76BEECE3FE06)" transform="translate(-956 -1931)"><use fill="#f2b300" xlink:href="#2kmya"/></g></g></svg>