<svg width="34px" height="33px" viewBox="0 0 34 33" version="1.1" xmlns="http://www.w3.org/2000/svg"
     xmlns:xlink="http://www.w3.org/1999/xlink">
    <!-- Generator: Sketch 50 (54983) - http://www.bohemiancoding.com/sketch -->
    <desc>Created with Sketch.</desc>
    <defs></defs>
    <g id="Page-1" stroke="none" stroke-width="1" fill="none" fill-rule="evenodd">
        <g id="Artboard" transform="translate(-431.000000, -97.000000)" fill="#F2B300">
            <g id="Page-1" transform="translate(431.000000, 97.000000)">
                <path d="M32.1611927,31.2006377 L23.2822018,31.2006377 L23.2822018,9.71503165 L23.2822018,1.79936232 L32.1611927,1.79936232 L32.1611927,31.2006377 Z M12.5612844,18.5334319 L12.5612844,10.6147128 L21.4433945,10.6147128 L21.4433945,31.2006377 L12.5612844,31.2006377 L12.5612844,18.5334319 Z M1.83880734,31.2006377 L10.7255963,31.2006377 L10.7255963,19.4331131 L1.83880734,19.4331131 L1.83880734,31.2006377 Z M33.0876147,0 L22.363578,0 C21.8566972,0 21.4433945,0.402569197 21.4433945,0.898156277 L21.4433945,8.81535049 L11.6426606,8.81535049 C11.1342202,8.81535049 10.7255963,9.22096946 10.7255963,9.71503165 L10.7255963,17.6352756 L0.921743119,17.6352756 C0.411743119,17.6352756 0,18.0393697 0,18.5334319 L0,32.1003188 C0,32.5974308 0.411743119,33 0.921743119,33 L11.6426606,33 L22.363578,33 L33.0876147,33 C33.5882569,33 34,32.5974308 34,32.1003188 L34,0.898156277 C34,0.402569197 33.5882569,0 33.0876147,0 Z"
                      id="Fill-1"></path>
            </g>
        </g>
    </g>
</svg>
