<svg xmlns="http://www.w3.org/2000/svg" xmlns:xlink="http://www.w3.org/1999/xlink" width="40" height="38" viewBox="0 0 40 38"><defs><path id="ovwja" d="M280.1 1946.26a2.46 2.46 0 0 1 2.43 2.49v13.45a2.46 2.46 0 0 1-2.42 2.49h-13.08a2.46 2.46 0 0 1-2.42-2.5v-13.44a2.46 2.46 0 0 1 2.42-2.5h8.2zm-5.5-1.31h-7.57c-2.04 0-3.7 1.7-3.7 3.8v3.3a73.96 73.96 0 0 1-3.4.07c-3.88 0-7.57-.28-10.38-.8-3.77-.69-4.24-1.46-4.28-1.53v-8.23c3.69 2 14.13 2.04 14.66 2.04.54 0 10.98-.03 14.66-2.04zm-29.32-13.32c.08-.13.68-.86 4.27-1.52 2.81-.52 6.5-.8 10.38-.8 3.89 0 7.58.28 10.39.8 3.6.66 4.2 1.4 4.27 1.52-.08.12-.68.85-4.27 1.51-2.81.52-6.5.8-10.39.8-3.88 0-7.57-.28-10.38-.8-3.6-.66-4.2-1.4-4.27-1.51zm14.65-3.63c-.65 0-15.93.04-15.93 3.63v28c0 3.6 15.28 3.63 15.93 3.63h1.4c.36-.01.64-.31.63-.68 0-.36-.3-.64-.64-.64l-1.39.01c-3.88 0-7.57-.28-10.38-.8-3.9-.71-4.27-1.51-4.28-1.51v-8.24c3.69 2 14.13 2.03 14.66 2.03h.06a77.32 77.32 0 0 0 3.34-.07v8.84c0 2.1 1.66 3.8 3.7 3.8h13.08c2.03 0 3.69-1.7 3.69-3.8v-13.45c0-2.1-1.66-3.8-3.7-3.8h-4.23v-9.35a.65.65 0 0 0-.64-.66c-.35 0-.64.3-.64.66v4.36c-.03.06-.5.84-4.27 1.53-2.81.51-6.5.8-10.39.8-3.88 0-7.57-.29-10.38-.8-3.77-.7-4.24-1.47-4.28-1.53v-6.74c3.69 2 14.13 2.03 14.66 2.03.65 0 15.94-.04 15.94-3.62 0-3.59-15.29-3.63-15.94-3.63z"/></defs><g><g clip-path="url(#clip-2D33F42B-7617-4D0F-A992-44DB6D81B0CF)" transform="translate(-244 -1928)"><use fill="#f2b300" xlink:href="#ovwja"/></g></g></svg>