<svg width="40px" height="38px" viewBox="0 0 40 38" version="1.1" xmlns="http://www.w3.org/2000/svg"
     xmlns:xlink="http://www.w3.org/1999/xlink">
    <!-- Generator: Sketch 50 (54983) - http://www.bohemiancoding.com/sketch -->
    <desc>Created with Sketch.</desc>
    <defs></defs>
    <g id="Page-1" stroke="none" stroke-width="1" fill="none" fill-rule="evenodd">
        <g id="Artboard" transform="translate(-126.000000, -94.000000)" fill="#F2B300">
            <g id="Page-1" transform="translate(126.000000, 94.000000)">
                <path d="M34.81466,24.4028571 L28.45298,34.0731429 L24.36526,28.0708571 C24.1505,27.7554286 23.74334,27.6905714 23.45552,27.9268571 C23.16796,28.1631429 23.10946,28.6111429 23.32448,28.9268571 L27.9413,35.7065714 C28.06428,35.8865714 28.25694,35.9925714 28.46182,35.9925714 L28.46702,35.9925714 C28.67372,35.9908571 28.86716,35.8811429 28.98858,35.6968571 L35.86818,25.24 C36.07852,24.9202857 36.01326,24.4737143 35.72232,24.2425714 C35.6074,24.1514286 35.47428,24.1077143 35.3422,24.1077143 C35.1407,24.1077143 34.94206,24.21 34.81466,24.4028571"
                      id="Fill-1"></path>
                <path d="M2.151,10.4166667 C2.151,11.7513333 2.5538,12.8333333 3.051,12.8333333 C3.548,12.8333333 3.951,11.7513333 3.951,10.4166667 C3.951,9.082 3.548,8 3.051,8 C2.5538,8 2.151,9.082 2.151,10.4166667"
                      id="Fill-4"></path>
                <path d="M15.9340127,0.00104827586 C15.2835669,0.00104827586 0,0.0421931034 0,3.62651034 L0,31.6380138 C0,35.2225931 15.2835669,35.2634759 15.9340127,35.2634759 C16.4076433,35.2634759 16.8756688,35.2595448 17.3383439,35.2519448 C17.6899363,35.2461793 17.9704459,34.9476828 17.964586,34.5860276 C17.9589809,34.2241103 17.6583439,33.9405517 17.317707,33.9416 C16.8616561,33.9492 16.4005096,33.9533931 15.9340127,33.9533931 C12.0507006,33.9533931 8.36229299,33.6695724 5.54878981,33.1538207 C1.65707006,32.440731 1.27872611,31.6380138 1.27388535,31.6380138 L1.27388535,23.396731 C4.9566879,25.403131 15.3984713,25.4314345 15.9335032,25.4314345 L15.9854777,25.4314345 C16.6889172,25.4314345 17.4050955,25.4214759 18.115414,25.4018207 C18.5169427,25.3913379 18.9243312,25.3753517 19.3327389,25.357531 L19.3327389,34.2 C19.3327389,36.2952414 20.9900637,38 23.0270064,38 L36.1054777,38 C38.1424204,38 39.7997452,36.2952414 39.7997452,34.2 L39.7997452,20.7469517 C39.7997452,18.6517103 38.1424204,16.9469517 36.1054777,16.9469517 L31.8682803,16.9469517 L31.8682803,7.59790345 C31.8682803,7.23598621 31.5831847,6.94273103 31.2313376,6.94273103 C30.8794904,6.94273103 30.5943949,7.23598621 30.5943949,7.59790345 L30.5943949,11.9600414 C30.562293,12.0242483 30.0896815,12.7986621 26.3192357,13.4892138 C23.5057325,14.0044414 19.8173248,14.2882621 15.9340127,14.2882621 C12.0507006,14.2882621 8.36229299,14.0044414 5.54878981,13.4892138 C1.78394904,12.7994483 1.30726115,12.0255586 1.27388535,11.9605655 L1.27388535,5.21648276 C4.9566879,7.2234069 15.3984713,7.25171034 15.9340127,7.25171034 C16.5844586,7.25171034 31.8682803,7.21082759 31.8682803,3.62651034 C31.8682803,0.0421931034 16.5844586,0.00104827586 15.9340127,0.00104827586 Z M5.54878981,5.14205517 C1.9566879,4.48373793 1.35770701,3.74942069 1.28152866,3.62651034 C1.35770701,3.5036 1.9566879,2.76902069 5.54878981,2.11096552 C8.36229299,1.59521379 12.0507006,1.3113931 15.9340127,1.3113931 C19.8173248,1.3113931 23.5057325,1.59521379 26.3192357,2.11096552 C29.9115924,2.76902069 30.5105732,3.5036 30.5867516,3.62651034 C30.5105732,3.74942069 29.9115924,4.48373793 26.3192357,5.14205517 C23.5057325,5.6578069 19.8173248,5.94162759 15.9340127,5.94162759 C12.0507006,5.94162759 8.36229299,5.6578069 5.54878981,5.14205517 Z M30.5943949,13.5633793 L30.5943949,16.9469517 L23.0270064,16.9469517 C20.9900637,16.9469517 19.3327389,18.6517103 19.3327389,20.7469517 L19.3327389,24.0456138 C18.913121,24.0644828 18.4940127,24.080731 18.0812739,24.0922621 C17.3653503,24.1119172 16.6450955,24.1192552 15.9340127,24.1210897 C12.0509554,24.1210897 8.36305732,23.837269 5.54929936,23.3217793 C1.78496815,22.6325379 1.30726115,21.8586483 1.27388535,21.793131 L1.27388535,13.5636414 C4.9566879,15.5703034 15.3984713,15.598869 15.9340127,15.598869 C16.4695541,15.598869 26.9115924,15.5703034 30.5943949,13.5633793 Z M31.2364331,18.2572966 L36.1054777,18.2572966 C37.44,18.2572966 38.5258599,19.3742345 38.5258599,20.7469517 L38.5258599,34.2 C38.5258599,35.5727172 37.44,36.6896552 36.1054777,36.6896552 L23.0270064,36.6896552 C21.6924841,36.6896552 20.6066242,35.5727172 20.6066242,34.2 L20.6066242,20.7469517 C20.6066242,19.3742345 21.6924841,18.2572966 23.0270064,18.2572966 L31.226242,18.2572966 C31.2280255,18.2572966 31.2295541,18.2578207 31.2313376,18.2578207 C31.233121,18.2578207 31.2346497,18.2572966 31.2364331,18.2572966 Z"
                      id="Fill-7"></path>
            </g>
        </g>
    </g>
</svg>
