<svg width="34px" height="33px" viewBox="0 0 34 33" version="1.1" xmlns="http://www.w3.org/2000/svg"
     xmlns:xlink="http://www.w3.org/1999/xlink">
    <!-- Generator: Sketch 50 (54983) - http://www.bohemiancoding.com/sketch -->
    <desc>Created with Sketch.</desc>
    <defs></defs>
    <g id="Page-1" stroke="none" stroke-width="1" fill="none" fill-rule="evenodd">
        <g id="Artboard" transform="translate(-360.000000, -97.000000)" fill="#F2B300">
            <g id="Page-1" transform="translate(360.000000, 97.000000)">
                <path d="M16.9068696,2.438 L29.6509565,10.7105 L4.16721739,10.7105 L16.9068696,2.438 Z M0.943130435,12.62 L32.8691304,12.62 C33.291913,12.62 33.6585217,12.341 33.7782609,11.933 C33.8994783,11.5265 33.733913,11.087 33.382087,10.859 L17.4168696,0.5 C17.1049565,0.296 16.7117391,0.296 16.4013043,0.5 L0.434608696,10.859 C0.0842608696,11.087 -0.079826087,11.5265 0.0369565217,11.933 C0.15373913,12.341 0.524782609,12.62 0.943130435,12.62 Z"
                      id="Fill-1"></path>
                <path d="M7,27.0481629 L7,13.9503476 C7,13.4245283 6.55364135,13 6.00234926,13 C5.44792482,13 5,13.4245283 5,13.9503476 L5,27.0481629 C5,27.5739821 5.44792482,28 6.00234926,28 C6.55364135,28 7,27.5739821 7,27.0481629"
                      id="Fill-4"></path>
                <path d="M8.64,26.5406295 L8.64,13.4593705 C8.64,13.2059247 8.496,13 8.319,13 C8.145,13 8,13.2059247 8,13.4593705 L8,26.5406295 C8,26.7983954 8.145,27 8.319,27 C8.496,27 8.64,26.7983954 8.64,26.5406295"
                      id="Fill-6"></path>
                <path d="M3.637,26.5406295 L3.637,13.4593705 C3.637,13.2059247 3.494,13 3.319,13 C3.143,13 3,13.2059247 3,13.4593705 L3,26.5406295 C3,26.7983954 3.143,27 3.319,27 C3.494,27 3.637,26.7983954 3.637,26.5406295"
                      id="Fill-8"></path>
                <path d="M29,27.0481629 L29,13.9503476 C29,13.4245283 28.5541601,13 28.0015699,13 C27.4474097,13 27,13.4245283 27,13.9503476 L27,27.0481629 C27,27.5739821 27.4474097,28 28.0015699,28 C28.5541601,28 29,27.5739821 29,27.0481629"
                      id="Fill-10"></path>
                <path d="M25.636,26.5406295 L25.636,13.4593705 C25.636,13.2059247 25.495,13 25.318,13 C25.142,13 25,13.2059247 25,13.4593705 L25,26.5406295 C25,26.7983954 25.142,27 25.318,27 C25.495,27 25.636,26.7983954 25.636,26.5406295"
                      id="Fill-12"></path>
                <path d="M29.64,26.5406295 L29.64,13.4593705 C29.64,13.2059247 29.496,13 29.32,13 C29.142,13 29,13.2059247 29,13.4593705 L29,26.5406295 C29,26.7983954 29.142,27 29.32,27 C29.496,27 29.64,26.7983954 29.64,26.5406295"
                      id="Fill-14"></path>
                <path d="M18.638,26.5406295 L18.638,13.4593705 C18.638,13.2059247 18.496,13 18.319,13 C18.143,13 18,13.2059247 18,13.4593705 L18,26.5406295 C18,26.7983954 18.143,27 18.319,27 C18.496,27 18.638,26.7983954 18.638,26.5406295"
                      id="Fill-16"></path>
                <path d="M14.64,26.5406295 L14.64,13.4593705 C14.64,13.2059247 14.496,13 14.319,13 C14.143,13 14,13.2059247 14,13.4593705 L14,26.5406295 C14,26.7983954 14.143,27 14.319,27 C14.496,27 14.64,26.7983954 14.64,26.5406295"
                      id="Fill-18"></path>
                <path d="M18,27.0481629 L18,13.9503476 C18,13.4245283 17.5501567,13 16.9968652,13 C16.4482759,13 16,13.4245283 16,13.9503476 L16,27.0481629 C16,27.5739821 16.4482759,28 16.9968652,28 C17.5501567,28 18,27.5739821 18,27.0481629"
                      id="Fill-20"></path>
                <path d="M33.04866,31 L0.943907664,31 C0.423643597,31 0,31.4505495 0,32.0047096 C0,32.5541601 0.423643597,33 0.943907664,33 L33.04866,33 C33.5733835,33 34,32.5541601 34,32.0047096 C34,31.4505495 33.5733835,31 33.04866,31"
                      id="Fill-22"></path>
                <path d="M3,29.317 C3,29.494 3.21170091,29.635 3.46428199,29.635 L30.537178,29.635 C30.7926791,29.635 31,29.494 31,29.317 C31,29.141 30.7926791,29 30.537178,29 L3.46428199,29 C3.21170091,29 3,29.141 3,29.317"
                      id="Fill-24"></path>
            </g>
        </g>
    </g>
</svg>
