<svg width="39px" height="39px" viewBox="0 0 39 39" version="1.1" xmlns="http://www.w3.org/2000/svg"
     xmlns:xlink="http://www.w3.org/1999/xlink">
    <!-- Generator: Sketch 50 (54983) - http://www.bohemiancoding.com/sketch -->
    <desc>Created with Sketch.</desc>
    <defs></defs>
    <g id="Page-1" stroke="none" stroke-width="1" fill="none" fill-rule="evenodd">
        <g id="Artboard" transform="translate(-273.000000, -94.000000)" fill="#F2B300">
            <g id="Page-1" transform="translate(273.000000, 94.000000)">
                <path d="M22.61625,24.2640984 C21.78225,24.772377 20.89525,25.2885246 19.9805,25.7982787 C19.67975,25.9657377 19.57425,26.3407377 19.7445,26.6363115 C19.9145,26.9316393 20.29625,27.0351639 20.59625,26.8681967 C21.2505,26.5037705 21.8905,26.1361475 22.508,25.77 C23.05625,29.157541 21.94525,32.5608197 19.451,35.0136885 C18.467,35.9818033 17.30525,36.7527049 16.03475,37.2870492 C17.30475,34.5479508 17.33425,31.3969672 16.062,28.5838525 C15.92175,28.2735246 15.552,28.1331148 15.237,28.2718033 C14.9215,28.4097541 14.7795,28.7731967 14.92,29.0835246 C16.2475,32.0193443 15.97225,35.3704918 14.1835,38.047623 C14.04125,38.2605738 14.04725,38.5377049 14.1985,38.7442623 C14.31775,38.907541 14.508,39 14.70575,39 C14.759,39 14.81275,38.9933607 14.8655,38.9795902 C16.9305,38.442541 18.82175,37.3716393 20.335,35.8829508 C23.34525,32.9222951 24.5485,28.7203279 23.55325,24.6432787 C23.50625,24.4514754 23.3685,24.2931148 23.183,24.2181148 C23.10675,24.1871311 23.026,24.1718852 22.94575,24.1718852 C22.831,24.1718852 22.71675,24.2031148 22.61625,24.2640984"
                      id="Fill-1"></path>
                <path d="M3.11680328,19.665 C1.62811475,21.17875 0.557704918,23.07 0.0204098361,25.13475 C0.00737704918,25.185 0.000737704918,25.23575 0,25.286 L0,25.3025 C0.00245901639,25.4975 0.0949180328,25.68375 0.255737705,25.8015 C0.362704918,25.88 0.488606557,25.9195 0.614754098,25.9195 C0.73204918,25.9195 0.849836066,25.88525 0.952377049,25.81675 C3.6297541,24.028 6.98114754,23.7525 9.91672131,25.07975 C10.2272951,25.22025 10.5902459,25.07825 10.7281967,24.76275 C10.8661475,24.44725 10.7264754,24.078 10.4163934,23.93775 C7.60303279,22.6655 4.45229508,22.6955 1.71295082,23.96525 C2.24729508,22.69525 3.01819672,21.533 3.98631148,20.54875 C6.64180328,17.8485 10.4107377,16.769 14.07,17.6625 C14.3997541,17.742 14.7317213,17.53625 14.8113934,17.2005 C14.8908197,16.865 14.687459,16.5275 14.3572131,16.447 C13.4146721,16.217 12.4659836,16.1045 11.5268852,16.1045 C8.40368852,16.1045 5.39286885,17.3505 3.11680328,19.665"
                      id="Fill-4"></path>
                <path d="M38.222439,0.117560976 C37.7617073,0.157317073 26.8453659,1.18292683 19.1709756,8.85756098 C17.2753659,10.7529268 15.3039024,13.344878 13.3114634,16.5614634 C12.9509756,17.1431707 12.587561,17.7490244 12.2317073,18.3617073 C12.062439,18.6529268 12.1612195,19.0260976 12.452439,19.195122 C12.7436585,19.3641463 13.1165854,19.2656098 13.2860976,18.9746341 C13.6365854,18.3717073 13.9936585,17.7758537 14.3480488,17.2039024 C16.2912195,14.0668293 18.2041463,11.5490244 20.0331707,9.72 C26.2582927,3.49487805 34.9780488,1.80536585 37.572439,1.42780488 C37.1946341,4.02219512 35.504878,12.7414634 29.28,18.9663415 C27.4502439,20.7963415 24.9321951,22.7095122 21.7963415,24.6521951 C21.51,24.8297561 21.4217073,25.2053659 21.5990244,25.4917073 C21.7146341,25.6780488 21.9139024,25.7802439 22.1180488,25.7802439 C22.227561,25.7802439 22.3385366,25.7509756 22.4385366,25.6887805 C25.6541463,23.6968293 28.2460976,21.725122 30.1421951,19.8285366 C37.8168293,12.1543902 38.8429268,1.23878049 38.8829268,0.777804878 C38.8841463,0.76195122 38.884878,0.746341463 38.885122,0.730731707 L38.885122,0.71902439 C38.8834146,0.560243902 38.8197561,0.407317073 38.7063415,0.293902439 C38.5914634,0.17902439 38.4360976,0.115365854 38.2753659,0.115365854 C38.2578049,0.115365854 38.2402439,0.116097561 38.222439,0.117560976 M9.8797561,22.674878 C9.67073171,23.0829268 9.46731707,23.4863415 9.2697561,23.8834146 C9.23512195,23.9529268 9.21390244,24.0285366 9.20780488,24.1058537 C9.20268293,24.1692683 9.19585366,24.2314634 9.18926829,24.2936585 C9.08512195,25.2556098 9.15658537,26.0817073 11.037561,27.962439 C12.8004878,29.7256098 13.4563415,29.8056098 14.3856098,29.7892683 C14.5207317,29.7870732 14.6602439,29.7843902 14.8097561,29.7931707 C14.8219512,29.7939024 14.8334146,29.7941463 14.8456098,29.7941463 C15.1660976,29.7941463 15.434878,29.5436585 15.4536585,29.2197561 C15.4729268,28.8834146 15.2160976,28.595122 14.88,28.5756098 C14.6846341,28.5643902 14.514878,28.567561 14.3646341,28.5702439 C13.7546341,28.5802439 13.3863415,28.5868293 11.8997561,27.1002439 C10.2865854,25.4870732 10.3397561,24.9946341 10.4014634,24.424878 C10.4053659,24.3914634 10.4087805,24.3580488 10.4121951,24.324878 C10.5917073,23.964878 10.7763415,23.6 10.965122,23.2312195 C11.1187805,22.9312195 11.0002439,22.5641463 10.7004878,22.4104878 C10.6114634,22.364878 10.5165854,22.3431707 10.4229268,22.3431707 C10.2014634,22.3431707 9.98780488,22.4643902 9.8797561,22.674878"
                      id="Fill-7"></path>
                <path d="M18.9305965,19.2016491 L6.30947368,31.8222807 C6.06950877,32.062 6.06950877,32.450807 6.30947368,32.6907719 C6.42908772,32.810386 6.58652632,32.8703158 6.74347368,32.8703158 C6.90066667,32.8703158 7.05785965,32.810386 7.1777193,32.6907719 L19.7988421,20.0696491 C20.038807,19.8301754 20.038807,19.4411228 19.7988421,19.2016491 C19.6789825,19.0815439 19.5217895,19.021614 19.3645965,19.021614 C19.2074035,19.021614 19.0504561,19.0815439 18.9305965,19.2016491"
                      id="Fill-10"></path>
                <path d="M20.55625,11.53325 C18.651,13.4385 18.65075,16.539 20.55625,18.4445 C21.47875,19.367 22.706,19.875 24.011,19.875 L24.01125,19.875 C25.3165,19.875 26.5435,19.36675 27.467,18.44375 C29.372,16.53875 29.37175,13.43875 27.4665,11.53375 C26.5435,10.61075 25.31625,10.10225 24.01075,10.10225 C22.706,10.10225 21.479,10.6105 20.55625,11.53325 M21.44025,17.5605 C20.02225,16.1425 20.02225,13.83525 21.44,12.41725 C22.12675,11.7305 23.03975,11.35225 24.01075,11.35225 C24.98225,11.35225 25.89575,11.7305 26.58275,12.4175 C28.0005,13.8355 28.00075,16.14225 26.583,17.56 C25.896,18.24675 24.9825,18.62525 24.011,18.62525 C23.04,18.625 22.12675,18.247 21.44025,17.5605"
                      id="Fill-13"></path>
                <path d="M26.4730769,4.26861538 C25.3381538,5.404 26.9613846,8.06153846 28.9503846,10.0500769 C30.4847692,11.5844615 32.4172308,12.9014615 33.7416154,12.9012308 C34.1334615,12.9012308 34.4722308,12.7858462 34.7313846,12.5269231 C34.9568462,12.3014615 34.9568462,11.9361538 34.7313846,11.7109231 C34.5061538,11.4854615 34.1406154,11.4854615 33.9156154,11.7109231 C33.7201538,11.9045385 32.0466154,11.5145385 29.7661538,9.23430769 C27.4856923,6.95384615 27.0943077,5.27915385 27.2890769,5.08438462 C27.5145385,4.85915385 27.5145385,4.49384615 27.2890769,4.26861538 C27.1764615,4.156 27.0287692,4.09969231 26.8810769,4.09969231 C26.7333846,4.09969231 26.5856923,4.156 26.4730769,4.26861538"
                      id="Fill-16"></path>
            </g>
        </g>
    </g>
</svg>
