<svg xmlns="http://www.w3.org/2000/svg" xmlns:xlink="http://www.w3.org/1999/xlink" width="39" height="39" viewBox="0 0 39 39"><defs><path id="9juma" d="M977.62 2112.26c-.84.51-1.73 1.03-2.64 1.54a.6.6 0 0 0-.24.83c.17.3.56.4.86.24l1.9-1.1c.56 3.39-.56 6.79-3.05 9.24a10.9 10.9 0 0 1-3.42 2.28 10.4 10.4 0 0 0 .03-8.7.63.63 0 0 0-.82-.32.61.61 0 0 0-.32.81 9.21 9.21 0 0 1-.74 8.97.6.6 0 0 0 .02.7.63.63 0 0 0 .67.24v-.01c2.06-.54 3.95-1.61 5.46-3.1a11.74 11.74 0 0 0 3.22-11.24.63.63 0 0 0-.6-.47.64.64 0 0 0-.33.1"/><path id="9jumb" d="M958.12 2107.66a12.18 12.18 0 0 0-3.1 5.47.64.64 0 0 0-.02.15v.02c0 .2.1.38.26.5.1.08.23.11.35.11a.6.6 0 0 0 .34-.1 9.21 9.21 0 0 1 8.97-.73c.3.14.67 0 .8-.32a.63.63 0 0 0-.3-.83 10.4 10.4 0 0 0-8.7.03 10.9 10.9 0 0 1 2.27-3.42 10.53 10.53 0 0 1 10.08-2.88c.33.08.66-.13.74-.46a.63.63 0 0 0-.45-.76 11.75 11.75 0 0 0-11.24 3.22"/><path id="9jumc" d="M964.88 2110.68l-.61 1.2a.6.6 0 0 0-.06.23l-.02.19c-.1.96-.03 1.79 1.85 3.67 1.76 1.76 2.42 1.84 3.35 1.82H969.85c.32 0 .59-.24.6-.57a.61.61 0 0 0-.57-.64h-.51c-.61 0-.98.01-2.47-1.48-1.61-1.6-1.56-2.1-1.5-2.67l.01-.1.56-1.1a.61.61 0 0 0-.27-.81.61.61 0 0 0-.82.26m28.34-22.56c-.46.04-11.37 1.07-19.05 8.74a43.02 43.02 0 0 0-5.86 7.7 73.8 73.8 0 0 0-1.08 1.8.61.61 0 0 0 1.05.61c.36-.6.71-1.19 1.07-1.76a41.84 41.84 0 0 1 5.68-7.49c6.23-6.22 14.95-7.91 17.54-8.29-.37 2.6-2.06 11.32-8.29 17.54a41.84 41.84 0 0 1-7.48 5.69.6.6 0 1 0 .32 1.13.6.6 0 0 0 .32-.1c3.21-1.99 5.8-3.96 7.7-5.86 7.68-7.67 8.7-18.59 8.74-19.05v-.06a.61.61 0 0 0-.61-.6h-.05"/><path id="9jumd" d="M973.93 2107.2l-12.62 12.62a.61.61 0 1 0 .43 1.05c.16 0 .32-.06.44-.18l12.62-12.62a.61.61 0 0 0 0-.87.61.61 0 0 0-.87 0"/><path id="9jume" d="M976.44 2105.56a3.64 3.64 0 0 1 0-5.14 3.61 3.61 0 0 1 5.14 0 3.64 3.64 0 0 1 0 5.14 3.61 3.61 0 0 1-5.14 0m-.88-6.03a4.9 4.9 0 0 0 0 6.91 4.86 4.86 0 0 0 6.91 0c1.9-1.9 1.9-5 0-6.9a4.85 4.85 0 0 0-6.91 0"/><path id="9jumf" d="M981.47 2092.27c-1.13 1.13.5 3.8 2.48 5.78 1.54 1.53 3.47 2.85 4.8 2.85.38 0 .72-.11.98-.37a.58.58 0 1 0-.82-.82c-.19.2-1.86-.2-4.14-2.48-2.28-2.28-2.67-3.95-2.48-4.15a.58.58 0 1 0-.4-.98c-.16 0-.3.06-.42.17"/><clipPath id="9jumg"><use xlink:href="#9juma"/></clipPath><clipPath id="9jumh"><use xlink:href="#9jumb"/></clipPath><clipPath id="9jumi"><use xlink:href="#9jumc"/></clipPath><clipPath id="9jumj"><use xlink:href="#9jumd"/></clipPath><clipPath id="9jumk"><use xlink:href="#9jume"/></clipPath><clipPath id="9juml"><use xlink:href="#9jumf"/></clipPath></defs><g><g transform="translate(-955 -2088)"><g><g/><g clip-path="url(#9jumg)"><use fill="#f2b300" xlink:href="#9juma"/></g></g><g><g/><g clip-path="url(#9jumh)"><use fill="#f2b300" xlink:href="#9jumb"/></g></g><g><g/><g clip-path="url(#9jumi)"><use fill="#f2b300" xlink:href="#9jumc"/></g></g><g><g/><g clip-path="url(#9jumj)"><use fill="#f2b300" xlink:href="#9jumd"/></g></g><g><g/><g clip-path="url(#9jumk)"><use fill="#f2b300" xlink:href="#9jume"/></g></g><g><g/><g clip-path="url(#9juml)"><use fill="#f2b300" xlink:href="#9jumf"/></g></g></g></g></svg>