<svg width="47px" height="35px" viewBox="0 0 47 35" version="1.1" xmlns="http://www.w3.org/2000/svg"
     xmlns:xlink="http://www.w3.org/1999/xlink">
  <!-- Generator: Sketch 50 (54983) - http://www.bohemiancoding.com/sketch -->
  <desc>Created with Sketch.</desc>
  <defs></defs>
  <g id="Page-1" stroke="none" stroke-width="1" fill="none" fill-rule="evenodd">
    <g id="Artboard" transform="translate(-196.000000, -97.000000)" fill="#F2B300">
      <g id="Page-1" transform="translate(196.000000, 97.000000)">
        <path d="M34.4606575,10.1789216 L11.5150959,16.0220588 C11.1854247,16.1061275 10.9861918,16.439951 11.0707671,16.7678922 L15.6506575,34.5394608 C15.691589,34.6965686 15.7931781,34.8316176 15.9339726,34.9147059 C16.0298904,34.9708333 16.1386301,35 16.247863,35 C16.2991507,35 16.3506849,34.9936275 16.4007397,34.9808824 L46.3685205,27.35 C46.5270685,27.3095588 46.6629315,27.2083333 46.746274,27.0688725 C46.8024932,26.9742647 46.831589,26.8676471 46.8323288,26.760049 L46.8323288,26.7529412 C46.8318356,26.7031863 46.8254247,26.6534314 46.8128493,26.6044118 L44.031726,15.8122549 C43.9907945,15.6551471 43.8894521,15.520098 43.748411,15.4372549 L34.9276712,10.2453431 C34.8317534,10.1889706 34.7227671,10.1598039 34.6132877,10.1598039 C34.562,10.1598039 34.5109589,10.1661765 34.4606575,10.1789216 Z M12.4180548,17.0571078 L34.5190959,11.4291667 L42.9004384,16.3622549 L45.4655616,26.314951 L16.6921918,33.6416667 L12.4180548,17.0571078 Z"
              id="Fill-1"></path>
        <path d="M34.3014286,10.2633143 C34.1088095,10.4020571 34.0221429,10.6384 34.0819048,10.8621714 L35.8188095,17.3718857 C35.8580952,17.5186286 35.9561905,17.6445714 36.0921429,17.7220571 C36.1847619,17.7744 36.2895238,17.8016 36.3954762,17.8016 C36.445,17.8016 36.4945238,17.7956571 36.5430952,17.7837714 L43.3238095,16.1158857 C43.5569048,16.0585143 43.7311905,15.872 43.7652381,15.6429714 C43.7995238,15.4141714 43.6864286,15.1883429 43.4792857,15.0706286 L34.9619048,10.2288 C34.8680952,10.1755429 34.7630952,10.1490286 34.6585714,10.1490286 C34.532381,10.1490286 34.4066667,10.1874286 34.3014286,10.2633143 Z M35.5916667,11.9149714 L41.6364286,15.3510857 L36.8245238,16.5348571 L35.5916667,11.9149714 Z"
              id="Fill-4"></path>
        <path d="M35.8703333,13.16425 L15.6786496,18.3815 C15.3472564,18.46725 15.1472308,18.80775 15.2322479,19.14225 L18.3216154,31.306 C18.3625128,31.46675 18.4646325,31.60425 18.6061624,31.68875 C18.7025812,31.74625 18.811641,31.77575 18.9216923,31.77575 C18.9732479,31.77575 19.0248034,31.7695 19.0756154,31.7565 L43.4524701,25.45775 C43.6118462,25.41675 43.7481709,25.31325 43.8321966,25.17075 C43.9157265,25.028 43.9397692,24.85775 43.8991197,24.697 L42.5455385,19.3685 C42.4607692,19.03375 42.1231795,18.83225 41.7915385,18.918 C41.4598974,19.00375 41.2601197,19.344 41.3451368,19.67875 L42.5447949,24.40175 L19.3683419,30.3905 L16.5863248,19.4375 L36.1776838,14.37525 C36.5093248,14.2895 36.7093504,13.949 36.6243333,13.61475 C36.5527009,13.3325 36.3011197,13.14425 36.025,13.1445 C35.9739402,13.1445 35.9218889,13.15075 35.8703333,13.16425"
              id="Fill-7"></path>
        <path d="M22.5813582,0.0373968254 C22.5321045,0.0376428571 22.4828507,0.0440396825 22.4343358,0.0563412698 L12.5166045,2.59489683 C12.3582537,2.63549206 12.2225597,2.73710317 12.1393209,2.87734127 L0.0859477612,23.2138333 C-0.0871791045,23.506119 0.00960447761,23.8835317 0.302171642,24.0564921 L11.530791,30.6993492 C11.6292985,30.7576587 11.7371642,30.7854603 11.8440448,30.7854603 C12.0541119,30.7854603 12.2595,30.6774524 12.3745075,30.4835794 C12.5476343,30.1912937 12.4508507,29.813881 12.1582836,29.6406746 L1.45938806,23.3115079 L13.0689851,3.72319841 L22.4929478,1.31134921 L31.3756119,6.56609524 L28.4863881,11.4402302 C28.3130149,11.7325159 28.4097985,12.1101746 28.7023657,12.2828889 C28.994194,12.4558492 29.3724627,12.3596508 29.5458358,12.067119 L32.7485597,6.66352381 C32.8320448,6.52328571 32.8556866,6.35549206 32.8152985,6.19753968 C32.7749104,6.0395873 32.6732015,5.90402381 32.5325821,5.82086508 L22.9007687,0.123015873 C22.8062015,0.0674126984 22.6990746,0.0381349206 22.591209,0.0373968254 L22.5813582,0.0373968254 Z"
              id="Fill-19"></path>
        <path d="M23.1538723,0.0392258065 C23.1038298,0.0397419355 23.0532766,0.0461935484 23.0034894,0.0590967742 L12.7212766,2.72180645 C12.4710638,2.78658065 12.2841702,2.99716129 12.2476596,3.25548387 C12.2111489,3.51380645 12.3321702,3.76903226 12.5542979,3.90193548 L19.0128511,7.76748387 C19.1121702,7.82709677 19.224766,7.85780645 19.3378723,7.85780645 C19.3909787,7.85780645 19.4443404,7.85083871 19.4961702,7.83741935 C19.6603404,7.79483871 19.8010213,7.68825806 19.8873191,7.54116129 L23.7109787,1.01290323 C23.8424681,0.788129032 23.8274043,0.505806452 23.6724255,0.297290323 C23.5516596,0.134451613 23.3642553,0.0415483871 23.1691915,0.0392258065 L23.1538723,0.0392258065 Z M14.5304681,3.58529032 L21.8277447,1.69574194 L19.1139574,6.32851613 L14.5304681,3.58529032 Z"
              id="Fill-22"></path>
        <path d="M23.25248,4.31130769 C23.08376,4.58569231 23.17784,4.93946154 23.4632,5.10169231 L27.49136,7.39484615 L26.4512,9.08315385 C26.28248,9.35707692 26.3768,9.71130769 26.66192,9.87353846 C26.75792,9.92823077 26.86304,9.95407692 26.9672,9.95407692 C27.17192,9.95407692 27.37184,9.853 27.48392,9.67092308 L28.82936,7.48646154 C28.91048,7.35492308 28.93376,7.19753846 28.8944,7.04938462 C28.8548,6.901 28.75592,6.77384615 28.61864,6.69607692 L24.07448,4.10869231 C23.97872,4.05423077 23.8736,4.02838462 23.76968,4.02838462 C23.56472,4.02838462 23.3648,4.12946154 23.25248,4.31130769"
              id="Fill-28"></path>
        <path d="M26.6752273,18.0855 C26.0452273,18.26325 25.5381818,18.8295 25.2831818,19.63925 C25.0531818,20.3705 25.0372727,21.24875 25.2381818,22.112 C25.6263636,23.77825 26.69,24.94225 27.8252273,24.9425 L27.8254545,24.9425 C27.9715909,24.9425 28.1170455,24.92225 28.2575,24.88275 C28.8872727,24.70525 29.3945455,24.13925 29.6495455,23.3295 C29.8795455,22.598 29.8954545,21.71975 29.6947727,20.85625 C29.3063636,19.19 28.2420455,18.026 27.1070455,18.026 C26.9609091,18.026 26.8156818,18.04625 26.6752273,18.0855 M26.3390909,21.802 C26.195,21.18225 26.2013636,20.543 26.3570455,20.04775 C26.4325,19.80925 26.61,19.3945 26.9570455,19.2965 C27.0054545,19.283 27.0561364,19.276 27.1070455,19.276 C27.6211364,19.276 28.3179545,19.98325 28.5938636,21.16625 C28.7377273,21.786 28.7313636,22.4255 28.5754545,22.9205 C28.5004545,23.15925 28.3225,23.574 27.9754545,23.67175 C27.9268182,23.6855 27.8763636,23.6925 27.8254545,23.6925 L27.8252273,23.6925 C27.3109091,23.6925 26.6145455,22.98525 26.3390909,21.802"
              id="Fill-10"></path>
        <path d="M32.6659091,17.1155 C31.4165909,17.4675 30.7859091,19.236 31.2293182,21.1415 C31.6111364,22.7815 32.6993182,23.972 33.8168182,23.972 L33.8170455,23.972 C33.9629545,23.972 34.1079545,23.952 34.2484091,23.91275 C35.4977273,23.56025 36.1293182,21.79175 35.6856818,19.88575 C35.2970455,18.21925 34.2331818,17.0555 33.0979545,17.0555 C32.9520455,17.0555 32.8065909,17.07575 32.6659091,17.1155 M32.3302273,20.83125 C32.0302273,19.54225 32.415,18.4765 32.9481818,18.32625 C32.9965909,18.3125 33.0470455,18.3055 33.0979545,18.3055 C33.6122727,18.3055 34.3090909,19.01275 34.585,20.196 C34.885,21.4855 34.4997727,22.5515 33.9665909,22.70175 C33.9181818,22.71525 33.8677273,22.72225 33.8170455,22.72225 C33.3027273,22.72225 32.6056818,22.01475 32.3302273,20.83125"
              id="Fill-13"></path>
        <path d="M23.2088,20.39925 L22.1608,21.7885 C21.948,22.0705 22.0194667,22.46025 22.3202667,22.65975 C22.6208,22.85875 23.0368,22.79225 23.2493333,22.51025 L23.4650667,22.22425 L24.5898667,26.34 C24.6669333,26.6225 24.9381333,26.80975 25.2352,26.80975 C25.2901333,26.80975 25.3456,26.8035 25.4010667,26.79025 C25.7578667,26.7045 25.9730667,26.364 25.8816,26.02975 L24.3989333,20.60475 C24.3344,20.369 24.1293333,20.18975 23.8738667,20.14525 C23.8336,20.1385 23.7933333,20.13525 23.7536,20.13525 C23.5394667,20.13525 23.3352,20.2315 23.2088,20.39925"
              id="Fill-16"></path>
        <path d="M14.7475918,4.48235294 L4.25469388,22.2171569 C4.17167347,22.3573529 4.14816327,22.5240196 4.18832653,22.6816176 C4.22873469,22.8389706 4.32963265,22.9740196 4.46946939,23.0568627 L14.3077551,28.8867647 C14.4052245,28.9448529 14.5129796,28.9723039 14.6187755,28.9723039 C14.8281633,28.9723039 15.0319184,28.864951 15.1462857,28.6715686 C15.318449,28.3803922 15.222449,28.0046569 14.9312653,27.8321078 L5.62,22.3144608 L15.8013878,5.10686275 C15.973551,4.81568627 15.8773061,4.43970588 15.5863673,4.26740196 C15.4886531,4.20955882 15.3813878,4.18210784 15.2753469,4.18210784 C15.0659592,4.18210784 14.8619592,4.28921569 14.7475918,4.48235294"
              id="Fill-25"></path>
      </g>
    </g>
  </g>
</svg>
