<svg width="47px" height="35px" viewBox="0 0 47 35" version="1.1" xmlns="http://www.w3.org/2000/svg"
     xmlns:xlink="http://www.w3.org/1999/xlink">
  <!-- Generator: Sketch 50 (54983) - http://www.bohemiancoding.com/sketch -->
  <desc>Created with Sketch.</desc>
  <defs>
    <path
      d="M23.4606575,0.178921569 L0.51509589,6.02205882 C0.185424658,6.10612745 -0.0138082192,6.43995098 0.0707671233,6.76789216 L4.65065753,24.5394608 C4.69158904,24.6965686 4.79317808,24.8316176 4.9339726,24.9147059 C5.02989041,24.9708333 5.13863014,25 5.24786301,25 C5.29915068,25 5.35068493,24.9936275 5.40073973,24.9808824 L35.3685205,17.35 C35.5270685,17.3095588 35.6629315,17.2083333 35.746274,17.0688725 C35.8024932,16.9742647 35.831589,16.8676471 35.8323288,16.760049 L35.8323288,16.7529412 C35.8318356,16.7031863 35.8254247,16.6534314 35.8128493,16.6044118 L33.031726,5.8122549 C32.9907945,5.65514706 32.8894521,5.52009804 32.748411,5.4372549 L23.9276712,0.245343137 C23.8317534,0.188970588 23.7227671,0.159803922 23.6132877,0.159803922 C23.562,0.159803922 23.5109589,0.166176471 23.4606575,0.178921569 Z M1.41805479,7.05710784 L23.5190959,1.42916667 L31.9004384,6.3622549 L34.4655616,16.314951 L5.69219178,23.6416667 L1.41805479,7.05710784 Z"
      id="path-1"></path>
    <path
      d="M0.301428571,0.263314286 C0.108809524,0.402057143 0.0221428571,0.6384 0.0819047619,0.862171429 L1.81880952,7.37188571 C1.85809524,7.51862857 1.95619048,7.64457143 2.09214286,7.72205714 C2.1847619,7.7744 2.28952381,7.8016 2.39547619,7.8016 C2.445,7.8016 2.49452381,7.79565714 2.54309524,7.78377143 L9.32380952,6.11588571 C9.55690476,6.05851429 9.73119048,5.872 9.7652381,5.64297143 C9.79952381,5.41417143 9.68642857,5.18834286 9.47928571,5.07062857 L0.961904762,0.2288 C0.868095238,0.175542857 0.763095238,0.149028571 0.658571429,0.149028571 C0.532380952,0.149028571 0.406666667,0.187428571 0.301428571,0.263314286 Z M1.59166667,1.91497143 L7.63642857,5.35108571 L2.82452381,6.53485714 L1.59166667,1.91497143 Z"
      id="path-3"></path>
    <path
      d="M20.8703333,0.16425 L0.678649573,5.3815 C0.34725641,5.46725 0.147230769,5.80775 0.232247863,6.14225 L3.32161538,18.306 C3.36251282,18.46675 3.46463248,18.60425 3.60616239,18.68875 C3.7025812,18.74625 3.81164103,18.77575 3.92169231,18.77575 C3.97324786,18.77575 4.02480342,18.7695 4.07561538,18.7565 L28.4524701,12.45775 C28.6118462,12.41675 28.7481709,12.31325 28.8321966,12.17075 C28.9157265,12.028 28.9397692,11.85775 28.8991197,11.697 L27.5455385,6.3685 C27.4607692,6.03375 27.1231795,5.83225 26.7915385,5.918 C26.4598974,6.00375 26.2601197,6.344 26.3451368,6.67875 L27.5447949,11.40175 L4.36834188,17.3905 L1.58632479,6.4375 L21.1776838,1.37525 C21.5093248,1.2895 21.7093504,0.949 21.6243333,0.61475 C21.5527009,0.3325 21.3011197,0.14425 21.025,0.1445 C20.9739402,0.1445 20.9218889,0.15075 20.8703333,0.16425"
      id="path-5"></path>
    <path
      d="M1.67522727,0.0855 C1.04522727,0.26325 0.538181818,0.8295 0.283181818,1.63925 C0.0531818182,2.3705 0.0372727273,3.24875 0.238181818,4.112 C0.626363636,5.77825 1.69,6.94225 2.82522727,6.9425 L2.82545455,6.9425 C2.97159091,6.9425 3.11704545,6.92225 3.2575,6.88275 C3.88727273,6.70525 4.39454545,6.13925 4.64954545,5.3295 C4.87954545,4.598 4.89545455,3.71975 4.69477273,2.85625 C4.30636364,1.19 3.24204545,0.026 2.10704545,0.026 C1.96090909,0.026 1.81568182,0.04625 1.67522727,0.0855 M1.33909091,3.802 C1.195,3.18225 1.20136364,2.543 1.35704545,2.04775 C1.4325,1.80925 1.61,1.3945 1.95704545,1.2965 C2.00545455,1.283 2.05613636,1.276 2.10704545,1.276 C2.62113636,1.276 3.31795455,1.98325 3.59386364,3.16625 C3.73772727,3.786 3.73136364,4.4255 3.57545455,4.9205 C3.50045455,5.15925 3.3225,5.574 2.97545455,5.67175 C2.92681818,5.6855 2.87636364,5.6925 2.82545455,5.6925 L2.82522727,5.6925 C2.31090909,5.6925 1.61454545,4.98525 1.33909091,3.802"
      id="path-7"></path>
    <path
      d="M1.66590909,0.1155 C0.416590909,0.4675 -0.214090909,2.236 0.229318182,4.1415 C0.611136364,5.7815 1.69931818,6.972 2.81681818,6.972 L2.81704545,6.972 C2.96295455,6.972 3.10795455,6.952 3.24840909,6.91275 C4.49772727,6.56025 5.12931818,4.79175 4.68568182,2.88575 C4.29704545,1.21925 3.23318182,0.0555 2.09795455,0.0555 C1.95204545,0.0555 1.80659091,0.07575 1.66590909,0.1155 M1.33022727,3.83125 C1.03022727,2.54225 1.415,1.4765 1.94818182,1.32625 C1.99659091,1.3125 2.04704545,1.3055 2.09795455,1.3055 C2.61227273,1.3055 3.30909091,2.01275 3.585,3.196 C3.885,4.4855 3.49977273,5.5515 2.96659091,5.70175 C2.91818182,5.71525 2.86772727,5.72225 2.81704545,5.72225 C2.30272727,5.72225 1.60568182,5.01475 1.33022727,3.83125"
      id="path-9"></path>
    <path
      d="M1.2088,0.39925 L0.1608,1.7885 C-0.052,2.0705 0.0194666667,2.46025 0.320266667,2.65975 C0.6208,2.85875 1.0368,2.79225 1.24933333,2.51025 L1.46506667,2.22425 L2.58986667,6.34 C2.66693333,6.6225 2.93813333,6.80975 3.2352,6.80975 C3.29013333,6.80975 3.3456,6.8035 3.40106667,6.79025 C3.75786667,6.7045 3.97306667,6.364 3.8816,6.02975 L2.39893333,0.60475 C2.3344,0.369 2.12933333,0.18975 1.87386667,0.14525 C1.8336,0.1385 1.79333333,0.13525 1.7536,0.13525 C1.53946667,0.13525 1.3352,0.2315 1.2088,0.39925"
      id="path-11"></path>
    <path
      d="M22.5813582,0.0373968254 C22.5321045,0.0376428571 22.4828507,0.0440396825 22.4343358,0.0563412698 L12.5166045,2.59489683 C12.3582537,2.63549206 12.2225597,2.73710317 12.1393209,2.87734127 L0.0859477612,23.2138333 C-0.0871791045,23.506119 0.00960447761,23.8835317 0.302171642,24.0564921 L11.530791,30.6993492 C11.6292985,30.7576587 11.7371642,30.7854603 11.8440448,30.7854603 C12.0541119,30.7854603 12.2595,30.6774524 12.3745075,30.4835794 C12.5476343,30.1912937 12.4508507,29.813881 12.1582836,29.6406746 L1.45938806,23.3115079 L13.0689851,3.72319841 L22.4929478,1.31134921 L31.3756119,6.56609524 L28.4863881,11.4402302 C28.3130149,11.7325159 28.4097985,12.1101746 28.7023657,12.2828889 C28.994194,12.4558492 29.3724627,12.3596508 29.5458358,12.067119 L32.7485597,6.66352381 C32.8320448,6.52328571 32.8556866,6.35549206 32.8152985,6.19753968 C32.7749104,6.0395873 32.6732015,5.90402381 32.5325821,5.82086508 L22.9007687,0.123015873 C22.8062015,0.0674126984 22.6990746,0.0381349206 22.591209,0.0373968254 L22.5813582,0.0373968254 Z"
      id="path-13"></path>
    <path
      d="M11.1538723,0.0392258065 C11.1038298,0.0397419355 11.0532766,0.0461935484 11.0034894,0.0590967742 L0.721276596,2.72180645 C0.47106383,2.78658065 0.284170213,2.99716129 0.247659574,3.25548387 C0.211148936,3.51380645 0.332170213,3.76903226 0.554297872,3.90193548 L7.01285106,7.76748387 C7.11217021,7.82709677 7.22476596,7.85780645 7.33787234,7.85780645 C7.39097872,7.85780645 7.44434043,7.85083871 7.49617021,7.83741935 C7.66034043,7.79483871 7.80102128,7.68825806 7.88731915,7.54116129 L11.7109787,1.01290323 C11.8424681,0.788129032 11.8274043,0.505806452 11.6724255,0.297290323 C11.5516596,0.134451613 11.3642553,0.0415483871 11.1691915,0.0392258065 L11.1538723,0.0392258065 Z M2.53046809,3.58529032 L9.82774468,1.69574194 L7.11395745,6.32851613 L2.53046809,3.58529032 Z"
      id="path-15"></path>
    <path
      d="M10.7475918,0.482352941 L0.254693878,18.2171569 C0.171673469,18.3573529 0.148163265,18.5240196 0.188326531,18.6816176 C0.228734694,18.8389706 0.329632653,18.9740196 0.469469388,19.0568627 L10.3077551,24.8867647 C10.4052245,24.9448529 10.5129796,24.9723039 10.6187755,24.9723039 C10.8281633,24.9723039 11.0319184,24.864951 11.1462857,24.6715686 C11.318449,24.3803922 11.222449,24.0046569 10.9312653,23.8321078 L1.62,18.3144608 L11.8013878,1.10686275 C11.973551,0.815686275 11.8773061,0.439705882 11.5863673,0.267401961 C11.4886531,0.209558824 11.3813878,0.182107843 11.2753469,0.182107843 C11.0659592,0.182107843 10.8619592,0.289215686 10.7475918,0.482352941"
      id="path-17"></path>
    <path
      d="M0.25248,0.311307692 C0.08376,0.585692308 0.17784,0.939461538 0.4632,1.10169231 L4.49136,3.39484615 L3.4512,5.08315385 C3.28248,5.35707692 3.3768,5.71130769 3.66192,5.87353846 C3.75792,5.92823077 3.86304,5.95407692 3.9672,5.95407692 C4.17192,5.95407692 4.37184,5.853 4.48392,5.67092308 L5.82936,3.48646154 C5.91048,3.35492308 5.93376,3.19753846 5.8944,3.04938462 C5.8548,2.901 5.75592,2.77384615 5.61864,2.69607692 L1.07448,0.108692308 C0.97872,0.0542307692 0.8736,0.0283846154 0.76968,0.0283846154 C0.56472,0.0283846154 0.3648,0.129461538 0.25248,0.311307692"
      id="path-19"></path>
  </defs>
  <g id="Page-1" stroke="none" stroke-width="1" fill="none" fill-rule="evenodd">
    <g id="Desktop-HD" transform="translate(-607.000000, -2085.000000)">
      <g id="3_block" transform="translate(235.000000, 1820.000000)">
        <g id="03" transform="translate(372.000000, 265.000000)">
          <g id="Page-1">
            <g id="Group-3" transform="translate(11.000000, 10.000000)">
              <mask id="mask-2" fill="white">
                <use xlink:href="#path-1"></use>
              </mask>
              <g id="Clip-2"></g>
              <path
                d="M23.4606575,0.178921569 L0.51509589,6.02205882 C0.185424658,6.10612745 -0.0138082192,6.43995098 0.0707671233,6.76789216 L4.65065753,24.5394608 C4.69158904,24.6965686 4.79317808,24.8316176 4.9339726,24.9147059 C5.02989041,24.9708333 5.13863014,25 5.24786301,25 C5.29915068,25 5.35068493,24.9936275 5.40073973,24.9808824 L35.3685205,17.35 C35.5270685,17.3095588 35.6629315,17.2083333 35.746274,17.0688725 C35.8024932,16.9742647 35.831589,16.8676471 35.8323288,16.760049 L35.8323288,16.7529412 C35.8318356,16.7031863 35.8254247,16.6534314 35.8128493,16.6044118 L33.031726,5.8122549 C32.9907945,5.65514706 32.8894521,5.52009804 32.748411,5.4372549 L23.9276712,0.245343137 C23.8317534,0.188970588 23.7227671,0.159803922 23.6132877,0.159803922 C23.562,0.159803922 23.5109589,0.166176471 23.4606575,0.178921569 Z M1.41805479,7.05710784 L23.5190959,1.42916667 L31.9004384,6.3622549 L34.4655616,16.314951 L5.69219178,23.6416667 L1.41805479,7.05710784 Z"
                id="Fill-1" fill="#F2B300" mask="url(#mask-2)"></path>
            </g>
            <g id="Group-6" transform="translate(34.000000, 10.000000)">
              <mask id="mask-4" fill="white">
                <use xlink:href="#path-3"></use>
              </mask>
              <g id="Clip-5"></g>
              <path
                d="M0.301428571,0.263314286 C0.108809524,0.402057143 0.0221428571,0.6384 0.0819047619,0.862171429 L1.81880952,7.37188571 C1.85809524,7.51862857 1.95619048,7.64457143 2.09214286,7.72205714 C2.1847619,7.7744 2.28952381,7.8016 2.39547619,7.8016 C2.445,7.8016 2.49452381,7.79565714 2.54309524,7.78377143 L9.32380952,6.11588571 C9.55690476,6.05851429 9.73119048,5.872 9.7652381,5.64297143 C9.79952381,5.41417143 9.68642857,5.18834286 9.47928571,5.07062857 L0.961904762,0.2288 C0.868095238,0.175542857 0.763095238,0.149028571 0.658571429,0.149028571 C0.532380952,0.149028571 0.406666667,0.187428571 0.301428571,0.263314286 Z M1.59166667,1.91497143 L7.63642857,5.35108571 L2.82452381,6.53485714 L1.59166667,1.91497143 Z"
                id="Fill-4" fill="#F2B300" mask="url(#mask-4)"></path>
            </g>
            <g id="Group-9" transform="translate(15.000000, 13.000000)">
              <mask id="mask-6" fill="white">
                <use xlink:href="#path-5"></use>
              </mask>
              <g id="Clip-8"></g>
              <path
                d="M20.8703333,0.16425 L0.678649573,5.3815 C0.34725641,5.46725 0.147230769,5.80775 0.232247863,6.14225 L3.32161538,18.306 C3.36251282,18.46675 3.46463248,18.60425 3.60616239,18.68875 C3.7025812,18.74625 3.81164103,18.77575 3.92169231,18.77575 C3.97324786,18.77575 4.02480342,18.7695 4.07561538,18.7565 L28.4524701,12.45775 C28.6118462,12.41675 28.7481709,12.31325 28.8321966,12.17075 C28.9157265,12.028 28.9397692,11.85775 28.8991197,11.697 L27.5455385,6.3685 C27.4607692,6.03375 27.1231795,5.83225 26.7915385,5.918 C26.4598974,6.00375 26.2601197,6.344 26.3451368,6.67875 L27.5447949,11.40175 L4.36834188,17.3905 L1.58632479,6.4375 L21.1776838,1.37525 C21.5093248,1.2895 21.7093504,0.949 21.6243333,0.61475 C21.5527009,0.3325 21.3011197,0.14425 21.025,0.1445 C20.9739402,0.1445 20.9218889,0.15075 20.8703333,0.16425"
                id="Fill-7" fill="#F2B300" mask="url(#mask-6)"></path>
            </g>
            <g id="Group-12" transform="translate(25.000000, 18.000000)">
              <mask id="mask-8" fill="white">
                <use xlink:href="#path-7"></use>
              </mask>
              <g id="Clip-11"></g>
              <path
                d="M1.67522727,0.0855 C1.04522727,0.26325 0.538181818,0.8295 0.283181818,1.63925 C0.0531818182,2.3705 0.0372727273,3.24875 0.238181818,4.112 C0.626363636,5.77825 1.69,6.94225 2.82522727,6.9425 L2.82545455,6.9425 C2.97159091,6.9425 3.11704545,6.92225 3.2575,6.88275 C3.88727273,6.70525 4.39454545,6.13925 4.64954545,5.3295 C4.87954545,4.598 4.89545455,3.71975 4.69477273,2.85625 C4.30636364,1.19 3.24204545,0.026 2.10704545,0.026 C1.96090909,0.026 1.81568182,0.04625 1.67522727,0.0855 M1.33909091,3.802 C1.195,3.18225 1.20136364,2.543 1.35704545,2.04775 C1.4325,1.80925 1.61,1.3945 1.95704545,1.2965 C2.00545455,1.283 2.05613636,1.276 2.10704545,1.276 C2.62113636,1.276 3.31795455,1.98325 3.59386364,3.16625 C3.73772727,3.786 3.73136364,4.4255 3.57545455,4.9205 C3.50045455,5.15925 3.3225,5.574 2.97545455,5.67175 C2.92681818,5.6855 2.87636364,5.6925 2.82545455,5.6925 L2.82522727,5.6925 C2.31090909,5.6925 1.61454545,4.98525 1.33909091,3.802"
                id="Fill-10" fill="#F2B300" mask="url(#mask-8)"></path>
            </g>
            <g id="Group-15" transform="translate(31.000000, 17.000000)">
              <mask id="mask-10" fill="white">
                <use xlink:href="#path-9"></use>
              </mask>
              <g id="Clip-14"></g>
              <path
                d="M1.66590909,0.1155 C0.416590909,0.4675 -0.214090909,2.236 0.229318182,4.1415 C0.611136364,5.7815 1.69931818,6.972 2.81681818,6.972 L2.81704545,6.972 C2.96295455,6.972 3.10795455,6.952 3.24840909,6.91275 C4.49772727,6.56025 5.12931818,4.79175 4.68568182,2.88575 C4.29704545,1.21925 3.23318182,0.0555 2.09795455,0.0555 C1.95204545,0.0555 1.80659091,0.07575 1.66590909,0.1155 M1.33022727,3.83125 C1.03022727,2.54225 1.415,1.4765 1.94818182,1.32625 C1.99659091,1.3125 2.04704545,1.3055 2.09795455,1.3055 C2.61227273,1.3055 3.30909091,2.01275 3.585,3.196 C3.885,4.4855 3.49977273,5.5515 2.96659091,5.70175 C2.91818182,5.71525 2.86772727,5.72225 2.81704545,5.72225 C2.30272727,5.72225 1.60568182,5.01475 1.33022727,3.83125"
                id="Fill-13" fill="#F2B300" mask="url(#mask-10)"></path>
            </g>
            <g id="Group-18" transform="translate(22.000000, 20.000000)">
              <mask id="mask-12" fill="white">
                <use xlink:href="#path-11"></use>
              </mask>
              <g id="Clip-17"></g>
              <path
                d="M1.2088,0.39925 L0.1608,1.7885 C-0.052,2.0705 0.0194666667,2.46025 0.320266667,2.65975 C0.6208,2.85875 1.0368,2.79225 1.24933333,2.51025 L1.46506667,2.22425 L2.58986667,6.34 C2.66693333,6.6225 2.93813333,6.80975 3.2352,6.80975 C3.29013333,6.80975 3.3456,6.8035 3.40106667,6.79025 C3.75786667,6.7045 3.97306667,6.364 3.8816,6.02975 L2.39893333,0.60475 C2.3344,0.369 2.12933333,0.18975 1.87386667,0.14525 C1.8336,0.1385 1.79333333,0.13525 1.7536,0.13525 C1.53946667,0.13525 1.3352,0.2315 1.2088,0.39925"
                id="Fill-16" fill="#F2B300" mask="url(#mask-12)"></path>
            </g>
            <g id="Group-21">
              <mask id="mask-14" fill="white">
                <use xlink:href="#path-13"></use>
              </mask>
              <g id="Clip-20"></g>
              <path
                d="M22.5813582,0.0373968254 C22.5321045,0.0376428571 22.4828507,0.0440396825 22.4343358,0.0563412698 L12.5166045,2.59489683 C12.3582537,2.63549206 12.2225597,2.73710317 12.1393209,2.87734127 L0.0859477612,23.2138333 C-0.0871791045,23.506119 0.00960447761,23.8835317 0.302171642,24.0564921 L11.530791,30.6993492 C11.6292985,30.7576587 11.7371642,30.7854603 11.8440448,30.7854603 C12.0541119,30.7854603 12.2595,30.6774524 12.3745075,30.4835794 C12.5476343,30.1912937 12.4508507,29.813881 12.1582836,29.6406746 L1.45938806,23.3115079 L13.0689851,3.72319841 L22.4929478,1.31134921 L31.3756119,6.56609524 L28.4863881,11.4402302 C28.3130149,11.7325159 28.4097985,12.1101746 28.7023657,12.2828889 C28.994194,12.4558492 29.3724627,12.3596508 29.5458358,12.067119 L32.7485597,6.66352381 C32.8320448,6.52328571 32.8556866,6.35549206 32.8152985,6.19753968 C32.7749104,6.0395873 32.6732015,5.90402381 32.5325821,5.82086508 L22.9007687,0.123015873 C22.8062015,0.0674126984 22.6990746,0.0381349206 22.591209,0.0373968254 L22.5813582,0.0373968254 Z"
                id="Fill-19" fill="#F2B300" mask="url(#mask-14)"></path>
            </g>
            <g id="Group-24" transform="translate(12.000000, 0.000000)">
              <mask id="mask-16" fill="white">
                <use xlink:href="#path-15"></use>
              </mask>
              <g id="Clip-23"></g>
              <path
                d="M11.1538723,0.0392258065 C11.1038298,0.0397419355 11.0532766,0.0461935484 11.0034894,0.0590967742 L0.721276596,2.72180645 C0.47106383,2.78658065 0.284170213,2.99716129 0.247659574,3.25548387 C0.211148936,3.51380645 0.332170213,3.76903226 0.554297872,3.90193548 L7.01285106,7.76748387 C7.11217021,7.82709677 7.22476596,7.85780645 7.33787234,7.85780645 C7.39097872,7.85780645 7.44434043,7.85083871 7.49617021,7.83741935 C7.66034043,7.79483871 7.80102128,7.68825806 7.88731915,7.54116129 L11.7109787,1.01290323 C11.8424681,0.788129032 11.8274043,0.505806452 11.6724255,0.297290323 C11.5516596,0.134451613 11.3642553,0.0415483871 11.1691915,0.0392258065 L11.1538723,0.0392258065 Z M2.53046809,3.58529032 L9.82774468,1.69574194 L7.11395745,6.32851613 L2.53046809,3.58529032 Z"
                id="Fill-22" fill="#F2B300" mask="url(#mask-16)"></path>
            </g>
            <g id="Group-27" transform="translate(4.000000, 4.000000)">
              <mask id="mask-18" fill="white">
                <use xlink:href="#path-17"></use>
              </mask>
              <g id="Clip-26"></g>
              <path
                d="M10.7475918,0.482352941 L0.254693878,18.2171569 C0.171673469,18.3573529 0.148163265,18.5240196 0.188326531,18.6816176 C0.228734694,18.8389706 0.329632653,18.9740196 0.469469388,19.0568627 L10.3077551,24.8867647 C10.4052245,24.9448529 10.5129796,24.9723039 10.6187755,24.9723039 C10.8281633,24.9723039 11.0319184,24.864951 11.1462857,24.6715686 C11.318449,24.3803922 11.222449,24.0046569 10.9312653,23.8321078 L1.62,18.3144608 L11.8013878,1.10686275 C11.973551,0.815686275 11.8773061,0.439705882 11.5863673,0.267401961 C11.4886531,0.209558824 11.3813878,0.182107843 11.2753469,0.182107843 C11.0659592,0.182107843 10.8619592,0.289215686 10.7475918,0.482352941"
                id="Fill-25" fill="#F2B300" mask="url(#mask-18)"></path>
            </g>
            <g id="Group-30" transform="translate(23.000000, 4.000000)">
              <mask id="mask-20" fill="white">
                <use xlink:href="#path-19"></use>
              </mask>
              <g id="Clip-29"></g>
              <path
                d="M0.25248,0.311307692 C0.08376,0.585692308 0.17784,0.939461538 0.4632,1.10169231 L4.49136,3.39484615 L3.4512,5.08315385 C3.28248,5.35707692 3.3768,5.71130769 3.66192,5.87353846 C3.75792,5.92823077 3.86304,5.95407692 3.9672,5.95407692 C4.17192,5.95407692 4.37184,5.853 4.48392,5.67092308 L5.82936,3.48646154 C5.91048,3.35492308 5.93376,3.19753846 5.8944,3.04938462 C5.8548,2.901 5.75592,2.77384615 5.61864,2.69607692 L1.07448,0.108692308 C0.97872,0.0542307692 0.8736,0.0283846154 0.76968,0.0283846154 C0.56472,0.0283846154 0.3648,0.129461538 0.25248,0.311307692"
                id="Fill-28" fill="#F2B300" mask="url(#mask-20)"></path>
            </g>
          </g>
        </g>
      </g>
    </g>
  </g>
</svg>
