<svg width="33px" height="24px" viewBox="0 0 33 24" version="1.1" xmlns="http://www.w3.org/2000/svg"
     xmlns:xlink="http://www.w3.org/1999/xlink">
    <!-- Generator: Sketch 50 (54983) - http://www.bohemiancoding.com/sketch -->
    <desc>Created with Sketch.</desc>
    <defs>
        <path d="M2.9676259,0.19824 C1.33139568,0.19824 0,1.54392 0,3.19824 L0,21 C0,22.65432 1.33139568,24 2.9676259,24 L29.8213165,24 C31.4577842,24 32.7889424,22.65432 32.7889424,21 L32.7889424,3.19824 C32.7889424,1.54392 31.4577842,0.19824 29.8213165,0.19824 L2.9676259,0.19824 Z M1.18705036,21 L1.18705036,3.19824 C1.18705036,2.2056 1.98593525,1.39824 2.9676259,1.39824 L29.8213165,1.39824 C30.8032446,1.39824 31.6021295,2.2056 31.6021295,3.19824 L31.6021295,21 C31.6021295,21.9924 30.8032446,22.8 29.8213165,22.8 L2.9676259,22.8 C1.98593525,22.8 1.18705036,21.9924 1.18705036,21 Z"
              id="path-1"></path>
        <path d="M1.07272727,0.1284 C0.548848485,0.1284 0.123636364,0.54888 0.123636364,1.06728 L0.123636364,4.8336 C0.123636364,5.35272 0.548848485,5.77296 1.07272727,5.77296 L6.82448485,5.77296 C7.34787879,5.77296 7.77309091,5.35272 7.77309091,4.8336 L7.77309091,1.06728 C7.77309091,0.54888 7.34787879,0.1284 6.82448485,0.1284 L1.07272727,0.1284 Z"
              id="path-3"></path>
    </defs>
    <g id="Page-1" stroke="none" stroke-width="1" fill="none" fill-rule="evenodd">
        <g id="Desktop-HD" transform="translate(-606.000000, -1940.000000)">
            <g id="3_block" transform="translate(235.000000, 1820.000000)">
                <g id="04" transform="translate(371.000000, 120.000000)">
                    <g id="Page-1">
                        <g id="Group-3">
                            <mask id="mask-2" fill="white">
                                <use xlink:href="#path-1"></use>
                            </mask>
                            <g id="Clip-2"></g>
                            <path d="M2.9676259,0.19824 C1.33139568,0.19824 0,1.54392 0,3.19824 L0,21 C0,22.65432 1.33139568,24 2.9676259,24 L29.8213165,24 C31.4577842,24 32.7889424,22.65432 32.7889424,21 L32.7889424,3.19824 C32.7889424,1.54392 31.4577842,0.19824 29.8213165,0.19824 L2.9676259,0.19824 Z M1.18705036,21 L1.18705036,3.19824 C1.18705036,2.2056 1.98593525,1.39824 2.9676259,1.39824 L29.8213165,1.39824 C30.8032446,1.39824 31.6021295,2.2056 31.6021295,3.19824 L31.6021295,21 C31.6021295,21.9924 30.8032446,22.8 29.8213165,22.8 L2.9676259,22.8 C1.98593525,22.8 1.18705036,21.9924 1.18705036,21 Z"
                                  id="Fill-1" fill="#F2B300" mask="url(#mask-2)"></path>
                        </g>
                        <g id="Group-6" transform="translate(4.000000, 15.000000)">
                            <mask id="mask-4" fill="white">
                                <use xlink:href="#path-3"></use>
                            </mask>
                            <g id="Clip-5"></g>
                            <path d="M1.07272727,0.1284 C0.548848485,0.1284 0.123636364,0.54888 0.123636364,1.06728 L0.123636364,4.8336 C0.123636364,5.35272 0.548848485,5.77296 1.07272727,5.77296 L6.82448485,5.77296 C7.34787879,5.77296 7.77309091,5.35272 7.77309091,4.8336 L7.77309091,1.06728 C7.77309091,0.54888 7.34787879,0.1284 6.82448485,0.1284 L1.07272727,0.1284 Z"
                                  id="Fill-4" fill="#F2B300" mask="url(#mask-4)"></path>
                        </g>
                        <polygon id="Fill-7" fill="#F2B300" points="1 12 32 12 32 6 1 6"></polygon>
                    </g>
                </g>
            </g>
        </g>
    </g>
</svg>
