<svg width="85px" height="85px" viewBox="0 0 85 85" version="1.1" xmlns="http://www.w3.org/2000/svg"
     xmlns:xlink="http://www.w3.org/1999/xlink">
    <!-- Generator: Sketch 50 (54983) - http://www.bohemiancoding.com/sketch -->
    <desc>Created with Sketch.</desc>
    <defs></defs>
    <g id="Page-1" stroke="none" stroke-width="1" fill="none" fill-rule="evenodd">
        <g id="Desktop-HD" transform="translate(-781.000000, -1513.000000)">
            <g id="Group-7" transform="translate(-4.000000, 875.000000)">
                <g id="winners" transform="translate(740.000000, 185.000000)">
                    <g id="3" transform="translate(46.000000, 454.000000)">
                        <g id="icon">
                            <path d="M58.01045,33.6446211 C57.21395,34.5466737 56.11595,35.3067789 55.37495,35.6578316 L49.59545,38.4021474 C49.38095,38.5074632 49.20995,38.6952 49.13495,38.9287263 L44.04095,54.0377263 L42.74495,54.6558842 L43.32095,42.8422 C43.33745,42.5293053 43.18745,42.2316737 42.92945,42.0561474 C42.78245,41.9523579 42.61145,41.9004632 42.43895,41.9004632 C42.30995,41.9004632 42.18095,41.9294632 42.06245,41.9844105 L34.13795,45.7574632 C33.16895,46.2153579 31.99295,46.0093053 31.31045,45.2827789 C31.28045,45.2507263 31.24445,45.2217263 31.21445,45.1973053 L25.32245,38.3197263 L26.16395,37.9183053 L32.86595,40.8915684 C33.09995,40.9968842 33.36395,40.9938316 33.59345,40.8793579 L53.44295,31.4436737 C54.29045,31.0392 55.71695,30.5675684 56.93645,30.5675684 C58.40495,30.5675684 58.71095,31.2360947 58.80845,31.4543579 C59.14595,32.1854632 58.45595,33.1378842 58.01045,33.6446211 Z M32.07245,32.6937263 L34.06445,31.7458842 L45.00245,33.4690947 L39.24545,36.2103579 L32.07245,32.6937263 Z M60.41195,30.6957789 C60.00845,29.8150947 59.07845,28.7741474 56.93645,28.7741474 C55.42745,28.7741474 53.75495,29.3083579 52.69295,29.8135684 L46.43795,32.7868316 L33.93395,30.8163579 L30.01295,32.6830421 L38.21045,36.7003053 L33.20945,39.0813579 L26.50295,36.1080947 C26.27645,36.0012526 26.00795,36.0027789 25.77845,36.1157263 L23.51195,37.1933053 C23.25995,37.3093053 23.07995,37.5489368 23.02145,37.8190947 C22.95995,38.0999368 23.03495,38.3853579 23.21795,38.5975158 L29.98895,46.5023053 C30.03995,46.5587789 30.09395,46.6076211 30.15545,46.6473053 C31.36295,47.8240947 33.30245,48.1400421 34.88645,47.3845158 L41.48045,44.2464105 L40.91495,56.0570421 C40.89545,56.3699368 41.04245,56.6690947 41.29895,56.8446211 C41.44895,56.9423053 41.62145,57.0003053 41.79395,57.0003053 C41.91845,57.0003053 42.05045,56.9697789 42.16895,56.9163579 L45.12845,55.5060421 C45.34595,55.4053053 45.51245,55.2160421 45.59195,54.9825158 L50.68295,39.8704632 L56.12495,37.2864105 C56.96045,36.8895684 58.30295,36.0088842 59.32595,34.8443053 C60.95345,32.9989895 60.81245,31.5703579 60.41195,30.6957789 Z"
                                  id="Fill-1" fill="#F2B300"></path>
                            <path d="M42.2533824,39.0283076 L41.3044394,39.2773076 C41.0427234,39.3463076 40.9269987,39.5213076 41.0480646,39.6713076 C41.1370836,39.7763076 41.325804,39.8403076 41.526987,39.8403076 C41.601763,39.8403076 41.676539,39.8303076 41.7459739,39.8113076 L42.6984776,39.5603076 C42.9601936,39.4933076 43.0723575,39.3193076 42.9512917,39.1693076 C42.8248846,39.0203076 42.5168787,38.9593076 42.2533824,39.0283076"
                                  id="Fill-4" fill="#F2B300"></path>
                            <path d="M36.2539431,42.0543134 L35.3009848,42.5503134 C35.0391439,42.6903134 34.9269264,43.0403134 35.0498313,43.3403134 C35.1371116,43.5483134 35.325922,43.6783134 35.5200761,43.6783134 C35.5984503,43.6783134 35.673262,43.6623134 35.7480736,43.6203134 L36.6974695,43.1243134 C36.9593104,42.9843134 37.0750904,42.6343134 36.948623,42.3423134 C36.8274993,42.0463134 36.5193465,41.9183134 36.2539431,42.0543134"
                                  id="Fill-6" fill="#F2B300"></path>
                            <path d="M39.2525498,40.0549608 L38.3005225,40.5549608 C38.0389374,40.6909608 37.9303885,41.0409608 38.0460554,41.3409608 C38.1385889,41.5489608 38.3289943,41.6789608 38.5247383,41.6789608 C38.5994769,41.6789608 38.6813334,41.6589608 38.7471746,41.6209608 L39.6992019,41.1249608 C39.957228,40.9849608 40.0728948,40.6269608 39.9518895,40.3429608 C39.8291047,40.0429608 39.5141349,39.9189608 39.2525498,40.0549608"
                                  id="Fill-8" fill="#F2B300"></path>
                            <circle id="Oval" stroke="#F2B300" stroke-width="2" cx="41.5" cy="41.5" r="41.5"></circle>
                            <path d="M52.2578972,34.0533708 L51.3017451,34.5553708 C51.0435663,34.6953708 50.9260504,35.0433708 51.0489079,35.3413708 C51.1379351,35.5533708 51.3302338,35.6793708 51.5243131,35.6793708 C51.599096,35.6793708 51.6738788,35.6593708 51.7486616,35.6253708 L52.7012526,35.1233708 C52.9594315,34.9853708 53.0716057,34.6353708 52.9523093,34.3453708 C52.8258907,34.0453708 52.5196371,33.9193708 52.2578972,34.0533708"
                                  id="Fill-10" fill="#F2B300"></path>
                            <path d="M55.25452,33.0585554 L54.3074142,33.5585554 C54.0368126,33.6885554 53.9264356,34.0405554 54.0510548,34.3445554 C54.1400685,34.5525554 54.3269972,34.6805554 54.5263879,34.6805554 C54.5958186,34.6805554 54.6741506,34.6585554 54.7489222,34.6245554 L55.6978082,34.1225554 C55.9595084,33.9845554 56.0716657,33.6345554 55.9523873,33.3405554 C55.8277682,33.0465554 55.5162202,32.9145554 55.25452,33.0585554"
                                  id="Fill-12" fill="#F2B300"></path>
                            <path d="M48.2569058,36.0534101 L47.3034801,36.5554101 C47.0397286,36.6934101 46.9292382,37.0414101 47.0468571,37.3394101 C47.1359623,37.5534101 47.3302116,37.6794101 47.5262431,37.6794101 C47.6010914,37.6794101 47.6741577,37.6594101 47.7490061,37.6234101 L48.6988676,37.1274101 C48.9608369,36.9854101 49.0731095,36.6394101 48.9501443,36.3434101 C48.8325254,36.0454101 48.517093,35.9194101 48.2569058,36.0534101"
                                  id="Fill-14" fill="#F2B300"></path>
                            <path d="M45.2507436,37.0571506 L44.3021082,37.5531506 C44.0369174,37.6911506 43.9265696,38.0411506 44.0511558,38.3371506 C44.140146,38.5511506 44.3234658,38.6791506 44.5263635,38.6791506 C44.5993354,38.6791506 44.6740872,38.6631506 44.748839,38.6251506 L45.6974744,38.1251506 C45.9573258,37.9791506 46.0712332,37.6331506 45.9537662,37.3391506 C45.8309597,37.0431506 45.510595,36.9171506 45.2507436,37.0571506"
                                  id="Fill-16" fill="#F2B300"></path>
                        </g>
                    </g>
                </g>
            </g>
        </g>
    </g>
</svg>
