<svg width="85px" height="85px" viewBox="0 0 85 85" version="1.1" xmlns="http://www.w3.org/2000/svg"
     xmlns:xlink="http://www.w3.org/1999/xlink">
    <!-- Generator: Sketch 50 (54983) - http://www.bohemiancoding.com/sketch -->
    <desc>Created with Sketch.</desc>
    <defs></defs>
    <g id="Page-1" stroke="none" stroke-width="1" fill="none" fill-rule="evenodd">
        <g id="Desktop-HD" transform="translate(-781.000000, -1406.000000)">
            <g id="Group-7" transform="translate(-4.000000, 875.000000)">
                <g id="winners" transform="translate(740.000000, 185.000000)">
                    <g id="2" transform="translate(46.000000, 347.000000)">
                        <g id="icon">
                            <path d="M61.1989409,51.1994719 C61.1989409,53.1190031 59.6470318,54.6821906 57.7433045,54.6821906 L26.75985,54.6821906 C24.8541682,54.6821906 23.3003045,53.1190031 23.3003045,51.1994719 L23.3003045,33.1598156 C23.3003045,31.2383156 24.8541682,29.6830031 26.75985,29.6830031 L57.7433045,29.6830031 C59.6470318,29.6830031 61.1989409,31.2383156 61.1989409,33.1598156 L61.1989409,51.1994719 Z M57.7433045,27.3618469 L26.75985,27.3618469 C23.5856682,27.3618469 20.9998045,29.9625656 20.9998045,33.1598156 L20.9998045,51.1994719 C20.9998045,54.3986906 23.5856682,56.9994094 26.75985,56.9994094 L57.7433045,56.9994094 C60.9155318,56.9994094 63.5013955,54.3986906 63.5013955,51.1994719 L63.5013955,33.1598156 C63.5013955,29.9625656 60.9155318,27.3618469 57.7433045,27.3618469 Z"
                                  id="Fill-5" fill="#F2B300"></path>
                            <circle id="Oval" stroke="#F2B300" stroke-width="2" cx="41.5" cy="41.5" r="41.5"></circle>
                            <path d="M32,36.0285714 C33.0844005,36.0285714 33.9662398,36.9172012 33.9662398,37.9982507 C33.9662398,39.0862974 33.0844005,39.9696793 32,39.9696793 C30.9173458,39.9696793 30.032014,39.0862974 30.032014,37.9982507 C30.032014,36.9172012 30.9173458,36.0285714 32,36.0285714 M32,41 C33.6519208,41 35,39.6548105 35,37.9982507 C35,36.3434402 33.6519208,35 32,35 C30.3480792,35 29,36.3434402 29,37.9982507 C29,39.6548105 30.3480792,41 32,41"
                                  id="Fill-1" fill="#F2B300"></path>
                            <path d="M35.8312252,48.6929265 L27.1687748,48.6929265 L27.1687748,46.0277393 L26.5863751,46.0277393 L27.1727503,45.8945908 C27.2085291,44.4721221 28.2779183,43.3137309 29.5480665,43.3137309 L33.4479581,43.3137309 C34.7240694,43.3137309 35.7914709,44.4699029 35.8272497,45.8945908 C35.8312252,45.9411928 35.8352006,45.9789182 35.8471269,46.0255201 L35.8312252,48.6929265 Z M33.4479581,42 L29.5480665,42 C27.6517889,42 26.0556559,43.7353675 26,45.8546463 L26,46.0277393 L26,49.3475728 C26,49.7092926 26.262378,50 26.5863751,50 L36.4156126,50 C36.7415974,50 37,49.7092926 37,49.3475728 L37,45.8790569 C37,45.8435506 37,45.8124827 36.9980123,45.7836338 C36.9085652,43.6932039 35.3342971,42 33.4479581,42 Z"
                                  id="Fill-3" fill="#F2B300"></path>
                            <path d="M57.4412082,32 L44.5587918,32 C44.2491909,32 44,32.131 44,32.293 C44,32.457 44.2491909,32.588 44.5587918,32.588 L57.4412082,32.588 C57.7489213,32.588 58,32.457 58,32.293 C58,32.131 57.7489213,32 57.4412082,32"
                                  id="Fill-8" fill="#F2B300"></path>
                            <path d="M57.4412082,35 L44.5587918,35 C44.2491909,35 44,35.131 44,35.293 C44,35.457 44.2491909,35.588 44.5587918,35.588 L57.4412082,35.588 C57.7489213,35.588 58,35.457 58,35.293 C58,35.131 57.7489213,35 57.4412082,35"
                                  id="Fill-10" fill="#F2B300"></path>
                            <path d="M52.4390346,37 L44.5590766,37 C44.2493179,37 44,37.131 44,37.293 C44,37.457 44.2493179,37.59 44.5590766,37.59 L52.4390346,37.59 C52.7506821,37.59 53,37.457 53,37.293 C53,37.131 52.7506821,37 52.4390346,37"
                                  id="Fill-12" fill="#F2B300"></path>
                        </g>
                    </g>
                </g>
            </g>
        </g>
    </g>
</svg>
