<svg width="85px" height="85px" viewBox="0 0 85 85" version="1.1" xmlns="http://www.w3.org/2000/svg"
     xmlns:xlink="http://www.w3.org/1999/xlink">
    <!-- Generator: Sketch 50 (54983) - http://www.bohemiancoding.com/sketch -->
    <desc>Created with Sketch.</desc>
    <defs></defs>
    <g id="Page-1" stroke="none" stroke-width="1" fill="none" fill-rule="evenodd">
        <g id="Desktop-HD" transform="translate(-781.000000, -1192.000000)" stroke="#F2B300">
            <g id="Group-7" transform="translate(-4.000000, 875.000000)">
                <g id="winners" transform="translate(740.000000, 185.000000)">
                    <g id="1" transform="translate(46.000000, 133.000000)">
                        <g id="icon">
                            <circle id="Oval" stroke-width="2" cx="41.5" cy="41.5" r="41.5"></circle>
                            <g id="Page-1" transform="translate(21.000000, 24.000000)" fill="#F2B300">
                                <path d="M0.977742777,22.9326457 L8.7449314,22.9326457 C8.96345691,22.9326457 9.15558336,23.0787229 9.21522567,23.2902151 C11.1379568,30.1066595 16.8020207,34.0163151 24.7544916,34.0163151 C28.2846319,34.0163151 31.1787505,33.4083979 32.6629641,32.7601495 L31.8881029,28.978373 C30.2474505,29.6113742 27.9121119,30.0073074 25.7273457,30.0073074 C20.628906,30.0073074 16.8117982,27.7408974 14.9785305,23.6256517 C14.9105773,23.4736724 14.9237769,23.2971009 15.0142181,23.1574177 C15.1041704,23.0172426 15.2586538,22.9326457 15.4243812,22.9326457 L26.7422427,22.9326457 L26.7422427,19.9806074 L14.3957958,19.9806074 C14.1464714,19.9806074 13.9372344,19.7917399 13.9098576,19.5423757 C13.8409267,18.9123256 13.805728,18.2660446 13.805728,17.6222228 C13.805728,17.2995742 13.8164832,16.984795 13.8316382,16.6739506 C13.8443488,16.4122904 14.0594523,16.2062085 14.3200207,16.2062085 L26.7422427,16.2062085 L26.7422427,13.2541701 L15.02204,13.2541701 C14.8646234,13.2541701 14.7169843,13.1784264 14.6250765,13.0500555 C14.5336575,12.9216846 14.5082362,12.7569174 14.5581011,12.6069055 C16.1615992,7.76766768 20.2500307,4.99220078 25.7762328,4.99220078 C27.9776207,4.99220078 30.0264807,5.36108262 31.8734368,6.08900943 L32.9308656,2.22657073 C31.5556704,1.61963716 28.9416751,0.983684884 25.5332637,0.983684884 C17.3011584,0.983684884 11.0128058,5.544048 9.12234011,12.8857801 C9.06660877,13.1026826 8.87203796,13.2541701 8.6491126,13.2541701 L0.977742777,13.2541701 L0.977742777,16.2062085 L8.05562274,16.2062085 C8.1895735,16.2062085 8.31814667,16.2617867 8.41005449,16.3596633 C8.50294006,16.4580318 8.55084945,16.5898456 8.54400526,16.7246104 C8.52005056,17.1648094 8.50831764,17.5543486 8.50831764,17.9158528 C8.50831764,18.4081871 8.52640589,18.9118337 8.56502673,19.4543359 C8.57382641,19.5905763 8.52689476,19.7243574 8.43449806,19.8242015 C8.3416125,19.9240455 8.21255045,19.9806074 8.07664421,19.9806074 L0.977742777,19.9806074 L0.977742777,22.9326457 Z M24.7544916,35 C16.4710548,35 10.5244232,30.9664001 8.3792556,23.9163306 L0.488871388,23.9163306 C0.218525511,23.9163306 0,23.6959852 0,23.4244881 L0,19.4887649 C0,19.2172679 0.218525511,18.9969225 0.488871388,18.9969225 L7.55795166,18.9969225 C7.53986342,18.6255814 7.53057487,18.2685038 7.53057487,17.9158528 C7.53057487,17.6861624 7.53497471,17.4456514 7.54426327,17.1898933 L0.488871388,17.1898933 C0.218525511,17.1898933 0,16.9695479 0,16.6980509 L0,12.7623277 C0,12.4908307 0.218525511,12.2704852 0.488871388,12.2704852 L8.27512599,12.2704852 C10.3948723,4.69119321 16.972148,0 25.5332637,0 C29.4383684,0 32.3931071,0.820885035 33.7365256,1.52372788 C33.9413628,1.63094954 34.0435369,1.86703391 33.982428,2.09082222 L32.6688305,6.88726971 C32.6311874,7.0249856 32.5363464,7.13958488 32.4082621,7.20106519 C32.2796889,7.26205365 32.1320497,7.26500471 32.0015211,7.20745914 C30.1457653,6.39050885 28.0514403,5.97588567 25.7762328,5.97588567 C20.9515611,5.97588567 17.3251131,8.25951012 15.721615,12.2704852 L27.2311141,12.2704852 C27.50146,12.2704852 27.7199855,12.4908307 27.7199855,12.7623277 L27.7199855,16.6980509 C27.7199855,16.9695479 27.50146,17.1898933 27.2311141,17.1898933 L14.7898261,17.1898933 C14.7859151,17.3325276 14.7834708,17.4766375 14.7834708,17.6222228 C14.7834708,18.0816037 14.8025368,18.5424601 14.839691,18.9969225 L27.2311141,18.9969225 C27.50146,18.9969225 27.7199855,19.2172679 27.7199855,19.4887649 L27.7199855,23.4244881 C27.7199855,23.6959852 27.50146,23.9163306 27.2311141,23.9163306 L16.2099975,23.9163306 C17.9865561,27.2170852 21.335814,29.0236225 25.7273457,29.0236225 C28.0450849,29.0236225 30.5226851,28.5617824 32.0386753,27.8466435 C32.1740927,27.7822122 32.3315093,27.7846714 32.46546,27.8520538 C32.5994108,27.9199281 32.6952296,28.0453479 32.7250507,28.1924088 L33.6983937,32.9401639 C33.7423921,33.1560827 33.6387514,33.3754444 33.4436917,33.4762721 C32.09294,34.179115 29.006695,35 24.7544916,35 Z"
                                      id="Fill-1"></path>
                            </g>
                        </g>
                    </g>
                </g>
            </g>
        </g>
    </g>
</svg>
