<svg width="85px" height="85px" viewBox="0 0 85 85" version="1.1" xmlns="http://www.w3.org/2000/svg"
     xmlns:xlink="http://www.w3.org/1999/xlink">
    <!-- Generator: Sketch 50 (54983) - http://www.bohemiancoding.com/sketch -->
    <desc>Created with Sketch.</desc>
    <defs></defs>
    <g id="Page-1" stroke="none" stroke-width="1" fill="none" fill-rule="evenodd">
        <g id="Desktop-HD" transform="translate(-174.000000, -1375.000000)">
            <g id="Group-7" transform="translate(-4.000000, 875.000000)">
                <g id="participants" transform="translate(140.000000, 185.000000)">
                    <g id="3" transform="translate(39.000000, 316.000000)">
                        <g id="icon">
                            <circle id="Oval" stroke="#F2B300" stroke-width="2" cx="41.5" cy="41.5" r="41.5"></circle>
                            <path d="M64.4020677,36.6725996 C64.0234023,36.9155177 63.6111842,37.2727501 63.2852444,37.7824016 C63.0072368,38.2301329 62.8730263,38.9017298 62.5662594,40.3735272 C62.2259398,42.154926 61.6890977,44.8413136 60.7975564,46.2988218 C59.9539474,47.6944096 57.7298872,48.4088744 54.1781015,48.4088744 C52.6682331,48.4088744 47.587406,48.0135372 45.8426692,42.9503635 L45.6317669,42.2787666 C45.0182331,40.2639759 44.6108083,38.9922286 43.9637218,38.3587365 C43.1392857,37.5442467 41.8211466,37.4299323 41.5718985,37.4061168 L41.4952068,37.4061168 L41.418515,37.4061168 C41.1644737,37.4299323 39.8607143,37.5442467 39.031485,38.3587365 C38.3891917,38.9922286 37.9817669,40.2639759 37.3634398,42.2787666 L37.1717105,42.9170218 C35.412594,48.0135372 30.3413534,48.4088744 28.8218985,48.4088744 C25.274906,48.4088744 23.0364662,47.6944096 22.1976504,46.2988218 C21.3204887,44.8460767 20.7836466,42.1692153 20.4289474,40.4068689 C20.1317669,38.911256 19.9879699,38.2301329 19.7003759,37.7681123 C19.3840226,37.2727501 18.9670113,36.9155177 18.5931391,36.6725996 L18.5931391,35.6151918 C20.0263158,35.238907 23.3192669,34.5768363 28.6445489,34.5768363 C32.2730263,34.5768363 34.5114662,35.1341188 36.4718985,35.6294811 C38.0728383,36.0248183 39.5875,36.3963399 41.4952068,36.3963399 C43.4125,36.3963399 44.9175752,36.0248183 46.5281015,35.6294811 C48.4933271,35.1341188 50.7221805,34.5768363 54.3458647,34.5768363 C59.6855263,34.5768363 62.9736842,35.238907 64.4020677,35.6151918 L64.4020677,36.6725996 Z M66.1659774,33.4432189 C66.0078008,33.3908248 62.3026316,32 54.3458647,32 C50.3962406,32 48.0044173,32.5953873 45.8858083,33.1145651 C44.3855263,33.4956129 43.0913534,33.8147405 41.4952068,33.8147405 C39.9086466,33.8147405 38.6048872,33.4956129 37.1046053,33.1193282 C34.9907895,32.5953873 32.5941729,32 28.6445489,32 C20.7069549,32 16.9826128,33.3908248 16.8292293,33.4432189 C16.3307331,33.6480321 16,34.1243419 16,34.657809 L16,37.4489847 C16,37.9919779 16.3642857,38.4921033 16.8723684,38.673101 C16.9921992,38.7159689 17.3325188,38.8826774 17.4667293,39.0874906 C17.562594,39.3113562 17.7399436,40.1925295 17.8837406,40.9117573 C18.2959586,42.9646528 18.8567669,45.7939333 19.9640038,47.6277262 C22.0011278,51 27.1394737,51 28.8218985,51 C30.2071429,51 37.2579887,50.6427676 39.6450188,43.7172224 L39.8559211,43.0170469 C40.143515,42.0739534 40.6228383,40.4973678 40.8625,40.1925295 C40.9487782,40.1163199 41.2507519,40.0305841 41.4952068,40.0020055 C41.7109023,40.025821 42.0272556,40.1067937 42.1087406,40.1591878 C42.3771617,40.5021309 42.8516917,42.0834796 43.1392857,43.02181 L43.3645677,43.7505641 C45.737218,50.6427676 52.7832707,51 54.1781015,51 C55.8701128,51 60.9988722,51 63.031203,47.6277262 C64.1480263,45.7844071 64.7088346,42.9456004 65.1210526,40.8831787 C65.2600564,40.1734771 65.4421992,39.3065931 65.499718,39.1494109 C65.662688,38.8826774 66.0030075,38.720732 66.0988722,38.6778641 C66.6357143,38.5016295 67,38.0110303 67,37.4489847 L67,34.657809 C67,34.1243419 66.6692669,33.6480321 66.1659774,33.4432189 Z"
                                  id="Fill-1" fill="#F2B300"></path>
                        </g>
                    </g>
                </g>
            </g>
        </g>
    </g>
</svg>
