<svg width="85px" height="85px" viewBox="0 0 85 85" version="1.1" xmlns="http://www.w3.org/2000/svg"
     xmlns:xlink="http://www.w3.org/1999/xlink">
    <!-- Generator: Sketch 50 (54983) - http://www.bohemiancoding.com/sketch -->
    <desc>Created with Sketch.</desc>
    <defs></defs>
    <g id="Page-1" stroke="none" stroke-width="1" fill="none" fill-rule="evenodd">
        <g id="Desktop-HD" transform="translate(-175.000000, -1161.000000)">
            <g id="Group-7" transform="translate(-4.000000, 875.000000)">
                <g id="participants" transform="translate(140.000000, 185.000000)">
                    <g id="1" transform="translate(40.000000, 102.000000)">
                        <g id="icon">
                            <path d="M41.9604,24.1571219 C45.5856,24.1571219 48.543,27.1546513 48.543,30.8380096 C48.543,34.5268545 45.5856,37.524384 41.9604,37.524384 C38.3262,37.524384 35.3706,34.5268545 35.3706,30.8380096 C35.3706,27.1546513 38.3262,24.1571219 41.9604,24.1571219 M41.9604,39.6806299 C46.7574,39.6806299 50.6616,35.7137957 50.6616,30.8380096 C50.6616,25.9677102 46.7574,22.0008759 41.9604,22.0008759 C37.1562,22.0008759 33.2502,25.9677102 33.2502,30.8380096 C33.2502,35.7137957 37.1562,39.6806299 41.9604,39.6806299"
                                  id="Fill-1" fill="#F2B300"></path>
                            <path d="M54.774975,56.3955248 L42.8831625,56.3955248 C42.9266625,56.3405322 42.9556625,56.2802177 42.9774125,56.2145813 L45.8375375,44.795628 C45.8810375,44.6288762 45.8375375,44.4550285 45.7215375,44.3273037 L44.1047875,42.5196428 L47.7551625,42.5196428 C51.5215375,42.5196428 54.6644125,45.5123061 54.767725,49.1826206 C54.767725,49.2234216 54.767725,49.2624486 54.774975,49.2997017 L54.774975,56.3955248 Z M30.13585,49.2855101 C30.1431,49.2553528 30.1431,49.2198737 30.1431,49.1861686 C30.2500375,45.5123061 33.3892875,42.5196428 37.13935,42.5196428 L40.804225,42.5196428 L39.1856625,44.3273037 C39.0696625,44.4550285 39.027975,44.6288762 39.0660375,44.795628 L41.93885,56.2145813 C41.95335,56.2802177 41.9841625,56.3405322 42.02585,56.3955248 L30.13585,56.3955248 L30.13585,49.2855101 Z M42.6856,42.5196428 L44.7391625,44.8115936 L42.46085,53.901343 L40.173475,44.8115936 L42.2270375,42.5196428 L42.6856,42.5196428 Z M56.891975,48.9732939 C56.681725,44.2492496 52.6126625,40.4281489 47.7551625,40.4281489 L37.13935,40.4281489 C32.2891,40.4281489 28.225475,44.2545715 28.0116,48.9874855 C28.0025375,49.0424781 28.000725,49.0974708 28.000725,49.1577853 L28.000725,57.4421587 C28.000725,58.0169204 28.479225,58.4870187 29.0682875,58.4870187 L55.8389125,58.4870187 C56.4334125,58.4870187 56.906475,58.0169204 56.906475,57.4421587 L56.906475,49.1577853 C56.906475,49.0921489 56.906475,49.0336084 56.891975,48.9732939 Z"
                                  id="Fill-4" fill="#F2B300"></path>
                            <circle id="Oval" stroke="#F2B300" stroke-width="2" cx="41.5" cy="41.5" r="41.5"></circle>
                        </g>
                    </g>
                </g>
            </g>
        </g>
    </g>
</svg>
