<svg width="85px" height="85px" viewBox="0 0 85 85" version="1.1" xmlns="http://www.w3.org/2000/svg"
     xmlns:xlink="http://www.w3.org/1999/xlink">
    <!-- Generator: Sketch 50 (54983) - http://www.bohemiancoding.com/sketch -->
    <desc>Created with Sketch.</desc>
    <defs></defs>
    <g id="Page-1" stroke="none" stroke-width="1" fill="none" fill-rule="evenodd">
        <g id="Desktop-HD" transform="translate(-781.000000, -1299.000000)" stroke="#F2B300">
            <g id="Group-7" transform="translate(-4.000000, 875.000000)">
                <g id="winners" transform="translate(740.000000, 185.000000)">
                    <g id="1-copy" transform="translate(46.000000, 240.000000)">
                        <g id="icon">
                            <g id="Page-1" transform="translate(29.000000, 24.000000)" fill="#F2B300">
                                <path d="M8.74149927,15.1297291 L16.3611696,15.1297291 C18.955971,15.1297291 21.0671674,12.875842 21.0671674,10.1060921 C21.0671674,7.33585997 18.955971,5.08245504 16.3611696,5.08245504 L8.74149927,5.08245504 L8.74149927,15.1297291 Z M16.3611696,16.0939588 L8.25982089,16.0939588 C7.99345274,16.0939588 7.77814251,15.8779714 7.77814251,15.611844 L7.77814251,4.60034016 C7.77814251,4.33373063 7.99345274,4.11822528 8.25982089,4.11822528 L16.3611696,4.11822528 C19.487744,4.11822528 22.0305241,6.80408726 22.0305241,10.1060921 C22.0305241,13.4076147 19.487744,16.0939588 16.3611696,16.0939588 Z M3.77202341,35.0357702 L7.1298034,35.0357702 L7.1298034,28.0610143 C7.1298034,27.7948869 7.34559532,27.5788994 7.61148179,27.5788994 L19.8783851,27.5788994 L19.8783851,24.4249039 L7.61148179,24.4249039 C7.34559532,24.4249039 7.1298034,24.2089164 7.1298034,23.942789 L7.1298034,19.7300692 C7.1298034,19.4639418 7.34559532,19.2479544 7.61148179,19.2479544 L17.4512078,19.2479544 C22.1851429,19.2479544 26.0366432,15.1470852 26.0366432,10.1060921 C26.0366432,5.0650989 22.1851429,0.964229755 17.4512078,0.964229755 L3.77202341,0.964229755 L3.77202341,15.611844 C3.77202341,15.8779714 3.55623149,16.0939588 3.29034502,16.0939588 L0.963356763,16.0939588 L0.963356763,19.2479544 L3.29034502,19.2479544 C3.55623149,19.2479544 3.77202341,19.4639418 3.77202341,19.7300692 L3.77202341,23.942789 C3.77202341,24.2089164 3.55623149,24.4249039 3.29034502,24.4249039 L0.963356763,24.4249039 L0.963356763,27.5788994 L3.29034502,27.5788994 C3.55623149,27.5788994 3.77202341,27.7948869 3.77202341,28.0610143 L3.77202341,35.0357702 Z M7.61148179,36 L3.29034502,36 C3.02397688,36 2.80866664,35.7840125 2.80866664,35.5178851 L2.80866664,28.5431292 L0.481678382,28.5431292 C0.215310237,28.5431292 0,28.3271417 0,28.0610143 L0,23.942789 C0,23.6766616 0.215310237,23.4606742 0.481678382,23.4606742 L2.80866664,23.4606742 L2.80866664,20.2121841 L0.481678382,20.2121841 C0.215310237,20.2121841 0,19.9961966 0,19.7300692 L0,15.611844 C0,15.3457165 0.215310237,15.1297291 0.481678382,15.1297291 L2.80866664,15.1297291 L2.80866664,0.482114877 C2.80866664,0.21550535 3.02397688,0 3.29034502,0 L17.4512078,0 C22.7164342,0 27,4.53332619 27,10.1060921 C27,15.6783758 22.7164342,20.2121841 17.4512078,20.2121841 L8.09316017,20.2121841 L8.09316017,23.4606742 L20.3600635,23.4606742 C20.6264317,23.4606742 20.8417419,23.6766616 20.8417419,23.942789 L20.8417419,28.0610143 C20.8417419,28.3271417 20.6264317,28.5431292 20.3600635,28.5431292 L8.09316017,28.5431292 L8.09316017,35.5178851 C8.09316017,35.7840125 7.87784993,36 7.61148179,36 Z"
                                      id="Fill-1"></path>
                            </g>
                            <circle id="Oval" stroke-width="2" cx="41.5" cy="41.5" r="41.5"></circle>
                        </g>
                    </g>
                </g>
            </g>
        </g>
    </g>
</svg>
