<svg width="85px" height="85px" viewBox="0 0 85 85" version="1.1" xmlns="http://www.w3.org/2000/svg"
     xmlns:xlink="http://www.w3.org/1999/xlink">
    <!-- Generator: Sketch 50 (54983) - http://www.bohemiancoding.com/sketch -->
    <desc>Created with Sketch.</desc>
    <defs>
        <path d="M54.0118308,31.1420279 C54.0118308,33.5301884 55.9310769,37.0736558 58.5819077,37.0736558 C61.2330044,37.0736558 63.1522505,33.5301884 63.1522505,31.1420279 C63.1522505,28.5634023 61.1021648,26.4658372 58.5819077,26.4658372 C56.0619165,26.4658372 54.0118308,28.5634023 54.0118308,31.1420279 M55.3415011,31.1420279 C55.3415011,29.3135628 56.7953626,27.8263023 58.5819077,27.8263023 C60.3689846,27.8263023 61.8225802,29.3135628 61.8225802,31.1420279 C61.8225802,33.1378302 60.2511758,35.7131907 58.5819077,35.7131907 C56.9131714,35.7131907 55.3415011,33.1378302 55.3415011,31.1420279"
              id="path-1"></path>
    </defs>
    <g id="Page-1" stroke="none" stroke-width="1" fill="none" fill-rule="evenodd">
        <g id="Desktop-HD" transform="translate(-175.000000, -1268.000000)">
            <g id="Group-7" transform="translate(-4.000000, 875.000000)">
                <g id="participants" transform="translate(140.000000, 185.000000)">
                    <g id="2" transform="translate(40.000000, 209.000000)">
                        <g id="Page-1">
                            <mask id="mask-2" fill="white">
                                <use xlink:href="#path-1"></use>
                            </mask>
                            <g id="Clip-2"></g>
                            <path d="M54.0118308,31.1420279 C54.0118308,33.5301884 55.9310769,37.0736558 58.5819077,37.0736558 C61.2330044,37.0736558 63.1522505,33.5301884 63.1522505,31.1420279 C63.1522505,28.5634023 61.1021648,26.4658372 58.5819077,26.4658372 C56.0619165,26.4658372 54.0118308,28.5634023 54.0118308,31.1420279 M55.3415011,31.1420279 C55.3415011,29.3135628 56.7953626,27.8263023 58.5819077,27.8263023 C60.3689846,27.8263023 61.8225802,29.3135628 61.8225802,31.1420279 C61.8225802,33.1378302 60.2511758,35.7131907 58.5819077,35.7131907 C56.9131714,35.7131907 55.3415011,33.1378302 55.3415011,31.1420279 Z M46.4068703,35.0016937 C46.5365591,34.8184699 46.739977,34.7211997 46.9463123,34.7211997 C47.0802445,34.7211997 47.2155029,34.7621556 47.3324615,34.8473007 L53.5418794,39.3758909 C54.2521183,38.9860016 55.8441883,38.3142711 58.3796188,38.3142711 C61.8737922,38.3142711 63.5775166,39.5906399 63.6480631,39.6450682 C63.8281424,39.7830249 63.926271,40.0047795 63.9095626,40.2332702 L63.3218519,48.1213216 C63.2955959,48.4729495 63.00731,48.7442823 62.6604122,48.7442823 L61.6544615,48.7442823 L60.7233008,57.4670794 C60.6869667,57.8090072 60.4029242,58.0682149 60.064248,58.0682149 L56.6952549,58.0682149 C56.3568439,58.0682149 56.0728014,57.8090072 56.0362021,57.4670794 L55.0562423,48.2848757 C55.0164604,47.9149254 55.2795511,47.5826977 55.6436877,47.5425501 C56.0080896,47.502672 56.3350964,47.7696937 56.3743479,48.1396439 L57.2903915,56.7207121 L59.4693766,56.7207121 L60.385155,48.1396439 C60.3854202,48.1364106 60.3867463,48.1331772 60.3872767,48.1302133 C60.3854202,48.1100048 60.381442,48.0908741 60.381442,48.0706656 C60.381442,47.6985597 60.6779495,47.3970489 61.044473,47.3970489 L62.045915,47.3970489 L62.5564489,40.5444812 C61.9949943,40.2435092 60.6196028,39.6615044 58.3796188,39.6615044 C55.3737015,39.6615044 53.9248462,40.7093825 53.9107899,40.7198909 C53.6795247,40.8982646 53.3610046,40.9017674 53.1244351,40.729591 L46.5591022,35.9417931 C46.2615339,35.7246191 46.1936395,35.3040128 46.4068703,35.0016937 Z M20.6552076,23 L48.8291355,23 C49.1910722,23 49.4843431,23.2940438 49.4843431,23.6569343 L49.4843431,32.3284672 C49.4843431,32.6913577 49.1910722,32.9854015 48.8291355,32.9854015 C48.4671988,32.9854015 48.1739278,32.6913577 48.1739278,32.3284672 L48.1739278,27.5748905 C48.1576787,27.5764672 48.1416916,27.580146 48.1246562,27.580146 L21.3104152,27.580146 L21.3104152,46.9242336 L48.1739278,46.9242336 L48.1739278,41.3500146 C48.1739278,40.9871241 48.4671988,40.6930803 48.8291355,40.6930803 C49.1910722,40.6930803 49.4843431,40.9871241 49.4843431,41.3500146 L49.4843431,47.5811679 C49.4843431,47.9440584 49.1910722,48.2381022 48.8291355,48.2381022 L35.7019197,48.2381022 L40.3709292,56.3454599 C40.5517665,56.6597372 40.4443125,57.0615182 40.1308611,57.2430949 C40.0278625,57.3027445 39.9151668,57.3311241 39.8037815,57.3311241 C39.5776038,57.3311241 39.357192,57.2134015 39.2361096,57.0026569 L35.3973792,50.3366131 L35.3973792,58.3430657 C35.3973792,58.7059562 35.1041082,59 34.7421715,59 C34.3802349,59 34.0869639,58.7059562 34.0869639,58.3430657 L34.0869639,50.3366131 L30.2484956,57.0026569 C30.0676583,57.3169343 29.6664091,57.4244088 29.353482,57.2430949 C29.0402927,57.0615182 28.9328387,56.6597372 29.113676,56.3454599 L33.7824234,48.2381022 L20.6552076,48.2381022 C20.2932709,48.2381022 20,47.9440584 20,47.5811679 L20,23.6569343 C20,23.2940438 20.2932709,23 20.6552076,23 Z M44.8825836,29.9448145 C45.0123077,29.7820896 45.2024297,29.6976744 45.3941273,29.6976744 C45.5388196,29.6976744 45.6842997,29.7457221 45.8058833,29.8447374 C46.0881777,30.0748883 46.1322944,30.492717 45.9048833,30.7778174 L39.7337958,38.5124265 C39.6017082,38.6775406 39.3989814,38.769654 39.1894271,38.7587703 C38.9798727,38.748152 38.7876499,38.6363948 38.6728939,38.4585389 L35.5983793,33.6965128 L32.4469231,39.5702711 C32.2888382,39.8654589 31.9380053,39.9947362 31.6284005,39.8712989 L27.8522202,38.3613817 L24.5959867,40.2530255 C24.4930477,40.3130187 24.3803926,40.3411571 24.269313,40.3411571 C24.0419019,40.3411571 23.8210557,40.2217016 23.6994721,40.00854 C23.5190663,39.6907884 23.6275199,39.2851707 23.9415889,39.1022711 L27.4722387,37.0510879 C27.6460796,36.9510108 27.8551088,36.9353488 28.0410292,37.0094112 L31.5701034,38.4205786 L34.969191,32.0851912 C35.0794828,31.8797277 35.2885119,31.7477958 35.5195995,31.7382394 C35.7562016,31.7347884 35.9699576,31.8433602 36.0960053,32.0390017 L39.2789735,36.9685309 L44.8825836,29.9448145 Z"
                                  id="Combined-Shape" fill="#F2B300"></path>
                            <circle id="Oval" stroke="#F2B300" stroke-width="2" cx="41.5" cy="41.5" r="41.5"></circle>
                        </g>
                    </g>
                </g>
            </g>
        </g>
    </g>
</svg>
