<svg width="119px" height="35px" viewBox="0 0 119 35" version="1.1" xmlns="http://www.w3.org/2000/svg"
     xmlns:xlink="http://www.w3.org/1999/xlink">
    <!-- Generator: Sketch 50 (54983) - http://www.bohemiancoding.com/sketch -->
    <desc>Created with Sketch.</desc>
    <defs>
        <polygon id="path-1" points="0 0.157902944 118.962726 0.157902944 118.962726 34.2553191 0 34.2553191"></polygon>
    </defs>
    <g id="Page-1" stroke="none" stroke-width="1" fill="none" fill-rule="evenodd">
        <g id="Desktop-HD" transform="translate(-135.000000, -7361.000000)">
            <g id="footer-copy" transform="translate(0.000000, 7280.000000)">
                <g id="Page-1" transform="translate(135.000000, 81.000000)">
                    <g id="Group-3">
                        <mask id="mask-2" fill="white">
                            <use xlink:href="#path-1"></use>
                        </mask>
                        <g id="Clip-2"></g>
                        <path d="M12.4359976,0.31970067 C1.90687764,5.71139405 -5.80302418,20.3607048 5.77545945,28.0113722 C14.6807704,33.8943713 28.6807958,34.16771 39.3566104,34.2486558 C52.5268813,34.3497794 65.7347995,33.3078076 78.7244067,31.4720979 C88.1660831,30.1361405 97.7432031,28.3285858 106.366592,24.6726517 C113.127523,21.8092824 119.874823,17.0034488 118.861159,9.89664325 C118.018639,3.97962343 109.500187,2.37642757 103.878843,1.49282804 C94.0066031,-0.0587502186 83.6336976,0.239928009 73.6742631,0.878109298 C64.6966867,1.45223783 55.3798522,2.3665733 46.7733395,4.74520635 C45.3881795,5.12858438 45.777634,6.44976042 47.1852958,6.06262839 C60.3276558,2.42781055 75.1500795,1.67865141 88.8658031,1.85297814 C97.7674358,1.9667715 119.045718,1.93673943 116.426203,13.8582944 C115.161125,19.6117802 107.399079,22.9136645 101.774923,24.949979 C97.0136249,26.6747109 91.9539613,27.8335261 86.899274,28.7255721 C75.8069595,30.6868065 64.6042995,31.9321985 53.2956213,32.5314319 C40.3006049,33.2181807 26.040294,33.5168589 13.6272958,29.6333381 C9.25112491,28.265237 4.92147218,25.935406 3.15313218,22.072063 C-0.460573273,14.177385 6.25730127,5.12858438 13.9511922,1.18734567 C15.2889685,0.502473914 13.3635485,-0.15611979 12.4359976,0.31970067"
                              id="Fill-1" fill="#E52442" mask="url(#mask-2)"></path>
                    </g>
                    <path d="M78.9807443,25.6692508 C78.6073368,25.7673026 78.3338341,25.8443433 78.0558196,25.9089087 C77.1285316,26.1174876 76.354216,26.0176849 75.8892829,25.0794081 C74.9699443,23.2225523 74.013222,21.382987 73.0509136,19.4961467 C73.1615608,19.474479 73.0938833,19.474479 73.0386672,19.4989919 C71.4795084,20.2621763 70.9058618,21.4455826 71.2915156,23.0673766 C71.3699355,23.3967694 71.313645,23.7570221 71.3013987,24.1002034 C71.2665931,25.0240351 69.7965967,25.9504931 68.8611444,25.6565566 C67.7974273,25.318847 68.0941337,24.3361405 68.0745824,23.7443279 C67.9587789,20.0789858 68.0131356,16.4079531 68.0103426,12.7388903 C68.0103426,12.5718958 68.0266711,12.4031504 68.04966,12 C68.9361267,12.1779377 69.7637248,12.2860573 70.5505016,12.5156473 C71.1185622,12.680672 71.3948579,13.0302004 71.3413606,13.7316646 C71.2238382,15.2098828 71.3048362,16.7010142 71.3048362,18.4136374 C71.8679553,17.7701726 75.3725712,14.4812793 75.7930306,12.5880919 L78.8610734,12.5880919 C78.0897657,13.6881103 77.6390126,14.8161436 76.776609,15.4532614 C75.0911191,16.7010142 75.8787553,17.96168 76.4105064,19.2567077 C77.2327333,21.2569204 78.1237118,23.2326202 78.9762324,25.224516 C79.0269368,25.3424845 78.9807443,25.4976602 78.9807443,25.6692508"
                          id="Fill-4" fill="#FFFFFF"></path>
                    <path d="M37.5542152,20.6387322 C37.8472352,19.7289634 38.1227961,19.0325886 38.2965466,18.3057953 C38.635844,16.8886644 38.8922629,15.4471523 39.2351363,14.031879 C39.3544057,13.5398423 39.5750647,13.0545394 39.8403183,12.6356464 C40.1526907,12.1447706 40.5519384,12.1958551 40.9341475,12.6001194 C41.2681862,12.955389 41.657968,13.2442487 42,13.5428609 C41.8811512,14.1628412 41.7784996,14.9551155 41.5759308,15.7139528 C41.0954874,17.5037684 40.6924534,19.336077 40.0243761,21.0392812 C39.5245803,22.3073382 38.9419059,23.5254716 38.6741281,24.8924468 C38.6383683,25.0698494 38.3905739,25.3046059 38.2258684,25.3248076 C37.4435702,25.406775 36.65412,25.4634323 35.8735045,25.429763 C35.7138475,25.4221003 35.5150651,25.0022785 35.4302933,24.7384966 C35.0133761,23.4453618 34.6313773,22.1396881 34.2319193,20.8409804 C34.1770174,20.6668286 34.0897215,20.503126 33.9527824,20.1882596 C33.7163471,20.7253436 33.5114644,21.1451655 33.3440244,21.5851889 C33.0097754,22.4575731 32.7020308,23.3431928 32.369675,24.2165058 C31.9912521,25.2073132 31.0701217,25.4683086 30.3322077,25.9457166 C29.9798684,26.1730427 29.4573546,25.6494264 29.3528098,25.0619545 C28.9192748,22.6222045 28.525917,20.1738631 28.0574636,17.7424724 C27.7608676,16.1943794 27.3456332,14.6729897 27.0115945,13.1334882 C26.9688931,12.9419213 27.0484061,12.6166058 27.1800863,12.500969 C28.286747,11.5150379 29.8298876,12.0474779 30.2163038,13.5456473 C30.7588011,15.6359328 31.2813149,17.7338809 31.8053012,19.831829 C31.8648307,20.0716941 31.8778725,20.3268844 31.9144737,20.5753409 C31.9704273,20.5915951 32.0261705,20.6090103 32.0810723,20.6261932 C32.3829271,19.7366261 32.6986652,18.8537928 32.9792744,17.9563308 C33.3823084,16.6641247 33.9641414,16.1674439 35.1957511,16.1463135 C35.8114507,16.1386508 36.2250023,16.3474008 36.418526,17.1111142 C36.7010284,18.2393854 37.1234148,19.3253957 37.5542152,20.6387322"
                          id="Fill-6" fill="#FFFFFF"></path>
                    <path d="M85.2804917,12.7880296 C85.0820978,12.2477408 85.3308775,12.0541484 85.7035222,12.0293686 C86.6316699,11.9614453 87.4479193,12.3955348 88.1323259,13.0274204 C88.418685,13.2898211 88.4413586,13.9155118 88.6109907,14.3622125 C89.2544589,16.0467984 89.976025,17.6968696 90.5434946,19.4135365 C91.0971082,21.0859538 91.5054428,22.8207631 91.9624837,24.5325626 C92.0825698,24.9876707 91.9129377,25.2655588 91.4741617,25.2168841 C90.8884272,25.1536071 90.3608463,25.2978611 89.8401934,25.6306188 C89.4998795,25.8481061 88.900079,25.3381283 88.786921,24.8170881 C88.6599069,24.2197173 88.4839766,23.63363 88.4107073,23.0289579 C88.3177035,22.2831293 87.9696219,22.0638721 87.3557554,22.1107768 C86.7567946,22.1585664 85.9951298,22.1446278 85.3936498,22.117193 C85.0289828,22.0997143 84.9191838,22.2831293 84.8635495,22.6685442 C84.7512313,23.4143728 84.794689,24.1628564 84.5797097,24.873949 C84.4995124,25.1471909 84.1627675,25.3655631 83.899082,25.5069409 C83.5612875,25.6885859 83.184234,25.8023076 82.8151583,25.8903645 C82.529429,25.9565178 82.1257131,26.081302 81.9602799,25.9235518 C81.6869371,25.6620361 81.4404667,25.206928 81.4093955,24.8115569 C81.3640483,24.2124161 81.5093273,23.5951328 81.5798673,22.9840445 C81.7112902,21.8831121 81.7131797,21.8839971 80.7860816,21.8408536 C79.5272773,21.7839927 78.6803766,20.2803881 79.1153737,18.9263474 C79.9477885,18.9263474 80.7686566,18.9327636 81.5912041,18.9234712 C82.0272509,18.9172762 82.2770803,18.7161613 82.3616864,18.1548539 C82.6270515,16.4136284 82.9205485,14.6779341 83.2522548,12.951311 C83.4506488,11.9311342 84.0208476,11.7340018 84.7902802,12.3477451 C84.9584427,12.4833704 85.1177877,12.6411206 85.2804917,12.7880296 M87.2705194,18.9234712 C86.8292241,17.5145608 86.3875089,16.0979068 85.9143026,14.5823548 C85.9143026,15.2007443 85.7870786,15.6934646 85.7494992,16.1742376 C85.7104502,16.6842153 85.5859554,17.1860069 85.5460667,17.6962059 C85.5068078,18.1630401 85.4058263,18.613502 85.3995281,19.0843188 C85.8697952,19.0732564 87.8310611,19.0741414 87.3637331,19.0843188 C87.2973918,19.0843188 87.3637331,19.0843188 87.2705194,18.9234712"
                          id="Fill-8" fill="#FFFFFF"></path>
                    <path d="M59.2296473,18.6152645 C59.698316,18.3935498 59.9484482,18.2642162 60.2095511,18.1555073 C61.2930184,17.6968242 61.875563,16.6795577 61.7316273,15.4955754 C61.5835228,14.2948357 60.8765702,13.6354923 59.5864148,13.4939128 C59.2790155,13.4619017 58.9722745,13.4341873 58.6611452,13.4021762 C58.7238976,14.1102883 58.8184651,14.7900415 58.8410648,15.4715134 C58.933877,18.1903113 59.0315163,20.9101834 59.0639896,23.6296259 C59.0804457,24.7147818 58.7739241,24.8787046 57.6994528,24.6782591 C57.4192609,24.6256233 57.1026462,24.6159555 56.8369356,24.6978095 C56.0117188,24.9480979 55.4342207,24.5188479 55.4522126,23.6493912 C55.5178175,20.5696623 55.6014143,17.4864961 55.621381,14.4052633 C55.6270858,13.7272289 55.7688273,12.9273802 55,12.4534436 C55.0046077,12.3840503 55.0100931,12.3144422 55.012726,12.2448341 C55.464061,12.1576091 55.9197843,11.9687649 56.3601486,12.0044283 C57.7841466,12.114856 59.212533,12.2413967 60.6181003,12.4854547 C62.2992518,12.7784962 63.7996061,13.4777998 64.7702944,15.0386111 C65.6492677,16.4621398 65.358105,18.5458712 63.8860553,19.5231776 C63.7943401,19.5826882 63.7096462,19.6531557 63.5841413,19.7431735 C64.7003013,21.5727495 65.812073,23.3812711 66.9073886,25.1986011 C66.9874748,25.3322315 67.0247752,25.6555654 66.9822089,25.6759752 C66.6881939,25.8212069 66.3380088,26.0493668 66.0586946,25.9905007 C64.3882943,25.6295698 62.8833324,24.990851 62.2193851,23.1488144 C62.0956355,22.8039965 61.8880696,22.4931232 61.7226313,22.1616254 C61.0966427,20.9091092 60.6218304,19.5541145 59.2296473,18.6152645"
                          id="Fill-10" fill="#FFFFFF"></path>
                    <path d="M20.6703037,17.2284354 C21.8979217,17.2284354 22.9859282,17.1289717 24.0438461,17.2528451 C25.321291,17.4015845 25.9442469,18.9273038 25.212731,19.9335759 C25.1217429,20.0558525 24.833373,20.1021624 24.6405647,20.0982842 C23.4608479,20.0652057 22.2832974,20.0074893 21.0135553,19.953423 C21.0754176,20.9619764 21.1165789,21.9023196 21.2121406,22.8358189 C21.224176,22.9530766 21.5255442,23.1205225 21.7012621,23.1310164 C23.0795642,23.2037892 24.4609955,23.2386927 25.8383348,23.2993747 C26.3274563,23.3210469 26.8254841,23.3429472 27.3054587,23.4205107 C28.0203656,23.5386809 28.1821224,23.9926554 27.7965059,24.5819097 C27.5880515,24.90357 27.4953784,25.2970906 27.2577982,25.5950257 C27.0970043,25.7955501 26.7785458,26.0036027 26.5320593,25.9999527 C25.5997918,25.9905994 24.6675242,25.8733417 23.7304424,25.8409475 C22.0705103,25.7823187 20.4137074,25.7474151 18.7496833,25.7246023 C18.0342949,25.7152491 17.7767358,25.3406631 17.7228169,24.4902023 C17.5791134,22.200939 17.3526058,19.917607 17.1949411,17.6276592 C17.0830113,16.0526643 16.9701186,14.4728787 17.0071878,12.8978838 C17.0163348,12.5819267 17.6977831,12.0221008 18.0802704,12.0143445 C20.0863426,11.9662095 22.0984326,12.0494762 24.1066713,12.1126676 C25.685725,12.1619432 26.4940272,13.231863 26.00298,14.655381 C25.9461726,14.8182643 25.4950832,14.9439628 25.2315064,14.9400846 C23.8792009,14.9202375 22.5237662,14.8606961 21.1714607,14.7952234 C20.6522505,14.7708137 20.3747125,14.8682243 20.4847167,15.452688 C20.5944802,16.0316766 20.6122927,16.6248091 20.6703037,17.2284354"
                          id="Fill-12" fill="#FFFFFF"></path>
                    <path d="M6.00455696,11.8986774 C6.00857168,11.7430853 6.1738835,11.498359 6.32195566,11.4527815 C8.56523709,10.7302775 12.577355,10.7080501 14.3827963,12.6182626 C15.8654072,14.189675 16.6449705,16.076762 16.9210412,18.1304425 C17.1257917,19.6657074 16.9543397,21.1868274 16.1464372,22.5945651 C15.4169398,23.8736531 14.392715,24.6742899 12.782814,24.7254804 C11.8740713,24.7542189 10.9662732,24.8846648 10.0584752,24.9843515 C9.28198191,25.0689953 8.72488107,24.8121449 8.29388954,24.1677738 C8.14227498,23.9443768 7.7367887,23.7748645 7.43828278,23.7600462 C6.57535507,23.7117745 6.20127803,23.4443717 6.17104958,22.6756167 C6.07115401,20.2725838 5.97810707,13.0875085 6.00455696,11.8986774 M10.8899936,13.4514547 C10.8869235,13.4766009 9.61685643,13.2224447 9.54553619,14.1274831 C9.5032636,14.6737392 9.41824609,15.2240367 9.41824609,15.7705173 C9.41730145,17.4360035 9.4416259,19.1044084 9.47704986,20.7707927 C9.49759576,21.7463302 9.65322503,21.875878 10.6550147,21.835689 C11.1377252,21.8170539 11.6185464,21.7528413 12.098423,21.726797 C13.7874375,21.6280084 14.7422314,20.8136759 15.2582404,19.3390314 C15.5921703,18.3884155 15.3248375,17.3037615 15.1231571,16.3607793 C14.8763701,15.2119126 13.9206316,13.4114902 10.8899936,13.4514547"
                          id="Fill-14" fill="#FFFFFF"></path>
                    <path d="M95.9114346,13.3802325 C95.9114346,13.6980814 95.8617304,13.9531232 95.921925,14.180126 C96.2790963,15.5928376 96.672734,16.9992685 97.0393965,18.4122044 C97.3718406,19.6842728 97.7135261,20.9558927 98.0002622,22.2367093 C98.2280526,23.2465581 98.9004338,23.8290941 100.022151,24.2279193 C100.148285,23.7824374 100.324373,23.3907902 100.357593,22.9881517 C100.428028,22.1445174 101.488552,21.8840922 102.322285,22.020922 C102.971687,22.1279184 103.081336,22.4839002 102.952704,23.3860796 C102.710677,25.0753668 101.894428,25.4194601 100.340858,25.8016863 C98.7058628,26.2016331 97.1987499,25.9533206 95.6586673,25.4425642 C94.5649239,25.0789558 93.970471,24.338729 93.7241976,23.3919117 C93.0787916,20.8787297 92.894711,18.3153019 93.0540643,15.7435747 C93.1110119,14.831077 93.3045838,13.9262058 94.0586398,13.2025781 C95.4848272,11.8315884 97.1882595,11.8091573 99.0040884,12.2678736 C99.52386,12.3997685 100.022151,12.6007513 100.541923,12.7402728 C101.517525,13.0006981 101.911912,13.6805851 102.0333,14.5150226 C102.151192,15.2812694 100.638334,16.7025048 99.8355731,16.555581 C99.1397135,16.4290696 98.8797028,15.8644784 98.7460758,15.2830639 C98.6236885,14.7530167 98.7408307,14.0367912 98.4033912,13.7290363 C98.0647029,13.4201599 97.2929132,13.5112302 96.7059534,13.4367589 C96.4759151,13.4062526 96.2416307,13.4024393 95.9114346,13.3802325"
                          id="Fill-16" fill="#FFFFFF"></path>
                    <path d="M106.565534,16.3991377 C107.18101,15.3700296 107.695648,14.4740524 108.247694,13.5988698 C108.664749,12.943613 109.110847,12.2847397 109.957736,12.0485399 C110.280227,11.9585805 110.651278,12.0223206 110.996075,12.0166699 C110.979811,12.3166098 111.04324,12.6457074 110.934736,12.9126471 C110.164753,14.7498073 109.320652,16.5593919 108.589703,18.4085316 C108.405687,18.878219 108.521162,20.1968696 108.540446,20.7255504 C108.580874,21.9137826 108.658941,23.1022407 108.683104,24.2895688 C108.687054,24.4667752 108.517212,24.7086257 108.349925,24.8173455 C107.741652,25.2063406 107.120601,25.5765754 106.472132,25.9036387 C105.913116,26.1857224 105.371758,25.8258849 105.319016,25.1190936 C105.258142,24.3160141 105.185884,23.5061538 105.256051,22.7066908 C105.417297,20.8772156 104.636626,18.5902586 103.696336,17.0684083 C102.776491,15.5885993 101.896842,14.0918381 101,12.5959811 C102.071099,11.6841819 104.101309,12.0261631 104.752333,13.2379022 C105.029982,13.7591241 105.360373,14.2586472 105.658004,14.7721841 C105.939371,15.2651524 106.21005,15.7628673 106.565534,16.3991377"
                          id="Fill-18" fill="#FFFFFF"></path>
                    <path d="M52.9940583,20.3442217 L52.9940583,24.415374 C52.9940583,24.8147178 52.7587151,25.0742225 52.3695035,25.2149786 C52.0945581,25.3156169 51.8037214,25.3775129 51.5171729,25.4515589 C51.3559893,25.4935106 51.1468795,25.4829654 51.0361446,25.5723707 C50.3793026,26.0895462 49.6261037,26.0294842 48.8479326,25.941225 C48.1721724,25.8612187 47.4860702,25.8518197 46.8145982,25.7605804 C45.8232814,25.6283064 44.9590953,25.1856353 44.1150888,24.7319606 C43.6726537,24.4944633 43.3285937,24.135008 43.2625059,23.6247098 C43.2165976,23.2794677 43.1091419,22.9353718 43.0995566,22.5912759 C43.0523871,20.2995191 43.017073,18.0068453 43.0001727,15.7169225 C42.9971458,15.2130432 43.0337211,14.703662 43.124781,14.2082647 C43.3515478,12.9907474 44.3912953,12.13131 45.7488696,12.0279207 C46.2581491,11.9880322 46.7790319,11.9946803 47.2895726,12.0240236 C48.1388763,12.0762913 48.9838919,12.2246125 49.8321866,12.2264464 C51.3403502,12.2282804 52.7052395,13.3586848 52.860117,14.9936562 C52.9940583,16.4298727 52.9940583,17.8624213 52.9980942,19.2968038 C53.0023823,19.6466309 52.9980942,19.9955409 52.9980942,20.3442217 L52.9940583,20.3442217 M48.8133753,13.2511691 C47.1044259,13.4717023 46.6965482,13.8815914 46.6839361,15.3405031 C46.676621,16.106638 46.7205114,18.0267896 46.7308534,18.2207304 C46.7686899,18.9545419 46.8209043,19.6865194 46.8365434,20.4203309 C46.8554616,21.3120918 46.8365434,22.2045405 46.8451196,23.0960721 C46.8481466,23.5570827 46.8209043,24.0304725 47.2373582,24.4431125 C47.9065601,24.5095934 48.5989684,24.7596991 49.3521673,24.4593889 C49.5027566,22.6997085 49.333249,14.7330053 49.1637414,13.8206124 C49.1241392,13.6133754 48.9243624,13.4279166 48.8133753,13.2511691"
                          id="Fill-20" fill="#FFFFFF"></path>
                </g>
            </g>
        </g>
    </g>
</svg>
