<svg width="149px" height="43px" viewBox="0 0 149 43" version="1.1" xmlns="http://www.w3.org/2000/svg"
     xmlns:xlink="http://www.w3.org/1999/xlink">
    <!-- Generator: Sketch 50 (54983) - http://www.bohemiancoding.com/sketch -->
    <desc>Created with Sketch.</desc>
    <defs></defs>
    <g id="Page-1" stroke="none" stroke-width="1" fill="none" fill-rule="evenodd">
        <g id="Artboard" transform="translate(-59.000000, -22.000000)">
            <g id="Page-1" transform="translate(59.000000, 22.000000)">
                <path d="M15.5711231,0.392775109 C2.38760309,7.01685555 -7.26597145,25.0145801 7.23145764,34.4139716 C18.3818049,41.6416562 35.9112485,41.9774723 49.2784449,42.07692 C65.7689522,42.2011575 82.3065976,40.9210208 98.5708958,38.6657203 C110.392827,37.0244012 122.384347,34.8036912 133.181699,30.312115 C141.647067,26.7942613 150.095367,20.8899514 148.826158,12.1587331 C147.771238,4.88925165 137.105276,2.91961102 130.066787,1.83404588 C117.705747,-0.07217884 104.717823,0.294768697 92.2476067,1.07881999 C81.0067758,1.78417791 69.3411595,2.90750434 58.5649376,5.82982495 C56.8305776,6.30083224 57.318214,7.92399137 59.0807485,7.44837202 C75.5363085,2.98273868 94.0954776,2.06234317 111.268947,2.276516 C122.414689,2.41631927 149.057243,2.37942273 145.777347,17.0259045 C144.193341,24.0944729 134.474478,28.1510736 127.432467,30.6528314 C121.470841,32.7717876 115.135632,34.1954749 108.806654,35.2914172 C94.9179576,37.7009337 80.8910976,39.2309867 66.7314922,39.9671878 C50.4604213,40.8109077 32.605074,41.1778553 17.0627485,36.4066725 C11.5833413,34.7258625 6.16217945,31.8634988 3.94803945,27.1171059 C-0.576684182,17.4179302 7.83477218,6.30083224 17.4682995,1.45873897 C19.1433304,0.617325095 16.7325104,-0.191804314 15.5711231,0.392775109"
                      id="Fill-1" fill="#E52442"></path>
                <path d="M98.1608483,32.5038841 C97.6930588,32.6320369 97.3504259,32.7327284 97.0021408,32.8171147 C95.8404725,33.0897254 94.8704419,32.9592842 94.2879929,31.7329649 C93.1362833,29.3060714 91.937741,26.9017763 90.7322007,24.4356932 C90.870815,24.4073738 90.7860315,24.4073738 90.7168589,24.439412 C88.7636091,25.4368869 88.0449682,26.9835881 88.5280994,29.1032582 C88.6263406,29.5337715 88.5558223,30.0046186 88.5404805,30.4531534 C88.4968776,31.6605929 86.6553266,32.8714652 85.4834305,32.4872929 C84.1508496,32.0459095 84.5225511,30.761521 84.4980581,29.9880274 C84.3529841,25.1974586 84.4210801,20.3994524 84.4175811,15.6040207 C84.4175811,15.3857605 84.4380368,15.1652118 84.4668362,14.6382979 C85.5773652,14.8708609 86.614146,15.0121722 87.5997876,15.3122443 C88.3114305,15.52793 88.6575624,15.9847604 88.5905431,16.9015677 C88.4433159,18.8335855 88.544787,20.7824805 88.544787,23.0208635 C89.2502393,22.1798608 93.6406777,17.8813073 94.1674119,15.4069286 L98.0109296,15.4069286 C97.0446671,16.8446427 96.4799822,18.3189719 95.3995985,19.151679 C93.2880861,20.7824805 94.2748043,22.4301593 94.9409602,24.1227487 C95.9710122,26.7370084 97.0871934,29.31923 98.1551961,31.9226196 C98.2187164,32.0768035 98.1608483,32.2796167 98.1608483,32.5038841"
                      id="Fill-4" fill="#fff"></path>
                <path d="M46.9216638,25.3645048 C47.2918062,24.2348983 47.6398942,23.3702506 47.8593757,22.4678339 C48.2879756,20.7082657 48.6118835,18.9184246 49.0450006,17.1611629 C49.1956616,16.5502297 49.4743978,15.9476576 49.8094657,15.4275427 C50.204054,14.8180511 50.708383,14.8814797 51.1911891,15.3834309 C51.6131462,15.8245483 52.105518,16.1832085 52.5375723,16.5539778 C52.3874427,17.3237709 52.2577733,18.3074915 52.0018887,19.2496952 C51.3949933,21.4720042 50.8858814,23.7470744 50.0419672,25.8618431 C49.4106259,27.436315 48.6745925,28.9487999 48.336336,30.6460928 C48.2911642,30.8663631 47.9781507,31.1578466 47.7700951,31.1829297 C46.7818971,31.2847039 45.7846648,31.355052 44.7985926,31.3132468 C44.5969141,31.3037325 44.3458125,30.7824643 44.2387289,30.4549419 C43.7120797,28.8493322 43.2295394,27.2281537 42.7249446,25.6156246 C42.6555927,25.3993906 42.5453206,25.1961306 42.3723394,24.8051795 C42.0736746,25.4720452 41.8148672,25.9933133 41.6033572,26.5396646 C41.1811344,27.6228529 40.7923919,28.7224749 40.3725605,29.8068165 C39.8945374,31.0370439 38.7309668,31.3611066 37.798835,31.9538761 C37.3537606,32.2361336 36.693722,31.5859899 36.5616611,30.8565605 C36.0140203,27.8272661 35.5171313,24.7873042 34.9253817,21.768389 C34.5507221,19.8462127 34.0261986,17.9571924 33.6042416,16.0456837 C33.5503012,15.8078262 33.6507419,15.4039011 33.8170801,15.2603217 C35.2150122,14.0361489 37.1643051,14.6972483 37.6524254,16.5574375 C38.3377071,19.1528223 38.9977457,21.7577214 39.6596444,24.3626206 C39.734842,24.6604469 39.7513164,24.9773018 39.797551,25.2857956 C39.8682315,25.3059775 39.9386462,25.3276009 40.0079981,25.348936 C40.3893006,24.2444126 40.7881404,23.1482503 41.1426056,22.0339244 C41.6517175,20.429468 42.3866881,19.8127685 43.9424555,19.7865321 C44.7202064,19.7770178 45.2426041,20.0362104 45.4870629,20.9844686 C45.8439195,22.3853767 46.3774773,23.733812 46.9216638,25.3645048"
                      id="Fill-6" fill="#fff"></path>
                <path d="M106.090739,15.6682454 C105.841004,14.9620928 106.154164,14.7090693 106.623242,14.6766823 C107.791577,14.5879072 108.819057,15.1552582 109.680576,15.981127 C110.041039,16.3240823 110.06958,17.1418544 110.28311,17.7256881 C111.093096,19.9274265 112.00139,22.0840545 112.715711,24.3277225 C113.412589,26.5135566 113.926593,28.7809366 114.501908,31.0182429 C114.65307,31.6130651 114.439541,31.9762623 113.887217,31.9126449 C113.149905,31.8299424 112.485796,32.0184811 111.830408,32.4533924 C111.402027,32.7376462 110.647009,32.07111 110.504568,31.3901152 C110.344685,30.6093569 110.123227,29.8433462 110.030997,29.0530453 C109.913926,28.0782541 109.475767,27.7916869 108.703043,27.8529909 C107.949082,27.9154516 106.990312,27.8972339 106.23318,27.8613768 C105.774144,27.8385324 105.635931,28.0782541 105.5659,28.5819878 C105.424516,29.556779 105.479219,30.5350403 105.208607,31.4644318 C105.107657,31.8215565 104.683768,32.106967 104.351846,32.2917465 C103.926636,32.5291548 103.452008,32.6777881 102.987422,32.7928776 C102.627752,32.8793394 102.119562,33.0424311 101.911317,32.8362531 C101.567238,32.4944545 101.256986,31.8996323 101.217874,31.382886 C101.160792,30.5998143 101.343666,29.7930307 101.432461,28.9943439 C101.597894,27.5554352 101.600272,27.5565919 100.433258,27.5002038 C98.8486981,27.4258872 97.782635,25.4606896 98.3302014,23.6909708 C99.3780299,23.6909708 100.411324,23.6993567 101.446731,23.6872116 C101.995619,23.6791148 102.3101,23.4162595 102.4166,22.6826359 C102.750637,20.40687 103.120086,18.1383333 103.537632,15.8816526 C103.787366,14.5482909 104.505122,14.2906407 105.47367,15.0927976 C105.68535,15.2700586 105.88593,15.4762367 106.090739,15.6682454 M108.595749,23.6872116 C108.040255,21.8457786 107.484232,19.9942247 106.888569,18.013412 C106.888569,18.8216414 106.728421,19.4656225 106.681117,20.0939883 C106.631963,20.7605246 106.475251,21.4163615 106.42504,22.083187 C106.375622,22.6933351 106.248508,23.2820847 106.24058,23.897438 C106.832543,23.8829795 109.301349,23.8841361 108.713085,23.897438 C108.629576,23.897438 108.713085,23.897438 108.595749,23.6872116"
                      id="Fill-8" fill="#fff"></path>
                <path d="M73.2012026,23.2843882 C73.7730417,22.9946091 74.0782367,22.8255713 74.3968174,22.6834897 C75.7187936,22.0839952 76.4295767,20.7544371 76.2539557,19.2069831 C76.0732481,17.6376272 75.2106707,16.7758713 73.6365071,16.5908283 C73.2614385,16.54899 72.8871731,16.5127677 72.5075533,16.4709294 C72.5841198,17.3964254 72.6995049,18.2848566 72.7270795,19.1755342 C72.8403229,22.7289783 72.9594561,26.2838264 72.9990779,29.8381129 C73.0191565,31.2564018 72.6451588,31.4706474 71.3341589,31.2086669 C70.992287,31.1398724 70.6059744,31.1272367 70.2817716,31.2342191 C69.2748959,31.5613437 68.5702702,31.000318 68.5922228,29.8639459 C68.6722696,25.8387684 68.774269,21.8090982 68.798631,17.7819551 C68.8055916,16.8957702 68.9785355,15.8503753 68.0404624,15.2309445 C68.0460844,15.1402481 68.0527773,15.049271 68.0559899,14.9582938 C68.6066795,14.8442916 69.1627233,14.5974739 69.7000271,14.6440857 C71.4374968,14.7884136 73.1803209,14.9538011 74.8953026,15.2727827 C76.9465342,15.6557853 78.7771687,16.5697688 79.9615394,18.6097349 C81.0340053,20.4702739 80.6787476,23.1936919 78.8826483,24.4710223 C78.7707435,24.5488022 78.6674056,24.6409025 78.5142726,24.7585551 C79.8761384,27.1497941 81.2326498,29.5135154 82.5690826,31.8887492 C82.6667985,32.0634029 82.71231,32.4859974 82.6603734,32.5126728 C82.3016354,32.7024893 81.8743624,33.0006922 81.5335613,32.9237547 C79.4954478,32.4520213 77.6591912,31.6172217 76.8490859,29.2096966 C76.6980947,28.7590227 76.4448364,28.3527143 76.2429794,27.9194496 C75.4791888,26.2824224 74.8998537,24.5114566 73.2012026,23.2843882"
                      id="Fill-10" fill="#fff"></path>
                <path d="M25.8424218,21.1301394 C27.2842117,21.1301394 28.5620334,21.0066411 29.8045171,21.1604475 C31.3048267,21.3451285 32.0364645,23.2395246 31.1773273,24.4889537 C31.0704652,24.6407773 30.7317859,24.6982777 30.5053401,24.6934624 C29.1198082,24.6523907 27.7368207,24.5807277 26.2455576,24.5135967 C26.3182125,25.7658583 26.3665549,26.9334272 26.4787883,28.0924985 C26.4929235,28.2380906 26.8468688,28.4459983 27.0532426,28.4590279 C28.6720052,28.5493856 30.294443,28.5927233 31.9120747,28.6680686 C32.4865291,28.6949777 33.0714435,28.72217 33.6351551,28.818476 C34.4747857,28.9652011 34.6647627,29.5288746 34.2118711,30.2605171 C33.9670495,30.6599038 33.8582085,31.1485153 33.5791797,31.5184437 C33.3903335,31.7674231 33.0163162,32.0257499 32.7268274,32.0212178 C31.6319152,32.0096044 30.5370029,31.8640124 29.4364366,31.8237905 C27.4869104,31.7509944 25.5410594,31.7076567 23.5867273,31.6793314 C22.7465313,31.6677181 22.4440381,31.2026166 22.3807124,30.1466494 C22.2119382,27.3042054 21.9459138,24.469126 21.7607428,21.6258322 C21.6292854,19.6702534 21.4966973,17.7087263 21.5402337,15.7531475 C21.5509765,15.3608421 22.3513112,14.6657392 22.8005277,14.6561086 C25.1565821,14.5963422 27.5197041,14.6997295 29.8783028,14.7781906 C31.7328405,14.8393733 32.6821602,16.1678299 32.1054442,17.9353287 C32.0387261,18.1375714 31.508939,18.2936438 31.1993782,18.2888285 C29.6111476,18.2641855 28.0192419,18.1902564 26.4310113,18.1089628 C25.821219,18.0786547 25.4952614,18.1996038 25.6244571,18.925298 C25.7533701,19.6441941 25.7742902,20.380652 25.8424218,21.1301394"
                      id="Fill-12" fill="#fff"></path>
                <path d="M7.75679706,14.8979674 C7.76151219,14.69461 7.95566454,14.3747549 8.12956957,14.3151855 C10.764217,13.3708794 15.4762945,13.3418284 17.5967155,15.8384587 C19.3379848,17.8922805 20.2535518,20.3586859 20.5777862,23.0428276 C20.8182577,25.0494048 20.616894,27.0374948 19.6680437,28.8773952 C18.8112772,30.5491515 17.6083647,31.5955765 15.7175981,31.662482 C14.6503149,31.7000429 13.5841412,31.8705345 12.5179674,32.0008241 C11.6060061,32.1114529 10.9517127,31.7757517 10.4455298,30.9335645 C10.2674643,30.6415867 9.79123633,30.4200357 9.44065266,30.4006683 C8.42717739,30.3375777 7.98783836,29.9880846 7.95233621,28.9833288 C7.83501272,25.8425867 7.72573268,16.4517588 7.75679706,14.8979674 M13.4945537,16.9274332 C13.490948,16.960299 11.9993033,16.6281193 11.9155404,17.8109962 C11.8658929,18.5249479 11.7660431,19.2441817 11.7660431,19.9584269 C11.7649337,22.1352022 11.7935018,24.3157922 11.8351059,26.4937412 C11.8592362,27.7687599 12.0420168,27.9380776 13.21858,27.885551 C13.7855049,27.861195 14.3502109,27.7772698 14.9138074,27.7432301 C16.8974897,27.6141143 18.0188582,26.5497892 18.6248909,24.6224422 C19.0170787,23.379996 18.7031066,21.962363 18.4662407,20.7298939 C18.176399,19.2283357 17.053921,16.8752 13.4945537,16.9274332"
                      id="Fill-14" fill="#fff"></path>
                <path d="M119.531473,16.4422492 C119.531473,16.8576748 119.475822,17.191012 119.543219,17.4877027 C119.943127,19.3341039 120.383865,21.1722962 120.794399,23.0189905 C121.166621,24.6815724 121.549191,26.343568 121.870236,28.0175836 C122.125282,29.3374467 122.878116,30.098816 124.13405,30.6200769 C124.275277,30.0378361 124.472434,29.5259567 124.509628,28.9997119 C124.588491,27.8970897 125.77591,27.5567163 126.709402,27.7355516 C127.436507,27.8753949 127.559276,28.3406598 127.415253,29.5198001 C127.144267,31.7276831 126.230351,32.1774099 124.490891,32.676976 C122.660264,33.1997028 120.97282,32.8751607 119.248462,32.2076067 C118.023848,31.7323738 117.358267,30.7649042 117.082526,29.5274226 C116.359896,26.2427166 116.153789,22.8923399 116.33221,19.5311159 C116.395971,18.3384897 116.612705,17.1558313 117.456986,16.2100565 C119.053821,14.4181854 120.961074,14.3888682 122.994173,14.9884062 C123.576137,15.1607917 124.13405,15.4234743 124.716014,15.6058277 C125.80835,15.9462011 126.249927,16.8348073 126.38584,17.9254094 C126.517838,18.9268871 124.823962,20.7844288 123.925147,20.5924007 C123.146026,20.4270514 122.854904,19.6891359 122.705288,18.9292325 C122.568257,18.2364656 122.699416,17.3003654 122.3216,16.8981326 C121.942387,16.4944339 121.07825,16.613462 120.421059,16.5161287 C120.163496,16.4762572 119.901178,16.4712733 119.531473,16.4422492"
                      id="Fill-16" fill="#fff"></path>
                <path d="M133.317748,20.1004491 C134.059876,18.822666 134.680418,17.7101836 135.346064,16.6235207 C135.848941,15.8099268 136.386836,14.9918425 137.407998,14.698567 C137.796852,14.5868698 138.244258,14.666012 138.660007,14.6589959 C138.640396,15.0314137 138.716878,15.4400348 138.586046,15.7714782 C137.657616,18.0525722 136.639816,20.2994274 135.758451,22.5953956 C135.536569,23.1785789 135.675805,24.81587 135.699058,25.4723019 C135.747805,26.9476601 135.841937,28.4232989 135.871073,29.8975345 C135.875835,30.1175613 135.671043,30.4178529 135.469332,30.5528438 C134.735888,31.0358363 133.987036,31.4955351 133.205126,31.9016305 C132.531075,32.2518772 131.878316,31.8050881 131.814721,30.9275068 C131.741321,29.9303701 131.654193,28.924814 131.7388,27.9321677 C131.933226,25.6606157 130.991909,22.8210353 129.858125,20.9314431 C128.748995,19.094051 127.688331,17.2356105 126.606936,15.3782926 C127.898447,14.246165 130.346434,14.670783 131.131425,16.1753284 C131.46621,16.822499 131.864589,17.4427276 132.223466,18.0803562 C132.562733,18.692446 132.889112,19.3104294 133.317748,20.1004491"
                      id="Fill-18" fill="#fff"></path>
                <path d="M65.4499947,24.9988285 L65.4499947,30.0537394 C65.4499947,30.5495812 65.186492,30.871793 64.75071,31.0465616 C64.4428665,31.1715183 64.1172303,31.2483709 63.7963953,31.3403094 C63.6159256,31.3923985 63.3817951,31.379305 63.2578104,31.4903144 C62.5223753,32.1324609 61.6790537,32.0578853 60.807772,31.9482992 C60.0511549,31.84896 59.2829584,31.8372898 58.5311426,31.7240033 C57.4212116,31.5597664 56.4536229,31.0101278 55.5086283,30.4468264 C55.0132545,30.15194 54.6280266,29.7056254 54.5540312,29.0720182 C54.5026298,28.6433512 54.3823166,28.2161075 54.3715845,27.7888638 C54.318771,24.9433238 54.2792315,22.0966453 54.260309,19.2533825 C54.2569199,18.6277451 54.2978715,17.9952764 54.399827,17.3801706 C54.6537272,15.8684508 55.8178839,14.8013378 57.3378962,14.6729654 C57.9081126,14.6234382 58.4913206,14.6316927 59.0629492,14.6681265 C60.0138748,14.7330243 60.9599992,14.917186 61.909795,14.9194631 C63.5984152,14.9217402 65.1266179,16.3252971 65.3000269,18.3553452 C65.4499947,20.1386109 65.4499947,21.9173225 65.4545135,23.6983111 C65.4593147,24.1326708 65.4545135,24.565892 65.4545135,24.9988285 L65.4499947,24.9988285 M60.7690797,16.1918012 C58.8556491,16.4656243 58.3989676,16.9745595 58.3848463,18.7860046 C58.376656,19.7372694 58.425798,22.1214089 58.4373774,22.3622139 C58.4797412,23.2733445 58.5382032,24.1821981 58.5557136,25.0933288 C58.5768955,26.200576 58.5557136,27.3086771 58.565316,28.4156397 C58.5687051,28.9880495 58.5382032,29.5758299 59.0044872,30.0881808 C59.7537612,30.1707262 60.5290183,30.4812678 61.3723399,30.1083902 C61.5409478,27.9234982 61.351158,18.0317102 61.1613683,16.8988454 C61.1170276,16.6415314 60.8933468,16.4112582 60.7690797,16.1918012"
                      id="Fill-20" fill="#fff"></path>
            </g>
        </g>
    </g>
</svg>
