<svg width="173px" height="120px" viewBox="0 0 173 120" version="1.1" xmlns="http://www.w3.org/2000/svg"
     xmlns:xlink="http://www.w3.org/1999/xlink">
    <!-- Generator: Sketch 50 (54983) - http://www.bohemiancoding.com/sketch -->
    <desc>Created with Sketch.</desc>
    <defs>
        <polygon id="path-1" points="0.00012 0.0655794872 32.83552 0.0655794872 32.83552 24 0.00012 24"></polygon>
        <polygon id="path-3"
                 points="0.16521828 0.153832836 6.88494624 0.153832836 6.88494624 3.5942806 0.16521828 3.5942806"></polygon>
        <polygon id="path-5"
                 points="0.16521828 0.0991492537 6.88494624 0.0991492537 6.88494624 3.53959701 0.16521828 3.53959701"></polygon>
        <polygon id="path-7"
                 points="0.165156989 0.0444447761 6.88494624 0.0444447761 6.88494624 3.48489254 0.165156989 3.48489254"></polygon>
    </defs>
    <g id="Page-1" stroke="none" stroke-width="1" fill="none" fill-rule="evenodd">
        <g id="Desktop-HD" transform="translate(-135.000000, 0.000000)">
            <g id="1_block" transform="translate(-242.000000, -166.000000)">
                <g id="Logo" transform="translate(377.000000, 165.000000)">
                    <g id="raff">
                        <polygon id="Fill-1" fill="#FFED00" points="0 121 99 121 99 0 0 0"></polygon>
                        <g id="Group-10" transform="translate(8.000000, 28.000000)">
                            <path d="M15.8190455,65.0945794 L65.5903727,65.0945794 L65.5903727,15.7771963 L15.8190455,15.7771963 L15.8190455,65.0945794 Z M17.4775364,63.4504673 L63.9296182,63.4504673 L63.9296182,17.4228037 L17.4775364,17.4228037 L17.4775364,63.4504673 Z"
                                  id="Fill-2" fill="#000000"></path>
                            <path d="M42.4343536,70.4475514 L41.8812718,73.8120374 L45.1990082,73.8120374 L45.7513355,70.4475514 L48.1696536,70.4475514 L46.69829,79.4733458 L44.2890264,79.4733458 L44.91379,75.592972 L41.5975627,75.592972 L40.9705355,79.4733458 L38.5424082,79.4733458 L40.0258445,70.4475514 L42.4343536,70.4475514 Z M52.0631082,70.4475514 L49.5542445,70.4475514 L48.0383627,79.4725981 L50.5260991,79.4725981 L51.1848173,75.5593271 L51.2097173,75.5593271 L53.7676264,79.4733458 L56.9925536,79.4725981 L53.6355809,74.7204486 L58.1651173,70.4475514 L55.0782718,70.4475514 L51.4436264,74.1701682 L51.4157082,74.1701682 L52.0631082,70.4475514 Z M34.7885445,76.1103551 L34.2550809,73.2370841 L34.2294264,73.2370841 L32.7180718,76.1103551 L34.7885445,76.1103551 Z M35.1590264,77.9047477 L31.7303718,77.9047477 L30.8068082,79.4733458 L28.1658991,79.4733458 L33.3647173,70.4475514 L36.0818355,70.4475514 L38.1726809,79.4733458 L35.5189445,79.4733458 L35.1590264,77.9047477 Z M28.6246627,76.7548411 C28.5250627,77.3611963 28.3258627,77.9742804 27.8829445,78.4183925 C26.9080718,79.3918505 25.4359536,79.4696075 24.5018264,79.4733458 L20.8513355,79.4733458 L22.4019264,70.4475514 L28.6156082,70.4475514 L28.3251082,72.2247477 L24.5674718,72.2247477 L24.2777264,74.0258692 L25.3657809,74.0258692 C26.1686173,74.0258692 27.2000809,74.132785 27.9327445,74.7548411 C28.4737536,75.2124112 28.7612355,75.9025047 28.6246627,76.7548411 Z M24.7017809,75.7268037 L24.03099,75.7268037 L23.7004991,77.6415701 L24.33809,77.6415701 C25.7641809,77.6415701 26.0418536,77.2415701 26.1240991,76.7286729 C26.2153991,76.1641869 26.1037264,75.7268037 24.7017809,75.7268037 Z M69.8839627,5.94362617 L72.4977082,5.94362617 C72.3875445,5.33278505 71.8291809,4.93428037 71.2217718,4.93428037 C70.5653173,4.93428037 70.0197809,5.28194393 69.8839627,5.94362617 Z M74.5930809,7.01353271 L74.5930809,7.25128972 L69.8462355,7.25128972 C69.8462355,8.17315888 70.3314082,8.67185047 71.25799,8.67185047 C71.7439173,8.67185047 72.0902536,8.51035514 72.33699,8.08568224 L74.5070627,8.08568224 C74.1456355,9.59371963 72.7218082,10.2793271 71.2723264,10.2793271 C69.16639,10.2793271 67.5916536,9.08306542 67.5916536,6.87596262 C67.5916536,4.74586916 69.04189,3.46437383 71.1108536,3.46437383 C73.3156355,3.46437383 74.5930809,4.83334579 74.5930809,7.01353271 Z M11.8911082,5.29914019 C10.9735809,5.29914019 10.4401173,5.96007477 10.4401173,6.74362617 C10.4401173,7.55334579 10.9735809,8.17614953 11.8911082,8.17614953 C12.8071264,8.17614953 13.3398355,7.55334579 13.3398355,6.74362617 C13.3398355,5.96007477 12.8071264,5.29914019 11.8911082,5.29914019 Z M15.5212264,3.54213084 L15.5212264,9.93315888 L13.26589,9.93315888 L13.26589,9.2228785 L13.24099,9.2228785 C12.8440991,9.85914019 12.0638991,10.1454953 11.3199173,10.1454953 C9.43732636,10.1454953 8.11083545,8.56343925 8.11083545,6.73241121 C8.11083545,4.90063551 9.41242636,3.33054206 11.2950173,3.33054206 C12.0261718,3.33054206 12.7950536,3.60418692 13.26589,4.16493458 L13.26589,3.54213084 L15.5212264,3.54213084 Z M48.5393809,5.29914019 C47.6226082,5.29914019 47.0891445,5.96007477 47.0891445,6.74362617 C47.0891445,7.55334579 47.6226082,8.17614953 48.5393809,8.17614953 C49.4569082,8.17614953 49.9903718,7.55334579 49.9903718,6.74362617 C49.9903718,5.96007477 49.4569082,5.29914019 48.5393809,5.29914019 Z M52.1702536,3.54213084 L52.1702536,9.93315888 L49.9141627,9.93315888 L49.9141627,9.2228785 L49.8900173,9.2228785 C49.4931264,9.85914019 48.7121718,10.1454953 47.9689445,10.1454953 C46.0863536,10.1454953 44.7598627,8.56343925 44.7598627,6.73241121 C44.7598627,4.90063551 46.0606991,3.33054206 47.9455536,3.33054206 C48.6751991,3.33054206 49.4433264,3.60418692 49.9141627,4.16493458 L49.9141627,3.54213084 L52.1702536,3.54213084 Z M0.689880909,9.93315888 L0.689880909,0.539514019 L4.50259909,0.539514019 C7.07635364,0.539514019 7.79996273,2.36231776 7.79996273,3.6311028 C7.79996273,4.91185047 7.06352636,6.73614953 4.50259909,6.73614953 L3.11876273,6.73614953 L3.11876273,9.93315888 L0.689880909,9.93315888 Z M3.11876273,2.57315888 L3.11876273,4.70026168 L3.94649909,4.70026168 C5.07152636,4.70026168 5.18848091,4.02661682 5.18848091,3.6311028 C5.18848091,3.16829907 5.03304455,2.57315888 3.94649909,2.57315888 L3.22213545,2.57315888 L3.11876273,2.57315888 Z M16.9307173,3.55185047 L16.9307173,9.93315888 L19.1264445,9.93315888 L21.3636718,6.41988785 L21.3636718,9.93315888 L23.6265536,9.93315888 L23.6265536,3.55185047 L21.4542173,3.55185047 L19.1928445,6.97390654 L19.1928445,3.55185047 L16.9307173,3.55185047 Z M20.4589718,2.71970093 C21.4806264,2.71970093 22.5415173,2.32343925 23.0055627,1.2393271 L21.53269,0.686056075 C21.3508445,1.42624299 20.7170264,1.46437383 20.4589718,1.46437383 C20.2001627,1.46437383 19.5663445,1.42624299 19.3852536,0.686056075 L17.9123809,1.2393271 C18.3779355,2.32343925 19.4380718,2.71970093 20.4589718,2.71970093 Z M28.2677627,12.7099813 L28.2677627,10.0288598 C26.9216536,10.0415701 24.6995173,9.49801869 24.6995173,6.73614953 C24.6995173,3.98848598 26.9103355,3.44642991 28.2677627,3.45914019 L28.2677627,0.686056075 L30.52989,0.686056075 L30.52989,3.45914019 C31.8873173,3.44642991 34.0966264,3.98848598 34.0966264,6.73614953 C34.0966264,9.49801869 31.8752445,10.0415701 30.52989,10.0288598 L30.52989,12.7099813 L28.2677627,12.7099813 Z M30.38879,5.01876636 L30.38879,8.5604486 C31.1501264,8.57241121 31.9257991,8.00493458 31.9257991,6.78923364 C31.9257991,5.57353271 31.1501264,5.00530841 30.38879,5.01876636 Z M28.4103718,8.5604486 L28.4103718,5.01876636 C27.6475264,5.00530841 26.8710991,5.57353271 26.8710991,6.78923364 C26.8710991,8.00493458 27.6475264,8.57241121 28.4103718,8.5604486 Z M38.4405445,12.7099813 L38.4405445,10.0288598 C37.0959445,10.0415701 34.8715445,9.49801869 34.8715445,6.73614953 C34.8715445,3.98848598 37.0846264,3.44642991 38.4405445,3.45914019 L38.4405445,0.686056075 L40.7026718,0.686056075 L40.7026718,3.45914019 C42.0616082,3.44642991 44.2709173,3.98848598 44.2709173,6.73614953 C44.2709173,9.49801869 42.0480264,10.0415701 40.7026718,10.0288598 L40.7026718,12.7099813 L38.4405445,12.7099813 Z M40.5615718,5.01876636 L40.5615718,8.5604486 C41.3244173,8.57241121 42.0993355,8.00493458 42.0993355,6.78923364 C42.0993355,5.57353271 41.3244173,5.00530841 40.5615718,5.01876636 Z M38.5839082,8.5604486 L38.5839082,5.01876636 C37.8210627,5.00530841 37.0431264,5.57353271 37.0431264,6.78923364 C37.0431264,8.00493458 37.8210627,8.57241121 38.5839082,8.5604486 Z M53.5797445,3.55185047 L53.5797445,9.93315888 L55.7762264,9.93315888 L58.0126991,6.41988785 L58.0126991,9.93315888 L60.2748264,9.93315888 L60.2748264,3.55185047 L58.1032445,3.55185047 L55.8403627,6.97390654 L55.8403627,3.55185047 L53.5797445,3.55185047 Z M57.10649,2.71970093 C58.1296536,2.71970093 59.1882809,2.32343925 59.6530809,1.2393271 L58.1802082,0.686056075 C57.9998718,1.42624299 57.3660536,1.46437383 57.10649,1.46437383 C56.8484355,1.46437383 56.2161264,1.42624299 56.0350355,0.686056075 L54.5621627,1.2393271 C55.0254536,2.32343925 56.0878536,2.71970093 57.10649,2.71970093 Z M62.00349,5.37540187 C62.4788536,5.05839252 63.1270082,4.83259813 63.6831082,4.83259813 C63.9675718,4.83259813 64.5878082,4.87371963 64.5878082,5.41652336 C64.5878082,5.94362617 64.0437809,5.95708411 63.8234536,5.95708411 L62.7127627,5.95708411 L62.7127627,7.34325234 L63.6959355,7.34325234 C64.0188809,7.34325234 64.62629,7.37016822 64.62629,7.88530841 C64.62629,8.09614953 64.4980173,8.50736449 63.7072536,8.50736449 C62.9187536,8.50736449 62.4147173,8.29502804 61.7552445,7.89801869 L61.1749991,9.40530841 C62.4147173,10.1073645 63.5404991,10.1731589 64.0573627,10.1731589 C66.64319,10.1731589 66.96689,8.69203738 66.96689,8.20456075 C66.96689,7.52942056 66.5654718,6.84231776 65.6607718,6.62998131 L65.6607718,6.60381308 C66.2289445,6.35259813 66.5918809,5.79857944 66.5918809,5.11147664 C66.5918809,3.61839252 65.0020536,3.31409346 64.0309536,3.31409346 C63.1270082,3.31409346 62.0789445,3.57801869 61.3953264,3.94811215 L62.00349,5.37540187 Z M75.7060355,9.93315888 L77.9681627,9.93315888 L77.9681627,7.3828785 L80.0491991,7.3828785 L80.0491991,9.93315888 L82.3105718,9.93315888 L82.3105718,3.55185047 L80.0491991,3.55185047 L80.0491991,5.79857944 L77.9681627,5.79857944 L77.9681627,3.55185047 L75.7060355,3.55185047 L75.7060355,9.93315888 Z"
                                  id="Fill-4" fill="#000000"></path>
                            <polygon id="Fill-6" fill="#FFED00"
                                     points="17.4775364 63.4504673 63.9296182 63.4504673 63.9296182 17.4228037 17.4775364 17.4228037"></polygon>
                            <path d="M40.7041809,46.0579439 L26.4093173,60.2209346 L20.7366445,54.6074766 L35.0337718,40.44 L32.0510536,37.482243 L32.0510536,31.6437383 L29.9798264,29.5891589 L29.9798264,34.6814953 L28.1772173,36.4684112 L20.9290536,29.2841121 L19.1362536,31.0598131 C19.1498355,29.7207477 19.4192082,25.8433645 22.7376991,22.611215 C26.3195264,19.1973832 30.1873264,20.7353271 31.50929,22.0474766 L38.7536809,29.2280374 L36.9065536,31.0568224 L40.7041809,34.8220561 L44.5018082,31.0568224 L42.6546809,29.2280374 L49.8975627,22.0474766 C51.2202809,20.7353271 55.0873264,19.1973832 58.6691536,22.611215 C61.9883991,25.8433645 62.2577718,29.7207477 62.2721082,31.0598131 L60.4793082,29.2841121 L53.2311445,36.4684112 L51.4285355,34.6814953 L51.4285355,29.5891589 L49.3557991,31.6437383 L49.3557991,37.482243 L46.3738355,40.44 L60.6709627,54.6074766 L54.9997991,60.2209346 L40.7041809,46.0579439 Z"
                                  id="Fill-8" fill="#000000"></path>
                        </g>
                    </g>
                    <g id="lab" transform="translate(120.000000, 25.000000)">
                        <g id="Group-5" fill="#FFDC00">
                            <polygon id="Fill-1"
                                     points="0.06438 23.8709586 15.66378 23.8709586 15.66378 18.6691655 5.70418 18.6691655 5.70418 14.5018552 14.21258 14.5018552 14.21258 9.30006207 5.70418 9.30006207 5.70418 5.33364828 15.66378 5.33364828 15.66378 0.131855172 0.06438 0.131855172"></polygon>
                            <polygon id="Fill-3"
                                     points="22.29006 18.6692276 22.29006 0.131917241 16.65006 0.131917241 16.65006 23.8710207 31.92686 23.8710207 31.92686 18.6692276"></polygon>
                        </g>
                        <path d="M5.60325899,63.0844662 L5.60325899,56.7144661 L10.3154921,63.0844662 L5.60325899,63.0844662 Z M15.006233,48.0183929 L15.006233,53.2733242 L20.6703533,53.2733242 L20.6703533,68.3674049 L5.60325899,48 L0,48 L0,72 L5.60325899,72 L5.60325899,67.9836624 L13.9396534,67.9836624 L16.9108108,72 L26.3356788,72 L26.3356788,53.2733242 L32,53.2733242 L32,48.0183929 L15.006233,48.0183929 Z"
                              id="Fill-6" fill="#FFDC00"></path>
                        <polygon id="Fill-8" fill="#EABD00"
                                 points="26.396741 24 26.396741 38.0062577 18.3074074 24 0 24 0 48 15.6680748 48 15.6680748 42.7410384 5.66552635 42.7410384 5.66552635 38.5279286 14.2106168 38.5279286 14.2106168 33.268967 5.66552635 33.268967 5.66552635 29.2589616 15.2354171 29.2589616 26.0592921 48 32 48 32 24"></polygon>
                        <g id="Group-12" transform="translate(0.000000, 72.000000)">
                            <mask id="mask-2" fill="white">
                                <use xlink:href="#path-1"></use>
                            </mask>
                            <g id="Clip-11"></g>
                            <path d="M23.30452,10.0138872 L20.11332,10.0138872 L20.11332,5.25511795 L23.30452,5.25511795 C24.85152,5.25511795 25.75312,6.41245128 25.75312,7.6344 C25.75312,8.85922051 24.85152,10.0138872 23.30452,10.0138872 Z M8.13472,18.8319385 C6.42772,18.8319385 5.03892,17.4075282 5.03892,15.656759 L5.03892,8.40875897 C5.03892,6.65798974 6.42772,5.23337436 8.13472,5.23337436 L11.34992,5.23337436 C13.05672,5.23337436 14.44572,6.65798974 14.44572,8.40875897 L14.44572,15.656759 C14.44572,17.4075282 13.05672,18.8319385 11.34992,18.8319385 L8.13472,18.8319385 Z M27.65592,13.7822974 C29.46012,12.8590154 31.39432,10.8403487 31.39432,7.6344 C31.39432,3.76650256 28.65432,0.0655794872 23.56172,0.0655794872 L8.13472,0.0655794872 C3.64932,0.0655794872 0.00012,3.80834872 0.00012,8.40875897 L0.00012,15.656759 C0.00012,20.2573744 3.64932,24.0001436 8.13472,24.0001436 L20.11332,24.0001436 L20.11332,14.8401436 L22.01472,14.8401436 L26.29292,23.9689641 L32.83552,23.9689641 L27.65592,13.7822974 Z"
                                  id="Fill-10" fill="#EABD00" mask="url(#mask-2)"></path>
                        </g>
                        <g id="Group-46" transform="translate(33.000000, 25.000000)">
                            <g id="Group-15" transform="translate(12.053763, 10.238806)">
                                <mask id="mask-4" fill="white">
                                    <use xlink:href="#path-3"></use>
                                </mask>
                                <g id="Clip-14"></g>
                                <path d="M4.08085269,2.07684776 L0.16521828,2.07684776 L0.16521828,3.5942806 L4.08085269,3.5942806 C5.68482043,3.5942806 6.88508925,2.63810149 6.88508925,0.881623881 C6.88508925,0.602250746 6.84872366,0.36278806 6.79029355,0.153832836 C6.48139032,1.40380299 5.42413226,2.07684776 4.08085269,2.07684776"
                                      id="Fill-13" fill="#F5F5F5" mask="url(#mask-4)"></path>
                            </g>
                            <polygon id="Fill-16" fill="#F5F5F5"
                                     points="9.24683011 10.8113433 5.98169032 10.8113433 4.84945376 12.3156119 2.32449677 12.3156119 0.0984322581 12.3156119 0.0984322581 13.8330448 2.32449677 13.8330448 4.84945376 13.8330448 5.98169032 12.3287761 9.24683011 12.3287761 9.24683011 13.8330448 11.441228 13.8330448 11.441228 12.3156119 9.24683011 12.3156119"></polygon>
                            <path d="M19.0737054,5.72562388 C19.0646302,5.4445791 18.9924608,5.17962388 18.8515792,4.93493731 C18.7733597,5.04672836 18.6795826,5.15099701 18.5737054,5.24690746 C18.7668774,5.38210149 18.9406025,5.53965373 19.0737054,5.72562388"
                                  id="Fill-18" fill="#ECECEB"></path>
                            <path d="M14.4295806,7.15565075 L14.4295806,7.38815075 L15.9197527,7.38815075 C16.0382473,7.38815075 16.137129,7.34015075 16.2264086,7.27015075 C16.137129,7.20265075 16.0382473,7.15565075 15.9197527,7.15565075 L14.4295806,7.15565075 Z"
                                  id="Fill-20" fill="#ECECEB"></path>
                            <g id="Group-24" transform="translate(12.053763, 8.776119)">
                                <mask id="mask-6" fill="white">
                                    <use xlink:href="#path-5"></use>
                                </mask>
                                <g id="Clip-23"></g>
                                <path d="M4.08085269,2.02216418 L0.16521828,2.02216418 L0.16521828,3.53959701 L4.08085269,3.53959701 C5.42413226,3.53959701 6.48139032,2.86655224 6.79029355,1.61658209 C6.85035806,1.37398507 6.88508925,1.11216418 6.88508925,0.826731343 C6.88508925,0.547567164 6.84872366,0.308104478 6.79029355,0.0991492537 C6.48139032,1.3491194 5.42413226,2.02216418 4.08085269,2.02216418"
                                      id="Fill-22" fill="#ECECEB" mask="url(#mask-6)"></path>
                            </g>
                            <polygon id="Fill-25" fill="#ECECEB"
                                     points="9.24683011 10.4427254 9.24683011 9.29388955 5.98169032 9.29388955 4.84945376 10.7983672 2.32449677 10.7983672 0.0984322581 10.7983672 0.0984322581 12.315591 2.32449677 12.315591 4.84945376 12.315591 5.98169032 10.8113224 9.24683011 10.8113224 9.24683011 12.315591 11.441228 12.315591 11.441228 10.7983672 9.24683011 10.7983672"></polygon>
                            <polygon id="Fill-27" fill="#ECECEB"
                                     points="9.24683011 5.89048955 9.24683011 4.95562388 8.5432172 5.89048955"></polygon>
                            <g id="Group-31" transform="translate(12.053763, 7.313433)">
                                <mask id="mask-8" fill="white">
                                    <use xlink:href="#path-7"></use>
                                </mask>
                                <g id="Clip-30"></g>
                                <path d="M6.79023226,0.0444447761 C6.48132903,1.29441493 5.42407097,1.9674597 4.0807914,1.9674597 L0.165156989,1.9674597 L0.165156989,3.48489254 L4.0807914,3.48489254 C5.42407097,3.48489254 6.48132903,2.81184776 6.79023226,1.56187761 C6.85029677,1.31948955 6.88502796,1.0574597 6.88502796,0.772026866 C6.88502796,0.492862687 6.84866237,0.2534 6.79023226,0.0444447761"
                                      id="Fill-29" fill="#E2E2E2" mask="url(#mask-8)"></path>
                            </g>
                            <path d="M15.9197323,5.6382806 L14.4295602,5.6382806 L14.4295602,6.64502687 L14.4295602,6.66362388 L14.4295602,7.15571343 L15.9197323,7.15571343 C16.0382269,7.15571343 16.1371086,7.17535522 16.2263882,7.20356418 C16.5931086,7.08383284 16.7281516,6.75096716 16.7281516,6.43878806 C16.7281516,6.05180299 16.5260978,5.6382806 15.9197323,5.6382806"
                                  id="Fill-32" fill="#E2E2E2"></path>
                            <path d="M17.8268828,4.56544179 C18.0248505,4.69081493 18.3321194,4.88932239 18.5736032,5.24684478 C18.623657,5.15114328 18.6679903,5.04687463 18.7051731,4.93508358 C18.7707538,4.73636716 18.8122269,4.51299403 18.8122269,4.26203881 C18.8122269,3.96051642 18.7760656,3.67800896 18.7051731,3.41765075 C18.496786,4.04639701 18.0383344,4.41833731 17.8268828,4.56544179"
                                  id="Fill-34" fill="#E2E2E2"></path>
                            <path d="M15.8060183,3.61034925 C16.4123839,3.61034925 16.6019753,3.22211045 16.6019753,2.86040896 C16.6019753,2.49849851 16.4123839,2.11151343 15.8060183,2.11151343 L14.4296419,2.11151343 L14.4296419,3.61034925 L15.8060183,3.61034925 Z"
                                  id="Fill-36" fill="#E2E2E2"></path>
                            <polygon id="Fill-38" fill="#E2E2E2"
                                     points="9.24683011 8.92533433 9.24683011 7.9902597 9.24683011 7.77649851 5.98169032 7.77649851 4.84945376 9.28097612 2.32449677 9.28097612 0.0984322581 9.28097612 0.0984322581 10.7982 2.32449677 10.7982 4.84945376 10.7982 5.98169032 9.29393134 9.24683011 9.29393134 9.24683011 10.4427672 9.24683011 10.7982 11.441228 10.7982 11.441228 9.28097612 9.24683011 9.28097612"></polygon>
                            <polygon id="Fill-40" fill="#E2E2E2"
                                     points="7.40115376 5.89048955 8.54319677 5.89048955 9.24680968 4.95562388 9.24680968 3.43819104"></polygon>
                            <path d="M14.4295806,2.11145075 L15.805957,2.11145075 C16.4123226,2.11145075 16.6021183,2.49864478 16.6021183,2.86034627 C16.6021183,3.22204776 16.4123226,3.61028657 15.805957,3.61028657 L14.4295806,3.61028657 L14.4295806,2.11145075 Z M16.2264086,7.20368955 C16.137129,7.23273433 16.0382473,7.25279403 15.9197527,7.25279403 L14.4295806,7.25279403 L14.4295806,7.15562985 L14.4295806,6.6635403 L14.4295806,6.64515224 L14.4295806,5.63819701 L15.9197527,5.63819701 C16.5261183,5.63819701 16.728172,6.0517194 16.728172,6.43870448 C16.728172,6.75109254 16.593129,7.08395821 16.2264086,7.20368955 Z M16.1346774,9.28091343 C17.477957,9.28091343 18.5352151,8.60786866 18.843914,7.35789851 C18.9039785,7.11551045 18.9387097,6.8534806 18.9387097,6.56825672 C18.9387097,6.23664478 18.8892688,5.95957015 18.81,5.7255403 C18.7472796,5.53957015 18.6649462,5.38201791 18.5736237,5.24682388 C18.3321398,4.88930149 18.024871,4.69079403 17.8269032,4.5654209 C18.0383548,4.41831642 18.4968065,4.04637612 18.7051935,3.41762985 C18.7707742,3.21912239 18.8122473,2.9955403 18.8122473,2.74458507 C18.8122473,1.15527164 17.8146452,0.0833313433 15.9448817,0.0833313433 L12.219043,0.0833313433 L12.219043,1.60076418 L12.219043,3.11819701 L12.219043,4.63562985 L12.219043,9.28091343 L16.1346774,9.28091343 Z"
                                  id="Fill-42" fill="#D9D9D9"></path>
                            <path d="M9.24683011,4.95560299 L9.24683011,5.89046866 L8.5432172,5.89046866 L7.40117419,5.89046866 L9.24683011,3.43817015 L9.24683011,4.95560299 Z M9.24683011,0.0833940299 L3.84143226,7.26560299 L2.30896989,7.26560299 L2.30896989,4.63569254 L2.30896989,3.1182597 L2.30896989,1.60082687 L2.30896989,0.0833940299 L0.0984322581,0.0833940299 L0.0984322581,1.60082687 L0.0984322581,3.1182597 L0.0984322581,4.63569254 L0.0984322581,9.28097612 L2.32449677,9.28097612 L4.84945376,9.28097612 L5.98169032,7.77649851 L9.24683011,7.77649851 L9.24683011,7.9902597 L9.24683011,8.92533433 L9.24683011,9.28097612 L11.441228,9.28097612 L11.441228,4.63569254 L11.441228,3.1182597 L11.441228,1.60082687 L11.441228,0.0833940299 L10.7390452,0.0833940299 L9.24683011,0.0833940299 Z"
                                  id="Fill-44" fill="#D9D9D9"></path>
                        </g>
                        <g id="Group-51" transform="translate(33.000000, 24.000000)" fill="#1D1D1B">
                            <path d="M15.9197323,6.8897 L14.4295602,6.8897 L14.4295602,5.3443 L15.9197323,5.3443 C16.5260978,5.3443 16.7281516,5.7399 16.7281516,6.1105 C16.7281516,6.4819 16.5260978,6.8897 15.9197323,6.8897 Z M14.4295602,1.9685 L15.8059366,1.9685 C16.4123022,1.9685 16.6020978,2.3391 16.6020978,2.6855 C16.6020978,3.0317 16.4123022,3.4031 15.8059366,3.4031 L14.4295602,3.4031 L14.4295602,1.9685 Z M17.8268828,4.3173 C18.1051409,4.1321 18.8122269,3.5753 18.8122269,2.5747 C18.8122269,1.0533 17.8146247,0.0275 15.9448613,0.0275 L12.2190226,0.0275 L12.2190226,8.8309 L16.134657,8.8309 C17.7384204,8.8309 18.9386892,7.9155 18.9386892,6.2343 C18.9386892,4.9981 18.1936032,4.5399 17.8268828,4.3173 Z"
                                  id="Fill-47"></path>
                            <path d="M7.40115376,5.5857 L9.24680968,3.2385 L9.24680968,5.5857 L7.40115376,5.5857 Z M9.24680968,0.0275 L3.84141183,6.9019 L2.30894946,6.9019 L2.30894946,0.0275 L0.098411828,0.0275 L0.098411828,8.8309 L2.32447634,8.8309 L4.84943333,8.8309 L5.98166989,7.3909 L9.24680968,7.3909 L9.24680968,8.8309 L11.4412075,8.8309 L11.4412075,0.0275 L10.7390247,0.0275 L9.24680968,0.0275 Z"
                                  id="Fill-49"></path>
                        </g>
                        <path d="M34.4761077,15.4016178 C34.5369244,15.4016178 34.5947003,15.3996502 34.6496525,15.3954963 C34.7037359,15.391561 34.7526064,15.3801924 34.7951781,15.3611718 C34.8375326,15.3425885 34.8716334,15.3137298 34.8968288,15.2748142 C34.9222415,15.2363358 34.9346221,15.1821163 34.9346221,15.1123743 C34.9346221,15.0537822 34.9235447,15.0065588 34.9009557,14.9720157 C34.8781494,14.9370354 34.8488271,14.9101443 34.8132059,14.891561 C34.7771503,14.8731963 34.7356646,14.8600787 34.6891833,14.8533013 C34.6429192,14.8465238 34.5968723,14.8432444 34.5519114,14.8432444 L34.1926586,14.8432444 L34.1926586,15.4016178 L34.4761077,15.4016178 Z M34.5955691,14.6226498 C34.8032146,14.6226498 34.9567767,14.6641889 35.0564726,14.7472672 C35.1563858,14.8299082 35.2059079,14.9558373 35.2059079,15.1243988 C35.2059079,15.2822475 35.1622502,15.3983384 35.0745004,15.4717971 C34.9867507,15.5452558 34.8772806,15.5887626 34.7469592,15.6025361 L35.2460904,16.3771316 L34.9546047,16.3771316 L34.4802346,15.6226498 L34.1926586,15.6226498 L34.1926586,16.3771316 L33.9213727,16.3771316 L33.9213727,14.6226498 L34.5955691,14.6226498 Z M33.3651173,16.0059029 C33.4272372,16.1624399 33.5136838,16.2984259 33.624457,16.4134237 C33.7345786,16.5288588 33.8649001,16.6191517 34.0152042,16.6845212 C34.1655083,16.7498907 34.3281929,16.7829034 34.5036924,16.7829034 C34.67702,16.7829034 34.8375326,16.7498907 34.9867507,16.6845212 C35.1353171,16.6191517 35.2654214,16.5288588 35.375543,16.4134237 C35.4856646,16.2984259 35.5723284,16.1624399 35.6348827,16.0059029 C35.697437,15.849366 35.7287142,15.6783997 35.7287142,15.4940971 C35.7287142,15.3146043 35.697437,15.1473546 35.6348827,14.9916922 C35.5723284,14.8369042 35.4856646,14.7020114 35.375543,14.5883253 C35.2654214,14.4746393 35.1353171,14.3850022 34.9867507,14.3196327 C34.8375326,14.253826 34.67702,14.2212505 34.5036924,14.2212505 C34.3281929,14.2212505 34.1655083,14.253826 34.0152042,14.3196327 C33.8649001,14.3850022 33.7345786,14.4746393 33.624457,14.5883253 C33.5136838,14.7020114 33.4272372,14.8369042 33.3651173,14.9916922 C33.302563,15.1473546 33.2712858,15.3146043 33.2712858,15.4940971 C33.2712858,15.6783997 33.302563,15.849366 33.3651173,16.0059029 Z M33.1194613,14.9038041 C33.199609,14.7214692 33.3077758,14.5636205 33.4448306,14.4298207 C33.5816681,14.2962396 33.7410947,14.1908614 33.9233275,14.1147792 C34.1053432,14.0380411 34.2990877,14 34.5036924,14 C34.7085143,14 34.9013901,14.0380411 35.0821025,14.1147792 C35.2632493,14.1908614 35.4218071,14.2962396 35.5571242,14.4298207 C35.6926586,14.5636205 35.800391,14.7214692 35.8801043,14.9038041 C35.9598175,15.0857018 36,15.2822475 36,15.4940971 C36,15.7107564 35.9598175,15.9108002 35.8801043,16.0942282 C35.800391,16.2778749 35.6926586,16.4368168 35.5571242,16.5719283 C35.4218071,16.7070398 35.2632493,16.812418 35.0821025,16.8869698 C34.9013901,16.9621775 34.7085143,17 34.5036924,17 C34.2990877,17 34.1053432,16.9621775 33.9233275,16.8869698 C33.7410947,16.812418 33.5816681,16.7070398 33.4448306,16.5719283 C33.3077758,16.4368168 33.199609,16.2778749 33.1194613,16.0942282 C33.039748,15.9108002 33,15.7107564 33,15.4940971 C33,15.2822475 33.039748,15.0857018 33.1194613,14.9038041 Z"
                              id="Fill-52" fill="#1D1D1B"></path>
                    </g>
                </g>
            </g>
        </g>
    </g>
</svg>
