<svg width="13px" height="25px" viewBox="0 0 13 25" version="1.1" xmlns="http://www.w3.org/2000/svg"
     xmlns:xlink="http://www.w3.org/1999/xlink">
    <!-- Generator: Sketch 50 (54983) - http://www.bohemiancoding.com/sketch -->
    <desc>Created with Sketch.</desc>
    <defs>
        <polygon id="path-1" points="0 0 13 0 13 25 0 25"></polygon>
    </defs>
    <g id="Page-1" stroke="none" stroke-width="1" fill="none" fill-rule="evenodd">
        <g id="Desktop-HD" transform="translate(-757.000000, -7366.000000)">
            <g id="footer-copy" transform="translate(0.000000, 7280.000000)">
                <g id="Page-1" transform="translate(757.000000, 86.000000)">
                    <mask id="mask-2" fill="white">
                        <use xlink:href="#path-1"></use>
                    </mask>
                    <g id="Clip-2"></g>
                    <path d="M8.43811312,25 L8.43811312,13.5963407 L12.2709656,13.5963407 L12.8449182,9.15199612 L8.43811312,9.15199612 L8.43811312,6.3146008 C8.43811312,5.02803341 8.79574236,4.15093363 10.643357,4.15093363 L13,4.15011633 L13,0.174902333 C12.59245,0.120960492 11.1935768,0 9.56624104,0 C6.16862692,0 3.84267293,2.07103977 3.84267293,5.87475685 L3.84267293,9.15199612 L0,9.15199612 L0,13.5963407 L3.84267293,13.5963407 L3.84267293,25 L8.43811312,25 Z"
                          id="Fill-1" fill="#FEFEFE" mask="url(#mask-2)"></path>
                </g>
            </g>
        </g>
    </g>
</svg>
