<svg width="29px" height="28px" viewBox="0 0 29 28" version="1.1" xmlns="http://www.w3.org/2000/svg"
     xmlns:xlink="http://www.w3.org/1999/xlink">
    <!-- Generator: Sketch 50 (54983) - http://www.bohemiancoding.com/sketch -->
    <desc>Created with Sketch.</desc>
    <defs>
        <polygon id="path-1" points="0 0.00958389262 28.9900738 0.00958389262 28.9900738 28 0 28"></polygon>
    </defs>
    <g id="Page-1" stroke="none" stroke-width="1" fill="none" fill-rule="evenodd">
        <g id="Desktop-HD" transform="translate(-898.000000, -7365.000000)">
            <g id="footer-copy" transform="translate(0.000000, 7280.000000)">
                <g id="Page-1" transform="translate(898.000000, 85.000000)">
                    <g id="Group-3">
                        <mask id="mask-2" fill="white">
                            <use xlink:href="#path-1"></use>
                        </mask>
                        <g id="Clip-2"></g>
                        <path d="M14.4950564,0.00958389262 C10.5582577,0.00958389262 10.0646738,0.0257449664 8.51872081,0.0937718121 C6.97588188,0.161798658 5.92215034,0.398201342 5.00018389,0.744161074 C4.04707651,1.10177181 3.2387745,1.58040268 2.43280805,2.35857718 C1.62703624,3.13656376 1.13150604,3.91699329 0.76112349,4.8372349 C0.402613423,5.72759732 0.157573154,6.74499329 0.0873114094,8.23463087 C0.0166604027,9.72727517 -7.7852349e-05,10.2038389 -7.7852349e-05,14.0048859 C-7.7852349e-05,17.805557 0.0166604027,18.2821208 0.0873114094,19.774953 C0.157573154,21.2645906 0.402613423,22.2819866 0.76112349,23.1721611 C1.13150604,24.0924027 1.62703624,24.8730201 2.43280805,25.6510067 C3.2387745,26.4291812 4.04707651,26.9076242 5.00018389,27.2652349 C5.92215034,27.6111946 6.97588188,27.8479732 8.51872081,27.9158121 C10.0646738,27.9838389 10.5582577,28 14.4950564,28 C18.431855,28 18.9254389,27.9838389 20.4713919,27.9158121 C22.0142309,27.8479732 23.0679624,27.6111946 23.9899289,27.2652349 C24.9430362,26.9076242 25.7513383,26.4291812 26.5573047,25.6510067 C27.3630765,24.8730201 27.8586067,24.0924027 28.2289893,23.1721611 C28.5874993,22.2819866 28.8325396,21.2645906 28.9028013,19.774953 C28.9734523,18.2821208 28.9901906,17.805557 28.9901906,14.0048859 C28.9901906,10.2038389 28.9734523,9.72727517 28.9028013,8.23463087 C28.8325396,6.74499329 28.5874993,5.72759732 28.2289893,4.8372349 C27.8586067,3.91699329 27.3630765,3.13656376 26.5573047,2.35857718 C25.7513383,1.58040268 24.9430362,1.10177181 23.9899289,0.744161074 C23.0679624,0.398201342 22.0142309,0.161798658 20.4713919,0.0937718121 C18.9254389,0.0257449664 18.431855,0.00958389262 14.4950564,0.00958389262 M14.4950564,2.53127517 C18.3654859,2.53127517 18.8238416,2.54536913 20.3522779,2.61283221 C21.7654926,2.67522148 22.5331168,2.90297987 23.0438282,3.09465772 C23.7203651,3.34872483 24.2032443,3.65183893 24.7104523,4.14155705 C25.2176604,4.63146309 25.5317946,5.09750336 25.7949356,5.75089933 C25.9932644,6.244 26.2293517,6.98496644 26.2939691,8.34944966 C26.3634523,9.82518121 26.3784389,10.2679195 26.3784389,14.0048859 C26.3784389,17.7416644 26.3634523,18.1844027 26.2939691,19.6599463 C26.2293517,21.0244295 25.9932644,21.7655839 25.7949356,22.2586846 C25.5317946,22.9120805 25.2176604,23.3781208 24.7104523,23.8680268 C24.2032443,24.357557 23.7203651,24.661047 23.0438282,24.9147383 C22.5331168,25.106604 21.7654926,25.3345503 20.3522779,25.3967517 C18.8240362,25.4640268 18.3656805,25.4783087 14.4950564,25.4783087 C10.6244322,25.4783087 10.1660765,25.4640268 8.6378349,25.3967517 C7.22462013,25.3345503 6.45699597,25.106604 5.94628456,24.9147383 C5.26974765,24.661047 4.78686846,24.357557 4.2796604,23.8680268 C3.77245235,23.3781208 3.45831812,22.9120805 3.19517718,22.2586846 C2.99684832,21.7655839 2.76076107,21.0244295 2.69614362,19.6599463 C2.6266604,18.1844027 2.61167383,17.7416644 2.61167383,14.0048859 C2.61167383,10.2679195 2.6266604,9.82518121 2.69614362,8.34944966 C2.76076107,6.98496644 2.99684832,6.244 3.19517718,5.75089933 C3.45831812,5.09750336 3.77245235,4.63146309 4.2796604,4.14155705 C4.78686846,3.65183893 5.26974765,3.34872483 5.94628456,3.09465772 C6.45699597,2.90297987 7.22462013,2.67522148 8.6378349,2.61283221 C10.1662711,2.54536913 10.6246268,2.53127517 14.4950564,2.53127517"
                              id="Fill-1" fill="#FEFEFE" mask="url(#mask-2)"></path>
                    </g>
                    <path d="M14.0606061,17.981884 C11.5403296,17.981884 9.4970857,16.0092486 9.4970857,13.5758463 C9.4970857,11.1422666 11.5403296,9.16963112 14.0606061,9.16963112 C16.5808826,9.16963112 18.6241264,11.1422666 18.6241264,13.5758463 C18.6241264,16.0092486 16.5808826,17.981884 14.0606061,17.981884 M14.0606061,6.78787879 C10.1779832,6.78787879 7.03030303,9.82688046 7.03030303,13.5758463 C7.03030303,17.3246347 10.1779832,20.3636364 14.0606061,20.3636364 C17.943229,20.3636364 21.0909091,17.3246347 21.0909091,13.5758463 C21.0909091,9.82688046 17.943229,6.78787879 14.0606061,6.78787879"
                          id="Fill-4" fill="#FEFEFE"></path>
                    <path d="M23.7272727,5.93939394 C23.7272727,6.87664832 22.9404247,7.63636364 21.969697,7.63636364 C20.9991659,7.63636364 20.2121212,6.87664832 20.2121212,5.93939394 C20.2121212,5.00213956 20.9991659,4.24242424 21.969697,4.24242424 C22.9404247,4.24242424 23.7272727,5.00213956 23.7272727,5.93939394"
                          id="Fill-6" fill="#FEFEFE"></path>
                </g>
            </g>
        </g>
    </g>
</svg>
