<svg width="33px" height="19px" viewBox="0 0 33 19" version="1.1" xmlns="http://www.w3.org/2000/svg"
     xmlns:xlink="http://www.w3.org/1999/xlink">
    <!-- Generator: Sketch 50 (54983) - http://www.bohemiancoding.com/sketch -->
    <desc>Created with Sketch.</desc>
    <defs>
        <polygon id="path-1" points="0 0 33 0 33 19 0 19"></polygon>
    </defs>
    <g id="Page-1" stroke="none" stroke-width="1" fill="none" fill-rule="evenodd">
        <g id="Desktop-HD" transform="translate(-820.000000, -7369.000000)">
            <g id="footer-copy" transform="translate(0.000000, 7280.000000)">
                <g id="Page-1" transform="translate(820.000000, 89.000000)">
                    <mask id="mask-2" fill="white">
                        <use xlink:href="#path-1"></use>
                    </mask>
                    <g id="Clip-2"></g>
                    <path d="M16.1460542,18.9203852 L18.1183173,18.9203852 C18.1183173,18.9203852 18.71401,18.8541467 19.0185747,18.523302 C19.2985054,18.2194047 19.2895476,17.6489888 19.2895476,17.6489888 C19.2895476,17.6489888 19.2511325,14.9780655 20.4792104,14.5844594 C21.690234,14.1969382 23.245271,17.1658478 24.8931589,18.3078965 C26.1396691,19.1716046 27.086438,18.9824511 27.086438,18.9824511 L31.4936682,18.9203852 C31.4936682,18.9203852 33.7990919,18.7767815 32.7057254,16.9476606 C32.6161475,16.798146 32.0690336,15.5945528 29.4288988,13.1214757 C26.6652499,10.5331332 27.0357921,10.9516004 30.3644705,6.47398345 C32.3915138,3.74725293 33.2020211,2.08259821 32.9487914,1.36996952 C32.7076203,0.690546995 31.2163214,0.869790757 31.2163214,0.869790757 L26.2543976,0.901084527 C26.2543976,0.901084527 25.8864394,0.850492932 25.6135715,1.01513293 C25.3470774,1.17629585 25.1760181,1.55234266 25.1760181,1.55234266 C25.1760181,1.55234266 24.3901448,3.66223819 23.3432898,5.45693591 C21.1338177,9.24313441 20.2500978,9.44358839 19.8890302,9.20836355 C19.048721,8.6598533 19.2587122,7.00719452 19.2587122,5.83246116 C19.2587122,2.16239732 19.810305,0.63265352 18.1846393,0.236439617 C17.6454496,0.105179637 17.248034,0.0186002056 15.8685352,0.00417030041 C14.0979945,-0.0139105446 12.599805,0.00973363734 11.7512272,0.429591722 C11.1868867,0.708280131 10.7512283,1.32998303 11.0166888,1.36579702 C11.3445093,1.40943444 12.0871441,1.56781569 12.4809421,2.10867635 C12.9896409,2.80670128 12.9717253,4.37469303 12.9717253,4.37469303 C12.9717253,4.37469303 13.2640592,8.6944503 12.2893833,9.23096461 C11.620478,9.59884026 10.7031663,8.84761592 8.73314272,5.41208151 C7.72401381,3.6526762 6.9620853,1.70742067 6.9620853,1.70742067 C6.9620853,1.70742067 6.81497091,1.34389138 6.5529557,1.14934844 C6.2351266,0.913602035 5.79085493,0.838844695 5.79085493,0.838844695 L1.07544253,0.869790757 C1.07544253,0.869790757 0.367777526,0.889783999 0.1078295,1.20063545 C-0.12352252,1.47706375 0.0893971354,2.04834892 0.0893971354,2.04834892 C0.0893971354,2.04834892 3.78052129,10.7645332 7.96053378,15.1571354 C11.7939489,19.1846437 16.1460542,18.9203852 16.1460542,18.9203852"
                          id="Fill-1" fill="#FEFEFE" mask="url(#mask-2)"></path>
                </g>
            </g>
        </g>
    </g>
</svg>
